G04 #@! TF.GenerationSoftware,KiCad,Pcbnew,5.0.2-bee76a0~70~ubuntu18.04.1*
G04 #@! TF.CreationDate,2019-04-12T02:47:20+03:00*
G04 #@! TF.ProjectId,CiiVIi_Dongle_Production_PCB,43696956-4969-45f4-946f-6e676c655f50,rev?*
G04 #@! TF.SameCoordinates,Original*
G04 #@! TF.FileFunction,Copper,L2,Bot*
G04 #@! TF.FilePolarity,Positive*
%FSLAX46Y46*%
G04 Gerber Fmt 4.6, Leading zero omitted, Abs format (unit mm)*
G04 Created by KiCad (PCBNEW 5.0.2-bee76a0~70~ubuntu18.04.1) date pe 12. huhtikuuta 2019 02.47.20*
%MOMM*%
%LPD*%
G01*
G04 APERTURE LIST*
G04 #@! TA.AperFunction,EtchedComponent*
%ADD10C,0.010000*%
G04 #@! TD*
G04 #@! TA.AperFunction,ComponentPad*
%ADD11C,0.959988*%
G04 #@! TD*
G04 APERTURE END LIST*
D10*
G04 #@! TO.C,G\002A\002A\002A*
G36*
X-7416295Y14452693D02*
X-7164684Y14343702D01*
X-6950712Y14159589D01*
X-6949427Y14158132D01*
X-6786816Y13915722D01*
X-6702454Y13654818D01*
X-6696496Y13387539D01*
X-6769097Y13126003D01*
X-6920414Y12882330D01*
X-6932846Y12867553D01*
X-7150359Y12671486D01*
X-7395897Y12552403D01*
X-7660628Y12511062D01*
X-7935720Y12548224D01*
X-8212342Y12664648D01*
X-8339755Y12746523D01*
X-8369304Y12749334D01*
X-8427124Y12730883D01*
X-8518747Y12688003D01*
X-8649705Y12617530D01*
X-8825531Y12516297D01*
X-9051758Y12381137D01*
X-9333917Y12208885D01*
X-9677542Y11996375D01*
X-9982490Y11806444D01*
X-11561637Y10820729D01*
X-11539668Y10670281D01*
X-11533579Y10610808D01*
X-11520881Y10471897D01*
X-11501994Y10258487D01*
X-11477341Y9975514D01*
X-11447340Y9627916D01*
X-11412413Y9220629D01*
X-11372982Y8758592D01*
X-11329465Y8246741D01*
X-11282285Y7690014D01*
X-11231862Y7093348D01*
X-11178617Y6461680D01*
X-11122970Y5799947D01*
X-11065343Y5113087D01*
X-11023578Y4614333D01*
X-10529458Y-1291167D01*
X-11306320Y-3534833D01*
X-10356261Y-5221949D01*
X-10160790Y-5568445D01*
X-9977328Y-5892457D01*
X-9810177Y-6186473D01*
X-9663640Y-6442980D01*
X-9542018Y-6654466D01*
X-9449615Y-6813418D01*
X-9390733Y-6912324D01*
X-9370351Y-6943478D01*
X-9322527Y-6939277D01*
X-9205240Y-6910339D01*
X-9028975Y-6859805D01*
X-8804213Y-6790817D01*
X-8541440Y-6706515D01*
X-8251137Y-6610041D01*
X-8202084Y-6593430D01*
X-7069667Y-6208969D01*
X-7069415Y-6072175D01*
X-6521681Y-6072175D01*
X-6480568Y-6243258D01*
X-6428820Y-6326651D01*
X-6291452Y-6458133D01*
X-6143327Y-6508397D01*
X-5972088Y-6480270D01*
X-5896107Y-6448538D01*
X-5750260Y-6338217D01*
X-5667066Y-6188070D01*
X-5649850Y-6018678D01*
X-5701939Y-5850620D01*
X-5782222Y-5743991D01*
X-5939546Y-5639408D01*
X-6115991Y-5616277D01*
X-6249207Y-5650877D01*
X-6400298Y-5754527D01*
X-6493024Y-5902112D01*
X-6521681Y-6072175D01*
X-7069415Y-6072175D01*
X-7069270Y-5993734D01*
X-7049008Y-5806405D01*
X-6980137Y-5626997D01*
X-6946295Y-5564796D01*
X-6777418Y-5342513D01*
X-6573507Y-5187418D01*
X-6346454Y-5096223D01*
X-6108150Y-5065644D01*
X-5870486Y-5092394D01*
X-5645352Y-5173187D01*
X-5444639Y-5304736D01*
X-5280240Y-5483756D01*
X-5164045Y-5706961D01*
X-5107945Y-5971064D01*
X-5104723Y-6073720D01*
X-5147210Y-6360641D01*
X-5262604Y-6608434D01*
X-5445527Y-6810220D01*
X-5690601Y-6959118D01*
X-5838672Y-7012734D01*
X-6114720Y-7050927D01*
X-6388817Y-7007198D01*
X-6648561Y-6883642D01*
X-6664127Y-6873255D01*
X-6824903Y-6764005D01*
X-8034056Y-7171051D01*
X-8337316Y-7273479D01*
X-8613781Y-7367507D01*
X-8853483Y-7449693D01*
X-9046457Y-7516596D01*
X-9182734Y-7564774D01*
X-9252350Y-7590787D01*
X-9259205Y-7594094D01*
X-9264111Y-7637754D01*
X-9272737Y-7756944D01*
X-9284603Y-7942632D01*
X-9299227Y-8185784D01*
X-9316130Y-8477369D01*
X-9334829Y-8808354D01*
X-9354844Y-9169706D01*
X-9375694Y-9552393D01*
X-9396897Y-9947382D01*
X-9417974Y-10345642D01*
X-9438442Y-10738139D01*
X-9457822Y-11115840D01*
X-9475631Y-11469714D01*
X-9491389Y-11790729D01*
X-9504616Y-12069850D01*
X-9514829Y-12298047D01*
X-9521548Y-12466286D01*
X-9524293Y-12565534D01*
X-9524332Y-12573000D01*
X-9518048Y-12694272D01*
X-9485424Y-12768435D01*
X-9405844Y-12830353D01*
X-9354226Y-12860656D01*
X-9154033Y-13020463D01*
X-8995388Y-13238655D01*
X-8894016Y-13492982D01*
X-8887224Y-13521371D01*
X-8861461Y-13672418D01*
X-8864786Y-13802003D01*
X-8899257Y-13955909D01*
X-8908178Y-13987150D01*
X-9004815Y-14205908D01*
X-9152682Y-14404692D01*
X-9331683Y-14561054D01*
X-9497271Y-14645167D01*
X-9595877Y-14684421D01*
X-9648167Y-14718347D01*
X-9650763Y-14724700D01*
X-9653506Y-14769488D01*
X-9661810Y-14894040D01*
X-9675351Y-15093658D01*
X-9693803Y-15363645D01*
X-9716843Y-15699302D01*
X-9744146Y-16095931D01*
X-9775389Y-16548835D01*
X-9810245Y-17053316D01*
X-9848392Y-17604675D01*
X-9889505Y-18198215D01*
X-9933259Y-18829239D01*
X-9979330Y-19493047D01*
X-10027394Y-20184943D01*
X-10077126Y-20900229D01*
X-10080262Y-20945306D01*
X-10129889Y-21661909D01*
X-10177486Y-22355445D01*
X-10222751Y-23021213D01*
X-10265381Y-23654515D01*
X-10305076Y-24250651D01*
X-10341532Y-24804920D01*
X-10374448Y-25312624D01*
X-10403522Y-25769061D01*
X-10428452Y-26169533D01*
X-10448935Y-26509340D01*
X-10464670Y-26783782D01*
X-10475356Y-26988159D01*
X-10480688Y-27117772D01*
X-10480367Y-27167920D01*
X-10480154Y-27168306D01*
X-10433827Y-27173470D01*
X-10309524Y-27178678D01*
X-10113935Y-27183839D01*
X-9853753Y-27188863D01*
X-9535666Y-27193659D01*
X-9166367Y-27198136D01*
X-8752545Y-27202205D01*
X-8300891Y-27205773D01*
X-7818097Y-27208751D01*
X-7330738Y-27210973D01*
X-6941752Y-27212491D01*
X-6475022Y-27214392D01*
X-5937473Y-27216643D01*
X-5336027Y-27219215D01*
X-4677607Y-27222075D01*
X-3969136Y-27225194D01*
X-3217536Y-27228539D01*
X-2429731Y-27232080D01*
X-1612644Y-27235786D01*
X-773197Y-27239625D01*
X81686Y-27243567D01*
X945083Y-27247580D01*
X1810071Y-27251633D01*
X2669727Y-27255695D01*
X3344333Y-27258909D01*
X4137593Y-27262648D01*
X4907906Y-27266175D01*
X5651022Y-27269473D01*
X6362691Y-27272530D01*
X7038662Y-27275328D01*
X7674684Y-27277854D01*
X8266509Y-27280093D01*
X8809885Y-27282030D01*
X9300561Y-27283650D01*
X9734288Y-27284937D01*
X10106816Y-27285878D01*
X10413893Y-27286458D01*
X10651270Y-27286660D01*
X10814696Y-27286472D01*
X10899921Y-27285877D01*
X10911923Y-27285401D01*
X10908711Y-27242879D01*
X10895828Y-27123130D01*
X10874086Y-26932938D01*
X10844298Y-26679093D01*
X10807276Y-26368380D01*
X10763830Y-26007586D01*
X10714773Y-25603499D01*
X10660918Y-25162905D01*
X10603074Y-24692591D01*
X10562673Y-24365690D01*
X10502446Y-23879050D01*
X10445371Y-23417414D01*
X10392289Y-22987594D01*
X10344038Y-22596402D01*
X10301455Y-22250651D01*
X10265380Y-21957153D01*
X10236652Y-21722719D01*
X10216108Y-21554163D01*
X10204587Y-21458297D01*
X10202333Y-21438142D01*
X10166017Y-21424957D01*
X10097213Y-21420667D01*
X10024699Y-21437645D01*
X9960916Y-21500070D01*
X9888465Y-21625177D01*
X9886163Y-21629708D01*
X9730239Y-21854297D01*
X9530681Y-22017126D01*
X9301148Y-22118771D01*
X9055303Y-22159808D01*
X8806805Y-22140811D01*
X8569314Y-22062358D01*
X8356493Y-21925022D01*
X8182000Y-21729381D01*
X8088267Y-21553946D01*
X8048903Y-21472607D01*
X8000783Y-21433970D01*
X7915854Y-21424968D01*
X7820481Y-21429244D01*
X7609563Y-21441833D01*
X6615403Y-24151167D01*
X4960085Y-24174099D01*
X4829506Y-24405473D01*
X4659848Y-24629758D01*
X4449901Y-24788822D01*
X4213161Y-24882832D01*
X3963126Y-24911952D01*
X3713290Y-24876351D01*
X3477151Y-24776194D01*
X3268205Y-24611649D01*
X3100647Y-24384149D01*
X2984500Y-24173553D01*
X2720777Y-24172943D01*
X2575665Y-24174718D01*
X2489544Y-24188739D01*
X2436737Y-24226778D01*
X2391568Y-24300608D01*
X2375880Y-24331083D01*
X2208556Y-24576893D01*
X1996279Y-24759170D01*
X1750490Y-24872632D01*
X1482631Y-24911993D01*
X1204418Y-24872049D01*
X934413Y-24754039D01*
X723700Y-24577801D01*
X577411Y-24350185D01*
X500678Y-24078043D01*
X489964Y-23918333D01*
X1016000Y-23918333D01*
X1052552Y-24073609D01*
X1146647Y-24218659D01*
X1274946Y-24318236D01*
X1283322Y-24322038D01*
X1393321Y-24366575D01*
X1468880Y-24377297D01*
X1553017Y-24354570D01*
X1625660Y-24324972D01*
X1781797Y-24221575D01*
X1875388Y-24080662D01*
X1907225Y-23920897D01*
X1905620Y-23912078D01*
X3529866Y-23912078D01*
X3553430Y-24071340D01*
X3632340Y-24204050D01*
X3752086Y-24300523D01*
X3898161Y-24351074D01*
X4056056Y-24346021D01*
X4211263Y-24275680D01*
X4286250Y-24209918D01*
X4375475Y-24080186D01*
X4402602Y-23928256D01*
X4402666Y-23918333D01*
X4368270Y-23739355D01*
X4276865Y-23604162D01*
X4146124Y-23516654D01*
X3993722Y-23480733D01*
X3837332Y-23500297D01*
X3694630Y-23579247D01*
X3583288Y-23721483D01*
X3576154Y-23735946D01*
X3529866Y-23912078D01*
X1905620Y-23912078D01*
X1878103Y-23760950D01*
X1788812Y-23619487D01*
X1640145Y-23515174D01*
X1590468Y-23495979D01*
X1418896Y-23479620D01*
X1256401Y-23532899D01*
X1122540Y-23641436D01*
X1036871Y-23790853D01*
X1016000Y-23918333D01*
X489964Y-23918333D01*
X527810Y-23625397D01*
X637928Y-23373363D01*
X815184Y-23169081D01*
X1054449Y-23019401D01*
X1204418Y-22964617D01*
X1479366Y-22926401D01*
X1748253Y-22966421D01*
X1995458Y-23078788D01*
X2205359Y-23257611D01*
X2295190Y-23375849D01*
X2427259Y-23579667D01*
X2727046Y-23579552D01*
X3026833Y-23579438D01*
X3111500Y-23422434D01*
X3250285Y-23240903D01*
X3445316Y-23085443D01*
X3668360Y-22976482D01*
X3765846Y-22949012D01*
X4032825Y-22928986D01*
X4291772Y-22977536D01*
X4524611Y-23087125D01*
X4713265Y-23250216D01*
X4803876Y-23381798D01*
X4887586Y-23537333D01*
X6203408Y-23537333D01*
X7037171Y-21256215D01*
X8575098Y-21256215D01*
X8613826Y-21376386D01*
X8729138Y-21518709D01*
X8881798Y-21596784D01*
X9051237Y-21608117D01*
X9216883Y-21550215D01*
X9323916Y-21462437D01*
X9417714Y-21307100D01*
X9439938Y-21143210D01*
X9399983Y-20986957D01*
X9307245Y-20854531D01*
X9171120Y-20762122D01*
X9001004Y-20725919D01*
X8901621Y-20734797D01*
X8754777Y-20802109D01*
X8644504Y-20926840D01*
X8581160Y-21085904D01*
X8575098Y-21256215D01*
X7037171Y-21256215D01*
X7185950Y-20849167D01*
X7626904Y-20837241D01*
X8067858Y-20825316D01*
X8148746Y-20675115D01*
X8306642Y-20463316D01*
X8510465Y-20310712D01*
X8745194Y-20217732D01*
X8995806Y-20184807D01*
X9247278Y-20212364D01*
X9484588Y-20300834D01*
X9692713Y-20450646D01*
X9835689Y-20626917D01*
X9960988Y-20828000D01*
X10731787Y-20828000D01*
X11149869Y-24204083D01*
X11215410Y-24733178D01*
X11278320Y-25240723D01*
X11337768Y-25720042D01*
X11392927Y-26164463D01*
X11442965Y-26567311D01*
X11487053Y-26921912D01*
X11524363Y-27221592D01*
X11554064Y-27459678D01*
X11575327Y-27629494D01*
X11587323Y-27724368D01*
X11589216Y-27738917D01*
X11610481Y-27897667D01*
X9562323Y-27889206D01*
X9246216Y-27887844D01*
X8853641Y-27886062D01*
X8392797Y-27883898D01*
X7871883Y-27881395D01*
X7299096Y-27878594D01*
X6682636Y-27875535D01*
X6030700Y-27872259D01*
X5351487Y-27868808D01*
X4653195Y-27865222D01*
X3944022Y-27861543D01*
X3232167Y-27857811D01*
X2525828Y-27854068D01*
X2328333Y-27853014D01*
X1567394Y-27849099D01*
X759687Y-27845230D01*
X-82465Y-27841451D01*
X-946740Y-27837806D01*
X-1820816Y-27834342D01*
X-2692371Y-27831101D01*
X-3549082Y-27828130D01*
X-4378627Y-27825473D01*
X-5168685Y-27823175D01*
X-5906932Y-27821280D01*
X-6581046Y-27819834D01*
X-6988528Y-27819141D01*
X-7572506Y-27818085D01*
X-8132262Y-27816707D01*
X-8662026Y-27815042D01*
X-9156023Y-27813123D01*
X-9608483Y-27810986D01*
X-10013634Y-27808666D01*
X-10365702Y-27806197D01*
X-10658916Y-27803613D01*
X-10887504Y-27800949D01*
X-11045693Y-27798241D01*
X-11127712Y-27795522D01*
X-11138311Y-27794245D01*
X-11137179Y-27751076D01*
X-11130469Y-27628439D01*
X-11118521Y-27431324D01*
X-11101675Y-27164722D01*
X-11080272Y-26833625D01*
X-11054652Y-26443023D01*
X-11025155Y-25997907D01*
X-10992122Y-25503269D01*
X-10955893Y-24964099D01*
X-10916809Y-24385388D01*
X-10875209Y-23772127D01*
X-10831435Y-23129308D01*
X-10785826Y-22461921D01*
X-10738723Y-21774956D01*
X-10690466Y-21073406D01*
X-10641397Y-20362261D01*
X-10591854Y-19646512D01*
X-10542178Y-18931150D01*
X-10492711Y-18221166D01*
X-10443791Y-17521551D01*
X-10395760Y-16837296D01*
X-10348957Y-16173392D01*
X-10303724Y-15534829D01*
X-10269176Y-15049500D01*
X-10241990Y-14668500D01*
X-10442361Y-14520333D01*
X-10643801Y-14322045D01*
X-10779685Y-14082287D01*
X-10846022Y-13817085D01*
X-10844234Y-13748857D01*
X-10294304Y-13748857D01*
X-10251049Y-13908513D01*
X-10146679Y-14044536D01*
X-9987918Y-14141146D01*
X-9848898Y-14176756D01*
X-9789976Y-14163289D01*
X-9691461Y-14123812D01*
X-9672253Y-14114895D01*
X-9538033Y-14011495D01*
X-9446044Y-13863529D01*
X-9411824Y-13700588D01*
X-9418925Y-13632436D01*
X-9492737Y-13465469D01*
X-9617374Y-13349089D01*
X-9773101Y-13288825D01*
X-9940185Y-13290209D01*
X-10098890Y-13358773D01*
X-10170584Y-13421755D01*
X-10269724Y-13581345D01*
X-10294304Y-13748857D01*
X-10844234Y-13748857D01*
X-10838822Y-13542464D01*
X-10754093Y-13274452D01*
X-10753099Y-13272392D01*
X-10650408Y-13111192D01*
X-10513249Y-12962560D01*
X-10365928Y-12849553D01*
X-10254882Y-12799719D01*
X-10172118Y-12744918D01*
X-10141345Y-12684735D01*
X-10136130Y-12627351D01*
X-10127228Y-12492901D01*
X-10115048Y-12288885D01*
X-10099998Y-12022804D01*
X-10082488Y-11702158D01*
X-10062925Y-11334450D01*
X-10041719Y-10927178D01*
X-10019278Y-10487845D01*
X-9996012Y-10023952D01*
X-9992713Y-9957487D01*
X-9861999Y-7320807D01*
X-10900000Y-5476355D01*
X-11103711Y-5113283D01*
X-11294186Y-4771691D01*
X-11467463Y-4458832D01*
X-11619580Y-4181960D01*
X-11746575Y-3948329D01*
X-11844488Y-3765191D01*
X-11909355Y-3639801D01*
X-11937217Y-3579412D01*
X-11938000Y-3575835D01*
X-11924609Y-3522775D01*
X-11886762Y-3400377D01*
X-11827953Y-3219225D01*
X-11751672Y-2989902D01*
X-11661414Y-2722991D01*
X-11560668Y-2429075D01*
X-11536971Y-2360473D01*
X-11135941Y-1201180D01*
X-11641189Y4786327D01*
X-11700842Y5493551D01*
X-11758662Y6179599D01*
X-11814234Y6839532D01*
X-11867144Y7468411D01*
X-11916979Y8061298D01*
X-11963324Y8613254D01*
X-12005765Y9119340D01*
X-12043889Y9574618D01*
X-12077282Y9974148D01*
X-12105528Y10312993D01*
X-12128216Y10586214D01*
X-12144931Y10788871D01*
X-12155258Y10916026D01*
X-12158635Y10959956D01*
X-12170834Y11146079D01*
X-10435167Y12231355D01*
X-8699500Y13316630D01*
X-8681135Y13504333D01*
X-8128000Y13504333D01*
X-8090025Y13318201D01*
X-7979610Y13173583D01*
X-7857986Y13099496D01*
X-7749994Y13055816D01*
X-7675065Y13045417D01*
X-7590788Y13068218D01*
X-7515619Y13098832D01*
X-7376338Y13197981D01*
X-7276958Y13346764D01*
X-7239159Y13512717D01*
X-7239159Y13512815D01*
X-7277574Y13670141D01*
X-7377453Y13811345D01*
X-7516503Y13907913D01*
X-7560034Y13923240D01*
X-7749472Y13937891D01*
X-7916222Y13881867D01*
X-8044150Y13767068D01*
X-8117123Y13605394D01*
X-8128000Y13504333D01*
X-8681135Y13504333D01*
X-8674785Y13569232D01*
X-8631270Y13813131D01*
X-8546062Y14006664D01*
X-8405285Y14179431D01*
X-8375029Y14208677D01*
X-8163943Y14371451D01*
X-7945495Y14461191D01*
X-7708657Y14487912D01*
X-7416295Y14452693D01*
X-7416295Y14452693D01*
G37*
X-7416295Y14452693D02*
X-7164684Y14343702D01*
X-6950712Y14159589D01*
X-6949427Y14158132D01*
X-6786816Y13915722D01*
X-6702454Y13654818D01*
X-6696496Y13387539D01*
X-6769097Y13126003D01*
X-6920414Y12882330D01*
X-6932846Y12867553D01*
X-7150359Y12671486D01*
X-7395897Y12552403D01*
X-7660628Y12511062D01*
X-7935720Y12548224D01*
X-8212342Y12664648D01*
X-8339755Y12746523D01*
X-8369304Y12749334D01*
X-8427124Y12730883D01*
X-8518747Y12688003D01*
X-8649705Y12617530D01*
X-8825531Y12516297D01*
X-9051758Y12381137D01*
X-9333917Y12208885D01*
X-9677542Y11996375D01*
X-9982490Y11806444D01*
X-11561637Y10820729D01*
X-11539668Y10670281D01*
X-11533579Y10610808D01*
X-11520881Y10471897D01*
X-11501994Y10258487D01*
X-11477341Y9975514D01*
X-11447340Y9627916D01*
X-11412413Y9220629D01*
X-11372982Y8758592D01*
X-11329465Y8246741D01*
X-11282285Y7690014D01*
X-11231862Y7093348D01*
X-11178617Y6461680D01*
X-11122970Y5799947D01*
X-11065343Y5113087D01*
X-11023578Y4614333D01*
X-10529458Y-1291167D01*
X-11306320Y-3534833D01*
X-10356261Y-5221949D01*
X-10160790Y-5568445D01*
X-9977328Y-5892457D01*
X-9810177Y-6186473D01*
X-9663640Y-6442980D01*
X-9542018Y-6654466D01*
X-9449615Y-6813418D01*
X-9390733Y-6912324D01*
X-9370351Y-6943478D01*
X-9322527Y-6939277D01*
X-9205240Y-6910339D01*
X-9028975Y-6859805D01*
X-8804213Y-6790817D01*
X-8541440Y-6706515D01*
X-8251137Y-6610041D01*
X-8202084Y-6593430D01*
X-7069667Y-6208969D01*
X-7069415Y-6072175D01*
X-6521681Y-6072175D01*
X-6480568Y-6243258D01*
X-6428820Y-6326651D01*
X-6291452Y-6458133D01*
X-6143327Y-6508397D01*
X-5972088Y-6480270D01*
X-5896107Y-6448538D01*
X-5750260Y-6338217D01*
X-5667066Y-6188070D01*
X-5649850Y-6018678D01*
X-5701939Y-5850620D01*
X-5782222Y-5743991D01*
X-5939546Y-5639408D01*
X-6115991Y-5616277D01*
X-6249207Y-5650877D01*
X-6400298Y-5754527D01*
X-6493024Y-5902112D01*
X-6521681Y-6072175D01*
X-7069415Y-6072175D01*
X-7069270Y-5993734D01*
X-7049008Y-5806405D01*
X-6980137Y-5626997D01*
X-6946295Y-5564796D01*
X-6777418Y-5342513D01*
X-6573507Y-5187418D01*
X-6346454Y-5096223D01*
X-6108150Y-5065644D01*
X-5870486Y-5092394D01*
X-5645352Y-5173187D01*
X-5444639Y-5304736D01*
X-5280240Y-5483756D01*
X-5164045Y-5706961D01*
X-5107945Y-5971064D01*
X-5104723Y-6073720D01*
X-5147210Y-6360641D01*
X-5262604Y-6608434D01*
X-5445527Y-6810220D01*
X-5690601Y-6959118D01*
X-5838672Y-7012734D01*
X-6114720Y-7050927D01*
X-6388817Y-7007198D01*
X-6648561Y-6883642D01*
X-6664127Y-6873255D01*
X-6824903Y-6764005D01*
X-8034056Y-7171051D01*
X-8337316Y-7273479D01*
X-8613781Y-7367507D01*
X-8853483Y-7449693D01*
X-9046457Y-7516596D01*
X-9182734Y-7564774D01*
X-9252350Y-7590787D01*
X-9259205Y-7594094D01*
X-9264111Y-7637754D01*
X-9272737Y-7756944D01*
X-9284603Y-7942632D01*
X-9299227Y-8185784D01*
X-9316130Y-8477369D01*
X-9334829Y-8808354D01*
X-9354844Y-9169706D01*
X-9375694Y-9552393D01*
X-9396897Y-9947382D01*
X-9417974Y-10345642D01*
X-9438442Y-10738139D01*
X-9457822Y-11115840D01*
X-9475631Y-11469714D01*
X-9491389Y-11790729D01*
X-9504616Y-12069850D01*
X-9514829Y-12298047D01*
X-9521548Y-12466286D01*
X-9524293Y-12565534D01*
X-9524332Y-12573000D01*
X-9518048Y-12694272D01*
X-9485424Y-12768435D01*
X-9405844Y-12830353D01*
X-9354226Y-12860656D01*
X-9154033Y-13020463D01*
X-8995388Y-13238655D01*
X-8894016Y-13492982D01*
X-8887224Y-13521371D01*
X-8861461Y-13672418D01*
X-8864786Y-13802003D01*
X-8899257Y-13955909D01*
X-8908178Y-13987150D01*
X-9004815Y-14205908D01*
X-9152682Y-14404692D01*
X-9331683Y-14561054D01*
X-9497271Y-14645167D01*
X-9595877Y-14684421D01*
X-9648167Y-14718347D01*
X-9650763Y-14724700D01*
X-9653506Y-14769488D01*
X-9661810Y-14894040D01*
X-9675351Y-15093658D01*
X-9693803Y-15363645D01*
X-9716843Y-15699302D01*
X-9744146Y-16095931D01*
X-9775389Y-16548835D01*
X-9810245Y-17053316D01*
X-9848392Y-17604675D01*
X-9889505Y-18198215D01*
X-9933259Y-18829239D01*
X-9979330Y-19493047D01*
X-10027394Y-20184943D01*
X-10077126Y-20900229D01*
X-10080262Y-20945306D01*
X-10129889Y-21661909D01*
X-10177486Y-22355445D01*
X-10222751Y-23021213D01*
X-10265381Y-23654515D01*
X-10305076Y-24250651D01*
X-10341532Y-24804920D01*
X-10374448Y-25312624D01*
X-10403522Y-25769061D01*
X-10428452Y-26169533D01*
X-10448935Y-26509340D01*
X-10464670Y-26783782D01*
X-10475356Y-26988159D01*
X-10480688Y-27117772D01*
X-10480367Y-27167920D01*
X-10480154Y-27168306D01*
X-10433827Y-27173470D01*
X-10309524Y-27178678D01*
X-10113935Y-27183839D01*
X-9853753Y-27188863D01*
X-9535666Y-27193659D01*
X-9166367Y-27198136D01*
X-8752545Y-27202205D01*
X-8300891Y-27205773D01*
X-7818097Y-27208751D01*
X-7330738Y-27210973D01*
X-6941752Y-27212491D01*
X-6475022Y-27214392D01*
X-5937473Y-27216643D01*
X-5336027Y-27219215D01*
X-4677607Y-27222075D01*
X-3969136Y-27225194D01*
X-3217536Y-27228539D01*
X-2429731Y-27232080D01*
X-1612644Y-27235786D01*
X-773197Y-27239625D01*
X81686Y-27243567D01*
X945083Y-27247580D01*
X1810071Y-27251633D01*
X2669727Y-27255695D01*
X3344333Y-27258909D01*
X4137593Y-27262648D01*
X4907906Y-27266175D01*
X5651022Y-27269473D01*
X6362691Y-27272530D01*
X7038662Y-27275328D01*
X7674684Y-27277854D01*
X8266509Y-27280093D01*
X8809885Y-27282030D01*
X9300561Y-27283650D01*
X9734288Y-27284937D01*
X10106816Y-27285878D01*
X10413893Y-27286458D01*
X10651270Y-27286660D01*
X10814696Y-27286472D01*
X10899921Y-27285877D01*
X10911923Y-27285401D01*
X10908711Y-27242879D01*
X10895828Y-27123130D01*
X10874086Y-26932938D01*
X10844298Y-26679093D01*
X10807276Y-26368380D01*
X10763830Y-26007586D01*
X10714773Y-25603499D01*
X10660918Y-25162905D01*
X10603074Y-24692591D01*
X10562673Y-24365690D01*
X10502446Y-23879050D01*
X10445371Y-23417414D01*
X10392289Y-22987594D01*
X10344038Y-22596402D01*
X10301455Y-22250651D01*
X10265380Y-21957153D01*
X10236652Y-21722719D01*
X10216108Y-21554163D01*
X10204587Y-21458297D01*
X10202333Y-21438142D01*
X10166017Y-21424957D01*
X10097213Y-21420667D01*
X10024699Y-21437645D01*
X9960916Y-21500070D01*
X9888465Y-21625177D01*
X9886163Y-21629708D01*
X9730239Y-21854297D01*
X9530681Y-22017126D01*
X9301148Y-22118771D01*
X9055303Y-22159808D01*
X8806805Y-22140811D01*
X8569314Y-22062358D01*
X8356493Y-21925022D01*
X8182000Y-21729381D01*
X8088267Y-21553946D01*
X8048903Y-21472607D01*
X8000783Y-21433970D01*
X7915854Y-21424968D01*
X7820481Y-21429244D01*
X7609563Y-21441833D01*
X6615403Y-24151167D01*
X4960085Y-24174099D01*
X4829506Y-24405473D01*
X4659848Y-24629758D01*
X4449901Y-24788822D01*
X4213161Y-24882832D01*
X3963126Y-24911952D01*
X3713290Y-24876351D01*
X3477151Y-24776194D01*
X3268205Y-24611649D01*
X3100647Y-24384149D01*
X2984500Y-24173553D01*
X2720777Y-24172943D01*
X2575665Y-24174718D01*
X2489544Y-24188739D01*
X2436737Y-24226778D01*
X2391568Y-24300608D01*
X2375880Y-24331083D01*
X2208556Y-24576893D01*
X1996279Y-24759170D01*
X1750490Y-24872632D01*
X1482631Y-24911993D01*
X1204418Y-24872049D01*
X934413Y-24754039D01*
X723700Y-24577801D01*
X577411Y-24350185D01*
X500678Y-24078043D01*
X489964Y-23918333D01*
X1016000Y-23918333D01*
X1052552Y-24073609D01*
X1146647Y-24218659D01*
X1274946Y-24318236D01*
X1283322Y-24322038D01*
X1393321Y-24366575D01*
X1468880Y-24377297D01*
X1553017Y-24354570D01*
X1625660Y-24324972D01*
X1781797Y-24221575D01*
X1875388Y-24080662D01*
X1907225Y-23920897D01*
X1905620Y-23912078D01*
X3529866Y-23912078D01*
X3553430Y-24071340D01*
X3632340Y-24204050D01*
X3752086Y-24300523D01*
X3898161Y-24351074D01*
X4056056Y-24346021D01*
X4211263Y-24275680D01*
X4286250Y-24209918D01*
X4375475Y-24080186D01*
X4402602Y-23928256D01*
X4402666Y-23918333D01*
X4368270Y-23739355D01*
X4276865Y-23604162D01*
X4146124Y-23516654D01*
X3993722Y-23480733D01*
X3837332Y-23500297D01*
X3694630Y-23579247D01*
X3583288Y-23721483D01*
X3576154Y-23735946D01*
X3529866Y-23912078D01*
X1905620Y-23912078D01*
X1878103Y-23760950D01*
X1788812Y-23619487D01*
X1640145Y-23515174D01*
X1590468Y-23495979D01*
X1418896Y-23479620D01*
X1256401Y-23532899D01*
X1122540Y-23641436D01*
X1036871Y-23790853D01*
X1016000Y-23918333D01*
X489964Y-23918333D01*
X527810Y-23625397D01*
X637928Y-23373363D01*
X815184Y-23169081D01*
X1054449Y-23019401D01*
X1204418Y-22964617D01*
X1479366Y-22926401D01*
X1748253Y-22966421D01*
X1995458Y-23078788D01*
X2205359Y-23257611D01*
X2295190Y-23375849D01*
X2427259Y-23579667D01*
X2727046Y-23579552D01*
X3026833Y-23579438D01*
X3111500Y-23422434D01*
X3250285Y-23240903D01*
X3445316Y-23085443D01*
X3668360Y-22976482D01*
X3765846Y-22949012D01*
X4032825Y-22928986D01*
X4291772Y-22977536D01*
X4524611Y-23087125D01*
X4713265Y-23250216D01*
X4803876Y-23381798D01*
X4887586Y-23537333D01*
X6203408Y-23537333D01*
X7037171Y-21256215D01*
X8575098Y-21256215D01*
X8613826Y-21376386D01*
X8729138Y-21518709D01*
X8881798Y-21596784D01*
X9051237Y-21608117D01*
X9216883Y-21550215D01*
X9323916Y-21462437D01*
X9417714Y-21307100D01*
X9439938Y-21143210D01*
X9399983Y-20986957D01*
X9307245Y-20854531D01*
X9171120Y-20762122D01*
X9001004Y-20725919D01*
X8901621Y-20734797D01*
X8754777Y-20802109D01*
X8644504Y-20926840D01*
X8581160Y-21085904D01*
X8575098Y-21256215D01*
X7037171Y-21256215D01*
X7185950Y-20849167D01*
X7626904Y-20837241D01*
X8067858Y-20825316D01*
X8148746Y-20675115D01*
X8306642Y-20463316D01*
X8510465Y-20310712D01*
X8745194Y-20217732D01*
X8995806Y-20184807D01*
X9247278Y-20212364D01*
X9484588Y-20300834D01*
X9692713Y-20450646D01*
X9835689Y-20626917D01*
X9960988Y-20828000D01*
X10731787Y-20828000D01*
X11149869Y-24204083D01*
X11215410Y-24733178D01*
X11278320Y-25240723D01*
X11337768Y-25720042D01*
X11392927Y-26164463D01*
X11442965Y-26567311D01*
X11487053Y-26921912D01*
X11524363Y-27221592D01*
X11554064Y-27459678D01*
X11575327Y-27629494D01*
X11587323Y-27724368D01*
X11589216Y-27738917D01*
X11610481Y-27897667D01*
X9562323Y-27889206D01*
X9246216Y-27887844D01*
X8853641Y-27886062D01*
X8392797Y-27883898D01*
X7871883Y-27881395D01*
X7299096Y-27878594D01*
X6682636Y-27875535D01*
X6030700Y-27872259D01*
X5351487Y-27868808D01*
X4653195Y-27865222D01*
X3944022Y-27861543D01*
X3232167Y-27857811D01*
X2525828Y-27854068D01*
X2328333Y-27853014D01*
X1567394Y-27849099D01*
X759687Y-27845230D01*
X-82465Y-27841451D01*
X-946740Y-27837806D01*
X-1820816Y-27834342D01*
X-2692371Y-27831101D01*
X-3549082Y-27828130D01*
X-4378627Y-27825473D01*
X-5168685Y-27823175D01*
X-5906932Y-27821280D01*
X-6581046Y-27819834D01*
X-6988528Y-27819141D01*
X-7572506Y-27818085D01*
X-8132262Y-27816707D01*
X-8662026Y-27815042D01*
X-9156023Y-27813123D01*
X-9608483Y-27810986D01*
X-10013634Y-27808666D01*
X-10365702Y-27806197D01*
X-10658916Y-27803613D01*
X-10887504Y-27800949D01*
X-11045693Y-27798241D01*
X-11127712Y-27795522D01*
X-11138311Y-27794245D01*
X-11137179Y-27751076D01*
X-11130469Y-27628439D01*
X-11118521Y-27431324D01*
X-11101675Y-27164722D01*
X-11080272Y-26833625D01*
X-11054652Y-26443023D01*
X-11025155Y-25997907D01*
X-10992122Y-25503269D01*
X-10955893Y-24964099D01*
X-10916809Y-24385388D01*
X-10875209Y-23772127D01*
X-10831435Y-23129308D01*
X-10785826Y-22461921D01*
X-10738723Y-21774956D01*
X-10690466Y-21073406D01*
X-10641397Y-20362261D01*
X-10591854Y-19646512D01*
X-10542178Y-18931150D01*
X-10492711Y-18221166D01*
X-10443791Y-17521551D01*
X-10395760Y-16837296D01*
X-10348957Y-16173392D01*
X-10303724Y-15534829D01*
X-10269176Y-15049500D01*
X-10241990Y-14668500D01*
X-10442361Y-14520333D01*
X-10643801Y-14322045D01*
X-10779685Y-14082287D01*
X-10846022Y-13817085D01*
X-10844234Y-13748857D01*
X-10294304Y-13748857D01*
X-10251049Y-13908513D01*
X-10146679Y-14044536D01*
X-9987918Y-14141146D01*
X-9848898Y-14176756D01*
X-9789976Y-14163289D01*
X-9691461Y-14123812D01*
X-9672253Y-14114895D01*
X-9538033Y-14011495D01*
X-9446044Y-13863529D01*
X-9411824Y-13700588D01*
X-9418925Y-13632436D01*
X-9492737Y-13465469D01*
X-9617374Y-13349089D01*
X-9773101Y-13288825D01*
X-9940185Y-13290209D01*
X-10098890Y-13358773D01*
X-10170584Y-13421755D01*
X-10269724Y-13581345D01*
X-10294304Y-13748857D01*
X-10844234Y-13748857D01*
X-10838822Y-13542464D01*
X-10754093Y-13274452D01*
X-10753099Y-13272392D01*
X-10650408Y-13111192D01*
X-10513249Y-12962560D01*
X-10365928Y-12849553D01*
X-10254882Y-12799719D01*
X-10172118Y-12744918D01*
X-10141345Y-12684735D01*
X-10136130Y-12627351D01*
X-10127228Y-12492901D01*
X-10115048Y-12288885D01*
X-10099998Y-12022804D01*
X-10082488Y-11702158D01*
X-10062925Y-11334450D01*
X-10041719Y-10927178D01*
X-10019278Y-10487845D01*
X-9996012Y-10023952D01*
X-9992713Y-9957487D01*
X-9861999Y-7320807D01*
X-10900000Y-5476355D01*
X-11103711Y-5113283D01*
X-11294186Y-4771691D01*
X-11467463Y-4458832D01*
X-11619580Y-4181960D01*
X-11746575Y-3948329D01*
X-11844488Y-3765191D01*
X-11909355Y-3639801D01*
X-11937217Y-3579412D01*
X-11938000Y-3575835D01*
X-11924609Y-3522775D01*
X-11886762Y-3400377D01*
X-11827953Y-3219225D01*
X-11751672Y-2989902D01*
X-11661414Y-2722991D01*
X-11560668Y-2429075D01*
X-11536971Y-2360473D01*
X-11135941Y-1201180D01*
X-11641189Y4786327D01*
X-11700842Y5493551D01*
X-11758662Y6179599D01*
X-11814234Y6839532D01*
X-11867144Y7468411D01*
X-11916979Y8061298D01*
X-11963324Y8613254D01*
X-12005765Y9119340D01*
X-12043889Y9574618D01*
X-12077282Y9974148D01*
X-12105528Y10312993D01*
X-12128216Y10586214D01*
X-12144931Y10788871D01*
X-12155258Y10916026D01*
X-12158635Y10959956D01*
X-12170834Y11146079D01*
X-10435167Y12231355D01*
X-8699500Y13316630D01*
X-8681135Y13504333D01*
X-8128000Y13504333D01*
X-8090025Y13318201D01*
X-7979610Y13173583D01*
X-7857986Y13099496D01*
X-7749994Y13055816D01*
X-7675065Y13045417D01*
X-7590788Y13068218D01*
X-7515619Y13098832D01*
X-7376338Y13197981D01*
X-7276958Y13346764D01*
X-7239159Y13512717D01*
X-7239159Y13512815D01*
X-7277574Y13670141D01*
X-7377453Y13811345D01*
X-7516503Y13907913D01*
X-7560034Y13923240D01*
X-7749472Y13937891D01*
X-7916222Y13881867D01*
X-8044150Y13767068D01*
X-8117123Y13605394D01*
X-8128000Y13504333D01*
X-8681135Y13504333D01*
X-8674785Y13569232D01*
X-8631270Y13813131D01*
X-8546062Y14006664D01*
X-8405285Y14179431D01*
X-8375029Y14208677D01*
X-8163943Y14371451D01*
X-7945495Y14461191D01*
X-7708657Y14487912D01*
X-7416295Y14452693D01*
G36*
X-3368175Y6013844D02*
X-3124347Y5919297D01*
X-2916280Y5770352D01*
X-2755794Y5575191D01*
X-2654711Y5341995D01*
X-2624284Y5113110D01*
X-2623901Y4931833D01*
X-1630289Y4423833D01*
X-636678Y3915833D01*
X-635839Y336628D01*
X-635000Y-3242578D01*
X-1654678Y-4400699D01*
X-1923240Y-4706420D01*
X-2140384Y-4955610D01*
X-2311211Y-5154781D01*
X-2440822Y-5310443D01*
X-2534319Y-5429106D01*
X-2596802Y-5517281D01*
X-2633372Y-5581476D01*
X-2649131Y-5628204D01*
X-2649179Y-5663974D01*
X-2648179Y-5668660D01*
X-2597289Y-5980950D01*
X-2608275Y-6246269D01*
X-2683417Y-6477787D01*
X-2824721Y-6688355D01*
X-3040754Y-6884510D01*
X-3288500Y-7002794D01*
X-3565706Y-7045621D01*
X-3809602Y-7052081D01*
X-4319190Y-7607419D01*
X-4503775Y-7807516D01*
X-4644373Y-7955230D01*
X-4753760Y-8060995D01*
X-4844713Y-8135246D01*
X-4930010Y-8188418D01*
X-5022427Y-8230946D01*
X-5134306Y-8273106D01*
X-5259611Y-8318295D01*
X-5449614Y-8386728D01*
X-5689336Y-8473014D01*
X-5963799Y-8571763D01*
X-6258022Y-8677584D01*
X-6477000Y-8756317D01*
X-7514167Y-9129179D01*
X-7945199Y-16132173D01*
X-7992287Y-16898137D01*
X-8037972Y-17643080D01*
X-8081979Y-18362438D01*
X-8124033Y-19051647D01*
X-8163860Y-19706143D01*
X-8201184Y-20321364D01*
X-8235730Y-20892745D01*
X-8267224Y-21415722D01*
X-8295390Y-21885731D01*
X-8319955Y-22298209D01*
X-8340642Y-22648593D01*
X-8357177Y-22932318D01*
X-8369286Y-23144820D01*
X-8376693Y-23281536D01*
X-8379115Y-23336250D01*
X-8382000Y-23537333D01*
X-7038585Y-23537333D01*
X-6926765Y-23368361D01*
X-6746546Y-23165167D01*
X-6526575Y-23025042D01*
X-6281635Y-22947631D01*
X-6026508Y-22932579D01*
X-5775979Y-22979531D01*
X-5544829Y-23088130D01*
X-5347843Y-23258022D01*
X-5240656Y-23408892D01*
X-5143500Y-23579014D01*
X-4837671Y-23579340D01*
X-4677912Y-23577453D01*
X-4580730Y-23566710D01*
X-4524053Y-23540127D01*
X-4485813Y-23490718D01*
X-4470866Y-23463250D01*
X-4310323Y-23243871D01*
X-4093260Y-23074456D01*
X-3838420Y-22966184D01*
X-3577167Y-22930141D01*
X-3299238Y-22965090D01*
X-3059253Y-23072889D01*
X-2846733Y-23258444D01*
X-2826513Y-23281552D01*
X-2675365Y-23517411D01*
X-2599106Y-23772831D01*
X-2594833Y-24033951D01*
X-2659645Y-24286911D01*
X-2790640Y-24517851D01*
X-2984915Y-24712910D01*
X-3147799Y-24815988D01*
X-3367696Y-24888817D01*
X-3616716Y-24907642D01*
X-3859705Y-24872395D01*
X-4003388Y-24817594D01*
X-4151162Y-24720155D01*
X-4297531Y-24588768D01*
X-4420873Y-24446322D01*
X-4499566Y-24315702D01*
X-4512015Y-24279234D01*
X-4532000Y-24222423D01*
X-4569792Y-24190381D01*
X-4646020Y-24176057D01*
X-4781313Y-24172405D01*
X-4824871Y-24172333D01*
X-5110897Y-24172333D01*
X-5214177Y-24373026D01*
X-5373114Y-24599657D01*
X-5575408Y-24764069D01*
X-5807281Y-24866435D01*
X-6054957Y-24906926D01*
X-6304659Y-24885716D01*
X-6542611Y-24802975D01*
X-6755037Y-24658876D01*
X-6928159Y-24453591D01*
X-6985000Y-24350906D01*
X-7090834Y-24131242D01*
X-7757584Y-24130621D01*
X-7984670Y-24132314D01*
X-8178949Y-24137392D01*
X-8326054Y-24145189D01*
X-8411616Y-24155035D01*
X-8427448Y-24161750D01*
X-8430964Y-24212157D01*
X-8438872Y-24333311D01*
X-8450293Y-24511456D01*
X-8464343Y-24732836D01*
X-8480141Y-24983696D01*
X-8480365Y-24987256D01*
X-8530167Y-25781012D01*
X-8382000Y-25787067D01*
X-8328589Y-25787683D01*
X-8195963Y-25788524D01*
X-7988973Y-25789576D01*
X-7712468Y-25790823D01*
X-7371299Y-25792248D01*
X-6970315Y-25793838D01*
X-6514367Y-25795576D01*
X-6008305Y-25797447D01*
X-5456977Y-25799435D01*
X-4865235Y-25801526D01*
X-4237929Y-25803703D01*
X-3579908Y-25805952D01*
X-2896022Y-25808257D01*
X-2191121Y-25810602D01*
X-1470055Y-25812972D01*
X-737675Y-25815351D01*
X1170Y-25817725D01*
X741630Y-25820077D01*
X1478855Y-25822393D01*
X2207995Y-25824657D01*
X2924199Y-25826853D01*
X3622619Y-25828966D01*
X4298404Y-25830981D01*
X4946704Y-25832882D01*
X5562669Y-25834653D01*
X6141449Y-25836280D01*
X6678194Y-25837747D01*
X7168055Y-25839038D01*
X7606181Y-25840139D01*
X7987722Y-25841033D01*
X8307828Y-25841705D01*
X8561649Y-25842140D01*
X8744336Y-25842322D01*
X8851039Y-25842236D01*
X8878419Y-25841969D01*
X8880048Y-25801307D01*
X8877786Y-25691698D01*
X8872112Y-25528748D01*
X8863505Y-25328064D01*
X8861087Y-25276654D01*
X8834167Y-24713871D01*
X8660682Y-24639507D01*
X8394318Y-24487303D01*
X8199453Y-24290096D01*
X8076671Y-24048746D01*
X8026557Y-23764107D01*
X8025298Y-23706667D01*
X8037098Y-23615125D01*
X8576547Y-23615125D01*
X8578390Y-23792149D01*
X8589826Y-23837542D01*
X8680733Y-24003565D01*
X8832487Y-24113800D01*
X8912931Y-24141453D01*
X8986096Y-24160846D01*
X9007776Y-24167422D01*
X9050521Y-24156061D01*
X9140521Y-24121756D01*
X9160993Y-24113305D01*
X9318964Y-24007732D01*
X9414725Y-23860553D01*
X9443421Y-23691101D01*
X9400198Y-23518709D01*
X9335328Y-23419039D01*
X9194757Y-23305088D01*
X9039152Y-23261398D01*
X8884020Y-23279263D01*
X8744870Y-23349976D01*
X8637210Y-23464832D01*
X8576547Y-23615125D01*
X8037098Y-23615125D01*
X8063089Y-23413516D01*
X8173199Y-23161611D01*
X8350730Y-22957463D01*
X8590784Y-22807589D01*
X8743019Y-22752000D01*
X9024519Y-22711107D01*
X9293978Y-22749795D01*
X9538948Y-22862980D01*
X9746984Y-23045576D01*
X9862444Y-23209304D01*
X9938642Y-23359788D01*
X9977245Y-23496237D01*
X9989565Y-23662803D01*
X9989872Y-23706667D01*
X9981597Y-23886189D01*
X9949383Y-24025767D01*
X9882150Y-24169141D01*
X9864993Y-24199565D01*
X9761313Y-24347367D01*
X9641190Y-24471364D01*
X9584637Y-24513387D01*
X9429159Y-24609478D01*
X9456986Y-25248155D01*
X9468890Y-25500587D01*
X9482219Y-25749488D01*
X9495548Y-25970175D01*
X9507450Y-26137962D01*
X9510376Y-26172583D01*
X9535939Y-26458333D01*
X8207553Y-26447914D01*
X8026436Y-26446718D01*
X7765729Y-26445330D01*
X7430509Y-26443769D01*
X7025852Y-26442051D01*
X6556835Y-26440193D01*
X6028534Y-26438214D01*
X5446025Y-26436129D01*
X4814385Y-26433957D01*
X4138691Y-26431714D01*
X3424018Y-26429418D01*
X2675445Y-26427086D01*
X1898046Y-26424735D01*
X1096899Y-26422383D01*
X277080Y-26420046D01*
X-556335Y-26417742D01*
X-1143000Y-26416164D01*
X-9165167Y-26394833D01*
X-9153206Y-26162000D01*
X-9147682Y-26062380D01*
X-9137400Y-25885359D01*
X-9122663Y-25635888D01*
X-9103774Y-25318919D01*
X-9081033Y-24939406D01*
X-9054745Y-24502299D01*
X-9025210Y-24012552D01*
X-9021151Y-23945378D01*
X-6536281Y-23945378D01*
X-6486588Y-24114982D01*
X-6413442Y-24214728D01*
X-6265505Y-24327843D01*
X-6106143Y-24362712D01*
X-5922837Y-24321032D01*
X-5854499Y-24290544D01*
X-5773827Y-24222043D01*
X-5699997Y-24115112D01*
X-5692821Y-24100720D01*
X-5647188Y-23925775D01*
X-5648902Y-23914623D01*
X-4021667Y-23914623D01*
X-3985830Y-24098540D01*
X-3889258Y-24239298D01*
X-3748367Y-24328622D01*
X-3579567Y-24358236D01*
X-3399273Y-24319865D01*
X-3310694Y-24273086D01*
X-3200575Y-24154453D01*
X-3146057Y-23989140D01*
X-3148364Y-23840472D01*
X-3195886Y-23684606D01*
X-3291680Y-23577179D01*
X-3422047Y-23507524D01*
X-3596541Y-23475266D01*
X-3762087Y-23514655D01*
X-3900290Y-23613201D01*
X-3992750Y-23758412D01*
X-4021667Y-23914623D01*
X-5648902Y-23914623D01*
X-5671538Y-23767420D01*
X-5751473Y-23635314D01*
X-5872594Y-23539118D01*
X-6020500Y-23488493D01*
X-6180795Y-23493099D01*
X-6339077Y-23562597D01*
X-6408690Y-23620436D01*
X-6510261Y-23773773D01*
X-6536281Y-23945378D01*
X-9021151Y-23945378D01*
X-8992730Y-23475116D01*
X-8957609Y-22894944D01*
X-8920149Y-22276987D01*
X-8880650Y-21626200D01*
X-8839417Y-20947532D01*
X-8796750Y-20245937D01*
X-8752953Y-19526367D01*
X-8708327Y-18793774D01*
X-8663174Y-18053110D01*
X-8617797Y-17309328D01*
X-8572498Y-16567380D01*
X-8527579Y-15832218D01*
X-8483343Y-15108794D01*
X-8440091Y-14402060D01*
X-8398126Y-13716969D01*
X-8357750Y-13058473D01*
X-8319265Y-12431524D01*
X-8282974Y-11841075D01*
X-8249178Y-11292077D01*
X-8218180Y-10789482D01*
X-8190282Y-10338244D01*
X-8165786Y-9943314D01*
X-8144995Y-9609645D01*
X-8128210Y-9342188D01*
X-8115734Y-9145897D01*
X-8107869Y-9025722D01*
X-8105278Y-8989654D01*
X-8079269Y-8687141D01*
X-5174795Y-7652411D01*
X-4744873Y-7186140D01*
X-4579349Y-7005099D01*
X-4465095Y-6874809D01*
X-4394934Y-6784765D01*
X-4361688Y-6724463D01*
X-4358177Y-6683400D01*
X-4377225Y-6651069D01*
X-4378362Y-6649801D01*
X-4484606Y-6477713D01*
X-4549579Y-6257848D01*
X-4567619Y-6041622D01*
X-4023405Y-6041622D01*
X-4006030Y-6191668D01*
X-3930290Y-6329493D01*
X-3790380Y-6439928D01*
X-3751652Y-6458504D01*
X-3643661Y-6502184D01*
X-3568732Y-6512583D01*
X-3484454Y-6489782D01*
X-3409286Y-6459168D01*
X-3270004Y-6360019D01*
X-3170625Y-6211236D01*
X-3132825Y-6045283D01*
X-3132825Y-6045185D01*
X-3168875Y-5895579D01*
X-3260992Y-5756453D01*
X-3385836Y-5658885D01*
X-3437971Y-5638909D01*
X-3625350Y-5622559D01*
X-3783388Y-5669823D01*
X-3906279Y-5765532D01*
X-3988220Y-5894521D01*
X-4023405Y-6041622D01*
X-4567619Y-6041622D01*
X-4569565Y-6018309D01*
X-4540847Y-5787203D01*
X-4506355Y-5681890D01*
X-4389049Y-5485041D01*
X-4218913Y-5303483D01*
X-4026113Y-5169262D01*
X-4021667Y-5166994D01*
X-3761504Y-5078024D01*
X-3489332Y-5070773D01*
X-3333114Y-5100735D01*
X-3205814Y-5128047D01*
X-3114535Y-5136544D01*
X-3086711Y-5129927D01*
X-3053751Y-5092246D01*
X-2971703Y-4998639D01*
X-2847327Y-4856814D01*
X-2687384Y-4674477D01*
X-2498634Y-4459337D01*
X-2287838Y-4219101D01*
X-2144794Y-4056095D01*
X-1227667Y-3011023D01*
X-1227667Y3548634D01*
X-2042712Y3960981D01*
X-2857756Y4373328D01*
X-3053469Y4235377D01*
X-3192783Y4150207D01*
X-3330959Y4101898D01*
X-3508880Y4076640D01*
X-3528138Y4075034D01*
X-3697237Y4067185D01*
X-3824184Y4081283D01*
X-3950228Y4124687D01*
X-4039236Y4166219D01*
X-4277000Y4326440D01*
X-4453919Y4537899D01*
X-4563744Y4787367D01*
X-4598939Y5051950D01*
X-4042834Y5051950D01*
X-4032014Y4917189D01*
X-3986761Y4822109D01*
X-3904583Y4737861D01*
X-3736395Y4634477D01*
X-3561145Y4609952D01*
X-3393283Y4664282D01*
X-3298744Y4738077D01*
X-3200618Y4888425D01*
X-3169853Y5058465D01*
X-3202434Y5226126D01*
X-3294347Y5369334D01*
X-3430359Y5461563D01*
X-3615491Y5498543D01*
X-3785844Y5461993D01*
X-3924795Y5363030D01*
X-4015721Y5212771D01*
X-4042834Y5051950D01*
X-4598939Y5051950D01*
X-4600225Y5061616D01*
X-4571624Y5293235D01*
X-4492802Y5487302D01*
X-4360097Y5679399D01*
X-4194165Y5847039D01*
X-4015666Y5967739D01*
X-3915834Y6007021D01*
X-3635945Y6045812D01*
X-3368175Y6013844D01*
X-3368175Y6013844D01*
G37*
X-3368175Y6013844D02*
X-3124347Y5919297D01*
X-2916280Y5770352D01*
X-2755794Y5575191D01*
X-2654711Y5341995D01*
X-2624284Y5113110D01*
X-2623901Y4931833D01*
X-1630289Y4423833D01*
X-636678Y3915833D01*
X-635839Y336628D01*
X-635000Y-3242578D01*
X-1654678Y-4400699D01*
X-1923240Y-4706420D01*
X-2140384Y-4955610D01*
X-2311211Y-5154781D01*
X-2440822Y-5310443D01*
X-2534319Y-5429106D01*
X-2596802Y-5517281D01*
X-2633372Y-5581476D01*
X-2649131Y-5628204D01*
X-2649179Y-5663974D01*
X-2648179Y-5668660D01*
X-2597289Y-5980950D01*
X-2608275Y-6246269D01*
X-2683417Y-6477787D01*
X-2824721Y-6688355D01*
X-3040754Y-6884510D01*
X-3288500Y-7002794D01*
X-3565706Y-7045621D01*
X-3809602Y-7052081D01*
X-4319190Y-7607419D01*
X-4503775Y-7807516D01*
X-4644373Y-7955230D01*
X-4753760Y-8060995D01*
X-4844713Y-8135246D01*
X-4930010Y-8188418D01*
X-5022427Y-8230946D01*
X-5134306Y-8273106D01*
X-5259611Y-8318295D01*
X-5449614Y-8386728D01*
X-5689336Y-8473014D01*
X-5963799Y-8571763D01*
X-6258022Y-8677584D01*
X-6477000Y-8756317D01*
X-7514167Y-9129179D01*
X-7945199Y-16132173D01*
X-7992287Y-16898137D01*
X-8037972Y-17643080D01*
X-8081979Y-18362438D01*
X-8124033Y-19051647D01*
X-8163860Y-19706143D01*
X-8201184Y-20321364D01*
X-8235730Y-20892745D01*
X-8267224Y-21415722D01*
X-8295390Y-21885731D01*
X-8319955Y-22298209D01*
X-8340642Y-22648593D01*
X-8357177Y-22932318D01*
X-8369286Y-23144820D01*
X-8376693Y-23281536D01*
X-8379115Y-23336250D01*
X-8382000Y-23537333D01*
X-7038585Y-23537333D01*
X-6926765Y-23368361D01*
X-6746546Y-23165167D01*
X-6526575Y-23025042D01*
X-6281635Y-22947631D01*
X-6026508Y-22932579D01*
X-5775979Y-22979531D01*
X-5544829Y-23088130D01*
X-5347843Y-23258022D01*
X-5240656Y-23408892D01*
X-5143500Y-23579014D01*
X-4837671Y-23579340D01*
X-4677912Y-23577453D01*
X-4580730Y-23566710D01*
X-4524053Y-23540127D01*
X-4485813Y-23490718D01*
X-4470866Y-23463250D01*
X-4310323Y-23243871D01*
X-4093260Y-23074456D01*
X-3838420Y-22966184D01*
X-3577167Y-22930141D01*
X-3299238Y-22965090D01*
X-3059253Y-23072889D01*
X-2846733Y-23258444D01*
X-2826513Y-23281552D01*
X-2675365Y-23517411D01*
X-2599106Y-23772831D01*
X-2594833Y-24033951D01*
X-2659645Y-24286911D01*
X-2790640Y-24517851D01*
X-2984915Y-24712910D01*
X-3147799Y-24815988D01*
X-3367696Y-24888817D01*
X-3616716Y-24907642D01*
X-3859705Y-24872395D01*
X-4003388Y-24817594D01*
X-4151162Y-24720155D01*
X-4297531Y-24588768D01*
X-4420873Y-24446322D01*
X-4499566Y-24315702D01*
X-4512015Y-24279234D01*
X-4532000Y-24222423D01*
X-4569792Y-24190381D01*
X-4646020Y-24176057D01*
X-4781313Y-24172405D01*
X-4824871Y-24172333D01*
X-5110897Y-24172333D01*
X-5214177Y-24373026D01*
X-5373114Y-24599657D01*
X-5575408Y-24764069D01*
X-5807281Y-24866435D01*
X-6054957Y-24906926D01*
X-6304659Y-24885716D01*
X-6542611Y-24802975D01*
X-6755037Y-24658876D01*
X-6928159Y-24453591D01*
X-6985000Y-24350906D01*
X-7090834Y-24131242D01*
X-7757584Y-24130621D01*
X-7984670Y-24132314D01*
X-8178949Y-24137392D01*
X-8326054Y-24145189D01*
X-8411616Y-24155035D01*
X-8427448Y-24161750D01*
X-8430964Y-24212157D01*
X-8438872Y-24333311D01*
X-8450293Y-24511456D01*
X-8464343Y-24732836D01*
X-8480141Y-24983696D01*
X-8480365Y-24987256D01*
X-8530167Y-25781012D01*
X-8382000Y-25787067D01*
X-8328589Y-25787683D01*
X-8195963Y-25788524D01*
X-7988973Y-25789576D01*
X-7712468Y-25790823D01*
X-7371299Y-25792248D01*
X-6970315Y-25793838D01*
X-6514367Y-25795576D01*
X-6008305Y-25797447D01*
X-5456977Y-25799435D01*
X-4865235Y-25801526D01*
X-4237929Y-25803703D01*
X-3579908Y-25805952D01*
X-2896022Y-25808257D01*
X-2191121Y-25810602D01*
X-1470055Y-25812972D01*
X-737675Y-25815351D01*
X1170Y-25817725D01*
X741630Y-25820077D01*
X1478855Y-25822393D01*
X2207995Y-25824657D01*
X2924199Y-25826853D01*
X3622619Y-25828966D01*
X4298404Y-25830981D01*
X4946704Y-25832882D01*
X5562669Y-25834653D01*
X6141449Y-25836280D01*
X6678194Y-25837747D01*
X7168055Y-25839038D01*
X7606181Y-25840139D01*
X7987722Y-25841033D01*
X8307828Y-25841705D01*
X8561649Y-25842140D01*
X8744336Y-25842322D01*
X8851039Y-25842236D01*
X8878419Y-25841969D01*
X8880048Y-25801307D01*
X8877786Y-25691698D01*
X8872112Y-25528748D01*
X8863505Y-25328064D01*
X8861087Y-25276654D01*
X8834167Y-24713871D01*
X8660682Y-24639507D01*
X8394318Y-24487303D01*
X8199453Y-24290096D01*
X8076671Y-24048746D01*
X8026557Y-23764107D01*
X8025298Y-23706667D01*
X8037098Y-23615125D01*
X8576547Y-23615125D01*
X8578390Y-23792149D01*
X8589826Y-23837542D01*
X8680733Y-24003565D01*
X8832487Y-24113800D01*
X8912931Y-24141453D01*
X8986096Y-24160846D01*
X9007776Y-24167422D01*
X9050521Y-24156061D01*
X9140521Y-24121756D01*
X9160993Y-24113305D01*
X9318964Y-24007732D01*
X9414725Y-23860553D01*
X9443421Y-23691101D01*
X9400198Y-23518709D01*
X9335328Y-23419039D01*
X9194757Y-23305088D01*
X9039152Y-23261398D01*
X8884020Y-23279263D01*
X8744870Y-23349976D01*
X8637210Y-23464832D01*
X8576547Y-23615125D01*
X8037098Y-23615125D01*
X8063089Y-23413516D01*
X8173199Y-23161611D01*
X8350730Y-22957463D01*
X8590784Y-22807589D01*
X8743019Y-22752000D01*
X9024519Y-22711107D01*
X9293978Y-22749795D01*
X9538948Y-22862980D01*
X9746984Y-23045576D01*
X9862444Y-23209304D01*
X9938642Y-23359788D01*
X9977245Y-23496237D01*
X9989565Y-23662803D01*
X9989872Y-23706667D01*
X9981597Y-23886189D01*
X9949383Y-24025767D01*
X9882150Y-24169141D01*
X9864993Y-24199565D01*
X9761313Y-24347367D01*
X9641190Y-24471364D01*
X9584637Y-24513387D01*
X9429159Y-24609478D01*
X9456986Y-25248155D01*
X9468890Y-25500587D01*
X9482219Y-25749488D01*
X9495548Y-25970175D01*
X9507450Y-26137962D01*
X9510376Y-26172583D01*
X9535939Y-26458333D01*
X8207553Y-26447914D01*
X8026436Y-26446718D01*
X7765729Y-26445330D01*
X7430509Y-26443769D01*
X7025852Y-26442051D01*
X6556835Y-26440193D01*
X6028534Y-26438214D01*
X5446025Y-26436129D01*
X4814385Y-26433957D01*
X4138691Y-26431714D01*
X3424018Y-26429418D01*
X2675445Y-26427086D01*
X1898046Y-26424735D01*
X1096899Y-26422383D01*
X277080Y-26420046D01*
X-556335Y-26417742D01*
X-1143000Y-26416164D01*
X-9165167Y-26394833D01*
X-9153206Y-26162000D01*
X-9147682Y-26062380D01*
X-9137400Y-25885359D01*
X-9122663Y-25635888D01*
X-9103774Y-25318919D01*
X-9081033Y-24939406D01*
X-9054745Y-24502299D01*
X-9025210Y-24012552D01*
X-9021151Y-23945378D01*
X-6536281Y-23945378D01*
X-6486588Y-24114982D01*
X-6413442Y-24214728D01*
X-6265505Y-24327843D01*
X-6106143Y-24362712D01*
X-5922837Y-24321032D01*
X-5854499Y-24290544D01*
X-5773827Y-24222043D01*
X-5699997Y-24115112D01*
X-5692821Y-24100720D01*
X-5647188Y-23925775D01*
X-5648902Y-23914623D01*
X-4021667Y-23914623D01*
X-3985830Y-24098540D01*
X-3889258Y-24239298D01*
X-3748367Y-24328622D01*
X-3579567Y-24358236D01*
X-3399273Y-24319865D01*
X-3310694Y-24273086D01*
X-3200575Y-24154453D01*
X-3146057Y-23989140D01*
X-3148364Y-23840472D01*
X-3195886Y-23684606D01*
X-3291680Y-23577179D01*
X-3422047Y-23507524D01*
X-3596541Y-23475266D01*
X-3762087Y-23514655D01*
X-3900290Y-23613201D01*
X-3992750Y-23758412D01*
X-4021667Y-23914623D01*
X-5648902Y-23914623D01*
X-5671538Y-23767420D01*
X-5751473Y-23635314D01*
X-5872594Y-23539118D01*
X-6020500Y-23488493D01*
X-6180795Y-23493099D01*
X-6339077Y-23562597D01*
X-6408690Y-23620436D01*
X-6510261Y-23773773D01*
X-6536281Y-23945378D01*
X-9021151Y-23945378D01*
X-8992730Y-23475116D01*
X-8957609Y-22894944D01*
X-8920149Y-22276987D01*
X-8880650Y-21626200D01*
X-8839417Y-20947532D01*
X-8796750Y-20245937D01*
X-8752953Y-19526367D01*
X-8708327Y-18793774D01*
X-8663174Y-18053110D01*
X-8617797Y-17309328D01*
X-8572498Y-16567380D01*
X-8527579Y-15832218D01*
X-8483343Y-15108794D01*
X-8440091Y-14402060D01*
X-8398126Y-13716969D01*
X-8357750Y-13058473D01*
X-8319265Y-12431524D01*
X-8282974Y-11841075D01*
X-8249178Y-11292077D01*
X-8218180Y-10789482D01*
X-8190282Y-10338244D01*
X-8165786Y-9943314D01*
X-8144995Y-9609645D01*
X-8128210Y-9342188D01*
X-8115734Y-9145897D01*
X-8107869Y-9025722D01*
X-8105278Y-8989654D01*
X-8079269Y-8687141D01*
X-5174795Y-7652411D01*
X-4744873Y-7186140D01*
X-4579349Y-7005099D01*
X-4465095Y-6874809D01*
X-4394934Y-6784765D01*
X-4361688Y-6724463D01*
X-4358177Y-6683400D01*
X-4377225Y-6651069D01*
X-4378362Y-6649801D01*
X-4484606Y-6477713D01*
X-4549579Y-6257848D01*
X-4567619Y-6041622D01*
X-4023405Y-6041622D01*
X-4006030Y-6191668D01*
X-3930290Y-6329493D01*
X-3790380Y-6439928D01*
X-3751652Y-6458504D01*
X-3643661Y-6502184D01*
X-3568732Y-6512583D01*
X-3484454Y-6489782D01*
X-3409286Y-6459168D01*
X-3270004Y-6360019D01*
X-3170625Y-6211236D01*
X-3132825Y-6045283D01*
X-3132825Y-6045185D01*
X-3168875Y-5895579D01*
X-3260992Y-5756453D01*
X-3385836Y-5658885D01*
X-3437971Y-5638909D01*
X-3625350Y-5622559D01*
X-3783388Y-5669823D01*
X-3906279Y-5765532D01*
X-3988220Y-5894521D01*
X-4023405Y-6041622D01*
X-4567619Y-6041622D01*
X-4569565Y-6018309D01*
X-4540847Y-5787203D01*
X-4506355Y-5681890D01*
X-4389049Y-5485041D01*
X-4218913Y-5303483D01*
X-4026113Y-5169262D01*
X-4021667Y-5166994D01*
X-3761504Y-5078024D01*
X-3489332Y-5070773D01*
X-3333114Y-5100735D01*
X-3205814Y-5128047D01*
X-3114535Y-5136544D01*
X-3086711Y-5129927D01*
X-3053751Y-5092246D01*
X-2971703Y-4998639D01*
X-2847327Y-4856814D01*
X-2687384Y-4674477D01*
X-2498634Y-4459337D01*
X-2287838Y-4219101D01*
X-2144794Y-4056095D01*
X-1227667Y-3011023D01*
X-1227667Y3548634D01*
X-2042712Y3960981D01*
X-2857756Y4373328D01*
X-3053469Y4235377D01*
X-3192783Y4150207D01*
X-3330959Y4101898D01*
X-3508880Y4076640D01*
X-3528138Y4075034D01*
X-3697237Y4067185D01*
X-3824184Y4081283D01*
X-3950228Y4124687D01*
X-4039236Y4166219D01*
X-4277000Y4326440D01*
X-4453919Y4537899D01*
X-4563744Y4787367D01*
X-4598939Y5051950D01*
X-4042834Y5051950D01*
X-4032014Y4917189D01*
X-3986761Y4822109D01*
X-3904583Y4737861D01*
X-3736395Y4634477D01*
X-3561145Y4609952D01*
X-3393283Y4664282D01*
X-3298744Y4738077D01*
X-3200618Y4888425D01*
X-3169853Y5058465D01*
X-3202434Y5226126D01*
X-3294347Y5369334D01*
X-3430359Y5461563D01*
X-3615491Y5498543D01*
X-3785844Y5461993D01*
X-3924795Y5363030D01*
X-4015721Y5212771D01*
X-4042834Y5051950D01*
X-4598939Y5051950D01*
X-4600225Y5061616D01*
X-4571624Y5293235D01*
X-4492802Y5487302D01*
X-4360097Y5679399D01*
X-4194165Y5847039D01*
X-4015666Y5967739D01*
X-3915834Y6007021D01*
X-3635945Y6045812D01*
X-3368175Y6013844D01*
G36*
X-685262Y-15295945D02*
X-449348Y-15418070D01*
X-251860Y-15603413D01*
X-122761Y-15811500D01*
X-67259Y-15997162D01*
X-45001Y-16219201D01*
X-57054Y-16439223D01*
X-100538Y-16609688D01*
X-219306Y-16810455D01*
X-387985Y-16989603D01*
X-577718Y-17116911D01*
X-590582Y-17122893D01*
X-762000Y-17200192D01*
X-762000Y-17889835D01*
X-539750Y-18036001D01*
X-390249Y-18153401D01*
X-271213Y-18281976D01*
X-232834Y-18340802D01*
X-148167Y-18499438D01*
X2084916Y-18499552D01*
X4318000Y-18499667D01*
X4318000Y-20438955D01*
X4508744Y-20550739D01*
X4708037Y-20713064D01*
X4849881Y-20922461D01*
X4933137Y-21162773D01*
X4956662Y-21417840D01*
X4919316Y-21671506D01*
X4819958Y-21907612D01*
X4657446Y-22110001D01*
X4621115Y-22141839D01*
X4382281Y-22289587D01*
X4123379Y-22363746D01*
X3859068Y-22367350D01*
X3604008Y-22303429D01*
X3372856Y-22175016D01*
X3180272Y-21985144D01*
X3079005Y-21822833D01*
X2995056Y-21565327D01*
X2989389Y-21397142D01*
X3530661Y-21397142D01*
X3572501Y-21564198D01*
X3674841Y-21713865D01*
X3819056Y-21801491D01*
X3986050Y-21823778D01*
X4156727Y-21777429D01*
X4284718Y-21687161D01*
X4383022Y-21539876D01*
X4410036Y-21369957D01*
X4365975Y-21200103D01*
X4278923Y-21078743D01*
X4126447Y-20978052D01*
X3955528Y-20947298D01*
X3789231Y-20986759D01*
X3672772Y-21071417D01*
X3560822Y-21231534D01*
X3530661Y-21397142D01*
X2989389Y-21397142D01*
X2986060Y-21298374D01*
X3046376Y-21038478D01*
X3170363Y-20802141D01*
X3352381Y-20605864D01*
X3534782Y-20489358D01*
X3725333Y-20397114D01*
X3725333Y-19092333D01*
X1799166Y-19092333D01*
X1345233Y-19092460D01*
X968742Y-19093038D01*
X662467Y-19094360D01*
X419184Y-19096719D01*
X231667Y-19100410D01*
X92693Y-19105726D01*
X-4965Y-19112962D01*
X-68531Y-19122410D01*
X-105230Y-19134365D01*
X-122287Y-19149120D01*
X-126926Y-19166969D01*
X-127000Y-19170648D01*
X-158519Y-19273831D01*
X-241390Y-19404655D01*
X-358089Y-19541525D01*
X-491094Y-19662845D01*
X-572795Y-19720018D01*
X-759324Y-19833167D01*
X-760662Y-21128707D01*
X-761880Y-21465579D01*
X-764672Y-21787174D01*
X-768800Y-22080360D01*
X-774025Y-22332008D01*
X-780110Y-22528988D01*
X-786817Y-22658170D01*
X-788807Y-22680719D01*
X-815614Y-22937191D01*
X-650669Y-23021340D01*
X-415951Y-23182261D01*
X-243273Y-23385149D01*
X-132861Y-23616784D01*
X-84944Y-23863946D01*
X-99749Y-24113414D01*
X-177504Y-24351968D01*
X-318435Y-24566387D01*
X-522771Y-24743451D01*
X-620064Y-24799713D01*
X-822639Y-24874428D01*
X-1044973Y-24911495D01*
X-1248012Y-24905291D01*
X-1291167Y-24896324D01*
X-1550875Y-24789873D01*
X-1770373Y-24621245D01*
X-1938270Y-24404665D01*
X-2043173Y-24154359D01*
X-2074334Y-23918333D01*
X-1524000Y-23918333D01*
X-1487448Y-24073609D01*
X-1393353Y-24218659D01*
X-1265054Y-24318236D01*
X-1256678Y-24322038D01*
X-1146679Y-24366575D01*
X-1071120Y-24377297D01*
X-986983Y-24354570D01*
X-914340Y-24324972D01*
X-758203Y-24221575D01*
X-664612Y-24080662D01*
X-632775Y-23920897D01*
X-661897Y-23760950D01*
X-751188Y-23619487D01*
X-899855Y-23515174D01*
X-949532Y-23495979D01*
X-1121104Y-23479620D01*
X-1283599Y-23532899D01*
X-1417460Y-23641436D01*
X-1503129Y-23790853D01*
X-1524000Y-23918333D01*
X-2074334Y-23918333D01*
X-2040674Y-23691433D01*
X-1949149Y-23464279D01*
X-1813939Y-23259826D01*
X-1649227Y-23101027D01*
X-1525453Y-23029935D01*
X-1397000Y-22976728D01*
X-1397000Y-22163150D01*
X-1395378Y-21835191D01*
X-1390904Y-21466826D01*
X-1384168Y-21093426D01*
X-1375762Y-20750367D01*
X-1370776Y-20591369D01*
X-1344551Y-19833167D01*
X-1550693Y-19727333D01*
X-1769431Y-19572170D01*
X-1927929Y-19371754D01*
X-2026037Y-19140471D01*
X-2055898Y-18943552D01*
X-1519144Y-18943552D01*
X-1495420Y-19025663D01*
X-1426275Y-19112950D01*
X-1385483Y-19154651D01*
X-1220322Y-19274600D01*
X-1051783Y-19311823D01*
X-886553Y-19266114D01*
X-765257Y-19173743D01*
X-655259Y-19015661D01*
X-628351Y-18849096D01*
X-684329Y-18680736D01*
X-784349Y-18553518D01*
X-882931Y-18463594D01*
X-962775Y-18424363D01*
X-1059805Y-18421861D01*
X-1108309Y-18427589D01*
X-1298242Y-18489985D01*
X-1432891Y-18615106D01*
X-1505849Y-18796547D01*
X-1511411Y-18830692D01*
X-1519144Y-18943552D01*
X-2055898Y-18943552D01*
X-2063608Y-18892709D01*
X-2040495Y-18642857D01*
X-1956550Y-18405301D01*
X-1811626Y-18194431D01*
X-1605575Y-18024633D01*
X-1568375Y-18003037D01*
X-1355887Y-17885833D01*
X-1354667Y-17208343D01*
X-1554291Y-17060255D01*
X-1788723Y-16845363D01*
X-1941221Y-16609227D01*
X-2011846Y-16351708D01*
X-2006006Y-16206042D01*
X-1461371Y-16206042D01*
X-1441735Y-16360773D01*
X-1372359Y-16499606D01*
X-1262812Y-16608072D01*
X-1122667Y-16671706D01*
X-961494Y-16676040D01*
X-833301Y-16632045D01*
X-685892Y-16515095D01*
X-607688Y-16349789D01*
X-593608Y-16220993D01*
X-628107Y-16039838D01*
X-721978Y-15901770D01*
X-857697Y-15814441D01*
X-1017741Y-15785505D01*
X-1184587Y-15822615D01*
X-1313136Y-15906750D01*
X-1421695Y-16049879D01*
X-1461371Y-16206042D01*
X-2006006Y-16206042D01*
X-2000657Y-16072667D01*
X-1995244Y-16044559D01*
X-1898560Y-15768643D01*
X-1733591Y-15541731D01*
X-1503754Y-15368400D01*
X-1481588Y-15356417D01*
X-1215579Y-15260363D01*
X-945404Y-15241791D01*
X-685262Y-15295945D01*
X-685262Y-15295945D01*
G37*
X-685262Y-15295945D02*
X-449348Y-15418070D01*
X-251860Y-15603413D01*
X-122761Y-15811500D01*
X-67259Y-15997162D01*
X-45001Y-16219201D01*
X-57054Y-16439223D01*
X-100538Y-16609688D01*
X-219306Y-16810455D01*
X-387985Y-16989603D01*
X-577718Y-17116911D01*
X-590582Y-17122893D01*
X-762000Y-17200192D01*
X-762000Y-17889835D01*
X-539750Y-18036001D01*
X-390249Y-18153401D01*
X-271213Y-18281976D01*
X-232834Y-18340802D01*
X-148167Y-18499438D01*
X2084916Y-18499552D01*
X4318000Y-18499667D01*
X4318000Y-20438955D01*
X4508744Y-20550739D01*
X4708037Y-20713064D01*
X4849881Y-20922461D01*
X4933137Y-21162773D01*
X4956662Y-21417840D01*
X4919316Y-21671506D01*
X4819958Y-21907612D01*
X4657446Y-22110001D01*
X4621115Y-22141839D01*
X4382281Y-22289587D01*
X4123379Y-22363746D01*
X3859068Y-22367350D01*
X3604008Y-22303429D01*
X3372856Y-22175016D01*
X3180272Y-21985144D01*
X3079005Y-21822833D01*
X2995056Y-21565327D01*
X2989389Y-21397142D01*
X3530661Y-21397142D01*
X3572501Y-21564198D01*
X3674841Y-21713865D01*
X3819056Y-21801491D01*
X3986050Y-21823778D01*
X4156727Y-21777429D01*
X4284718Y-21687161D01*
X4383022Y-21539876D01*
X4410036Y-21369957D01*
X4365975Y-21200103D01*
X4278923Y-21078743D01*
X4126447Y-20978052D01*
X3955528Y-20947298D01*
X3789231Y-20986759D01*
X3672772Y-21071417D01*
X3560822Y-21231534D01*
X3530661Y-21397142D01*
X2989389Y-21397142D01*
X2986060Y-21298374D01*
X3046376Y-21038478D01*
X3170363Y-20802141D01*
X3352381Y-20605864D01*
X3534782Y-20489358D01*
X3725333Y-20397114D01*
X3725333Y-19092333D01*
X1799166Y-19092333D01*
X1345233Y-19092460D01*
X968742Y-19093038D01*
X662467Y-19094360D01*
X419184Y-19096719D01*
X231667Y-19100410D01*
X92693Y-19105726D01*
X-4965Y-19112962D01*
X-68531Y-19122410D01*
X-105230Y-19134365D01*
X-122287Y-19149120D01*
X-126926Y-19166969D01*
X-127000Y-19170648D01*
X-158519Y-19273831D01*
X-241390Y-19404655D01*
X-358089Y-19541525D01*
X-491094Y-19662845D01*
X-572795Y-19720018D01*
X-759324Y-19833167D01*
X-760662Y-21128707D01*
X-761880Y-21465579D01*
X-764672Y-21787174D01*
X-768800Y-22080360D01*
X-774025Y-22332008D01*
X-780110Y-22528988D01*
X-786817Y-22658170D01*
X-788807Y-22680719D01*
X-815614Y-22937191D01*
X-650669Y-23021340D01*
X-415951Y-23182261D01*
X-243273Y-23385149D01*
X-132861Y-23616784D01*
X-84944Y-23863946D01*
X-99749Y-24113414D01*
X-177504Y-24351968D01*
X-318435Y-24566387D01*
X-522771Y-24743451D01*
X-620064Y-24799713D01*
X-822639Y-24874428D01*
X-1044973Y-24911495D01*
X-1248012Y-24905291D01*
X-1291167Y-24896324D01*
X-1550875Y-24789873D01*
X-1770373Y-24621245D01*
X-1938270Y-24404665D01*
X-2043173Y-24154359D01*
X-2074334Y-23918333D01*
X-1524000Y-23918333D01*
X-1487448Y-24073609D01*
X-1393353Y-24218659D01*
X-1265054Y-24318236D01*
X-1256678Y-24322038D01*
X-1146679Y-24366575D01*
X-1071120Y-24377297D01*
X-986983Y-24354570D01*
X-914340Y-24324972D01*
X-758203Y-24221575D01*
X-664612Y-24080662D01*
X-632775Y-23920897D01*
X-661897Y-23760950D01*
X-751188Y-23619487D01*
X-899855Y-23515174D01*
X-949532Y-23495979D01*
X-1121104Y-23479620D01*
X-1283599Y-23532899D01*
X-1417460Y-23641436D01*
X-1503129Y-23790853D01*
X-1524000Y-23918333D01*
X-2074334Y-23918333D01*
X-2040674Y-23691433D01*
X-1949149Y-23464279D01*
X-1813939Y-23259826D01*
X-1649227Y-23101027D01*
X-1525453Y-23029935D01*
X-1397000Y-22976728D01*
X-1397000Y-22163150D01*
X-1395378Y-21835191D01*
X-1390904Y-21466826D01*
X-1384168Y-21093426D01*
X-1375762Y-20750367D01*
X-1370776Y-20591369D01*
X-1344551Y-19833167D01*
X-1550693Y-19727333D01*
X-1769431Y-19572170D01*
X-1927929Y-19371754D01*
X-2026037Y-19140471D01*
X-2055898Y-18943552D01*
X-1519144Y-18943552D01*
X-1495420Y-19025663D01*
X-1426275Y-19112950D01*
X-1385483Y-19154651D01*
X-1220322Y-19274600D01*
X-1051783Y-19311823D01*
X-886553Y-19266114D01*
X-765257Y-19173743D01*
X-655259Y-19015661D01*
X-628351Y-18849096D01*
X-684329Y-18680736D01*
X-784349Y-18553518D01*
X-882931Y-18463594D01*
X-962775Y-18424363D01*
X-1059805Y-18421861D01*
X-1108309Y-18427589D01*
X-1298242Y-18489985D01*
X-1432891Y-18615106D01*
X-1505849Y-18796547D01*
X-1511411Y-18830692D01*
X-1519144Y-18943552D01*
X-2055898Y-18943552D01*
X-2063608Y-18892709D01*
X-2040495Y-18642857D01*
X-1956550Y-18405301D01*
X-1811626Y-18194431D01*
X-1605575Y-18024633D01*
X-1568375Y-18003037D01*
X-1355887Y-17885833D01*
X-1354667Y-17208343D01*
X-1554291Y-17060255D01*
X-1788723Y-16845363D01*
X-1941221Y-16609227D01*
X-2011846Y-16351708D01*
X-2006006Y-16206042D01*
X-1461371Y-16206042D01*
X-1441735Y-16360773D01*
X-1372359Y-16499606D01*
X-1262812Y-16608072D01*
X-1122667Y-16671706D01*
X-961494Y-16676040D01*
X-833301Y-16632045D01*
X-685892Y-16515095D01*
X-607688Y-16349789D01*
X-593608Y-16220993D01*
X-628107Y-16039838D01*
X-721978Y-15901770D01*
X-857697Y-15814441D01*
X-1017741Y-15785505D01*
X-1184587Y-15822615D01*
X-1313136Y-15906750D01*
X-1421695Y-16049879D01*
X-1461371Y-16206042D01*
X-2006006Y-16206042D01*
X-2000657Y-16072667D01*
X-1995244Y-16044559D01*
X-1898560Y-15768643D01*
X-1733591Y-15541731D01*
X-1503754Y-15368400D01*
X-1481588Y-15356417D01*
X-1215579Y-15260363D01*
X-945404Y-15241791D01*
X-685262Y-15295945D01*
G36*
X-5799818Y-20442732D02*
X-5547168Y-20552358D01*
X-5342141Y-20727552D01*
X-5192751Y-20961924D01*
X-5120475Y-21179603D01*
X-5099426Y-21448985D01*
X-5151796Y-21702167D01*
X-5266778Y-21929265D01*
X-5433564Y-22120396D01*
X-5641349Y-22265676D01*
X-5879325Y-22355222D01*
X-6136686Y-22379150D01*
X-6382945Y-22334181D01*
X-6647458Y-22207956D01*
X-6855787Y-22022515D01*
X-7000701Y-21785925D01*
X-7064538Y-21573875D01*
X-7075219Y-21359092D01*
X-6534426Y-21359092D01*
X-6516185Y-21515578D01*
X-6435727Y-21660257D01*
X-6288646Y-21776134D01*
X-6286479Y-21777270D01*
X-6171908Y-21828356D01*
X-6077820Y-21838125D01*
X-5964931Y-21807063D01*
X-5902617Y-21782023D01*
X-5770339Y-21686322D01*
X-5678433Y-21542374D01*
X-5642564Y-21380354D01*
X-5651440Y-21298237D01*
X-5731183Y-21131661D01*
X-5865571Y-21012358D01*
X-6034159Y-20956960D01*
X-6073335Y-20955000D01*
X-6259905Y-20988754D01*
X-6401880Y-21078684D01*
X-6494856Y-21207796D01*
X-6534426Y-21359092D01*
X-7075219Y-21359092D01*
X-7078962Y-21283832D01*
X-7014816Y-21014562D01*
X-6877251Y-20777297D01*
X-6671422Y-20583273D01*
X-6584871Y-20528039D01*
X-6439040Y-20454892D01*
X-6303020Y-20417544D01*
X-6134367Y-20405401D01*
X-6092076Y-20405064D01*
X-5799818Y-20442732D01*
X-5799818Y-20442732D01*
G37*
X-5799818Y-20442732D02*
X-5547168Y-20552358D01*
X-5342141Y-20727552D01*
X-5192751Y-20961924D01*
X-5120475Y-21179603D01*
X-5099426Y-21448985D01*
X-5151796Y-21702167D01*
X-5266778Y-21929265D01*
X-5433564Y-22120396D01*
X-5641349Y-22265676D01*
X-5879325Y-22355222D01*
X-6136686Y-22379150D01*
X-6382945Y-22334181D01*
X-6647458Y-22207956D01*
X-6855787Y-22022515D01*
X-7000701Y-21785925D01*
X-7064538Y-21573875D01*
X-7075219Y-21359092D01*
X-6534426Y-21359092D01*
X-6516185Y-21515578D01*
X-6435727Y-21660257D01*
X-6288646Y-21776134D01*
X-6286479Y-21777270D01*
X-6171908Y-21828356D01*
X-6077820Y-21838125D01*
X-5964931Y-21807063D01*
X-5902617Y-21782023D01*
X-5770339Y-21686322D01*
X-5678433Y-21542374D01*
X-5642564Y-21380354D01*
X-5651440Y-21298237D01*
X-5731183Y-21131661D01*
X-5865571Y-21012358D01*
X-6034159Y-20956960D01*
X-6073335Y-20955000D01*
X-6259905Y-20988754D01*
X-6401880Y-21078684D01*
X-6494856Y-21207796D01*
X-6534426Y-21359092D01*
X-7075219Y-21359092D01*
X-7078962Y-21283832D01*
X-7014816Y-21014562D01*
X-6877251Y-20777297D01*
X-6671422Y-20583273D01*
X-6584871Y-20528039D01*
X-6439040Y-20454892D01*
X-6303020Y-20417544D01*
X-6134367Y-20405401D01*
X-6092076Y-20405064D01*
X-5799818Y-20442732D01*
G36*
X-3293894Y-20438943D02*
X-3055689Y-20539532D01*
X-2851238Y-20713303D01*
X-2830185Y-20737262D01*
X-2675112Y-20976792D01*
X-2594577Y-21236360D01*
X-2588632Y-21501504D01*
X-2657326Y-21757757D01*
X-2800710Y-21990656D01*
X-2825680Y-22019395D01*
X-3043118Y-22206080D01*
X-3291749Y-22328249D01*
X-3554545Y-22380470D01*
X-3814476Y-22357309D01*
X-3852334Y-22346947D01*
X-4006410Y-22278639D01*
X-4174835Y-22171499D01*
X-4317928Y-22051884D01*
X-4352073Y-22015056D01*
X-4490318Y-21789803D01*
X-4560175Y-21534340D01*
X-4561373Y-21362759D01*
X-4028936Y-21362759D01*
X-4002688Y-21521172D01*
X-3911682Y-21668118D01*
X-3796715Y-21761440D01*
X-3642844Y-21830812D01*
X-3504821Y-21829397D01*
X-3353967Y-21756347D01*
X-3341375Y-21747983D01*
X-3207517Y-21613027D01*
X-3144408Y-21448299D01*
X-3153739Y-21273005D01*
X-3237198Y-21106351D01*
X-3280631Y-21057187D01*
X-3378081Y-20986371D01*
X-3502983Y-20957611D01*
X-3578499Y-20955000D01*
X-3765207Y-20988999D01*
X-3905588Y-21079644D01*
X-3995034Y-21209907D01*
X-4028936Y-21362759D01*
X-4561373Y-21362759D01*
X-4562036Y-21267827D01*
X-4496296Y-21009423D01*
X-4363347Y-20778288D01*
X-4325767Y-20733720D01*
X-4117210Y-20551522D01*
X-3882006Y-20444726D01*
X-3605183Y-20406787D01*
X-3577167Y-20406526D01*
X-3293894Y-20438943D01*
X-3293894Y-20438943D01*
G37*
X-3293894Y-20438943D02*
X-3055689Y-20539532D01*
X-2851238Y-20713303D01*
X-2830185Y-20737262D01*
X-2675112Y-20976792D01*
X-2594577Y-21236360D01*
X-2588632Y-21501504D01*
X-2657326Y-21757757D01*
X-2800710Y-21990656D01*
X-2825680Y-22019395D01*
X-3043118Y-22206080D01*
X-3291749Y-22328249D01*
X-3554545Y-22380470D01*
X-3814476Y-22357309D01*
X-3852334Y-22346947D01*
X-4006410Y-22278639D01*
X-4174835Y-22171499D01*
X-4317928Y-22051884D01*
X-4352073Y-22015056D01*
X-4490318Y-21789803D01*
X-4560175Y-21534340D01*
X-4561373Y-21362759D01*
X-4028936Y-21362759D01*
X-4002688Y-21521172D01*
X-3911682Y-21668118D01*
X-3796715Y-21761440D01*
X-3642844Y-21830812D01*
X-3504821Y-21829397D01*
X-3353967Y-21756347D01*
X-3341375Y-21747983D01*
X-3207517Y-21613027D01*
X-3144408Y-21448299D01*
X-3153739Y-21273005D01*
X-3237198Y-21106351D01*
X-3280631Y-21057187D01*
X-3378081Y-20986371D01*
X-3502983Y-20957611D01*
X-3578499Y-20955000D01*
X-3765207Y-20988999D01*
X-3905588Y-21079644D01*
X-3995034Y-21209907D01*
X-4028936Y-21362759D01*
X-4561373Y-21362759D01*
X-4562036Y-21267827D01*
X-4496296Y-21009423D01*
X-4363347Y-20778288D01*
X-4325767Y-20733720D01*
X-4117210Y-20551522D01*
X-3882006Y-20444726D01*
X-3605183Y-20406787D01*
X-3577167Y-20406526D01*
X-3293894Y-20438943D01*
G36*
X-5693089Y-17955926D02*
X-5459220Y-18108845D01*
X-5268158Y-18322803D01*
X-5148314Y-18567519D01*
X-5100343Y-18828763D01*
X-5124896Y-19092302D01*
X-5222629Y-19343906D01*
X-5392216Y-19567370D01*
X-5601737Y-19722377D01*
X-5850385Y-19819935D01*
X-6114744Y-19855304D01*
X-6371400Y-19823745D01*
X-6477000Y-19786941D01*
X-6710901Y-19642379D01*
X-6896837Y-19439951D01*
X-7023253Y-19196959D01*
X-7078589Y-18930704D01*
X-7079863Y-18891362D01*
X-6533423Y-18891362D01*
X-6493368Y-19048598D01*
X-6383732Y-19195940D01*
X-6369552Y-19208750D01*
X-6222304Y-19286113D01*
X-6049836Y-19301882D01*
X-5885810Y-19255303D01*
X-5832273Y-19220768D01*
X-5708409Y-19077915D01*
X-5653296Y-18912012D01*
X-5666252Y-18743088D01*
X-5746595Y-18591173D01*
X-5856948Y-18496548D01*
X-6030231Y-18429508D01*
X-6192260Y-18433613D01*
X-6333315Y-18495358D01*
X-6443675Y-18601235D01*
X-6513618Y-18737739D01*
X-6533423Y-18891362D01*
X-7079863Y-18891362D01*
X-7080098Y-18884111D01*
X-7045106Y-18589725D01*
X-6937084Y-18337970D01*
X-6757167Y-18130640D01*
X-6506493Y-17969529D01*
X-6498167Y-17965559D01*
X-6225442Y-17879674D01*
X-5954091Y-17876876D01*
X-5693089Y-17955926D01*
X-5693089Y-17955926D01*
G37*
X-5693089Y-17955926D02*
X-5459220Y-18108845D01*
X-5268158Y-18322803D01*
X-5148314Y-18567519D01*
X-5100343Y-18828763D01*
X-5124896Y-19092302D01*
X-5222629Y-19343906D01*
X-5392216Y-19567370D01*
X-5601737Y-19722377D01*
X-5850385Y-19819935D01*
X-6114744Y-19855304D01*
X-6371400Y-19823745D01*
X-6477000Y-19786941D01*
X-6710901Y-19642379D01*
X-6896837Y-19439951D01*
X-7023253Y-19196959D01*
X-7078589Y-18930704D01*
X-7079863Y-18891362D01*
X-6533423Y-18891362D01*
X-6493368Y-19048598D01*
X-6383732Y-19195940D01*
X-6369552Y-19208750D01*
X-6222304Y-19286113D01*
X-6049836Y-19301882D01*
X-5885810Y-19255303D01*
X-5832273Y-19220768D01*
X-5708409Y-19077915D01*
X-5653296Y-18912012D01*
X-5666252Y-18743088D01*
X-5746595Y-18591173D01*
X-5856948Y-18496548D01*
X-6030231Y-18429508D01*
X-6192260Y-18433613D01*
X-6333315Y-18495358D01*
X-6443675Y-18601235D01*
X-6513618Y-18737739D01*
X-6533423Y-18891362D01*
X-7079863Y-18891362D01*
X-7080098Y-18884111D01*
X-7045106Y-18589725D01*
X-6937084Y-18337970D01*
X-6757167Y-18130640D01*
X-6506493Y-17969529D01*
X-6498167Y-17965559D01*
X-6225442Y-17879674D01*
X-5954091Y-17876876D01*
X-5693089Y-17955926D01*
G36*
X-3402156Y-17890916D02*
X-3275937Y-17912118D01*
X-3162942Y-17958371D01*
X-3066966Y-18013952D01*
X-2849794Y-18194078D01*
X-2696551Y-18417476D01*
X-2609582Y-18669316D01*
X-2591235Y-18934764D01*
X-2643856Y-19198989D01*
X-2769792Y-19447161D01*
X-2828160Y-19523388D01*
X-3014109Y-19682567D01*
X-3250011Y-19790956D01*
X-3514389Y-19843220D01*
X-3785769Y-19834028D01*
X-3937000Y-19798727D01*
X-4100606Y-19713248D01*
X-4265865Y-19571665D01*
X-4409605Y-19398819D01*
X-4508656Y-19219553D01*
X-4526658Y-19166581D01*
X-4567099Y-18877433D01*
X-4562668Y-18844683D01*
X-4020167Y-18844683D01*
X-3982241Y-19036631D01*
X-3883387Y-19183177D01*
X-3739283Y-19274984D01*
X-3565604Y-19302710D01*
X-3378025Y-19257016D01*
X-3350473Y-19243675D01*
X-3216885Y-19135163D01*
X-3147182Y-18994132D01*
X-3137140Y-18838360D01*
X-3182536Y-18685625D01*
X-3279144Y-18553704D01*
X-3422743Y-18460375D01*
X-3544235Y-18428137D01*
X-3659032Y-18419772D01*
X-3741320Y-18442318D01*
X-3827404Y-18509651D01*
X-3872318Y-18553518D01*
X-3973926Y-18674767D01*
X-4016337Y-18786003D01*
X-4020167Y-18844683D01*
X-4562668Y-18844683D01*
X-4529442Y-18599161D01*
X-4418858Y-18345330D01*
X-4240517Y-18129506D01*
X-4087368Y-18013952D01*
X-3961267Y-17943421D01*
X-3848254Y-17904548D01*
X-3712759Y-17888402D01*
X-3577167Y-17885833D01*
X-3402156Y-17890916D01*
X-3402156Y-17890916D01*
G37*
X-3402156Y-17890916D02*
X-3275937Y-17912118D01*
X-3162942Y-17958371D01*
X-3066966Y-18013952D01*
X-2849794Y-18194078D01*
X-2696551Y-18417476D01*
X-2609582Y-18669316D01*
X-2591235Y-18934764D01*
X-2643856Y-19198989D01*
X-2769792Y-19447161D01*
X-2828160Y-19523388D01*
X-3014109Y-19682567D01*
X-3250011Y-19790956D01*
X-3514389Y-19843220D01*
X-3785769Y-19834028D01*
X-3937000Y-19798727D01*
X-4100606Y-19713248D01*
X-4265865Y-19571665D01*
X-4409605Y-19398819D01*
X-4508656Y-19219553D01*
X-4526658Y-19166581D01*
X-4567099Y-18877433D01*
X-4562668Y-18844683D01*
X-4020167Y-18844683D01*
X-3982241Y-19036631D01*
X-3883387Y-19183177D01*
X-3739283Y-19274984D01*
X-3565604Y-19302710D01*
X-3378025Y-19257016D01*
X-3350473Y-19243675D01*
X-3216885Y-19135163D01*
X-3147182Y-18994132D01*
X-3137140Y-18838360D01*
X-3182536Y-18685625D01*
X-3279144Y-18553704D01*
X-3422743Y-18460375D01*
X-3544235Y-18428137D01*
X-3659032Y-18419772D01*
X-3741320Y-18442318D01*
X-3827404Y-18509651D01*
X-3872318Y-18553518D01*
X-3973926Y-18674767D01*
X-4016337Y-18786003D01*
X-4020167Y-18844683D01*
X-4562668Y-18844683D01*
X-4529442Y-18599161D01*
X-4418858Y-18345330D01*
X-4240517Y-18129506D01*
X-4087368Y-18013952D01*
X-3961267Y-17943421D01*
X-3848254Y-17904548D01*
X-3712759Y-17888402D01*
X-3577167Y-17885833D01*
X-3402156Y-17890916D01*
G36*
X9382755Y-15306323D02*
X9463229Y-15340197D01*
X9699204Y-15491117D01*
X9872535Y-15686354D01*
X9982853Y-15912863D01*
X10029785Y-16157598D01*
X10012961Y-16407514D01*
X9932011Y-16649564D01*
X9786563Y-16870703D01*
X9576247Y-17057886D01*
X9513194Y-17098022D01*
X9271000Y-17241543D01*
X9271000Y-17462009D01*
X9274384Y-17592410D01*
X9295737Y-17667336D01*
X9351860Y-17715970D01*
X9442418Y-17759773D01*
X9632533Y-17882488D01*
X9803544Y-18059084D01*
X9926594Y-18259342D01*
X9932462Y-18272978D01*
X9977694Y-18456173D01*
X9987611Y-18677424D01*
X9963281Y-18898337D01*
X9910239Y-19071167D01*
X9757344Y-19307971D01*
X9553752Y-19485110D01*
X9313107Y-19597950D01*
X9049056Y-19641857D01*
X8775242Y-19612197D01*
X8555768Y-19531115D01*
X8325692Y-19371956D01*
X8154294Y-19160472D01*
X8048288Y-18911186D01*
X8014390Y-18638618D01*
X8021827Y-18579949D01*
X8573749Y-18579949D01*
X8574699Y-18738183D01*
X8633379Y-18880089D01*
X8736413Y-18994687D01*
X8870428Y-19070996D01*
X9022049Y-19098037D01*
X9177900Y-19064830D01*
X9316589Y-18968590D01*
X9401586Y-18862350D01*
X9436209Y-18745731D01*
X9440333Y-18657271D01*
X9405845Y-18472356D01*
X9313949Y-18332432D01*
X9181996Y-18242747D01*
X9027339Y-18208550D01*
X8867328Y-18235089D01*
X8719315Y-18327614D01*
X8643904Y-18416364D01*
X8573749Y-18579949D01*
X8021827Y-18579949D01*
X8042071Y-18420261D01*
X8103050Y-18262083D01*
X8204129Y-18094630D01*
X8327784Y-17939745D01*
X8456490Y-17819269D01*
X8572720Y-17755046D01*
X8576629Y-17754014D01*
X8631091Y-17733823D01*
X8661469Y-17693957D01*
X8674543Y-17613707D01*
X8677089Y-17472360D01*
X8676995Y-17447327D01*
X8675657Y-17166167D01*
X8490807Y-17054064D01*
X8287657Y-16885120D01*
X8145520Y-16671403D01*
X8065962Y-16428425D01*
X8055738Y-16258131D01*
X8593666Y-16258131D01*
X8631931Y-16403728D01*
X8731459Y-16536859D01*
X8869353Y-16635826D01*
X9022714Y-16678930D01*
X9038166Y-16679333D01*
X9162324Y-16661576D01*
X9272052Y-16596760D01*
X9338733Y-16535400D01*
X9446390Y-16380882D01*
X9481494Y-16220801D01*
X9453993Y-16068615D01*
X9373836Y-15937781D01*
X9250973Y-15841758D01*
X9095352Y-15794002D01*
X8916921Y-15807972D01*
X8825317Y-15840908D01*
X8702593Y-15939767D01*
X8620589Y-16092854D01*
X8593666Y-16258131D01*
X8055738Y-16258131D01*
X8050548Y-16171699D01*
X8100844Y-15916739D01*
X8218417Y-15679057D01*
X8337508Y-15535304D01*
X8570019Y-15358613D01*
X8828333Y-15260409D01*
X9102546Y-15242407D01*
X9382755Y-15306323D01*
X9382755Y-15306323D01*
G37*
X9382755Y-15306323D02*
X9463229Y-15340197D01*
X9699204Y-15491117D01*
X9872535Y-15686354D01*
X9982853Y-15912863D01*
X10029785Y-16157598D01*
X10012961Y-16407514D01*
X9932011Y-16649564D01*
X9786563Y-16870703D01*
X9576247Y-17057886D01*
X9513194Y-17098022D01*
X9271000Y-17241543D01*
X9271000Y-17462009D01*
X9274384Y-17592410D01*
X9295737Y-17667336D01*
X9351860Y-17715970D01*
X9442418Y-17759773D01*
X9632533Y-17882488D01*
X9803544Y-18059084D01*
X9926594Y-18259342D01*
X9932462Y-18272978D01*
X9977694Y-18456173D01*
X9987611Y-18677424D01*
X9963281Y-18898337D01*
X9910239Y-19071167D01*
X9757344Y-19307971D01*
X9553752Y-19485110D01*
X9313107Y-19597950D01*
X9049056Y-19641857D01*
X8775242Y-19612197D01*
X8555768Y-19531115D01*
X8325692Y-19371956D01*
X8154294Y-19160472D01*
X8048288Y-18911186D01*
X8014390Y-18638618D01*
X8021827Y-18579949D01*
X8573749Y-18579949D01*
X8574699Y-18738183D01*
X8633379Y-18880089D01*
X8736413Y-18994687D01*
X8870428Y-19070996D01*
X9022049Y-19098037D01*
X9177900Y-19064830D01*
X9316589Y-18968590D01*
X9401586Y-18862350D01*
X9436209Y-18745731D01*
X9440333Y-18657271D01*
X9405845Y-18472356D01*
X9313949Y-18332432D01*
X9181996Y-18242747D01*
X9027339Y-18208550D01*
X8867328Y-18235089D01*
X8719315Y-18327614D01*
X8643904Y-18416364D01*
X8573749Y-18579949D01*
X8021827Y-18579949D01*
X8042071Y-18420261D01*
X8103050Y-18262083D01*
X8204129Y-18094630D01*
X8327784Y-17939745D01*
X8456490Y-17819269D01*
X8572720Y-17755046D01*
X8576629Y-17754014D01*
X8631091Y-17733823D01*
X8661469Y-17693957D01*
X8674543Y-17613707D01*
X8677089Y-17472360D01*
X8676995Y-17447327D01*
X8675657Y-17166167D01*
X8490807Y-17054064D01*
X8287657Y-16885120D01*
X8145520Y-16671403D01*
X8065962Y-16428425D01*
X8055738Y-16258131D01*
X8593666Y-16258131D01*
X8631931Y-16403728D01*
X8731459Y-16536859D01*
X8869353Y-16635826D01*
X9022714Y-16678930D01*
X9038166Y-16679333D01*
X9162324Y-16661576D01*
X9272052Y-16596760D01*
X9338733Y-16535400D01*
X9446390Y-16380882D01*
X9481494Y-16220801D01*
X9453993Y-16068615D01*
X9373836Y-15937781D01*
X9250973Y-15841758D01*
X9095352Y-15794002D01*
X8916921Y-15807972D01*
X8825317Y-15840908D01*
X8702593Y-15939767D01*
X8620589Y-16092854D01*
X8593666Y-16258131D01*
X8055738Y-16258131D01*
X8050548Y-16171699D01*
X8100844Y-15916739D01*
X8218417Y-15679057D01*
X8337508Y-15535304D01*
X8570019Y-15358613D01*
X8828333Y-15260409D01*
X9102546Y-15242407D01*
X9382755Y-15306323D01*
G36*
X-5866961Y-15259373D02*
X-5631552Y-15345216D01*
X-5406375Y-15501656D01*
X-5242778Y-15702298D01*
X-5140735Y-15933267D01*
X-5100221Y-16180687D01*
X-5121211Y-16430679D01*
X-5203679Y-16669369D01*
X-5347599Y-16882880D01*
X-5552947Y-17057334D01*
X-5634776Y-17104271D01*
X-5825248Y-17171842D01*
X-6048862Y-17206901D01*
X-6262484Y-17204192D01*
X-6340027Y-17190232D01*
X-6583967Y-17088020D01*
X-6791045Y-16922404D01*
X-6950895Y-16709382D01*
X-7053148Y-16464952D01*
X-7087438Y-16205110D01*
X-7087328Y-16203983D01*
X-6527871Y-16203983D01*
X-6509449Y-16360825D01*
X-6432766Y-16502637D01*
X-6293641Y-16611220D01*
X-6291247Y-16612408D01*
X-6171515Y-16663227D01*
X-6075527Y-16672719D01*
X-5962368Y-16641406D01*
X-5902617Y-16617357D01*
X-5766591Y-16518448D01*
X-5675422Y-16369275D01*
X-5643804Y-16198681D01*
X-5652212Y-16125759D01*
X-5724551Y-15978024D01*
X-5855929Y-15862730D01*
X-6021929Y-15798068D01*
X-6102505Y-15790333D01*
X-6275346Y-15825287D01*
X-6406640Y-15918013D01*
X-6492208Y-16050312D01*
X-6527871Y-16203983D01*
X-7087328Y-16203983D01*
X-7073128Y-16059038D01*
X-6983516Y-15788892D01*
X-6832267Y-15565039D01*
X-6632182Y-15393822D01*
X-6396067Y-15281578D01*
X-6136726Y-15234649D01*
X-5866961Y-15259373D01*
X-5866961Y-15259373D01*
G37*
X-5866961Y-15259373D02*
X-5631552Y-15345216D01*
X-5406375Y-15501656D01*
X-5242778Y-15702298D01*
X-5140735Y-15933267D01*
X-5100221Y-16180687D01*
X-5121211Y-16430679D01*
X-5203679Y-16669369D01*
X-5347599Y-16882880D01*
X-5552947Y-17057334D01*
X-5634776Y-17104271D01*
X-5825248Y-17171842D01*
X-6048862Y-17206901D01*
X-6262484Y-17204192D01*
X-6340027Y-17190232D01*
X-6583967Y-17088020D01*
X-6791045Y-16922404D01*
X-6950895Y-16709382D01*
X-7053148Y-16464952D01*
X-7087438Y-16205110D01*
X-7087328Y-16203983D01*
X-6527871Y-16203983D01*
X-6509449Y-16360825D01*
X-6432766Y-16502637D01*
X-6293641Y-16611220D01*
X-6291247Y-16612408D01*
X-6171515Y-16663227D01*
X-6075527Y-16672719D01*
X-5962368Y-16641406D01*
X-5902617Y-16617357D01*
X-5766591Y-16518448D01*
X-5675422Y-16369275D01*
X-5643804Y-16198681D01*
X-5652212Y-16125759D01*
X-5724551Y-15978024D01*
X-5855929Y-15862730D01*
X-6021929Y-15798068D01*
X-6102505Y-15790333D01*
X-6275346Y-15825287D01*
X-6406640Y-15918013D01*
X-6492208Y-16050312D01*
X-6527871Y-16203983D01*
X-7087328Y-16203983D01*
X-7073128Y-16059038D01*
X-6983516Y-15788892D01*
X-6832267Y-15565039D01*
X-6632182Y-15393822D01*
X-6396067Y-15281578D01*
X-6136726Y-15234649D01*
X-5866961Y-15259373D01*
G36*
X-3290715Y-15279501D02*
X-3043032Y-15385681D01*
X-2841562Y-15550277D01*
X-2693749Y-15763168D01*
X-2607034Y-16014234D01*
X-2588861Y-16293353D01*
X-2628980Y-16531167D01*
X-2707669Y-16696531D01*
X-2843533Y-16866962D01*
X-3013493Y-17020544D01*
X-3194470Y-17135364D01*
X-3312520Y-17180236D01*
X-3497103Y-17217677D01*
X-3649895Y-17220714D01*
X-3815593Y-17188114D01*
X-3897855Y-17164093D01*
X-4124213Y-17052724D01*
X-4318540Y-16877946D01*
X-4466462Y-16659159D01*
X-4553602Y-16415758D01*
X-4570835Y-16256000D01*
X-4568135Y-16227183D01*
X-4023029Y-16227183D01*
X-3988022Y-16388616D01*
X-3898221Y-16529268D01*
X-3761309Y-16631116D01*
X-3584970Y-16676135D01*
X-3572844Y-16676650D01*
X-3481077Y-16655384D01*
X-3366524Y-16599377D01*
X-3341375Y-16583316D01*
X-3210439Y-16449491D01*
X-3144163Y-16279935D01*
X-3150250Y-16107041D01*
X-3228376Y-15948313D01*
X-3357647Y-15839997D01*
X-3517567Y-15787382D01*
X-3687637Y-15795759D01*
X-3847363Y-15870417D01*
X-3897924Y-15914077D01*
X-3995557Y-16062995D01*
X-4023029Y-16227183D01*
X-4568135Y-16227183D01*
X-4546019Y-15991210D01*
X-4462804Y-15767864D01*
X-4331115Y-15580733D01*
X-4128935Y-15395307D01*
X-3898202Y-15284669D01*
X-3625152Y-15242632D01*
X-3577167Y-15241859D01*
X-3290715Y-15279501D01*
X-3290715Y-15279501D01*
G37*
X-3290715Y-15279501D02*
X-3043032Y-15385681D01*
X-2841562Y-15550277D01*
X-2693749Y-15763168D01*
X-2607034Y-16014234D01*
X-2588861Y-16293353D01*
X-2628980Y-16531167D01*
X-2707669Y-16696531D01*
X-2843533Y-16866962D01*
X-3013493Y-17020544D01*
X-3194470Y-17135364D01*
X-3312520Y-17180236D01*
X-3497103Y-17217677D01*
X-3649895Y-17220714D01*
X-3815593Y-17188114D01*
X-3897855Y-17164093D01*
X-4124213Y-17052724D01*
X-4318540Y-16877946D01*
X-4466462Y-16659159D01*
X-4553602Y-16415758D01*
X-4570835Y-16256000D01*
X-4568135Y-16227183D01*
X-4023029Y-16227183D01*
X-3988022Y-16388616D01*
X-3898221Y-16529268D01*
X-3761309Y-16631116D01*
X-3584970Y-16676135D01*
X-3572844Y-16676650D01*
X-3481077Y-16655384D01*
X-3366524Y-16599377D01*
X-3341375Y-16583316D01*
X-3210439Y-16449491D01*
X-3144163Y-16279935D01*
X-3150250Y-16107041D01*
X-3228376Y-15948313D01*
X-3357647Y-15839997D01*
X-3517567Y-15787382D01*
X-3687637Y-15795759D01*
X-3847363Y-15870417D01*
X-3897924Y-15914077D01*
X-3995557Y-16062995D01*
X-4023029Y-16227183D01*
X-4568135Y-16227183D01*
X-4546019Y-15991210D01*
X-4462804Y-15767864D01*
X-4331115Y-15580733D01*
X-4128935Y-15395307D01*
X-3898202Y-15284669D01*
X-3625152Y-15242632D01*
X-3577167Y-15241859D01*
X-3290715Y-15279501D01*
G36*
X-3275830Y-10141821D02*
X-3042181Y-10257674D01*
X-2844664Y-10429611D01*
X-2694908Y-10648107D01*
X-2604545Y-10903640D01*
X-2582747Y-11117411D01*
X-2615441Y-11316431D01*
X-2702728Y-11523844D01*
X-2829834Y-11718575D01*
X-2981983Y-11879548D01*
X-3144403Y-11985690D01*
X-3206750Y-12007522D01*
X-3253360Y-12025302D01*
X-3281644Y-12061417D01*
X-3296143Y-12133916D01*
X-3301394Y-12260848D01*
X-3302000Y-12386229D01*
X-3302000Y-12740612D01*
X-3137216Y-12824679D01*
X-2919951Y-12979248D01*
X-2746384Y-13189419D01*
X-2629599Y-13434173D01*
X-2582682Y-13692491D01*
X-2582334Y-13716000D01*
X-2621918Y-13972202D01*
X-2731481Y-14218317D01*
X-2897235Y-14431932D01*
X-3105392Y-14590636D01*
X-3127626Y-14602428D01*
X-3322481Y-14673289D01*
X-3540442Y-14708915D01*
X-3740869Y-14703679D01*
X-3788834Y-14693991D01*
X-4042686Y-14590169D01*
X-4266910Y-14424413D01*
X-4440543Y-14214433D01*
X-4506355Y-14087776D01*
X-4558788Y-13878317D01*
X-4563609Y-13712289D01*
X-4021667Y-13712289D01*
X-3985946Y-13896196D01*
X-3889942Y-14036872D01*
X-3750392Y-14126249D01*
X-3584035Y-14156255D01*
X-3407607Y-14118820D01*
X-3302000Y-14059283D01*
X-3194442Y-13933484D01*
X-3146193Y-13768706D01*
X-3162822Y-13591397D01*
X-3189005Y-13522640D01*
X-3296010Y-13379138D01*
X-3436926Y-13298455D01*
X-3593786Y-13276498D01*
X-3748624Y-13309177D01*
X-3883473Y-13392398D01*
X-3980366Y-13522070D01*
X-4021336Y-13694100D01*
X-4021667Y-13712289D01*
X-4563609Y-13712289D01*
X-4565744Y-13638790D01*
X-4527926Y-13410089D01*
X-4493021Y-13313833D01*
X-4408904Y-13177472D01*
X-4286418Y-13034312D01*
X-4149576Y-12908247D01*
X-4022392Y-12823175D01*
X-3984014Y-12807318D01*
X-3941147Y-12786826D01*
X-3914684Y-12746853D01*
X-3900726Y-12669791D01*
X-3895377Y-12538032D01*
X-3894667Y-12403667D01*
X-3896307Y-12223087D01*
X-3903823Y-12109544D01*
X-3921115Y-12045427D01*
X-3952079Y-12013131D01*
X-3984014Y-12000015D01*
X-4065804Y-11956053D01*
X-4176943Y-11874751D01*
X-4244630Y-11817245D01*
X-4424479Y-11604422D01*
X-4532656Y-11365763D01*
X-4572589Y-11114526D01*
X-4569010Y-11078484D01*
X-4023843Y-11078484D01*
X-3995576Y-11241741D01*
X-3899175Y-11389666D01*
X-3897924Y-11390923D01*
X-3750166Y-11487352D01*
X-3578638Y-11522231D01*
X-3410286Y-11494619D01*
X-3280631Y-11412479D01*
X-3173229Y-11255300D01*
X-3138719Y-11087529D01*
X-3169924Y-10926092D01*
X-3259665Y-10787917D01*
X-3400765Y-10689929D01*
X-3586047Y-10649056D01*
X-3604482Y-10648757D01*
X-3774295Y-10685031D01*
X-3905756Y-10781298D01*
X-3991421Y-10918726D01*
X-4023843Y-11078484D01*
X-4569010Y-11078484D01*
X-4547705Y-10863972D01*
X-4461432Y-10627362D01*
X-4317197Y-10417954D01*
X-4118428Y-10249009D01*
X-3868553Y-10133786D01*
X-3805001Y-10116467D01*
X-3533980Y-10091578D01*
X-3275830Y-10141821D01*
X-3275830Y-10141821D01*
G37*
X-3275830Y-10141821D02*
X-3042181Y-10257674D01*
X-2844664Y-10429611D01*
X-2694908Y-10648107D01*
X-2604545Y-10903640D01*
X-2582747Y-11117411D01*
X-2615441Y-11316431D01*
X-2702728Y-11523844D01*
X-2829834Y-11718575D01*
X-2981983Y-11879548D01*
X-3144403Y-11985690D01*
X-3206750Y-12007522D01*
X-3253360Y-12025302D01*
X-3281644Y-12061417D01*
X-3296143Y-12133916D01*
X-3301394Y-12260848D01*
X-3302000Y-12386229D01*
X-3302000Y-12740612D01*
X-3137216Y-12824679D01*
X-2919951Y-12979248D01*
X-2746384Y-13189419D01*
X-2629599Y-13434173D01*
X-2582682Y-13692491D01*
X-2582334Y-13716000D01*
X-2621918Y-13972202D01*
X-2731481Y-14218317D01*
X-2897235Y-14431932D01*
X-3105392Y-14590636D01*
X-3127626Y-14602428D01*
X-3322481Y-14673289D01*
X-3540442Y-14708915D01*
X-3740869Y-14703679D01*
X-3788834Y-14693991D01*
X-4042686Y-14590169D01*
X-4266910Y-14424413D01*
X-4440543Y-14214433D01*
X-4506355Y-14087776D01*
X-4558788Y-13878317D01*
X-4563609Y-13712289D01*
X-4021667Y-13712289D01*
X-3985946Y-13896196D01*
X-3889942Y-14036872D01*
X-3750392Y-14126249D01*
X-3584035Y-14156255D01*
X-3407607Y-14118820D01*
X-3302000Y-14059283D01*
X-3194442Y-13933484D01*
X-3146193Y-13768706D01*
X-3162822Y-13591397D01*
X-3189005Y-13522640D01*
X-3296010Y-13379138D01*
X-3436926Y-13298455D01*
X-3593786Y-13276498D01*
X-3748624Y-13309177D01*
X-3883473Y-13392398D01*
X-3980366Y-13522070D01*
X-4021336Y-13694100D01*
X-4021667Y-13712289D01*
X-4563609Y-13712289D01*
X-4565744Y-13638790D01*
X-4527926Y-13410089D01*
X-4493021Y-13313833D01*
X-4408904Y-13177472D01*
X-4286418Y-13034312D01*
X-4149576Y-12908247D01*
X-4022392Y-12823175D01*
X-3984014Y-12807318D01*
X-3941147Y-12786826D01*
X-3914684Y-12746853D01*
X-3900726Y-12669791D01*
X-3895377Y-12538032D01*
X-3894667Y-12403667D01*
X-3896307Y-12223087D01*
X-3903823Y-12109544D01*
X-3921115Y-12045427D01*
X-3952079Y-12013131D01*
X-3984014Y-12000015D01*
X-4065804Y-11956053D01*
X-4176943Y-11874751D01*
X-4244630Y-11817245D01*
X-4424479Y-11604422D01*
X-4532656Y-11365763D01*
X-4572589Y-11114526D01*
X-4569010Y-11078484D01*
X-4023843Y-11078484D01*
X-3995576Y-11241741D01*
X-3899175Y-11389666D01*
X-3897924Y-11390923D01*
X-3750166Y-11487352D01*
X-3578638Y-11522231D01*
X-3410286Y-11494619D01*
X-3280631Y-11412479D01*
X-3173229Y-11255300D01*
X-3138719Y-11087529D01*
X-3169924Y-10926092D01*
X-3259665Y-10787917D01*
X-3400765Y-10689929D01*
X-3586047Y-10649056D01*
X-3604482Y-10648757D01*
X-3774295Y-10685031D01*
X-3905756Y-10781298D01*
X-3991421Y-10918726D01*
X-4023843Y-11078484D01*
X-4569010Y-11078484D01*
X-4547705Y-10863972D01*
X-4461432Y-10627362D01*
X-4317197Y-10417954D01*
X-4118428Y-10249009D01*
X-3868553Y-10133786D01*
X-3805001Y-10116467D01*
X-3533980Y-10091578D01*
X-3275830Y-10141821D01*
G36*
X-845880Y-10109991D02*
X-644399Y-10172054D01*
X-635000Y-10176842D01*
X-399510Y-10340561D01*
X-225167Y-10544918D01*
X-112472Y-10776898D01*
X-61920Y-11023490D01*
X-74009Y-11271681D01*
X-149237Y-11508458D01*
X-288100Y-11720809D01*
X-491097Y-11895721D01*
X-567583Y-11940549D01*
X-762000Y-12043688D01*
X-762000Y-12734780D01*
X-571449Y-12827025D01*
X-411057Y-12929282D01*
X-262853Y-13066077D01*
X-149945Y-13213039D01*
X-99812Y-13324417D01*
X-79362Y-13375061D01*
X-37053Y-13403714D01*
X47343Y-13416526D01*
X194054Y-13419650D01*
X213403Y-13419667D01*
X368841Y-13416813D01*
X460066Y-13404427D01*
X507444Y-13376773D01*
X530651Y-13330320D01*
X595373Y-13212365D01*
X709589Y-13076207D01*
X849405Y-12945861D01*
X990924Y-12845339D01*
X1037166Y-12821313D01*
X1220035Y-12767479D01*
X1439015Y-12745292D01*
X1656209Y-12755793D01*
X1832276Y-12799418D01*
X2045252Y-12925476D01*
X2229093Y-13102577D01*
X2331050Y-13255658D01*
X2414720Y-13419667D01*
X2710193Y-13419667D01*
X2875946Y-13414990D01*
X2969958Y-13399348D01*
X3004723Y-13370326D01*
X3005666Y-13362518D01*
X3039173Y-13261330D01*
X3127447Y-13137365D01*
X3252117Y-13010499D01*
X3394812Y-12900610D01*
X3475768Y-12853885D01*
X3745857Y-12760661D01*
X4013215Y-12743062D01*
X4266231Y-12794170D01*
X4493290Y-12907069D01*
X4682780Y-13074840D01*
X4823086Y-13290567D01*
X4902597Y-13547332D01*
X4916278Y-13711911D01*
X4880630Y-14007041D01*
X4775787Y-14260491D01*
X4609389Y-14464489D01*
X4389079Y-14611265D01*
X4122501Y-14693046D01*
X3937000Y-14707702D01*
X3642472Y-14669906D01*
X3388353Y-14558130D01*
X3178572Y-14374795D01*
X3030579Y-14149917D01*
X2988505Y-14075456D01*
X2941237Y-14034281D01*
X2864335Y-14016544D01*
X2733356Y-14012399D01*
X2689065Y-14012333D01*
X2541223Y-14014307D01*
X2453664Y-14027305D01*
X2402008Y-14061941D01*
X2361873Y-14128827D01*
X2346134Y-14161613D01*
X2273182Y-14274825D01*
X2162830Y-14403485D01*
X2086781Y-14476830D01*
X1857556Y-14627243D01*
X1605991Y-14705279D01*
X1347236Y-14713619D01*
X1096440Y-14654944D01*
X868754Y-14531935D01*
X679326Y-14347272D01*
X592666Y-14212425D01*
X486833Y-14012578D01*
X205672Y-14012456D01*
X54749Y-14014574D01*
X-32400Y-14025980D01*
X-76642Y-14054001D01*
X-98847Y-14105964D01*
X-102695Y-14120731D01*
X-169425Y-14253503D01*
X-293724Y-14395326D01*
X-453436Y-14526748D01*
X-626403Y-14628318D01*
X-723433Y-14665696D01*
X-878587Y-14708395D01*
X-992323Y-14724686D01*
X-1103499Y-14715077D01*
X-1250972Y-14680077D01*
X-1277597Y-14672945D01*
X-1435140Y-14614261D01*
X-1586149Y-14533020D01*
X-1622834Y-14507375D01*
X-1812356Y-14314232D01*
X-1936649Y-14084249D01*
X-1996455Y-13832736D01*
X-1994937Y-13733312D01*
X-1452163Y-13733312D01*
X-1413481Y-13899001D01*
X-1314106Y-14042598D01*
X-1164167Y-14141279D01*
X-1051633Y-14174314D01*
X-946625Y-14164073D01*
X-824586Y-14114895D01*
X-696343Y-14017972D01*
X-614177Y-13901244D01*
X-568034Y-13725265D01*
X-570767Y-13707034D01*
X1016000Y-13707034D01*
X1053747Y-13895820D01*
X1156918Y-14047965D01*
X1310406Y-14147583D01*
X1464822Y-14178983D01*
X1556394Y-14157757D01*
X1671222Y-14101802D01*
X1697656Y-14084993D01*
X1831512Y-13950892D01*
X1893691Y-13787102D01*
X3489378Y-13787102D01*
X3549666Y-13943146D01*
X3659902Y-14068939D01*
X3803883Y-14150987D01*
X3965404Y-14175795D01*
X4119699Y-14134378D01*
X4267108Y-14017429D01*
X4345312Y-13852123D01*
X4359392Y-13723327D01*
X4324671Y-13542768D01*
X4230189Y-13404679D01*
X4093534Y-13317100D01*
X3932295Y-13288072D01*
X3764061Y-13325634D01*
X3648535Y-13398375D01*
X3557462Y-13497407D01*
X3499091Y-13601412D01*
X3495244Y-13614304D01*
X3489378Y-13787102D01*
X1893691Y-13787102D01*
X1893923Y-13786493D01*
X1880057Y-13609986D01*
X1845655Y-13527719D01*
X1731897Y-13388565D01*
X1586846Y-13310837D01*
X1428325Y-13290682D01*
X1274157Y-13324249D01*
X1142166Y-13407686D01*
X1050173Y-13537140D01*
X1016000Y-13707034D01*
X-570767Y-13707034D01*
X-591910Y-13566002D01*
X-671449Y-13433165D01*
X-792296Y-13336460D01*
X-940094Y-13285596D01*
X-1100486Y-13290278D01*
X-1259116Y-13360216D01*
X-1328690Y-13418102D01*
X-1425462Y-13566142D01*
X-1452163Y-13733312D01*
X-1994937Y-13733312D01*
X-1992518Y-13575005D01*
X-1925581Y-13326364D01*
X-1796388Y-13102124D01*
X-1605682Y-12917594D01*
X-1543651Y-12876510D01*
X-1357343Y-12763500D01*
X-1356615Y-12403667D01*
X-1355887Y-12043833D01*
X-1564281Y-11928916D01*
X-1776344Y-11768496D01*
X-1926440Y-11564746D01*
X-2014910Y-11331657D01*
X-2042097Y-11083220D01*
X-2041419Y-11078200D01*
X-1498990Y-11078200D01*
X-1469545Y-11225726D01*
X-1391434Y-11354803D01*
X-1276037Y-11453405D01*
X-1134738Y-11509507D01*
X-978916Y-11511083D01*
X-819955Y-11446110D01*
X-768361Y-11407689D01*
X-647948Y-11260487D01*
X-609231Y-11091415D01*
X-650432Y-10908030D01*
X-753696Y-10756769D01*
X-899209Y-10666392D01*
X-1066754Y-10640631D01*
X-1236114Y-10683218D01*
X-1366352Y-10775897D01*
X-1468386Y-10924248D01*
X-1498990Y-11078200D01*
X-2041419Y-11078200D01*
X-2008343Y-10833427D01*
X-1913991Y-10596269D01*
X-1759384Y-10385738D01*
X-1544864Y-10215825D01*
X-1522024Y-10202664D01*
X-1318202Y-10126271D01*
X-1081651Y-10095055D01*
X-845880Y-10109991D01*
X-845880Y-10109991D01*
G37*
X-845880Y-10109991D02*
X-644399Y-10172054D01*
X-635000Y-10176842D01*
X-399510Y-10340561D01*
X-225167Y-10544918D01*
X-112472Y-10776898D01*
X-61920Y-11023490D01*
X-74009Y-11271681D01*
X-149237Y-11508458D01*
X-288100Y-11720809D01*
X-491097Y-11895721D01*
X-567583Y-11940549D01*
X-762000Y-12043688D01*
X-762000Y-12734780D01*
X-571449Y-12827025D01*
X-411057Y-12929282D01*
X-262853Y-13066077D01*
X-149945Y-13213039D01*
X-99812Y-13324417D01*
X-79362Y-13375061D01*
X-37053Y-13403714D01*
X47343Y-13416526D01*
X194054Y-13419650D01*
X213403Y-13419667D01*
X368841Y-13416813D01*
X460066Y-13404427D01*
X507444Y-13376773D01*
X530651Y-13330320D01*
X595373Y-13212365D01*
X709589Y-13076207D01*
X849405Y-12945861D01*
X990924Y-12845339D01*
X1037166Y-12821313D01*
X1220035Y-12767479D01*
X1439015Y-12745292D01*
X1656209Y-12755793D01*
X1832276Y-12799418D01*
X2045252Y-12925476D01*
X2229093Y-13102577D01*
X2331050Y-13255658D01*
X2414720Y-13419667D01*
X2710193Y-13419667D01*
X2875946Y-13414990D01*
X2969958Y-13399348D01*
X3004723Y-13370326D01*
X3005666Y-13362518D01*
X3039173Y-13261330D01*
X3127447Y-13137365D01*
X3252117Y-13010499D01*
X3394812Y-12900610D01*
X3475768Y-12853885D01*
X3745857Y-12760661D01*
X4013215Y-12743062D01*
X4266231Y-12794170D01*
X4493290Y-12907069D01*
X4682780Y-13074840D01*
X4823086Y-13290567D01*
X4902597Y-13547332D01*
X4916278Y-13711911D01*
X4880630Y-14007041D01*
X4775787Y-14260491D01*
X4609389Y-14464489D01*
X4389079Y-14611265D01*
X4122501Y-14693046D01*
X3937000Y-14707702D01*
X3642472Y-14669906D01*
X3388353Y-14558130D01*
X3178572Y-14374795D01*
X3030579Y-14149917D01*
X2988505Y-14075456D01*
X2941237Y-14034281D01*
X2864335Y-14016544D01*
X2733356Y-14012399D01*
X2689065Y-14012333D01*
X2541223Y-14014307D01*
X2453664Y-14027305D01*
X2402008Y-14061941D01*
X2361873Y-14128827D01*
X2346134Y-14161613D01*
X2273182Y-14274825D01*
X2162830Y-14403485D01*
X2086781Y-14476830D01*
X1857556Y-14627243D01*
X1605991Y-14705279D01*
X1347236Y-14713619D01*
X1096440Y-14654944D01*
X868754Y-14531935D01*
X679326Y-14347272D01*
X592666Y-14212425D01*
X486833Y-14012578D01*
X205672Y-14012456D01*
X54749Y-14014574D01*
X-32400Y-14025980D01*
X-76642Y-14054001D01*
X-98847Y-14105964D01*
X-102695Y-14120731D01*
X-169425Y-14253503D01*
X-293724Y-14395326D01*
X-453436Y-14526748D01*
X-626403Y-14628318D01*
X-723433Y-14665696D01*
X-878587Y-14708395D01*
X-992323Y-14724686D01*
X-1103499Y-14715077D01*
X-1250972Y-14680077D01*
X-1277597Y-14672945D01*
X-1435140Y-14614261D01*
X-1586149Y-14533020D01*
X-1622834Y-14507375D01*
X-1812356Y-14314232D01*
X-1936649Y-14084249D01*
X-1996455Y-13832736D01*
X-1994937Y-13733312D01*
X-1452163Y-13733312D01*
X-1413481Y-13899001D01*
X-1314106Y-14042598D01*
X-1164167Y-14141279D01*
X-1051633Y-14174314D01*
X-946625Y-14164073D01*
X-824586Y-14114895D01*
X-696343Y-14017972D01*
X-614177Y-13901244D01*
X-568034Y-13725265D01*
X-570767Y-13707034D01*
X1016000Y-13707034D01*
X1053747Y-13895820D01*
X1156918Y-14047965D01*
X1310406Y-14147583D01*
X1464822Y-14178983D01*
X1556394Y-14157757D01*
X1671222Y-14101802D01*
X1697656Y-14084993D01*
X1831512Y-13950892D01*
X1893691Y-13787102D01*
X3489378Y-13787102D01*
X3549666Y-13943146D01*
X3659902Y-14068939D01*
X3803883Y-14150987D01*
X3965404Y-14175795D01*
X4119699Y-14134378D01*
X4267108Y-14017429D01*
X4345312Y-13852123D01*
X4359392Y-13723327D01*
X4324671Y-13542768D01*
X4230189Y-13404679D01*
X4093534Y-13317100D01*
X3932295Y-13288072D01*
X3764061Y-13325634D01*
X3648535Y-13398375D01*
X3557462Y-13497407D01*
X3499091Y-13601412D01*
X3495244Y-13614304D01*
X3489378Y-13787102D01*
X1893691Y-13787102D01*
X1893923Y-13786493D01*
X1880057Y-13609986D01*
X1845655Y-13527719D01*
X1731897Y-13388565D01*
X1586846Y-13310837D01*
X1428325Y-13290682D01*
X1274157Y-13324249D01*
X1142166Y-13407686D01*
X1050173Y-13537140D01*
X1016000Y-13707034D01*
X-570767Y-13707034D01*
X-591910Y-13566002D01*
X-671449Y-13433165D01*
X-792296Y-13336460D01*
X-940094Y-13285596D01*
X-1100486Y-13290278D01*
X-1259116Y-13360216D01*
X-1328690Y-13418102D01*
X-1425462Y-13566142D01*
X-1452163Y-13733312D01*
X-1994937Y-13733312D01*
X-1992518Y-13575005D01*
X-1925581Y-13326364D01*
X-1796388Y-13102124D01*
X-1605682Y-12917594D01*
X-1543651Y-12876510D01*
X-1357343Y-12763500D01*
X-1356615Y-12403667D01*
X-1355887Y-12043833D01*
X-1564281Y-11928916D01*
X-1776344Y-11768496D01*
X-1926440Y-11564746D01*
X-2014910Y-11331657D01*
X-2042097Y-11083220D01*
X-2041419Y-11078200D01*
X-1498990Y-11078200D01*
X-1469545Y-11225726D01*
X-1391434Y-11354803D01*
X-1276037Y-11453405D01*
X-1134738Y-11509507D01*
X-978916Y-11511083D01*
X-819955Y-11446110D01*
X-768361Y-11407689D01*
X-647948Y-11260487D01*
X-609231Y-11091415D01*
X-650432Y-10908030D01*
X-753696Y-10756769D01*
X-899209Y-10666392D01*
X-1066754Y-10640631D01*
X-1236114Y-10683218D01*
X-1366352Y-10775897D01*
X-1468386Y-10924248D01*
X-1498990Y-11078200D01*
X-2041419Y-11078200D01*
X-2008343Y-10833427D01*
X-1913991Y-10596269D01*
X-1759384Y-10385738D01*
X-1544864Y-10215825D01*
X-1522024Y-10202664D01*
X-1318202Y-10126271D01*
X-1081651Y-10095055D01*
X-845880Y-10109991D01*
G36*
X-5810173Y-10137474D02*
X-5554561Y-10247019D01*
X-5345270Y-10421035D01*
X-5191310Y-10651859D01*
X-5101691Y-10931830D01*
X-5097732Y-10955108D01*
X-5098385Y-11186544D01*
X-5162764Y-11426004D01*
X-5279094Y-11650386D01*
X-5435603Y-11836590D01*
X-5607699Y-11955632D01*
X-5757334Y-12026639D01*
X-5757334Y-12401063D01*
X-5756018Y-12580378D01*
X-5749195Y-12692570D01*
X-5732548Y-12755175D01*
X-5701764Y-12785729D01*
X-5659138Y-12800134D01*
X-5555770Y-12853157D01*
X-5430232Y-12954803D01*
X-5306156Y-13082486D01*
X-5207172Y-13213619D01*
X-5183637Y-13254582D01*
X-5101879Y-13499729D01*
X-5089182Y-13766078D01*
X-5142661Y-14030194D01*
X-5259430Y-14268645D01*
X-5317953Y-14345506D01*
X-5525119Y-14525870D01*
X-5773432Y-14643106D01*
X-6043637Y-14692910D01*
X-6316476Y-14670979D01*
X-6500530Y-14609820D01*
X-6677861Y-14494535D01*
X-6843424Y-14327013D01*
X-6971097Y-14136967D01*
X-7020537Y-14018326D01*
X-7064343Y-13741793D01*
X-7057450Y-13676437D01*
X-6519334Y-13676437D01*
X-6493329Y-13829360D01*
X-6426806Y-13976162D01*
X-6337004Y-14081079D01*
X-6318251Y-14093608D01*
X-6205842Y-14127372D01*
X-6055765Y-14136360D01*
X-5911375Y-14120380D01*
X-5839656Y-14095745D01*
X-5762521Y-14027681D01*
X-5694272Y-13928514D01*
X-5633896Y-13739071D01*
X-5656887Y-13563445D01*
X-5753861Y-13409751D01*
X-5847005Y-13320825D01*
X-5941004Y-13280732D01*
X-6074834Y-13271500D01*
X-6210399Y-13281084D01*
X-6304054Y-13321819D01*
X-6395806Y-13409751D01*
X-6493114Y-13558859D01*
X-6519334Y-13676437D01*
X-7057450Y-13676437D01*
X-7035809Y-13471264D01*
X-6941771Y-13221732D01*
X-6789063Y-13008190D01*
X-6584517Y-12845632D01*
X-6458727Y-12785766D01*
X-6404651Y-12760402D01*
X-6372316Y-12722115D01*
X-6356150Y-12651421D01*
X-6350579Y-12528834D01*
X-6350000Y-12405575D01*
X-6350000Y-12066721D01*
X-6510990Y-11984590D01*
X-6756408Y-11817540D01*
X-6931452Y-11603926D01*
X-7034699Y-11346321D01*
X-7053626Y-11157853D01*
X-6517794Y-11157853D01*
X-6454164Y-11319169D01*
X-6395590Y-11390923D01*
X-6240112Y-11492866D01*
X-6066058Y-11517934D01*
X-5891317Y-11465661D01*
X-5804355Y-11406281D01*
X-5694697Y-11268582D01*
X-5652101Y-11112210D01*
X-5668759Y-10954232D01*
X-5736867Y-10811713D01*
X-5848619Y-10701719D01*
X-5996209Y-10641318D01*
X-6153249Y-10643466D01*
X-6324881Y-10714300D01*
X-6446971Y-10836353D01*
X-6513335Y-10990559D01*
X-6517794Y-11157853D01*
X-7053626Y-11157853D01*
X-7064729Y-11047295D01*
X-7062182Y-10988210D01*
X-7010986Y-10718324D01*
X-6891345Y-10492292D01*
X-6697889Y-10301478D01*
X-6588621Y-10226836D01*
X-6455485Y-10153938D01*
X-6332504Y-10115507D01*
X-6180366Y-10101276D01*
X-6103097Y-10100063D01*
X-5810173Y-10137474D01*
X-5810173Y-10137474D01*
G37*
X-5810173Y-10137474D02*
X-5554561Y-10247019D01*
X-5345270Y-10421035D01*
X-5191310Y-10651859D01*
X-5101691Y-10931830D01*
X-5097732Y-10955108D01*
X-5098385Y-11186544D01*
X-5162764Y-11426004D01*
X-5279094Y-11650386D01*
X-5435603Y-11836590D01*
X-5607699Y-11955632D01*
X-5757334Y-12026639D01*
X-5757334Y-12401063D01*
X-5756018Y-12580378D01*
X-5749195Y-12692570D01*
X-5732548Y-12755175D01*
X-5701764Y-12785729D01*
X-5659138Y-12800134D01*
X-5555770Y-12853157D01*
X-5430232Y-12954803D01*
X-5306156Y-13082486D01*
X-5207172Y-13213619D01*
X-5183637Y-13254582D01*
X-5101879Y-13499729D01*
X-5089182Y-13766078D01*
X-5142661Y-14030194D01*
X-5259430Y-14268645D01*
X-5317953Y-14345506D01*
X-5525119Y-14525870D01*
X-5773432Y-14643106D01*
X-6043637Y-14692910D01*
X-6316476Y-14670979D01*
X-6500530Y-14609820D01*
X-6677861Y-14494535D01*
X-6843424Y-14327013D01*
X-6971097Y-14136967D01*
X-7020537Y-14018326D01*
X-7064343Y-13741793D01*
X-7057450Y-13676437D01*
X-6519334Y-13676437D01*
X-6493329Y-13829360D01*
X-6426806Y-13976162D01*
X-6337004Y-14081079D01*
X-6318251Y-14093608D01*
X-6205842Y-14127372D01*
X-6055765Y-14136360D01*
X-5911375Y-14120380D01*
X-5839656Y-14095745D01*
X-5762521Y-14027681D01*
X-5694272Y-13928514D01*
X-5633896Y-13739071D01*
X-5656887Y-13563445D01*
X-5753861Y-13409751D01*
X-5847005Y-13320825D01*
X-5941004Y-13280732D01*
X-6074834Y-13271500D01*
X-6210399Y-13281084D01*
X-6304054Y-13321819D01*
X-6395806Y-13409751D01*
X-6493114Y-13558859D01*
X-6519334Y-13676437D01*
X-7057450Y-13676437D01*
X-7035809Y-13471264D01*
X-6941771Y-13221732D01*
X-6789063Y-13008190D01*
X-6584517Y-12845632D01*
X-6458727Y-12785766D01*
X-6404651Y-12760402D01*
X-6372316Y-12722115D01*
X-6356150Y-12651421D01*
X-6350579Y-12528834D01*
X-6350000Y-12405575D01*
X-6350000Y-12066721D01*
X-6510990Y-11984590D01*
X-6756408Y-11817540D01*
X-6931452Y-11603926D01*
X-7034699Y-11346321D01*
X-7053626Y-11157853D01*
X-6517794Y-11157853D01*
X-6454164Y-11319169D01*
X-6395590Y-11390923D01*
X-6240112Y-11492866D01*
X-6066058Y-11517934D01*
X-5891317Y-11465661D01*
X-5804355Y-11406281D01*
X-5694697Y-11268582D01*
X-5652101Y-11112210D01*
X-5668759Y-10954232D01*
X-5736867Y-10811713D01*
X-5848619Y-10701719D01*
X-5996209Y-10641318D01*
X-6153249Y-10643466D01*
X-6324881Y-10714300D01*
X-6446971Y-10836353D01*
X-6513335Y-10990559D01*
X-6517794Y-11157853D01*
X-7053626Y-11157853D01*
X-7064729Y-11047295D01*
X-7062182Y-10988210D01*
X-7010986Y-10718324D01*
X-6891345Y-10492292D01*
X-6697889Y-10301478D01*
X-6588621Y-10226836D01*
X-6455485Y-10153938D01*
X-6332504Y-10115507D01*
X-6180366Y-10101276D01*
X-6103097Y-10100063D01*
X-5810173Y-10137474D01*
G36*
X1807678Y-5136146D02*
X2045602Y-5270069D01*
X2243071Y-5462531D01*
X2328002Y-5589977D01*
X2393601Y-5732380D01*
X2425265Y-5880665D01*
X2432270Y-6053667D01*
X2393205Y-6349036D01*
X2280449Y-6603599D01*
X2096423Y-6813429D01*
X1873250Y-6960087D01*
X1735666Y-7029507D01*
X1735666Y-10115946D01*
X1900451Y-10200013D01*
X2090145Y-10333781D01*
X2258372Y-10519140D01*
X2380436Y-10726329D01*
X2413665Y-10818544D01*
X2448012Y-11089588D01*
X2406354Y-11356682D01*
X2296499Y-11603857D01*
X2126250Y-11815146D01*
X1903414Y-11974580D01*
X1832276Y-12007915D01*
X1654180Y-12051809D01*
X1436781Y-12061980D01*
X1217974Y-12039472D01*
X1037166Y-11986020D01*
X860982Y-11873510D01*
X694226Y-11711898D01*
X563267Y-11529912D01*
X508345Y-11409880D01*
X463115Y-11144558D01*
X464485Y-11131677D01*
X1013312Y-11131677D01*
X1058326Y-11288113D01*
X1159915Y-11415003D01*
X1310235Y-11494969D01*
X1446660Y-11513725D01*
X1602080Y-11493397D01*
X1717750Y-11441531D01*
X1720128Y-11439642D01*
X1850881Y-11289210D01*
X1899926Y-11118824D01*
X1866132Y-10933744D01*
X1840783Y-10878281D01*
X1725287Y-10735433D01*
X1572815Y-10656705D01*
X1404231Y-10644388D01*
X1240397Y-10700769D01*
X1124385Y-10799687D01*
X1032717Y-10963075D01*
X1013312Y-11131677D01*
X464485Y-11131677D01*
X491895Y-10873991D01*
X587667Y-10617490D01*
X743414Y-10394362D01*
X935752Y-10233843D01*
X1143000Y-10105011D01*
X1143000Y-8545005D01*
X1142474Y-8127158D01*
X1140733Y-7786982D01*
X1137530Y-7517485D01*
X1132617Y-7311677D01*
X1125747Y-7162567D01*
X1116672Y-7063165D01*
X1105147Y-7006480D01*
X1090922Y-6985520D01*
X1087839Y-6985000D01*
X990740Y-6952061D01*
X869112Y-6865568D01*
X742911Y-6744002D01*
X632095Y-6605849D01*
X574596Y-6509636D01*
X483129Y-6240510D01*
X472908Y-6053667D01*
X1016000Y-6053667D01*
X1053975Y-6239799D01*
X1164390Y-6384417D01*
X1286014Y-6458504D01*
X1394006Y-6502184D01*
X1468935Y-6512583D01*
X1553212Y-6489782D01*
X1628381Y-6459168D01*
X1767662Y-6360019D01*
X1867042Y-6211236D01*
X1904841Y-6045283D01*
X1904841Y-6045185D01*
X1866426Y-5887859D01*
X1766547Y-5746655D01*
X1627497Y-5650087D01*
X1583966Y-5634760D01*
X1394528Y-5620109D01*
X1227778Y-5676133D01*
X1099850Y-5790932D01*
X1026877Y-5952606D01*
X1016000Y-6053667D01*
X472908Y-6053667D01*
X468396Y-5971202D01*
X524091Y-5714521D01*
X643905Y-5483280D01*
X821531Y-5290289D01*
X1050659Y-5148359D01*
X1279645Y-5077723D01*
X1546594Y-5069214D01*
X1807678Y-5136146D01*
X1807678Y-5136146D01*
G37*
X1807678Y-5136146D02*
X2045602Y-5270069D01*
X2243071Y-5462531D01*
X2328002Y-5589977D01*
X2393601Y-5732380D01*
X2425265Y-5880665D01*
X2432270Y-6053667D01*
X2393205Y-6349036D01*
X2280449Y-6603599D01*
X2096423Y-6813429D01*
X1873250Y-6960087D01*
X1735666Y-7029507D01*
X1735666Y-10115946D01*
X1900451Y-10200013D01*
X2090145Y-10333781D01*
X2258372Y-10519140D01*
X2380436Y-10726329D01*
X2413665Y-10818544D01*
X2448012Y-11089588D01*
X2406354Y-11356682D01*
X2296499Y-11603857D01*
X2126250Y-11815146D01*
X1903414Y-11974580D01*
X1832276Y-12007915D01*
X1654180Y-12051809D01*
X1436781Y-12061980D01*
X1217974Y-12039472D01*
X1037166Y-11986020D01*
X860982Y-11873510D01*
X694226Y-11711898D01*
X563267Y-11529912D01*
X508345Y-11409880D01*
X463115Y-11144558D01*
X464485Y-11131677D01*
X1013312Y-11131677D01*
X1058326Y-11288113D01*
X1159915Y-11415003D01*
X1310235Y-11494969D01*
X1446660Y-11513725D01*
X1602080Y-11493397D01*
X1717750Y-11441531D01*
X1720128Y-11439642D01*
X1850881Y-11289210D01*
X1899926Y-11118824D01*
X1866132Y-10933744D01*
X1840783Y-10878281D01*
X1725287Y-10735433D01*
X1572815Y-10656705D01*
X1404231Y-10644388D01*
X1240397Y-10700769D01*
X1124385Y-10799687D01*
X1032717Y-10963075D01*
X1013312Y-11131677D01*
X464485Y-11131677D01*
X491895Y-10873991D01*
X587667Y-10617490D01*
X743414Y-10394362D01*
X935752Y-10233843D01*
X1143000Y-10105011D01*
X1143000Y-8545005D01*
X1142474Y-8127158D01*
X1140733Y-7786982D01*
X1137530Y-7517485D01*
X1132617Y-7311677D01*
X1125747Y-7162567D01*
X1116672Y-7063165D01*
X1105147Y-7006480D01*
X1090922Y-6985520D01*
X1087839Y-6985000D01*
X990740Y-6952061D01*
X869112Y-6865568D01*
X742911Y-6744002D01*
X632095Y-6605849D01*
X574596Y-6509636D01*
X483129Y-6240510D01*
X472908Y-6053667D01*
X1016000Y-6053667D01*
X1053975Y-6239799D01*
X1164390Y-6384417D01*
X1286014Y-6458504D01*
X1394006Y-6502184D01*
X1468935Y-6512583D01*
X1553212Y-6489782D01*
X1628381Y-6459168D01*
X1767662Y-6360019D01*
X1867042Y-6211236D01*
X1904841Y-6045283D01*
X1904841Y-6045185D01*
X1866426Y-5887859D01*
X1766547Y-5746655D01*
X1627497Y-5650087D01*
X1583966Y-5634760D01*
X1394528Y-5620109D01*
X1227778Y-5676133D01*
X1099850Y-5790932D01*
X1026877Y-5952606D01*
X1016000Y-6053667D01*
X472908Y-6053667D01*
X468396Y-5971202D01*
X524091Y-5714521D01*
X643905Y-5483280D01*
X821531Y-5290289D01*
X1050659Y-5148359D01*
X1279645Y-5077723D01*
X1546594Y-5069214D01*
X1807678Y-5136146D01*
G36*
X4255695Y-10129123D02*
X4443023Y-10202664D01*
X4664019Y-10370583D01*
X4831114Y-10588448D01*
X4935855Y-10838964D01*
X4969792Y-11104835D01*
X4955276Y-11251021D01*
X4866877Y-11516921D01*
X4716858Y-11737685D01*
X4518421Y-11907165D01*
X4284769Y-12019219D01*
X4029106Y-12067699D01*
X3764634Y-12046461D01*
X3504557Y-11949359D01*
X3481971Y-11936777D01*
X3257768Y-11765124D01*
X3099542Y-11554116D01*
X3006894Y-11316959D01*
X2984877Y-11116491D01*
X3527592Y-11116491D01*
X3535545Y-11179241D01*
X3607611Y-11328157D01*
X3735691Y-11438663D01*
X3896408Y-11501770D01*
X4066386Y-11508490D01*
X4222247Y-11449836D01*
X4228385Y-11445634D01*
X4353715Y-11313396D01*
X4411904Y-11154136D01*
X4406221Y-10987854D01*
X4339934Y-10834552D01*
X4216312Y-10714228D01*
X4100192Y-10661159D01*
X3971814Y-10633783D01*
X3866696Y-10648330D01*
X3785025Y-10682457D01*
X3647186Y-10790125D01*
X3556521Y-10944469D01*
X3527592Y-11116491D01*
X2984877Y-11116491D01*
X2979425Y-11066858D01*
X3016734Y-10817019D01*
X3118423Y-10580647D01*
X3284092Y-10370948D01*
X3513341Y-10201127D01*
X3534833Y-10189439D01*
X3755417Y-10114224D01*
X4006709Y-10094279D01*
X4255695Y-10129123D01*
X4255695Y-10129123D01*
G37*
X4255695Y-10129123D02*
X4443023Y-10202664D01*
X4664019Y-10370583D01*
X4831114Y-10588448D01*
X4935855Y-10838964D01*
X4969792Y-11104835D01*
X4955276Y-11251021D01*
X4866877Y-11516921D01*
X4716858Y-11737685D01*
X4518421Y-11907165D01*
X4284769Y-12019219D01*
X4029106Y-12067699D01*
X3764634Y-12046461D01*
X3504557Y-11949359D01*
X3481971Y-11936777D01*
X3257768Y-11765124D01*
X3099542Y-11554116D01*
X3006894Y-11316959D01*
X2984877Y-11116491D01*
X3527592Y-11116491D01*
X3535545Y-11179241D01*
X3607611Y-11328157D01*
X3735691Y-11438663D01*
X3896408Y-11501770D01*
X4066386Y-11508490D01*
X4222247Y-11449836D01*
X4228385Y-11445634D01*
X4353715Y-11313396D01*
X4411904Y-11154136D01*
X4406221Y-10987854D01*
X4339934Y-10834552D01*
X4216312Y-10714228D01*
X4100192Y-10661159D01*
X3971814Y-10633783D01*
X3866696Y-10648330D01*
X3785025Y-10682457D01*
X3647186Y-10790125D01*
X3556521Y-10944469D01*
X3527592Y-11116491D01*
X2984877Y-11116491D01*
X2979425Y-11066858D01*
X3016734Y-10817019D01*
X3118423Y-10580647D01*
X3284092Y-10370948D01*
X3513341Y-10201127D01*
X3534833Y-10189439D01*
X3755417Y-10114224D01*
X4006709Y-10094279D01*
X4255695Y-10129123D01*
G36*
X6723069Y-10117424D02*
X6921500Y-10189241D01*
X7161017Y-10358945D01*
X7336227Y-10571716D01*
X7444137Y-10814653D01*
X7481754Y-11074856D01*
X7446083Y-11339422D01*
X7334133Y-11595452D01*
X7269597Y-11689619D01*
X7076842Y-11875639D01*
X6839065Y-12001884D01*
X6575639Y-12063548D01*
X6305939Y-12055825D01*
X6074833Y-11986020D01*
X5898826Y-11873644D01*
X5732171Y-11712229D01*
X5601224Y-11530483D01*
X5546110Y-11410179D01*
X5520137Y-11278313D01*
X5508647Y-11105669D01*
X5508809Y-11097838D01*
X6053666Y-11097838D01*
X6089508Y-11272511D01*
X6185125Y-11405705D01*
X6322652Y-11489714D01*
X6484225Y-11516829D01*
X6651978Y-11479344D01*
X6768645Y-11406281D01*
X6883763Y-11261381D01*
X6927313Y-11095374D01*
X6901690Y-10928359D01*
X6809290Y-10780432D01*
X6682807Y-10686137D01*
X6512000Y-10639413D01*
X6346640Y-10665330D01*
X6203867Y-10752672D01*
X6100819Y-10890224D01*
X6054634Y-11066770D01*
X6053666Y-11097838D01*
X5508809Y-11097838D01*
X5511202Y-10982183D01*
X5563367Y-10713728D01*
X5685681Y-10487355D01*
X5882630Y-10295903D01*
X5984379Y-10226836D01*
X6212257Y-10130208D01*
X6468295Y-10093344D01*
X6723069Y-10117424D01*
X6723069Y-10117424D01*
G37*
X6723069Y-10117424D02*
X6921500Y-10189241D01*
X7161017Y-10358945D01*
X7336227Y-10571716D01*
X7444137Y-10814653D01*
X7481754Y-11074856D01*
X7446083Y-11339422D01*
X7334133Y-11595452D01*
X7269597Y-11689619D01*
X7076842Y-11875639D01*
X6839065Y-12001884D01*
X6575639Y-12063548D01*
X6305939Y-12055825D01*
X6074833Y-11986020D01*
X5898826Y-11873644D01*
X5732171Y-11712229D01*
X5601224Y-11530483D01*
X5546110Y-11410179D01*
X5520137Y-11278313D01*
X5508647Y-11105669D01*
X5508809Y-11097838D01*
X6053666Y-11097838D01*
X6089508Y-11272511D01*
X6185125Y-11405705D01*
X6322652Y-11489714D01*
X6484225Y-11516829D01*
X6651978Y-11479344D01*
X6768645Y-11406281D01*
X6883763Y-11261381D01*
X6927313Y-11095374D01*
X6901690Y-10928359D01*
X6809290Y-10780432D01*
X6682807Y-10686137D01*
X6512000Y-10639413D01*
X6346640Y-10665330D01*
X6203867Y-10752672D01*
X6100819Y-10890224D01*
X6054634Y-11066770D01*
X6053666Y-11097838D01*
X5508809Y-11097838D01*
X5511202Y-10982183D01*
X5563367Y-10713728D01*
X5685681Y-10487355D01*
X5882630Y-10295903D01*
X5984379Y-10226836D01*
X6212257Y-10130208D01*
X6468295Y-10093344D01*
X6723069Y-10117424D01*
G36*
X-875761Y-5078515D02*
X-634329Y-5154041D01*
X-413831Y-5296605D01*
X-268873Y-5450908D01*
X-132015Y-5690642D01*
X-70254Y-5939141D01*
X-76222Y-6186000D01*
X-142548Y-6420818D01*
X-261860Y-6633192D01*
X-426790Y-6812719D01*
X-629965Y-6948997D01*
X-864017Y-7031622D01*
X-1121574Y-7050191D01*
X-1368631Y-7003142D01*
X-1612500Y-6883685D01*
X-1811111Y-6703167D01*
X-1955490Y-6477029D01*
X-2036663Y-6220707D01*
X-2042893Y-6032889D01*
X-1495036Y-6032889D01*
X-1478393Y-6190956D01*
X-1403006Y-6334904D01*
X-1264667Y-6446767D01*
X-1253581Y-6452408D01*
X-1126070Y-6505124D01*
X-1023937Y-6510868D01*
X-904063Y-6469808D01*
X-869777Y-6453918D01*
X-725204Y-6346824D01*
X-643546Y-6205825D01*
X-620758Y-6048836D01*
X-652795Y-5893768D01*
X-735612Y-5758534D01*
X-865166Y-5661048D01*
X-1037413Y-5619222D01*
X-1058334Y-5618788D01*
X-1234584Y-5653653D01*
X-1368923Y-5746270D01*
X-1457143Y-5878671D01*
X-1495036Y-6032889D01*
X-2042893Y-6032889D01*
X-2045655Y-5949641D01*
X-2031818Y-5862287D01*
X-1939336Y-5599658D01*
X-1789345Y-5385761D01*
X-1594918Y-5223648D01*
X-1369129Y-5116369D01*
X-1125053Y-5066974D01*
X-875761Y-5078515D01*
X-875761Y-5078515D01*
G37*
X-875761Y-5078515D02*
X-634329Y-5154041D01*
X-413831Y-5296605D01*
X-268873Y-5450908D01*
X-132015Y-5690642D01*
X-70254Y-5939141D01*
X-76222Y-6186000D01*
X-142548Y-6420818D01*
X-261860Y-6633192D01*
X-426790Y-6812719D01*
X-629965Y-6948997D01*
X-864017Y-7031622D01*
X-1121574Y-7050191D01*
X-1368631Y-7003142D01*
X-1612500Y-6883685D01*
X-1811111Y-6703167D01*
X-1955490Y-6477029D01*
X-2036663Y-6220707D01*
X-2042893Y-6032889D01*
X-1495036Y-6032889D01*
X-1478393Y-6190956D01*
X-1403006Y-6334904D01*
X-1264667Y-6446767D01*
X-1253581Y-6452408D01*
X-1126070Y-6505124D01*
X-1023937Y-6510868D01*
X-904063Y-6469808D01*
X-869777Y-6453918D01*
X-725204Y-6346824D01*
X-643546Y-6205825D01*
X-620758Y-6048836D01*
X-652795Y-5893768D01*
X-735612Y-5758534D01*
X-865166Y-5661048D01*
X-1037413Y-5619222D01*
X-1058334Y-5618788D01*
X-1234584Y-5653653D01*
X-1368923Y-5746270D01*
X-1457143Y-5878671D01*
X-1495036Y-6032889D01*
X-2042893Y-6032889D01*
X-2045655Y-5949641D01*
X-2031818Y-5862287D01*
X-1939336Y-5599658D01*
X-1789345Y-5385761D01*
X-1594918Y-5223648D01*
X-1369129Y-5116369D01*
X-1125053Y-5066974D01*
X-875761Y-5078515D01*
G36*
X1972078Y15457088D02*
X2224354Y15352756D01*
X2389465Y15233241D01*
X2572746Y15020274D01*
X2684399Y14776805D01*
X2724507Y14517340D01*
X2693154Y14256388D01*
X2590423Y14008456D01*
X2416398Y13788051D01*
X2380962Y13755446D01*
X2272195Y13663012D01*
X2180267Y13590388D01*
X2148074Y13567833D01*
X2132492Y13552021D01*
X2120876Y13521572D01*
X2113514Y13469213D01*
X2110697Y13387669D01*
X2112714Y13269667D01*
X2119856Y13107932D01*
X2132413Y12895190D01*
X2150675Y12624168D01*
X2174933Y12287591D01*
X2205475Y11878185D01*
X2226575Y11599333D01*
X2372797Y9673167D01*
X2346397Y2963333D01*
X2319997Y-3746500D01*
X2997580Y-4419425D01*
X3216838Y-4636598D01*
X3385181Y-4800853D01*
X3511490Y-4919211D01*
X3604647Y-4998692D01*
X3673534Y-5046320D01*
X3727031Y-5069114D01*
X3774022Y-5074097D01*
X3819216Y-5068973D01*
X4038618Y-5065884D01*
X4275925Y-5114145D01*
X4490189Y-5204238D01*
X4542539Y-5237087D01*
X4738348Y-5418948D01*
X4871084Y-5639103D01*
X4942099Y-5883008D01*
X4952751Y-6136115D01*
X4904392Y-6383879D01*
X4798378Y-6611753D01*
X4636064Y-6805192D01*
X4418804Y-6949650D01*
X4381500Y-6966220D01*
X4133386Y-7033565D01*
X3873375Y-7042506D01*
X3683000Y-7006241D01*
X3444181Y-6891202D01*
X3235036Y-6717126D01*
X3082360Y-6506359D01*
X3081475Y-6504655D01*
X3009938Y-6296331D01*
X2986187Y-6070120D01*
X3532038Y-6070120D01*
X3569390Y-6237320D01*
X3671896Y-6379337D01*
X3772772Y-6448631D01*
X3955210Y-6500641D01*
X4126264Y-6469201D01*
X4280843Y-6355297D01*
X4286250Y-6349437D01*
X4382338Y-6189228D01*
X4404617Y-6017134D01*
X4357500Y-5853214D01*
X4245400Y-5717526D01*
X4132539Y-5650877D01*
X3948044Y-5614451D01*
X3776071Y-5660791D01*
X3665554Y-5743991D01*
X3563030Y-5898692D01*
X3532038Y-6070120D01*
X2986187Y-6070120D01*
X2985039Y-6059188D01*
X3006671Y-5825343D01*
X3074725Y-5626917D01*
X3084481Y-5609577D01*
X3180728Y-5446451D01*
X2451374Y-4716203D01*
X1722021Y-3985955D01*
X1747701Y2780106D01*
X1773382Y9546167D01*
X1628289Y11531540D01*
X1598781Y11932272D01*
X1570813Y12306258D01*
X1545035Y12645212D01*
X1522098Y12940847D01*
X1502653Y13184878D01*
X1487348Y13369019D01*
X1476837Y13484984D01*
X1471848Y13524484D01*
X1428926Y13543617D01*
X1339301Y13580224D01*
X1327746Y13584829D01*
X1114930Y13712376D01*
X944366Y13898867D01*
X822542Y14126506D01*
X755942Y14377497D01*
X753908Y14484303D01*
X1291813Y14484303D01*
X1327283Y14328013D01*
X1416100Y14196599D01*
X1543093Y14101237D01*
X1693093Y14053110D01*
X1850933Y14063395D01*
X2001442Y14143272D01*
X2009218Y14149917D01*
X2123737Y14295821D01*
X2169444Y14457714D01*
X2153452Y14618714D01*
X2082876Y14761943D01*
X1964829Y14870519D01*
X1806425Y14927564D01*
X1681089Y14928529D01*
X1516448Y14886744D01*
X1404154Y14797276D01*
X1324857Y14654287D01*
X1291813Y14484303D01*
X753908Y14484303D01*
X751054Y14634042D01*
X814363Y14878346D01*
X838011Y14928535D01*
X1002697Y15165406D01*
X1211993Y15339357D01*
X1452352Y15447728D01*
X1710228Y15487859D01*
X1972078Y15457088D01*
X1972078Y15457088D01*
G37*
X1972078Y15457088D02*
X2224354Y15352756D01*
X2389465Y15233241D01*
X2572746Y15020274D01*
X2684399Y14776805D01*
X2724507Y14517340D01*
X2693154Y14256388D01*
X2590423Y14008456D01*
X2416398Y13788051D01*
X2380962Y13755446D01*
X2272195Y13663012D01*
X2180267Y13590388D01*
X2148074Y13567833D01*
X2132492Y13552021D01*
X2120876Y13521572D01*
X2113514Y13469213D01*
X2110697Y13387669D01*
X2112714Y13269667D01*
X2119856Y13107932D01*
X2132413Y12895190D01*
X2150675Y12624168D01*
X2174933Y12287591D01*
X2205475Y11878185D01*
X2226575Y11599333D01*
X2372797Y9673167D01*
X2346397Y2963333D01*
X2319997Y-3746500D01*
X2997580Y-4419425D01*
X3216838Y-4636598D01*
X3385181Y-4800853D01*
X3511490Y-4919211D01*
X3604647Y-4998692D01*
X3673534Y-5046320D01*
X3727031Y-5069114D01*
X3774022Y-5074097D01*
X3819216Y-5068973D01*
X4038618Y-5065884D01*
X4275925Y-5114145D01*
X4490189Y-5204238D01*
X4542539Y-5237087D01*
X4738348Y-5418948D01*
X4871084Y-5639103D01*
X4942099Y-5883008D01*
X4952751Y-6136115D01*
X4904392Y-6383879D01*
X4798378Y-6611753D01*
X4636064Y-6805192D01*
X4418804Y-6949650D01*
X4381500Y-6966220D01*
X4133386Y-7033565D01*
X3873375Y-7042506D01*
X3683000Y-7006241D01*
X3444181Y-6891202D01*
X3235036Y-6717126D01*
X3082360Y-6506359D01*
X3081475Y-6504655D01*
X3009938Y-6296331D01*
X2986187Y-6070120D01*
X3532038Y-6070120D01*
X3569390Y-6237320D01*
X3671896Y-6379337D01*
X3772772Y-6448631D01*
X3955210Y-6500641D01*
X4126264Y-6469201D01*
X4280843Y-6355297D01*
X4286250Y-6349437D01*
X4382338Y-6189228D01*
X4404617Y-6017134D01*
X4357500Y-5853214D01*
X4245400Y-5717526D01*
X4132539Y-5650877D01*
X3948044Y-5614451D01*
X3776071Y-5660791D01*
X3665554Y-5743991D01*
X3563030Y-5898692D01*
X3532038Y-6070120D01*
X2986187Y-6070120D01*
X2985039Y-6059188D01*
X3006671Y-5825343D01*
X3074725Y-5626917D01*
X3084481Y-5609577D01*
X3180728Y-5446451D01*
X2451374Y-4716203D01*
X1722021Y-3985955D01*
X1747701Y2780106D01*
X1773382Y9546167D01*
X1628289Y11531540D01*
X1598781Y11932272D01*
X1570813Y12306258D01*
X1545035Y12645212D01*
X1522098Y12940847D01*
X1502653Y13184878D01*
X1487348Y13369019D01*
X1476837Y13484984D01*
X1471848Y13524484D01*
X1428926Y13543617D01*
X1339301Y13580224D01*
X1327746Y13584829D01*
X1114930Y13712376D01*
X944366Y13898867D01*
X822542Y14126506D01*
X755942Y14377497D01*
X753908Y14484303D01*
X1291813Y14484303D01*
X1327283Y14328013D01*
X1416100Y14196599D01*
X1543093Y14101237D01*
X1693093Y14053110D01*
X1850933Y14063395D01*
X2001442Y14143272D01*
X2009218Y14149917D01*
X2123737Y14295821D01*
X2169444Y14457714D01*
X2153452Y14618714D01*
X2082876Y14761943D01*
X1964829Y14870519D01*
X1806425Y14927564D01*
X1681089Y14928529D01*
X1516448Y14886744D01*
X1404154Y14797276D01*
X1324857Y14654287D01*
X1291813Y14484303D01*
X753908Y14484303D01*
X751054Y14634042D01*
X814363Y14878346D01*
X838011Y14928535D01*
X1002697Y15165406D01*
X1211993Y15339357D01*
X1452352Y15447728D01*
X1710228Y15487859D01*
X1972078Y15457088D01*
G36*
X4120755Y1007486D02*
X4306277Y968054D01*
X4329943Y958915D01*
X4569226Y814538D01*
X4759315Y609335D01*
X4888882Y358208D01*
X4938112Y158886D01*
X4947680Y102071D01*
X4963885Y52124D01*
X4995001Y1674D01*
X5049300Y-56646D01*
X5135055Y-130205D01*
X5260540Y-226372D01*
X5434027Y-352514D01*
X5663789Y-516002D01*
X5819662Y-626289D01*
X6675349Y-1231412D01*
X6703063Y-2086789D01*
X6711339Y-2391028D01*
X6718640Y-2752729D01*
X6724573Y-3144691D01*
X6728745Y-3539712D01*
X6730762Y-3910590D01*
X6730888Y-4012131D01*
X6731000Y-5082095D01*
X6847228Y-5126286D01*
X7066309Y-5250859D01*
X7259305Y-5440713D01*
X7352605Y-5576276D01*
X7421513Y-5712882D01*
X7456388Y-5845284D01*
X7466944Y-6013799D01*
X7467011Y-6051091D01*
X7428143Y-6345525D01*
X7317277Y-6598575D01*
X7139347Y-6803614D01*
X6899290Y-6954014D01*
X6755066Y-7007382D01*
X6608365Y-7047653D01*
X6498475Y-7062622D01*
X6388094Y-7052433D01*
X6239919Y-7017228D01*
X6210870Y-7009461D01*
X5962186Y-6903641D01*
X5764498Y-6742343D01*
X5619830Y-6539157D01*
X5530207Y-6307672D01*
X5499066Y-6072175D01*
X6051319Y-6072175D01*
X6092432Y-6243258D01*
X6144180Y-6326651D01*
X6281548Y-6458133D01*
X6429673Y-6508397D01*
X6600912Y-6480270D01*
X6676893Y-6448538D01*
X6822740Y-6338217D01*
X6905934Y-6188070D01*
X6923150Y-6018678D01*
X6871061Y-5850620D01*
X6790778Y-5743991D01*
X6633454Y-5639408D01*
X6457009Y-5616277D01*
X6323793Y-5650877D01*
X6172702Y-5754527D01*
X6079976Y-5902112D01*
X6051319Y-6072175D01*
X5499066Y-6072175D01*
X5497651Y-6061476D01*
X5524187Y-5814158D01*
X5611840Y-5579308D01*
X5762633Y-5370514D01*
X5944634Y-5221978D01*
X6135241Y-5101167D01*
X6136787Y-4462461D01*
X6136086Y-4236783D01*
X6133286Y-3947275D01*
X6128696Y-3614742D01*
X6122627Y-3259986D01*
X6115389Y-2903812D01*
X6110280Y-2684461D01*
X6082228Y-1545167D01*
X4733904Y-583943D01*
X4621202Y-689305D01*
X4389671Y-851523D01*
X4128418Y-940665D01*
X3853819Y-952826D01*
X3670507Y-915958D01*
X3411747Y-801119D01*
X3212401Y-629610D01*
X3073543Y-416205D01*
X2979894Y-141356D01*
X2970756Y34432D01*
X3508169Y34432D01*
X3545219Y-133523D01*
X3604180Y-230651D01*
X3741217Y-361686D01*
X3890315Y-412287D01*
X4065343Y-385977D01*
X4126048Y-363168D01*
X4272255Y-261776D01*
X4365716Y-114974D01*
X4397237Y53663D01*
X4357627Y220561D01*
X4355378Y225033D01*
X4238428Y372442D01*
X4073122Y450646D01*
X3944326Y464726D01*
X3765325Y429548D01*
X3627067Y334050D01*
X3538400Y196317D01*
X3508169Y34432D01*
X2970756Y34432D01*
X2965592Y133758D01*
X3026352Y396215D01*
X3157886Y633095D01*
X3355909Y831477D01*
X3522008Y935589D01*
X3691548Y990183D01*
X3903488Y1014506D01*
X4120755Y1007486D01*
X4120755Y1007486D01*
G37*
X4120755Y1007486D02*
X4306277Y968054D01*
X4329943Y958915D01*
X4569226Y814538D01*
X4759315Y609335D01*
X4888882Y358208D01*
X4938112Y158886D01*
X4947680Y102071D01*
X4963885Y52124D01*
X4995001Y1674D01*
X5049300Y-56646D01*
X5135055Y-130205D01*
X5260540Y-226372D01*
X5434027Y-352514D01*
X5663789Y-516002D01*
X5819662Y-626289D01*
X6675349Y-1231412D01*
X6703063Y-2086789D01*
X6711339Y-2391028D01*
X6718640Y-2752729D01*
X6724573Y-3144691D01*
X6728745Y-3539712D01*
X6730762Y-3910590D01*
X6730888Y-4012131D01*
X6731000Y-5082095D01*
X6847228Y-5126286D01*
X7066309Y-5250859D01*
X7259305Y-5440713D01*
X7352605Y-5576276D01*
X7421513Y-5712882D01*
X7456388Y-5845284D01*
X7466944Y-6013799D01*
X7467011Y-6051091D01*
X7428143Y-6345525D01*
X7317277Y-6598575D01*
X7139347Y-6803614D01*
X6899290Y-6954014D01*
X6755066Y-7007382D01*
X6608365Y-7047653D01*
X6498475Y-7062622D01*
X6388094Y-7052433D01*
X6239919Y-7017228D01*
X6210870Y-7009461D01*
X5962186Y-6903641D01*
X5764498Y-6742343D01*
X5619830Y-6539157D01*
X5530207Y-6307672D01*
X5499066Y-6072175D01*
X6051319Y-6072175D01*
X6092432Y-6243258D01*
X6144180Y-6326651D01*
X6281548Y-6458133D01*
X6429673Y-6508397D01*
X6600912Y-6480270D01*
X6676893Y-6448538D01*
X6822740Y-6338217D01*
X6905934Y-6188070D01*
X6923150Y-6018678D01*
X6871061Y-5850620D01*
X6790778Y-5743991D01*
X6633454Y-5639408D01*
X6457009Y-5616277D01*
X6323793Y-5650877D01*
X6172702Y-5754527D01*
X6079976Y-5902112D01*
X6051319Y-6072175D01*
X5499066Y-6072175D01*
X5497651Y-6061476D01*
X5524187Y-5814158D01*
X5611840Y-5579308D01*
X5762633Y-5370514D01*
X5944634Y-5221978D01*
X6135241Y-5101167D01*
X6136787Y-4462461D01*
X6136086Y-4236783D01*
X6133286Y-3947275D01*
X6128696Y-3614742D01*
X6122627Y-3259986D01*
X6115389Y-2903812D01*
X6110280Y-2684461D01*
X6082228Y-1545167D01*
X4733904Y-583943D01*
X4621202Y-689305D01*
X4389671Y-851523D01*
X4128418Y-940665D01*
X3853819Y-952826D01*
X3670507Y-915958D01*
X3411747Y-801119D01*
X3212401Y-629610D01*
X3073543Y-416205D01*
X2979894Y-141356D01*
X2970756Y34432D01*
X3508169Y34432D01*
X3545219Y-133523D01*
X3604180Y-230651D01*
X3741217Y-361686D01*
X3890315Y-412287D01*
X4065343Y-385977D01*
X4126048Y-363168D01*
X4272255Y-261776D01*
X4365716Y-114974D01*
X4397237Y53663D01*
X4357627Y220561D01*
X4355378Y225033D01*
X4238428Y372442D01*
X4073122Y450646D01*
X3944326Y464726D01*
X3765325Y429548D01*
X3627067Y334050D01*
X3538400Y196317D01*
X3508169Y34432D01*
X2970756Y34432D01*
X2965592Y133758D01*
X3026352Y396215D01*
X3157886Y633095D01*
X3355909Y831477D01*
X3522008Y935589D01*
X3691548Y990183D01*
X3903488Y1014506D01*
X4120755Y1007486D01*
G36*
X-3324296Y-1535151D02*
X-3107441Y-1629974D01*
X-2879394Y-1806190D01*
X-2724150Y-2025356D01*
X-2641118Y-2288532D01*
X-2625597Y-2492253D01*
X-2664347Y-2772601D01*
X-2770693Y-3015418D01*
X-2933249Y-3213682D01*
X-3140631Y-3360369D01*
X-3381454Y-3448456D01*
X-3644334Y-3470919D01*
X-3917885Y-3420734D01*
X-4047788Y-3369642D01*
X-4280707Y-3217528D01*
X-4455412Y-3012419D01*
X-4566001Y-2767892D01*
X-4606567Y-2497528D01*
X-4604798Y-2483383D01*
X-4042834Y-2483383D01*
X-4032014Y-2618144D01*
X-3986761Y-2713224D01*
X-3904583Y-2797472D01*
X-3736395Y-2900857D01*
X-3561145Y-2925381D01*
X-3393283Y-2871051D01*
X-3298744Y-2797256D01*
X-3199834Y-2648127D01*
X-3170708Y-2485589D01*
X-3202482Y-2326632D01*
X-3286271Y-2188244D01*
X-3413194Y-2087413D01*
X-3574365Y-2041127D01*
X-3690627Y-2047833D01*
X-3867313Y-2118380D01*
X-3986179Y-2247999D01*
X-4040249Y-2428065D01*
X-4042834Y-2483383D01*
X-4604798Y-2483383D01*
X-4571208Y-2214906D01*
X-4562852Y-2185078D01*
X-4476862Y-2008762D01*
X-4333758Y-1830346D01*
X-4157279Y-1672842D01*
X-3971168Y-1559263D01*
X-3883479Y-1526568D01*
X-3603768Y-1491094D01*
X-3324296Y-1535151D01*
X-3324296Y-1535151D01*
G37*
X-3324296Y-1535151D02*
X-3107441Y-1629974D01*
X-2879394Y-1806190D01*
X-2724150Y-2025356D01*
X-2641118Y-2288532D01*
X-2625597Y-2492253D01*
X-2664347Y-2772601D01*
X-2770693Y-3015418D01*
X-2933249Y-3213682D01*
X-3140631Y-3360369D01*
X-3381454Y-3448456D01*
X-3644334Y-3470919D01*
X-3917885Y-3420734D01*
X-4047788Y-3369642D01*
X-4280707Y-3217528D01*
X-4455412Y-3012419D01*
X-4566001Y-2767892D01*
X-4606567Y-2497528D01*
X-4604798Y-2483383D01*
X-4042834Y-2483383D01*
X-4032014Y-2618144D01*
X-3986761Y-2713224D01*
X-3904583Y-2797472D01*
X-3736395Y-2900857D01*
X-3561145Y-2925381D01*
X-3393283Y-2871051D01*
X-3298744Y-2797256D01*
X-3199834Y-2648127D01*
X-3170708Y-2485589D01*
X-3202482Y-2326632D01*
X-3286271Y-2188244D01*
X-3413194Y-2087413D01*
X-3574365Y-2041127D01*
X-3690627Y-2047833D01*
X-3867313Y-2118380D01*
X-3986179Y-2247999D01*
X-4040249Y-2428065D01*
X-4042834Y-2483383D01*
X-4604798Y-2483383D01*
X-4571208Y-2214906D01*
X-4562852Y-2185078D01*
X-4476862Y-2008762D01*
X-4333758Y-1830346D01*
X-4157279Y-1672842D01*
X-3971168Y-1559263D01*
X-3883479Y-1526568D01*
X-3603768Y-1491094D01*
X-3324296Y-1535151D01*
G36*
X4108874Y-1504496D02*
X4359238Y-1586033D01*
X4580943Y-1729275D01*
X4761381Y-1922777D01*
X4887944Y-2155095D01*
X4948026Y-2414781D01*
X4951141Y-2502578D01*
X4908763Y-2765579D01*
X4797492Y-2999241D01*
X4630421Y-3195350D01*
X4420645Y-3345694D01*
X4181261Y-3442059D01*
X3925361Y-3476232D01*
X3666041Y-3439999D01*
X3534833Y-3390906D01*
X3296113Y-3236000D01*
X3116435Y-3025660D01*
X3003082Y-2771452D01*
X2971699Y-2545233D01*
X3512459Y-2545233D01*
X3565958Y-2704856D01*
X3637410Y-2797256D01*
X3793350Y-2900756D01*
X3965689Y-2925405D01*
X4139977Y-2871196D01*
X4243248Y-2797472D01*
X4351528Y-2652072D01*
X4389529Y-2488404D01*
X4362791Y-2325880D01*
X4276856Y-2183912D01*
X4137263Y-2081915D01*
X4029293Y-2047833D01*
X3850961Y-2050589D01*
X3701228Y-2118695D01*
X3588977Y-2235164D01*
X3523093Y-2383006D01*
X3512459Y-2545233D01*
X2971699Y-2545233D01*
X2963334Y-2484943D01*
X2963333Y-2483029D01*
X3002272Y-2196872D01*
X3113135Y-1945855D01*
X3286988Y-1740008D01*
X3514899Y-1589360D01*
X3787934Y-1503938D01*
X3842460Y-1496111D01*
X4108874Y-1504496D01*
X4108874Y-1504496D01*
G37*
X4108874Y-1504496D02*
X4359238Y-1586033D01*
X4580943Y-1729275D01*
X4761381Y-1922777D01*
X4887944Y-2155095D01*
X4948026Y-2414781D01*
X4951141Y-2502578D01*
X4908763Y-2765579D01*
X4797492Y-2999241D01*
X4630421Y-3195350D01*
X4420645Y-3345694D01*
X4181261Y-3442059D01*
X3925361Y-3476232D01*
X3666041Y-3439999D01*
X3534833Y-3390906D01*
X3296113Y-3236000D01*
X3116435Y-3025660D01*
X3003082Y-2771452D01*
X2971699Y-2545233D01*
X3512459Y-2545233D01*
X3565958Y-2704856D01*
X3637410Y-2797256D01*
X3793350Y-2900756D01*
X3965689Y-2925405D01*
X4139977Y-2871196D01*
X4243248Y-2797472D01*
X4351528Y-2652072D01*
X4389529Y-2488404D01*
X4362791Y-2325880D01*
X4276856Y-2183912D01*
X4137263Y-2081915D01*
X4029293Y-2047833D01*
X3850961Y-2050589D01*
X3701228Y-2118695D01*
X3588977Y-2235164D01*
X3523093Y-2383006D01*
X3512459Y-2545233D01*
X2971699Y-2545233D01*
X2963334Y-2484943D01*
X2963333Y-2483029D01*
X3002272Y-2196872D01*
X3113135Y-1945855D01*
X3286988Y-1740008D01*
X3514899Y-1589360D01*
X3787934Y-1503938D01*
X3842460Y-1496111D01*
X4108874Y-1504496D01*
G36*
X-3319621Y978360D02*
X-3078304Y873151D01*
X-2881028Y711942D01*
X-2734764Y506301D01*
X-2646485Y267795D01*
X-2623161Y7992D01*
X-2671764Y-261540D01*
X-2734877Y-416205D01*
X-2890747Y-645299D01*
X-3089737Y-811453D01*
X-3318541Y-914854D01*
X-3563854Y-955687D01*
X-3812370Y-934135D01*
X-4050785Y-850385D01*
X-4265792Y-704622D01*
X-4444087Y-497030D01*
X-4504755Y-391583D01*
X-4574175Y-254000D01*
X-7683646Y-254000D01*
X-7786784Y-448418D01*
X-7948375Y-671713D01*
X-8164906Y-832260D01*
X-8365653Y-913735D01*
X-8541384Y-957373D01*
X-8686286Y-965400D01*
X-8845470Y-939639D01*
X-8868834Y-934082D01*
X-9133512Y-827665D01*
X-9356147Y-651871D01*
X-9526936Y-415607D01*
X-9589162Y-279327D01*
X-9643521Y-25037D01*
X-9639761Y22330D01*
X-9093855Y22330D01*
X-9040430Y-164737D01*
X-9035428Y-174631D01*
X-8921989Y-312863D01*
X-8770350Y-388261D01*
X-8601557Y-398477D01*
X-8436652Y-341163D01*
X-8329084Y-253437D01*
X-8232491Y-95042D01*
X-8215394Y22330D01*
X-4056188Y22330D01*
X-4002764Y-164737D01*
X-3997761Y-174631D01*
X-3884322Y-312863D01*
X-3732684Y-388261D01*
X-3563890Y-398477D01*
X-3398986Y-341163D01*
X-3291417Y-253437D01*
X-3194824Y-95042D01*
X-3170595Y71286D01*
X-3211014Y227912D01*
X-3308363Y357199D01*
X-3454927Y441513D01*
X-3605661Y464726D01*
X-3800148Y428997D01*
X-3945991Y333692D01*
X-4034301Y193305D01*
X-4056188Y22330D01*
X-8215394Y22330D01*
X-8208262Y71286D01*
X-8248680Y227912D01*
X-8346030Y357199D01*
X-8492593Y441513D01*
X-8643327Y464726D01*
X-8837815Y428997D01*
X-8983658Y333692D01*
X-9071967Y193305D01*
X-9093855Y22330D01*
X-9639761Y22330D01*
X-9622983Y233678D01*
X-9534807Y480774D01*
X-9386251Y700210D01*
X-9184573Y875940D01*
X-9028944Y958915D01*
X-8849812Y1003890D01*
X-8633287Y1015520D01*
X-8416646Y994933D01*
X-8237168Y943257D01*
X-8218676Y934399D01*
X-8084990Y845882D01*
X-7945402Y721802D01*
X-7823203Y586165D01*
X-7741685Y462973D01*
X-7727319Y428013D01*
X-7718365Y404884D01*
X-7702213Y386136D01*
X-7670668Y371310D01*
X-7615538Y359945D01*
X-7528632Y351581D01*
X-7401755Y345758D01*
X-7226715Y342017D01*
X-6995321Y339896D01*
X-6699378Y338936D01*
X-6330695Y338677D01*
X-6136341Y338667D01*
X-4573721Y338667D01*
X-4490051Y502675D01*
X-4329812Y729647D01*
X-4115975Y893073D01*
X-3854650Y989440D01*
X-3598007Y1016000D01*
X-3319621Y978360D01*
X-3319621Y978360D01*
G37*
X-3319621Y978360D02*
X-3078304Y873151D01*
X-2881028Y711942D01*
X-2734764Y506301D01*
X-2646485Y267795D01*
X-2623161Y7992D01*
X-2671764Y-261540D01*
X-2734877Y-416205D01*
X-2890747Y-645299D01*
X-3089737Y-811453D01*
X-3318541Y-914854D01*
X-3563854Y-955687D01*
X-3812370Y-934135D01*
X-4050785Y-850385D01*
X-4265792Y-704622D01*
X-4444087Y-497030D01*
X-4504755Y-391583D01*
X-4574175Y-254000D01*
X-7683646Y-254000D01*
X-7786784Y-448418D01*
X-7948375Y-671713D01*
X-8164906Y-832260D01*
X-8365653Y-913735D01*
X-8541384Y-957373D01*
X-8686286Y-965400D01*
X-8845470Y-939639D01*
X-8868834Y-934082D01*
X-9133512Y-827665D01*
X-9356147Y-651871D01*
X-9526936Y-415607D01*
X-9589162Y-279327D01*
X-9643521Y-25037D01*
X-9639761Y22330D01*
X-9093855Y22330D01*
X-9040430Y-164737D01*
X-9035428Y-174631D01*
X-8921989Y-312863D01*
X-8770350Y-388261D01*
X-8601557Y-398477D01*
X-8436652Y-341163D01*
X-8329084Y-253437D01*
X-8232491Y-95042D01*
X-8215394Y22330D01*
X-4056188Y22330D01*
X-4002764Y-164737D01*
X-3997761Y-174631D01*
X-3884322Y-312863D01*
X-3732684Y-388261D01*
X-3563890Y-398477D01*
X-3398986Y-341163D01*
X-3291417Y-253437D01*
X-3194824Y-95042D01*
X-3170595Y71286D01*
X-3211014Y227912D01*
X-3308363Y357199D01*
X-3454927Y441513D01*
X-3605661Y464726D01*
X-3800148Y428997D01*
X-3945991Y333692D01*
X-4034301Y193305D01*
X-4056188Y22330D01*
X-8215394Y22330D01*
X-8208262Y71286D01*
X-8248680Y227912D01*
X-8346030Y357199D01*
X-8492593Y441513D01*
X-8643327Y464726D01*
X-8837815Y428997D01*
X-8983658Y333692D01*
X-9071967Y193305D01*
X-9093855Y22330D01*
X-9639761Y22330D01*
X-9622983Y233678D01*
X-9534807Y480774D01*
X-9386251Y700210D01*
X-9184573Y875940D01*
X-9028944Y958915D01*
X-8849812Y1003890D01*
X-8633287Y1015520D01*
X-8416646Y994933D01*
X-8237168Y943257D01*
X-8218676Y934399D01*
X-8084990Y845882D01*
X-7945402Y721802D01*
X-7823203Y586165D01*
X-7741685Y462973D01*
X-7727319Y428013D01*
X-7718365Y404884D01*
X-7702213Y386136D01*
X-7670668Y371310D01*
X-7615538Y359945D01*
X-7528632Y351581D01*
X-7401755Y345758D01*
X-7226715Y342017D01*
X-6995321Y339896D01*
X-6699378Y338936D01*
X-6330695Y338677D01*
X-6136341Y338667D01*
X-4573721Y338667D01*
X-4490051Y502675D01*
X-4329812Y729647D01*
X-4115975Y893073D01*
X-3854650Y989440D01*
X-3598007Y1016000D01*
X-3319621Y978360D01*
G36*
X-3368130Y3508677D02*
X-3331842Y3498292D01*
X-3073081Y3383453D01*
X-2873735Y3211944D01*
X-2734877Y2998539D01*
X-2642682Y2730099D01*
X-2626072Y2463724D01*
X-2678017Y2211172D01*
X-2791488Y1984203D01*
X-2959458Y1794578D01*
X-3174895Y1654057D01*
X-3430773Y1574399D01*
X-3594245Y1560722D01*
X-3869574Y1594298D01*
X-4118648Y1691621D01*
X-4324642Y1843528D01*
X-4468775Y2037043D01*
X-4503489Y2096955D01*
X-4544785Y2133039D01*
X-4612893Y2151238D01*
X-4728044Y2157497D01*
X-4880004Y2157862D01*
X-5228167Y2156723D01*
X-5334000Y1984426D01*
X-5499070Y1793081D01*
X-5718349Y1654360D01*
X-5974810Y1575129D01*
X-6251424Y1562254D01*
X-6350000Y1574722D01*
X-6597609Y1658165D01*
X-6812101Y1808061D01*
X-6982320Y2009094D01*
X-7097106Y2245948D01*
X-7140207Y2476102D01*
X-6585552Y2476102D01*
X-6516623Y2306051D01*
X-6395145Y2185445D01*
X-6240612Y2120438D01*
X-6072522Y2117183D01*
X-5910370Y2181832D01*
X-5838744Y2240410D01*
X-5745034Y2386752D01*
X-5727330Y2496146D01*
X-4056960Y2496146D01*
X-4016712Y2357300D01*
X-3899763Y2209891D01*
X-3734457Y2131688D01*
X-3605661Y2117608D01*
X-3463507Y2131762D01*
X-3355943Y2188463D01*
X-3298744Y2240410D01*
X-3205034Y2386752D01*
X-3178085Y2553270D01*
X-3211805Y2718568D01*
X-3300102Y2861251D01*
X-3436883Y2959923D01*
X-3510426Y2983788D01*
X-3683441Y2984487D01*
X-3837980Y2919519D01*
X-3960664Y2805437D01*
X-4038116Y2658795D01*
X-4056960Y2496146D01*
X-5727330Y2496146D01*
X-5718085Y2553270D01*
X-5751805Y2718568D01*
X-5840102Y2861251D01*
X-5976883Y2959923D01*
X-6050426Y2983788D01*
X-6224025Y2983478D01*
X-6381468Y2916109D01*
X-6505592Y2797962D01*
X-6579237Y2645318D01*
X-6585552Y2476102D01*
X-7140207Y2476102D01*
X-7145302Y2503306D01*
X-7138241Y2656708D01*
X-7062720Y2928537D01*
X-6923685Y3160567D01*
X-6733601Y3344515D01*
X-6504933Y3472096D01*
X-6250149Y3535025D01*
X-5981713Y3525020D01*
X-5871842Y3498292D01*
X-5621749Y3388939D01*
X-5426319Y3225073D01*
X-5269664Y2993289D01*
X-5266679Y2987604D01*
X-5143500Y2751868D01*
X-4879778Y2751767D01*
X-4616055Y2751667D01*
X-4525870Y2931583D01*
X-4358757Y3184978D01*
X-4148878Y3374391D01*
X-3906781Y3494816D01*
X-3643016Y3541247D01*
X-3368130Y3508677D01*
X-3368130Y3508677D01*
G37*
X-3368130Y3508677D02*
X-3331842Y3498292D01*
X-3073081Y3383453D01*
X-2873735Y3211944D01*
X-2734877Y2998539D01*
X-2642682Y2730099D01*
X-2626072Y2463724D01*
X-2678017Y2211172D01*
X-2791488Y1984203D01*
X-2959458Y1794578D01*
X-3174895Y1654057D01*
X-3430773Y1574399D01*
X-3594245Y1560722D01*
X-3869574Y1594298D01*
X-4118648Y1691621D01*
X-4324642Y1843528D01*
X-4468775Y2037043D01*
X-4503489Y2096955D01*
X-4544785Y2133039D01*
X-4612893Y2151238D01*
X-4728044Y2157497D01*
X-4880004Y2157862D01*
X-5228167Y2156723D01*
X-5334000Y1984426D01*
X-5499070Y1793081D01*
X-5718349Y1654360D01*
X-5974810Y1575129D01*
X-6251424Y1562254D01*
X-6350000Y1574722D01*
X-6597609Y1658165D01*
X-6812101Y1808061D01*
X-6982320Y2009094D01*
X-7097106Y2245948D01*
X-7140207Y2476102D01*
X-6585552Y2476102D01*
X-6516623Y2306051D01*
X-6395145Y2185445D01*
X-6240612Y2120438D01*
X-6072522Y2117183D01*
X-5910370Y2181832D01*
X-5838744Y2240410D01*
X-5745034Y2386752D01*
X-5727330Y2496146D01*
X-4056960Y2496146D01*
X-4016712Y2357300D01*
X-3899763Y2209891D01*
X-3734457Y2131688D01*
X-3605661Y2117608D01*
X-3463507Y2131762D01*
X-3355943Y2188463D01*
X-3298744Y2240410D01*
X-3205034Y2386752D01*
X-3178085Y2553270D01*
X-3211805Y2718568D01*
X-3300102Y2861251D01*
X-3436883Y2959923D01*
X-3510426Y2983788D01*
X-3683441Y2984487D01*
X-3837980Y2919519D01*
X-3960664Y2805437D01*
X-4038116Y2658795D01*
X-4056960Y2496146D01*
X-5727330Y2496146D01*
X-5718085Y2553270D01*
X-5751805Y2718568D01*
X-5840102Y2861251D01*
X-5976883Y2959923D01*
X-6050426Y2983788D01*
X-6224025Y2983478D01*
X-6381468Y2916109D01*
X-6505592Y2797962D01*
X-6579237Y2645318D01*
X-6585552Y2476102D01*
X-7140207Y2476102D01*
X-7145302Y2503306D01*
X-7138241Y2656708D01*
X-7062720Y2928537D01*
X-6923685Y3160567D01*
X-6733601Y3344515D01*
X-6504933Y3472096D01*
X-6250149Y3535025D01*
X-5981713Y3525020D01*
X-5871842Y3498292D01*
X-5621749Y3388939D01*
X-5426319Y3225073D01*
X-5269664Y2993289D01*
X-5266679Y2987604D01*
X-5143500Y2751868D01*
X-4879778Y2751767D01*
X-4616055Y2751667D01*
X-4525870Y2931583D01*
X-4358757Y3184978D01*
X-4148878Y3374391D01*
X-3906781Y3494816D01*
X-3643016Y3541247D01*
X-3368130Y3508677D01*
G36*
X9281437Y3509032D02*
X9508950Y3415916D01*
X9707254Y3268453D01*
X9864480Y3071599D01*
X9968758Y2830307D01*
X10008216Y2549532D01*
X10008270Y2532904D01*
X10000806Y2358265D01*
X9973219Y2228406D01*
X9915246Y2104012D01*
X9881496Y2047379D01*
X9771584Y1902133D01*
X9636326Y1765830D01*
X9573493Y1715968D01*
X9464727Y1647302D01*
X9361070Y1606537D01*
X9231637Y1585097D01*
X9066495Y1575194D01*
X8892375Y1571728D01*
X8770141Y1582377D01*
X8667311Y1614112D01*
X8551407Y1673903D01*
X8518863Y1692719D01*
X8338162Y1823465D01*
X8208188Y1984621D01*
X8180196Y2032658D01*
X8064500Y2242447D01*
X6488443Y2243057D01*
X4912387Y2243667D01*
X4830980Y2084917D01*
X4669771Y1858512D01*
X4455076Y1690294D01*
X4200766Y1587150D01*
X3920712Y1555969D01*
X3788833Y1567421D01*
X3525112Y1645654D01*
X3304608Y1787335D01*
X3133716Y1979670D01*
X3018829Y2209869D01*
X2966340Y2465138D01*
X2968391Y2498800D01*
X3510904Y2498800D01*
X3556571Y2342530D01*
X3658668Y2215790D01*
X3809247Y2136070D01*
X3944326Y2117608D01*
X4099747Y2137937D01*
X4215417Y2189803D01*
X4217795Y2191691D01*
X4340773Y2337213D01*
X4393241Y2503306D01*
X4382442Y2619485D01*
X8596103Y2619485D01*
X8600410Y2450816D01*
X8673364Y2291521D01*
X8717410Y2240410D01*
X8868842Y2141150D01*
X9041063Y2109336D01*
X9209311Y2145574D01*
X9326041Y2225587D01*
X9436742Y2386114D01*
X9464497Y2563568D01*
X9423090Y2727638D01*
X9326161Y2863886D01*
X9181940Y2957631D01*
X9019209Y2993663D01*
X8936904Y2984561D01*
X8770166Y2906076D01*
X8654627Y2777811D01*
X8596103Y2619485D01*
X4382442Y2619485D01*
X4377672Y2670790D01*
X4296537Y2820485D01*
X4152311Y2933211D01*
X4120302Y2947902D01*
X3932026Y2989135D01*
X3763523Y2948179D01*
X3620644Y2829973D01*
X3529612Y2667111D01*
X3510904Y2498800D01*
X2968391Y2498800D01*
X2982644Y2732687D01*
X3073543Y2998539D01*
X3229413Y3227632D01*
X3428402Y3393787D01*
X3657206Y3497188D01*
X3902519Y3538020D01*
X4151036Y3516469D01*
X4389450Y3432719D01*
X4604458Y3286956D01*
X4782753Y3079364D01*
X4843420Y2973917D01*
X4912840Y2836333D01*
X8076488Y2836333D01*
X8103694Y2944731D01*
X8147849Y3032644D01*
X8234058Y3148329D01*
X8316712Y3238940D01*
X8542354Y3412756D01*
X8786269Y3512406D01*
X9036587Y3542847D01*
X9281437Y3509032D01*
X9281437Y3509032D01*
G37*
X9281437Y3509032D02*
X9508950Y3415916D01*
X9707254Y3268453D01*
X9864480Y3071599D01*
X9968758Y2830307D01*
X10008216Y2549532D01*
X10008270Y2532904D01*
X10000806Y2358265D01*
X9973219Y2228406D01*
X9915246Y2104012D01*
X9881496Y2047379D01*
X9771584Y1902133D01*
X9636326Y1765830D01*
X9573493Y1715968D01*
X9464727Y1647302D01*
X9361070Y1606537D01*
X9231637Y1585097D01*
X9066495Y1575194D01*
X8892375Y1571728D01*
X8770141Y1582377D01*
X8667311Y1614112D01*
X8551407Y1673903D01*
X8518863Y1692719D01*
X8338162Y1823465D01*
X8208188Y1984621D01*
X8180196Y2032658D01*
X8064500Y2242447D01*
X6488443Y2243057D01*
X4912387Y2243667D01*
X4830980Y2084917D01*
X4669771Y1858512D01*
X4455076Y1690294D01*
X4200766Y1587150D01*
X3920712Y1555969D01*
X3788833Y1567421D01*
X3525112Y1645654D01*
X3304608Y1787335D01*
X3133716Y1979670D01*
X3018829Y2209869D01*
X2966340Y2465138D01*
X2968391Y2498800D01*
X3510904Y2498800D01*
X3556571Y2342530D01*
X3658668Y2215790D01*
X3809247Y2136070D01*
X3944326Y2117608D01*
X4099747Y2137937D01*
X4215417Y2189803D01*
X4217795Y2191691D01*
X4340773Y2337213D01*
X4393241Y2503306D01*
X4382442Y2619485D01*
X8596103Y2619485D01*
X8600410Y2450816D01*
X8673364Y2291521D01*
X8717410Y2240410D01*
X8868842Y2141150D01*
X9041063Y2109336D01*
X9209311Y2145574D01*
X9326041Y2225587D01*
X9436742Y2386114D01*
X9464497Y2563568D01*
X9423090Y2727638D01*
X9326161Y2863886D01*
X9181940Y2957631D01*
X9019209Y2993663D01*
X8936904Y2984561D01*
X8770166Y2906076D01*
X8654627Y2777811D01*
X8596103Y2619485D01*
X4382442Y2619485D01*
X4377672Y2670790D01*
X4296537Y2820485D01*
X4152311Y2933211D01*
X4120302Y2947902D01*
X3932026Y2989135D01*
X3763523Y2948179D01*
X3620644Y2829973D01*
X3529612Y2667111D01*
X3510904Y2498800D01*
X2968391Y2498800D01*
X2982644Y2732687D01*
X3073543Y2998539D01*
X3229413Y3227632D01*
X3428402Y3393787D01*
X3657206Y3497188D01*
X3902519Y3538020D01*
X4151036Y3516469D01*
X4389450Y3432719D01*
X4604458Y3286956D01*
X4782753Y3079364D01*
X4843420Y2973917D01*
X4912840Y2836333D01*
X8076488Y2836333D01*
X8103694Y2944731D01*
X8147849Y3032644D01*
X8234058Y3148329D01*
X8316712Y3238940D01*
X8542354Y3412756D01*
X8786269Y3512406D01*
X9036587Y3542847D01*
X9281437Y3509032D01*
G36*
X4254113Y6003682D02*
X4389560Y5950536D01*
X4570956Y5835007D01*
X4734461Y5675850D01*
X4854769Y5500131D01*
X4890863Y5414371D01*
X4915320Y5372260D01*
X4968049Y5347864D01*
X5068059Y5336629D01*
X5226430Y5334000D01*
X5386443Y5335757D01*
X5481478Y5345192D01*
X5531215Y5368547D01*
X5555330Y5412068D01*
X5563318Y5440901D01*
X5623211Y5564072D01*
X5734427Y5705042D01*
X5874402Y5840265D01*
X6020573Y5946195D01*
X6074833Y5974687D01*
X6319058Y6043394D01*
X6580040Y6044794D01*
X6836764Y5984475D01*
X7068216Y5868024D01*
X7253381Y5701029D01*
X7290344Y5651500D01*
X7428366Y5383411D01*
X7483472Y5111429D01*
X7456120Y4843009D01*
X7346768Y4585602D01*
X7213923Y4407260D01*
X6995138Y4220713D01*
X6750113Y4108431D01*
X6491828Y4069645D01*
X6233263Y4103586D01*
X5987398Y4209483D01*
X5767212Y4386568D01*
X5672987Y4498609D01*
X5524657Y4699000D01*
X5205622Y4699000D01*
X5041792Y4697136D01*
X4940570Y4687002D01*
X4879909Y4661781D01*
X4837762Y4614659D01*
X4815319Y4578351D01*
X4637623Y4352935D01*
X4414993Y4189754D01*
X4161699Y4094230D01*
X3892014Y4071784D01*
X3624897Y4126153D01*
X3368676Y4259332D01*
X3169044Y4450741D01*
X3033506Y4689764D01*
X2969567Y4965785D01*
X2965455Y5058833D01*
X2969774Y5092115D01*
X3511608Y5092115D01*
X3537364Y4912347D01*
X3559216Y4857012D01*
X3664014Y4720813D01*
X3816721Y4640987D01*
X3996054Y4625113D01*
X4124724Y4655612D01*
X4266252Y4749451D01*
X4353134Y4889080D01*
X4382158Y5053039D01*
X4378387Y5072673D01*
X6055013Y5072673D01*
X6072228Y4913450D01*
X6133132Y4797798D01*
X6255847Y4692251D01*
X6264169Y4686474D01*
X6421205Y4621354D01*
X6591283Y4637151D01*
X6690052Y4678550D01*
X6832900Y4794046D01*
X6911627Y4946518D01*
X6923945Y5115102D01*
X6867564Y5278936D01*
X6768645Y5394948D01*
X6605347Y5486588D01*
X6436834Y5506055D01*
X6280481Y5461196D01*
X6153659Y5359857D01*
X6073742Y5209883D01*
X6055013Y5072673D01*
X4378387Y5072673D01*
X4350113Y5219864D01*
X4253790Y5368095D01*
X4234135Y5386917D01*
X4076499Y5483852D01*
X3915830Y5508291D01*
X3765567Y5470785D01*
X3639149Y5381886D01*
X3550016Y5252145D01*
X3511608Y5092115D01*
X2969774Y5092115D01*
X3002535Y5344546D01*
X3107036Y5591544D01*
X3267907Y5792911D01*
X3474100Y5941726D01*
X3714565Y6031072D01*
X3978252Y6054031D01*
X4254113Y6003682D01*
X4254113Y6003682D01*
G37*
X4254113Y6003682D02*
X4389560Y5950536D01*
X4570956Y5835007D01*
X4734461Y5675850D01*
X4854769Y5500131D01*
X4890863Y5414371D01*
X4915320Y5372260D01*
X4968049Y5347864D01*
X5068059Y5336629D01*
X5226430Y5334000D01*
X5386443Y5335757D01*
X5481478Y5345192D01*
X5531215Y5368547D01*
X5555330Y5412068D01*
X5563318Y5440901D01*
X5623211Y5564072D01*
X5734427Y5705042D01*
X5874402Y5840265D01*
X6020573Y5946195D01*
X6074833Y5974687D01*
X6319058Y6043394D01*
X6580040Y6044794D01*
X6836764Y5984475D01*
X7068216Y5868024D01*
X7253381Y5701029D01*
X7290344Y5651500D01*
X7428366Y5383411D01*
X7483472Y5111429D01*
X7456120Y4843009D01*
X7346768Y4585602D01*
X7213923Y4407260D01*
X6995138Y4220713D01*
X6750113Y4108431D01*
X6491828Y4069645D01*
X6233263Y4103586D01*
X5987398Y4209483D01*
X5767212Y4386568D01*
X5672987Y4498609D01*
X5524657Y4699000D01*
X5205622Y4699000D01*
X5041792Y4697136D01*
X4940570Y4687002D01*
X4879909Y4661781D01*
X4837762Y4614659D01*
X4815319Y4578351D01*
X4637623Y4352935D01*
X4414993Y4189754D01*
X4161699Y4094230D01*
X3892014Y4071784D01*
X3624897Y4126153D01*
X3368676Y4259332D01*
X3169044Y4450741D01*
X3033506Y4689764D01*
X2969567Y4965785D01*
X2965455Y5058833D01*
X2969774Y5092115D01*
X3511608Y5092115D01*
X3537364Y4912347D01*
X3559216Y4857012D01*
X3664014Y4720813D01*
X3816721Y4640987D01*
X3996054Y4625113D01*
X4124724Y4655612D01*
X4266252Y4749451D01*
X4353134Y4889080D01*
X4382158Y5053039D01*
X4378387Y5072673D01*
X6055013Y5072673D01*
X6072228Y4913450D01*
X6133132Y4797798D01*
X6255847Y4692251D01*
X6264169Y4686474D01*
X6421205Y4621354D01*
X6591283Y4637151D01*
X6690052Y4678550D01*
X6832900Y4794046D01*
X6911627Y4946518D01*
X6923945Y5115102D01*
X6867564Y5278936D01*
X6768645Y5394948D01*
X6605347Y5486588D01*
X6436834Y5506055D01*
X6280481Y5461196D01*
X6153659Y5359857D01*
X6073742Y5209883D01*
X6055013Y5072673D01*
X4378387Y5072673D01*
X4350113Y5219864D01*
X4253790Y5368095D01*
X4234135Y5386917D01*
X4076499Y5483852D01*
X3915830Y5508291D01*
X3765567Y5470785D01*
X3639149Y5381886D01*
X3550016Y5252145D01*
X3511608Y5092115D01*
X2969774Y5092115D01*
X3002535Y5344546D01*
X3107036Y5591544D01*
X3267907Y5792911D01*
X3474100Y5941726D01*
X3714565Y6031072D01*
X3978252Y6054031D01*
X4254113Y6003682D01*
G36*
X-8690603Y22182796D02*
X-8463210Y22088865D01*
X-8264508Y21941483D01*
X-8106456Y21745709D01*
X-8001015Y21506600D01*
X-7960145Y21229216D01*
X-7960010Y21209000D01*
X-7998210Y20925637D01*
X-8111701Y20680883D01*
X-8277026Y20494258D01*
X-8461569Y20354976D01*
X-8644078Y20273762D01*
X-8854073Y20240877D01*
X-9042135Y20241813D01*
X-9346680Y20256500D01*
X-10578006Y18837052D01*
X-10488316Y18636609D01*
X-10428600Y18453722D01*
X-10397290Y18258298D01*
X-10395730Y18220896D01*
X-10392834Y18005625D01*
X-7789334Y17356771D01*
X-7330440Y17242354D01*
X-6893031Y17133200D01*
X-6484510Y17031162D01*
X-6112280Y16938093D01*
X-5783746Y16855847D01*
X-5506311Y16786279D01*
X-5287377Y16731240D01*
X-5134350Y16692586D01*
X-5054632Y16672169D01*
X-5048250Y16670469D01*
X-4910667Y16633020D01*
X-4910667Y15498797D01*
X-4911817Y15143169D01*
X-4915040Y14766338D01*
X-4919998Y14391578D01*
X-4926354Y14042161D01*
X-4933770Y13741362D01*
X-4938169Y13605326D01*
X-4965670Y12846080D01*
X-6261085Y11842070D01*
X-6554203Y11614797D01*
X-6830437Y11400438D01*
X-7081650Y11205321D01*
X-7299707Y11035773D01*
X-7476470Y10898120D01*
X-7603803Y10798690D01*
X-7673571Y10743809D01*
X-7678632Y10739759D01*
X-7756708Y10667264D01*
X-7774814Y10609679D01*
X-7751226Y10548895D01*
X-7715940Y10500288D01*
X-7661034Y10472491D01*
X-7565255Y10460032D01*
X-7407348Y10457437D01*
X-7396261Y10457472D01*
X-7090834Y10458611D01*
X-6986916Y10627055D01*
X-6809198Y10839683D01*
X-6585581Y10989141D01*
X-6331078Y11071063D01*
X-6060701Y11081086D01*
X-5789464Y11014847D01*
X-5734437Y10991136D01*
X-5487228Y10834758D01*
X-5308660Y10629345D01*
X-5200774Y10378142D01*
X-5165597Y10087277D01*
X-5205046Y9801761D01*
X-5315260Y9553736D01*
X-5487469Y9351655D01*
X-5712907Y9203971D01*
X-5982804Y9119139D01*
X-6187850Y9101667D01*
X-6425903Y9140565D01*
X-6658089Y9247054D01*
X-6862179Y9405825D01*
X-7015945Y9601568D01*
X-7066304Y9706653D01*
X-7138552Y9793136D01*
X-7279185Y9844857D01*
X-7493155Y9863546D01*
X-7515682Y9863667D01*
X-7604622Y9854302D01*
X-7666008Y9812713D01*
X-7724430Y9718655D01*
X-7746946Y9673280D01*
X-7905126Y9435906D01*
X-8112797Y9258904D01*
X-8355962Y9146942D01*
X-8620627Y9104685D01*
X-8892795Y9136801D01*
X-9107416Y9219639D01*
X-9334723Y9380324D01*
X-9499520Y9584604D01*
X-9601492Y9818623D01*
X-9640324Y10068526D01*
X-9637590Y10096500D01*
X-9080500Y10096500D01*
X-9070916Y9960935D01*
X-9030181Y9867280D01*
X-8942249Y9775528D01*
X-8775651Y9674674D01*
X-8598341Y9654449D01*
X-8453301Y9699288D01*
X-8305203Y9817716D01*
X-8226737Y9983145D01*
X-8214550Y10096500D01*
X-6582834Y10096500D01*
X-6573249Y9960935D01*
X-6532514Y9867280D01*
X-6444583Y9775528D01*
X-6279617Y9674441D01*
X-6103152Y9656988D01*
X-5925820Y9715938D01*
X-5796338Y9813346D01*
X-5729938Y9948277D01*
X-5715000Y10096500D01*
X-5738641Y10275502D01*
X-5816740Y10401415D01*
X-5925820Y10477062D01*
X-6115263Y10537438D01*
X-6290889Y10514447D01*
X-6444583Y10417473D01*
X-6533509Y10324329D01*
X-6573601Y10230330D01*
X-6582834Y10096500D01*
X-8214550Y10096500D01*
X-8249966Y10280396D01*
X-8344654Y10420600D01*
X-8481277Y10509464D01*
X-8642496Y10539341D01*
X-8810973Y10502584D01*
X-8942249Y10417473D01*
X-9031176Y10324329D01*
X-9071268Y10230330D01*
X-9080500Y10096500D01*
X-9637590Y10096500D01*
X-9615699Y10320460D01*
X-9527302Y10560569D01*
X-9374819Y10774999D01*
X-9157932Y10949895D01*
X-9146972Y10956427D01*
X-9036779Y11014485D01*
X-8931187Y11049197D01*
X-8801669Y11066539D01*
X-8619701Y11072487D01*
X-8591886Y11072727D01*
X-8230271Y11075287D01*
X-6898553Y12106101D01*
X-6606981Y12331755D01*
X-6337075Y12540570D01*
X-6095995Y12727014D01*
X-5890900Y12885551D01*
X-5728949Y13010647D01*
X-5617304Y13096770D01*
X-5563123Y13138385D01*
X-5559084Y13141402D01*
X-5556473Y13183207D01*
X-5552494Y13300125D01*
X-5547385Y13482619D01*
X-5541388Y13721151D01*
X-5534743Y14006183D01*
X-5527691Y14328178D01*
X-5520991Y14651809D01*
X-5490649Y16157729D01*
X-8081559Y16805307D01*
X-10672468Y17452884D01*
X-10900403Y17341275D01*
X-11173224Y17247806D01*
X-11441578Y17228319D01*
X-11695146Y17275208D01*
X-11923609Y17380864D01*
X-12116649Y17537680D01*
X-12263947Y17738049D01*
X-12355185Y17974362D01*
X-12374814Y18183343D01*
X-11825057Y18183343D01*
X-11790456Y18050127D01*
X-11685966Y17896419D01*
X-11538667Y17804147D01*
X-11368615Y17778035D01*
X-11195868Y17822807D01*
X-11097694Y17886978D01*
X-10977345Y18033672D01*
X-10938784Y18202205D01*
X-10981577Y18390972D01*
X-11083329Y18537812D01*
X-11228365Y18625731D01*
X-11395808Y18651051D01*
X-11564778Y18610091D01*
X-11697343Y18517112D01*
X-11801926Y18359788D01*
X-11825057Y18183343D01*
X-12374814Y18183343D01*
X-12380044Y18239013D01*
X-12357295Y18415392D01*
X-12260084Y18680378D01*
X-12097659Y18898789D01*
X-11880010Y19062946D01*
X-11617127Y19165171D01*
X-11339267Y19197930D01*
X-11054853Y19198167D01*
X-10419488Y19935473D01*
X-9784124Y20672779D01*
X-9847326Y20794999D01*
X-9926972Y21036561D01*
X-9930602Y21146115D01*
X-9393144Y21146115D01*
X-9369420Y21064003D01*
X-9300275Y20976717D01*
X-9259483Y20935016D01*
X-9148777Y20838943D01*
X-9047056Y20795107D01*
X-8933311Y20785667D01*
X-8789158Y20803142D01*
X-8676268Y20868889D01*
X-8632744Y20909410D01*
X-8544093Y21023032D01*
X-8511102Y21149972D01*
X-8509000Y21209977D01*
X-8521359Y21336082D01*
X-8570251Y21436874D01*
X-8658349Y21536149D01*
X-8756931Y21626073D01*
X-8836775Y21665303D01*
X-8933805Y21667805D01*
X-8982309Y21662078D01*
X-9144993Y21613216D01*
X-9259455Y21536121D01*
X-9343782Y21405746D01*
X-9385411Y21258975D01*
X-9393144Y21146115D01*
X-9930602Y21146115D01*
X-9935620Y21297489D01*
X-9876915Y21557180D01*
X-9754498Y21795036D01*
X-9647865Y21922842D01*
X-9425317Y22093299D01*
X-9183617Y22190071D01*
X-8934725Y22218217D01*
X-8690603Y22182796D01*
X-8690603Y22182796D01*
G37*
X-8690603Y22182796D02*
X-8463210Y22088865D01*
X-8264508Y21941483D01*
X-8106456Y21745709D01*
X-8001015Y21506600D01*
X-7960145Y21229216D01*
X-7960010Y21209000D01*
X-7998210Y20925637D01*
X-8111701Y20680883D01*
X-8277026Y20494258D01*
X-8461569Y20354976D01*
X-8644078Y20273762D01*
X-8854073Y20240877D01*
X-9042135Y20241813D01*
X-9346680Y20256500D01*
X-10578006Y18837052D01*
X-10488316Y18636609D01*
X-10428600Y18453722D01*
X-10397290Y18258298D01*
X-10395730Y18220896D01*
X-10392834Y18005625D01*
X-7789334Y17356771D01*
X-7330440Y17242354D01*
X-6893031Y17133200D01*
X-6484510Y17031162D01*
X-6112280Y16938093D01*
X-5783746Y16855847D01*
X-5506311Y16786279D01*
X-5287377Y16731240D01*
X-5134350Y16692586D01*
X-5054632Y16672169D01*
X-5048250Y16670469D01*
X-4910667Y16633020D01*
X-4910667Y15498797D01*
X-4911817Y15143169D01*
X-4915040Y14766338D01*
X-4919998Y14391578D01*
X-4926354Y14042161D01*
X-4933770Y13741362D01*
X-4938169Y13605326D01*
X-4965670Y12846080D01*
X-6261085Y11842070D01*
X-6554203Y11614797D01*
X-6830437Y11400438D01*
X-7081650Y11205321D01*
X-7299707Y11035773D01*
X-7476470Y10898120D01*
X-7603803Y10798690D01*
X-7673571Y10743809D01*
X-7678632Y10739759D01*
X-7756708Y10667264D01*
X-7774814Y10609679D01*
X-7751226Y10548895D01*
X-7715940Y10500288D01*
X-7661034Y10472491D01*
X-7565255Y10460032D01*
X-7407348Y10457437D01*
X-7396261Y10457472D01*
X-7090834Y10458611D01*
X-6986916Y10627055D01*
X-6809198Y10839683D01*
X-6585581Y10989141D01*
X-6331078Y11071063D01*
X-6060701Y11081086D01*
X-5789464Y11014847D01*
X-5734437Y10991136D01*
X-5487228Y10834758D01*
X-5308660Y10629345D01*
X-5200774Y10378142D01*
X-5165597Y10087277D01*
X-5205046Y9801761D01*
X-5315260Y9553736D01*
X-5487469Y9351655D01*
X-5712907Y9203971D01*
X-5982804Y9119139D01*
X-6187850Y9101667D01*
X-6425903Y9140565D01*
X-6658089Y9247054D01*
X-6862179Y9405825D01*
X-7015945Y9601568D01*
X-7066304Y9706653D01*
X-7138552Y9793136D01*
X-7279185Y9844857D01*
X-7493155Y9863546D01*
X-7515682Y9863667D01*
X-7604622Y9854302D01*
X-7666008Y9812713D01*
X-7724430Y9718655D01*
X-7746946Y9673280D01*
X-7905126Y9435906D01*
X-8112797Y9258904D01*
X-8355962Y9146942D01*
X-8620627Y9104685D01*
X-8892795Y9136801D01*
X-9107416Y9219639D01*
X-9334723Y9380324D01*
X-9499520Y9584604D01*
X-9601492Y9818623D01*
X-9640324Y10068526D01*
X-9637590Y10096500D01*
X-9080500Y10096500D01*
X-9070916Y9960935D01*
X-9030181Y9867280D01*
X-8942249Y9775528D01*
X-8775651Y9674674D01*
X-8598341Y9654449D01*
X-8453301Y9699288D01*
X-8305203Y9817716D01*
X-8226737Y9983145D01*
X-8214550Y10096500D01*
X-6582834Y10096500D01*
X-6573249Y9960935D01*
X-6532514Y9867280D01*
X-6444583Y9775528D01*
X-6279617Y9674441D01*
X-6103152Y9656988D01*
X-5925820Y9715938D01*
X-5796338Y9813346D01*
X-5729938Y9948277D01*
X-5715000Y10096500D01*
X-5738641Y10275502D01*
X-5816740Y10401415D01*
X-5925820Y10477062D01*
X-6115263Y10537438D01*
X-6290889Y10514447D01*
X-6444583Y10417473D01*
X-6533509Y10324329D01*
X-6573601Y10230330D01*
X-6582834Y10096500D01*
X-8214550Y10096500D01*
X-8249966Y10280396D01*
X-8344654Y10420600D01*
X-8481277Y10509464D01*
X-8642496Y10539341D01*
X-8810973Y10502584D01*
X-8942249Y10417473D01*
X-9031176Y10324329D01*
X-9071268Y10230330D01*
X-9080500Y10096500D01*
X-9637590Y10096500D01*
X-9615699Y10320460D01*
X-9527302Y10560569D01*
X-9374819Y10774999D01*
X-9157932Y10949895D01*
X-9146972Y10956427D01*
X-9036779Y11014485D01*
X-8931187Y11049197D01*
X-8801669Y11066539D01*
X-8619701Y11072487D01*
X-8591886Y11072727D01*
X-8230271Y11075287D01*
X-6898553Y12106101D01*
X-6606981Y12331755D01*
X-6337075Y12540570D01*
X-6095995Y12727014D01*
X-5890900Y12885551D01*
X-5728949Y13010647D01*
X-5617304Y13096770D01*
X-5563123Y13138385D01*
X-5559084Y13141402D01*
X-5556473Y13183207D01*
X-5552494Y13300125D01*
X-5547385Y13482619D01*
X-5541388Y13721151D01*
X-5534743Y14006183D01*
X-5527691Y14328178D01*
X-5520991Y14651809D01*
X-5490649Y16157729D01*
X-8081559Y16805307D01*
X-10672468Y17452884D01*
X-10900403Y17341275D01*
X-11173224Y17247806D01*
X-11441578Y17228319D01*
X-11695146Y17275208D01*
X-11923609Y17380864D01*
X-12116649Y17537680D01*
X-12263947Y17738049D01*
X-12355185Y17974362D01*
X-12374814Y18183343D01*
X-11825057Y18183343D01*
X-11790456Y18050127D01*
X-11685966Y17896419D01*
X-11538667Y17804147D01*
X-11368615Y17778035D01*
X-11195868Y17822807D01*
X-11097694Y17886978D01*
X-10977345Y18033672D01*
X-10938784Y18202205D01*
X-10981577Y18390972D01*
X-11083329Y18537812D01*
X-11228365Y18625731D01*
X-11395808Y18651051D01*
X-11564778Y18610091D01*
X-11697343Y18517112D01*
X-11801926Y18359788D01*
X-11825057Y18183343D01*
X-12374814Y18183343D01*
X-12380044Y18239013D01*
X-12357295Y18415392D01*
X-12260084Y18680378D01*
X-12097659Y18898789D01*
X-11880010Y19062946D01*
X-11617127Y19165171D01*
X-11339267Y19197930D01*
X-11054853Y19198167D01*
X-10419488Y19935473D01*
X-9784124Y20672779D01*
X-9847326Y20794999D01*
X-9926972Y21036561D01*
X-9930602Y21146115D01*
X-9393144Y21146115D01*
X-9369420Y21064003D01*
X-9300275Y20976717D01*
X-9259483Y20935016D01*
X-9148777Y20838943D01*
X-9047056Y20795107D01*
X-8933311Y20785667D01*
X-8789158Y20803142D01*
X-8676268Y20868889D01*
X-8632744Y20909410D01*
X-8544093Y21023032D01*
X-8511102Y21149972D01*
X-8509000Y21209977D01*
X-8521359Y21336082D01*
X-8570251Y21436874D01*
X-8658349Y21536149D01*
X-8756931Y21626073D01*
X-8836775Y21665303D01*
X-8933805Y21667805D01*
X-8982309Y21662078D01*
X-9144993Y21613216D01*
X-9259455Y21536121D01*
X-9343782Y21405746D01*
X-9385411Y21258975D01*
X-9393144Y21146115D01*
X-9930602Y21146115D01*
X-9935620Y21297489D01*
X-9876915Y21557180D01*
X-9754498Y21795036D01*
X-9647865Y21922842D01*
X-9425317Y22093299D01*
X-9183617Y22190071D01*
X-8934725Y22218217D01*
X-8690603Y22182796D01*
G36*
X7649352Y23941501D02*
X7899513Y23834922D01*
X8104656Y23671235D01*
X8256275Y23461006D01*
X8345866Y23214801D01*
X8364921Y22943185D01*
X8338091Y22768768D01*
X8285189Y22548248D01*
X8662439Y22185541D01*
X8818407Y22036250D01*
X9017771Y21846417D01*
X9242192Y21633448D01*
X9473335Y21414747D01*
X9662864Y21235962D01*
X10286040Y20649090D01*
X10456710Y20717378D01*
X10677122Y20772255D01*
X10920823Y20780519D01*
X11147355Y20742027D01*
X11209109Y20720021D01*
X11443585Y20580881D01*
X11622199Y20391408D01*
X11743036Y20165985D01*
X11804179Y19918993D01*
X11803713Y19664815D01*
X11739723Y19417834D01*
X11610293Y19192430D01*
X11435619Y19019403D01*
X11296578Y18929230D01*
X11150499Y18858292D01*
X11093687Y18838967D01*
X11009285Y18812882D01*
X10955605Y18777291D01*
X10919374Y18712030D01*
X10887317Y18596932D01*
X10863028Y18488565D01*
X10841704Y18390998D01*
X10804252Y18219193D01*
X10752522Y17981646D01*
X10688361Y17686856D01*
X10613619Y17343320D01*
X10530144Y16959536D01*
X10439786Y16544002D01*
X10344394Y16105214D01*
X10268204Y15754689D01*
X9740620Y13327210D01*
X9841321Y13172355D01*
X9967475Y12909762D01*
X10017741Y12635538D01*
X9990900Y12364859D01*
X9921291Y12176973D01*
X9759216Y11938264D01*
X9553752Y11763568D01*
X9318182Y11653996D01*
X9065792Y11610663D01*
X8809866Y11634679D01*
X8563689Y11727157D01*
X8340545Y11889210D01*
X8212987Y12033943D01*
X8064657Y12234333D01*
X7736495Y12234333D01*
X7581938Y12229855D01*
X7466536Y12217979D01*
X7410635Y12201048D01*
X7408333Y12196579D01*
X7381915Y12148097D01*
X7312712Y12057549D01*
X7217335Y11946389D01*
X6993320Y11752634D01*
X6743942Y11637402D01*
X6476452Y11602644D01*
X6198100Y11650309D01*
X6161947Y11662500D01*
X5900822Y11795182D01*
X5702447Y11982001D01*
X5571334Y12217109D01*
X5511995Y12494657D01*
X5511202Y12506184D01*
X5510673Y12608007D01*
X6055013Y12608007D01*
X6072228Y12448784D01*
X6133132Y12333131D01*
X6255847Y12227584D01*
X6264169Y12221807D01*
X6421205Y12156687D01*
X6591283Y12172485D01*
X6690052Y12213883D01*
X6832900Y12329380D01*
X6911627Y12481851D01*
X6920844Y12608007D01*
X8594607Y12608007D01*
X8630268Y12414281D01*
X8725284Y12268423D01*
X8865017Y12179511D01*
X9034828Y12156624D01*
X9220077Y12208844D01*
X9230052Y12213883D01*
X9372900Y12329380D01*
X9451627Y12481851D01*
X9463945Y12650435D01*
X9407564Y12814269D01*
X9308645Y12930282D01*
X9145257Y13021949D01*
X8976656Y13041354D01*
X8820220Y12996340D01*
X8693329Y12894751D01*
X8613363Y12744432D01*
X8594607Y12608007D01*
X6920844Y12608007D01*
X6923945Y12650435D01*
X6867564Y12814269D01*
X6768645Y12930282D01*
X6605347Y13021921D01*
X6436834Y13041388D01*
X6280481Y12996530D01*
X6153659Y12895191D01*
X6073742Y12745216D01*
X6055013Y12608007D01*
X5510673Y12608007D01*
X5510290Y12681582D01*
X5526358Y12846813D01*
X5546110Y12934179D01*
X5637816Y13113373D01*
X5783116Y13291715D01*
X5955652Y13440497D01*
X6074833Y13510020D01*
X6326871Y13582146D01*
X6588174Y13582717D01*
X6842206Y13518523D01*
X7072430Y13396355D01*
X7262309Y13223004D01*
X7395308Y13005259D01*
X7412301Y12960815D01*
X7440281Y12890471D01*
X7477040Y12850466D01*
X7544223Y12832238D01*
X7663473Y12827226D01*
X7750573Y12827000D01*
X8042197Y12827000D01*
X8108410Y12985750D01*
X8246147Y13215454D01*
X8440497Y13400302D01*
X8673489Y13527910D01*
X8927153Y13585893D01*
X8982397Y13588070D01*
X9113192Y13596896D01*
X9180725Y13626421D01*
X9201205Y13663083D01*
X9213570Y13716614D01*
X9242184Y13845626D01*
X9285463Y14042836D01*
X9341822Y14300960D01*
X9409675Y14612712D01*
X9487436Y14970809D01*
X9573522Y15367965D01*
X9666347Y15796896D01*
X9764325Y16250317D01*
X9779262Y16319500D01*
X10336742Y18901833D01*
X10131155Y19113792D01*
X9945500Y19353961D01*
X9843643Y19605542D01*
X9825611Y19866220D01*
X10392002Y19866220D01*
X10396183Y19705185D01*
X10454576Y19567120D01*
X10586284Y19421577D01*
X10742761Y19352682D01*
X10909986Y19362062D01*
X11073939Y19451345D01*
X11116733Y19490267D01*
X11232577Y19653913D01*
X11268761Y19825675D01*
X11224892Y19993416D01*
X11136923Y20111590D01*
X10989463Y20211057D01*
X10833096Y20239833D01*
X10681495Y20208827D01*
X10548330Y20128950D01*
X10447275Y20011111D01*
X10392002Y19866220D01*
X9825611Y19866220D01*
X9825408Y19869151D01*
X9860355Y20054455D01*
X9899378Y20190518D01*
X8883304Y21148312D01*
X8600572Y21413968D01*
X8372269Y21626144D01*
X8191963Y21790218D01*
X8053223Y21911570D01*
X7949617Y21995577D01*
X7874715Y22047620D01*
X7822084Y22073077D01*
X7785293Y22077327D01*
X7775365Y22074936D01*
X7682942Y22054479D01*
X7542396Y22034859D01*
X7435477Y22024558D01*
X7144440Y22040394D01*
X6886441Y22133120D01*
X6667062Y22299534D01*
X6491883Y22536435D01*
X6469316Y22578729D01*
X6421378Y22694828D01*
X6398670Y22820827D01*
X6396513Y22988521D01*
X6396963Y22999138D01*
X6942666Y22999138D01*
X6978163Y22815521D01*
X7073094Y22675587D01*
X7210122Y22587321D01*
X7371907Y22558707D01*
X7541112Y22597730D01*
X7655973Y22670645D01*
X7776385Y22817847D01*
X7815103Y22986919D01*
X7773902Y23170303D01*
X7673752Y23321133D01*
X7538145Y23409617D01*
X7384690Y23439382D01*
X7230997Y23414053D01*
X7094676Y23337257D01*
X6993336Y23212620D01*
X6944588Y23043768D01*
X6942666Y22999138D01*
X6396963Y22999138D01*
X6399316Y23054551D01*
X6413971Y23233934D01*
X6442585Y23361988D01*
X6494875Y23471941D01*
X6542497Y23544247D01*
X6656764Y23675044D01*
X6803090Y23802466D01*
X6877156Y23853832D01*
X7011093Y23927786D01*
X7131714Y23966291D01*
X7278903Y23979745D01*
X7362680Y23980407D01*
X7649352Y23941501D01*
X7649352Y23941501D01*
G37*
X7649352Y23941501D02*
X7899513Y23834922D01*
X8104656Y23671235D01*
X8256275Y23461006D01*
X8345866Y23214801D01*
X8364921Y22943185D01*
X8338091Y22768768D01*
X8285189Y22548248D01*
X8662439Y22185541D01*
X8818407Y22036250D01*
X9017771Y21846417D01*
X9242192Y21633448D01*
X9473335Y21414747D01*
X9662864Y21235962D01*
X10286040Y20649090D01*
X10456710Y20717378D01*
X10677122Y20772255D01*
X10920823Y20780519D01*
X11147355Y20742027D01*
X11209109Y20720021D01*
X11443585Y20580881D01*
X11622199Y20391408D01*
X11743036Y20165985D01*
X11804179Y19918993D01*
X11803713Y19664815D01*
X11739723Y19417834D01*
X11610293Y19192430D01*
X11435619Y19019403D01*
X11296578Y18929230D01*
X11150499Y18858292D01*
X11093687Y18838967D01*
X11009285Y18812882D01*
X10955605Y18777291D01*
X10919374Y18712030D01*
X10887317Y18596932D01*
X10863028Y18488565D01*
X10841704Y18390998D01*
X10804252Y18219193D01*
X10752522Y17981646D01*
X10688361Y17686856D01*
X10613619Y17343320D01*
X10530144Y16959536D01*
X10439786Y16544002D01*
X10344394Y16105214D01*
X10268204Y15754689D01*
X9740620Y13327210D01*
X9841321Y13172355D01*
X9967475Y12909762D01*
X10017741Y12635538D01*
X9990900Y12364859D01*
X9921291Y12176973D01*
X9759216Y11938264D01*
X9553752Y11763568D01*
X9318182Y11653996D01*
X9065792Y11610663D01*
X8809866Y11634679D01*
X8563689Y11727157D01*
X8340545Y11889210D01*
X8212987Y12033943D01*
X8064657Y12234333D01*
X7736495Y12234333D01*
X7581938Y12229855D01*
X7466536Y12217979D01*
X7410635Y12201048D01*
X7408333Y12196579D01*
X7381915Y12148097D01*
X7312712Y12057549D01*
X7217335Y11946389D01*
X6993320Y11752634D01*
X6743942Y11637402D01*
X6476452Y11602644D01*
X6198100Y11650309D01*
X6161947Y11662500D01*
X5900822Y11795182D01*
X5702447Y11982001D01*
X5571334Y12217109D01*
X5511995Y12494657D01*
X5511202Y12506184D01*
X5510673Y12608007D01*
X6055013Y12608007D01*
X6072228Y12448784D01*
X6133132Y12333131D01*
X6255847Y12227584D01*
X6264169Y12221807D01*
X6421205Y12156687D01*
X6591283Y12172485D01*
X6690052Y12213883D01*
X6832900Y12329380D01*
X6911627Y12481851D01*
X6920844Y12608007D01*
X8594607Y12608007D01*
X8630268Y12414281D01*
X8725284Y12268423D01*
X8865017Y12179511D01*
X9034828Y12156624D01*
X9220077Y12208844D01*
X9230052Y12213883D01*
X9372900Y12329380D01*
X9451627Y12481851D01*
X9463945Y12650435D01*
X9407564Y12814269D01*
X9308645Y12930282D01*
X9145257Y13021949D01*
X8976656Y13041354D01*
X8820220Y12996340D01*
X8693329Y12894751D01*
X8613363Y12744432D01*
X8594607Y12608007D01*
X6920844Y12608007D01*
X6923945Y12650435D01*
X6867564Y12814269D01*
X6768645Y12930282D01*
X6605347Y13021921D01*
X6436834Y13041388D01*
X6280481Y12996530D01*
X6153659Y12895191D01*
X6073742Y12745216D01*
X6055013Y12608007D01*
X5510673Y12608007D01*
X5510290Y12681582D01*
X5526358Y12846813D01*
X5546110Y12934179D01*
X5637816Y13113373D01*
X5783116Y13291715D01*
X5955652Y13440497D01*
X6074833Y13510020D01*
X6326871Y13582146D01*
X6588174Y13582717D01*
X6842206Y13518523D01*
X7072430Y13396355D01*
X7262309Y13223004D01*
X7395308Y13005259D01*
X7412301Y12960815D01*
X7440281Y12890471D01*
X7477040Y12850466D01*
X7544223Y12832238D01*
X7663473Y12827226D01*
X7750573Y12827000D01*
X8042197Y12827000D01*
X8108410Y12985750D01*
X8246147Y13215454D01*
X8440497Y13400302D01*
X8673489Y13527910D01*
X8927153Y13585893D01*
X8982397Y13588070D01*
X9113192Y13596896D01*
X9180725Y13626421D01*
X9201205Y13663083D01*
X9213570Y13716614D01*
X9242184Y13845626D01*
X9285463Y14042836D01*
X9341822Y14300960D01*
X9409675Y14612712D01*
X9487436Y14970809D01*
X9573522Y15367965D01*
X9666347Y15796896D01*
X9764325Y16250317D01*
X9779262Y16319500D01*
X10336742Y18901833D01*
X10131155Y19113792D01*
X9945500Y19353961D01*
X9843643Y19605542D01*
X9825611Y19866220D01*
X10392002Y19866220D01*
X10396183Y19705185D01*
X10454576Y19567120D01*
X10586284Y19421577D01*
X10742761Y19352682D01*
X10909986Y19362062D01*
X11073939Y19451345D01*
X11116733Y19490267D01*
X11232577Y19653913D01*
X11268761Y19825675D01*
X11224892Y19993416D01*
X11136923Y20111590D01*
X10989463Y20211057D01*
X10833096Y20239833D01*
X10681495Y20208827D01*
X10548330Y20128950D01*
X10447275Y20011111D01*
X10392002Y19866220D01*
X9825611Y19866220D01*
X9825408Y19869151D01*
X9860355Y20054455D01*
X9899378Y20190518D01*
X8883304Y21148312D01*
X8600572Y21413968D01*
X8372269Y21626144D01*
X8191963Y21790218D01*
X8053223Y21911570D01*
X7949617Y21995577D01*
X7874715Y22047620D01*
X7822084Y22073077D01*
X7785293Y22077327D01*
X7775365Y22074936D01*
X7682942Y22054479D01*
X7542396Y22034859D01*
X7435477Y22024558D01*
X7144440Y22040394D01*
X6886441Y22133120D01*
X6667062Y22299534D01*
X6491883Y22536435D01*
X6469316Y22578729D01*
X6421378Y22694828D01*
X6398670Y22820827D01*
X6396513Y22988521D01*
X6396963Y22999138D01*
X6942666Y22999138D01*
X6978163Y22815521D01*
X7073094Y22675587D01*
X7210122Y22587321D01*
X7371907Y22558707D01*
X7541112Y22597730D01*
X7655973Y22670645D01*
X7776385Y22817847D01*
X7815103Y22986919D01*
X7773902Y23170303D01*
X7673752Y23321133D01*
X7538145Y23409617D01*
X7384690Y23439382D01*
X7230997Y23414053D01*
X7094676Y23337257D01*
X6993336Y23212620D01*
X6944588Y23043768D01*
X6942666Y22999138D01*
X6396963Y22999138D01*
X6399316Y23054551D01*
X6413971Y23233934D01*
X6442585Y23361988D01*
X6494875Y23471941D01*
X6542497Y23544247D01*
X6656764Y23675044D01*
X6803090Y23802466D01*
X6877156Y23853832D01*
X7011093Y23927786D01*
X7131714Y23966291D01*
X7278903Y23979745D01*
X7362680Y23980407D01*
X7649352Y23941501D01*
G36*
X-1465079Y15023742D02*
X-1221549Y14897022D01*
X-1071063Y14767460D01*
X-910582Y14544102D01*
X-822358Y14295863D01*
X-803832Y14037507D01*
X-852450Y13783799D01*
X-965654Y13549501D01*
X-1140890Y13349378D01*
X-1339731Y13215620D01*
X-1542306Y13140905D01*
X-1764640Y13103839D01*
X-1967679Y13110042D01*
X-2010834Y13119009D01*
X-2277366Y13228172D01*
X-2498771Y13400888D01*
X-2665055Y13624337D01*
X-2766226Y13885701D01*
X-2791558Y14105481D01*
X-2243509Y14105481D01*
X-2207000Y13943184D01*
X-2111790Y13794908D01*
X-1980121Y13694969D01*
X-1976344Y13693295D01*
X-1866345Y13648758D01*
X-1790786Y13638037D01*
X-1706650Y13660763D01*
X-1634007Y13690362D01*
X-1470517Y13797568D01*
X-1376905Y13950924D01*
X-1354667Y14097000D01*
X-1391815Y14278770D01*
X-1492505Y14419998D01*
X-1640601Y14508783D01*
X-1819973Y14533226D01*
X-1922633Y14515907D01*
X-2068742Y14437212D01*
X-2182010Y14305784D01*
X-2240145Y14150137D01*
X-2243509Y14105481D01*
X-2791558Y14105481D01*
X-2793587Y14123078D01*
X-2764431Y14302150D01*
X-2688250Y14503725D01*
X-2580800Y14693495D01*
X-2471271Y14825004D01*
X-2246212Y14981818D01*
X-1993060Y15066783D01*
X-1727466Y15080543D01*
X-1465079Y15023742D01*
X-1465079Y15023742D01*
G37*
X-1465079Y15023742D02*
X-1221549Y14897022D01*
X-1071063Y14767460D01*
X-910582Y14544102D01*
X-822358Y14295863D01*
X-803832Y14037507D01*
X-852450Y13783799D01*
X-965654Y13549501D01*
X-1140890Y13349378D01*
X-1339731Y13215620D01*
X-1542306Y13140905D01*
X-1764640Y13103839D01*
X-1967679Y13110042D01*
X-2010834Y13119009D01*
X-2277366Y13228172D01*
X-2498771Y13400888D01*
X-2665055Y13624337D01*
X-2766226Y13885701D01*
X-2791558Y14105481D01*
X-2243509Y14105481D01*
X-2207000Y13943184D01*
X-2111790Y13794908D01*
X-1980121Y13694969D01*
X-1976344Y13693295D01*
X-1866345Y13648758D01*
X-1790786Y13638037D01*
X-1706650Y13660763D01*
X-1634007Y13690362D01*
X-1470517Y13797568D01*
X-1376905Y13950924D01*
X-1354667Y14097000D01*
X-1391815Y14278770D01*
X-1492505Y14419998D01*
X-1640601Y14508783D01*
X-1819973Y14533226D01*
X-1922633Y14515907D01*
X-2068742Y14437212D01*
X-2182010Y14305784D01*
X-2240145Y14150137D01*
X-2243509Y14105481D01*
X-2791558Y14105481D01*
X-2793587Y14123078D01*
X-2764431Y14302150D01*
X-2688250Y14503725D01*
X-2580800Y14693495D01*
X-2471271Y14825004D01*
X-2246212Y14981818D01*
X-1993060Y15066783D01*
X-1727466Y15080543D01*
X-1465079Y15023742D01*
G36*
X7979788Y16012150D02*
X8199399Y15893267D01*
X8383885Y15725159D01*
X8522485Y15516592D01*
X8604436Y15276335D01*
X8618975Y15013155D01*
X8594866Y14864000D01*
X8491867Y14601891D01*
X8327587Y14387338D01*
X8114996Y14227218D01*
X7867066Y14128409D01*
X7596771Y14097787D01*
X7317080Y14142231D01*
X7265448Y14159192D01*
X7034977Y14284256D01*
X6849586Y14471640D01*
X6719082Y14706698D01*
X6653270Y14974781D01*
X6647263Y15082610D01*
X6648155Y15090501D01*
X7196666Y15090501D01*
X7231550Y14903537D01*
X7324926Y14761145D01*
X7459880Y14670997D01*
X7619498Y14640764D01*
X7786867Y14678116D01*
X7917135Y14763750D01*
X8036597Y14918043D01*
X8074469Y15086803D01*
X8029549Y15261177D01*
X7993095Y15323302D01*
X7855974Y15459965D01*
X7690182Y15524646D01*
X7514323Y15515600D01*
X7347002Y15431085D01*
X7298854Y15388369D01*
X7228038Y15290920D01*
X7199277Y15166018D01*
X7196666Y15090501D01*
X6648155Y15090501D01*
X6680391Y15375638D01*
X6783301Y15621071D01*
X6957656Y15821543D01*
X7205122Y15979691D01*
X7217833Y15985774D01*
X7478242Y16067171D01*
X7735815Y16073041D01*
X7979788Y16012150D01*
X7979788Y16012150D01*
G37*
X7979788Y16012150D02*
X8199399Y15893267D01*
X8383885Y15725159D01*
X8522485Y15516592D01*
X8604436Y15276335D01*
X8618975Y15013155D01*
X8594866Y14864000D01*
X8491867Y14601891D01*
X8327587Y14387338D01*
X8114996Y14227218D01*
X7867066Y14128409D01*
X7596771Y14097787D01*
X7317080Y14142231D01*
X7265448Y14159192D01*
X7034977Y14284256D01*
X6849586Y14471640D01*
X6719082Y14706698D01*
X6653270Y14974781D01*
X6647263Y15082610D01*
X6648155Y15090501D01*
X7196666Y15090501D01*
X7231550Y14903537D01*
X7324926Y14761145D01*
X7459880Y14670997D01*
X7619498Y14640764D01*
X7786867Y14678116D01*
X7917135Y14763750D01*
X8036597Y14918043D01*
X8074469Y15086803D01*
X8029549Y15261177D01*
X7993095Y15323302D01*
X7855974Y15459965D01*
X7690182Y15524646D01*
X7514323Y15515600D01*
X7347002Y15431085D01*
X7298854Y15388369D01*
X7228038Y15290920D01*
X7199277Y15166018D01*
X7196666Y15090501D01*
X6648155Y15090501D01*
X6680391Y15375638D01*
X6783301Y15621071D01*
X6957656Y15821543D01*
X7205122Y15979691D01*
X7217833Y15985774D01*
X7478242Y16067171D01*
X7735815Y16073041D01*
X7979788Y16012150D01*
G36*
X-1856378Y22895577D02*
X-1624252Y22817734D01*
X-1416738Y22686797D01*
X-1246023Y22507441D01*
X-1124295Y22284342D01*
X-1063741Y22022177D01*
X-1059264Y21919443D01*
X-1100191Y21635699D01*
X-1215864Y21384207D01*
X-1399312Y21176342D01*
X-1593731Y21047287D01*
X-1796306Y20972572D01*
X-2018640Y20935505D01*
X-2221679Y20941709D01*
X-2264834Y20950676D01*
X-2528337Y21057364D01*
X-2752765Y21235655D01*
X-2804121Y21292236D01*
X-2960345Y21534181D01*
X-3037893Y21794850D01*
X-3037378Y21937148D01*
X-2497509Y21937148D01*
X-2461000Y21774851D01*
X-2365790Y21626574D01*
X-2234121Y21526636D01*
X-2230344Y21524962D01*
X-2120345Y21480425D01*
X-2044786Y21469703D01*
X-1960650Y21492430D01*
X-1888007Y21522028D01*
X-1724517Y21629235D01*
X-1630905Y21782590D01*
X-1608667Y21928667D01*
X-1645815Y22110437D01*
X-1746505Y22251664D01*
X-1894601Y22340449D01*
X-2073973Y22364893D01*
X-2176633Y22347574D01*
X-2322742Y22268878D01*
X-2436010Y22137450D01*
X-2494145Y21981803D01*
X-2497509Y21937148D01*
X-3037378Y21937148D01*
X-3036924Y22062086D01*
X-2957597Y22323736D01*
X-2800072Y22567642D01*
X-2787241Y22582465D01*
X-2578547Y22763768D01*
X-2345713Y22873270D01*
X-2100927Y22915647D01*
X-1856378Y22895577D01*
X-1856378Y22895577D01*
G37*
X-1856378Y22895577D02*
X-1624252Y22817734D01*
X-1416738Y22686797D01*
X-1246023Y22507441D01*
X-1124295Y22284342D01*
X-1063741Y22022177D01*
X-1059264Y21919443D01*
X-1100191Y21635699D01*
X-1215864Y21384207D01*
X-1399312Y21176342D01*
X-1593731Y21047287D01*
X-1796306Y20972572D01*
X-2018640Y20935505D01*
X-2221679Y20941709D01*
X-2264834Y20950676D01*
X-2528337Y21057364D01*
X-2752765Y21235655D01*
X-2804121Y21292236D01*
X-2960345Y21534181D01*
X-3037893Y21794850D01*
X-3037378Y21937148D01*
X-2497509Y21937148D01*
X-2461000Y21774851D01*
X-2365790Y21626574D01*
X-2234121Y21526636D01*
X-2230344Y21524962D01*
X-2120345Y21480425D01*
X-2044786Y21469703D01*
X-1960650Y21492430D01*
X-1888007Y21522028D01*
X-1724517Y21629235D01*
X-1630905Y21782590D01*
X-1608667Y21928667D01*
X-1645815Y22110437D01*
X-1746505Y22251664D01*
X-1894601Y22340449D01*
X-2073973Y22364893D01*
X-2176633Y22347574D01*
X-2322742Y22268878D01*
X-2436010Y22137450D01*
X-2494145Y21981803D01*
X-2497509Y21937148D01*
X-3037378Y21937148D01*
X-3036924Y22062086D01*
X-2957597Y22323736D01*
X-2800072Y22567642D01*
X-2787241Y22582465D01*
X-2578547Y22763768D01*
X-2345713Y22873270D01*
X-2100927Y22915647D01*
X-1856378Y22895577D01*
G36*
X700734Y23190610D02*
X827229Y23140803D01*
X1074439Y22984424D01*
X1253007Y22779012D01*
X1360893Y22527809D01*
X1396070Y22236943D01*
X1357471Y21954079D01*
X1251571Y21709326D01*
X1089796Y21509649D01*
X883576Y21362015D01*
X644337Y21273389D01*
X383509Y21250736D01*
X112520Y21301024D01*
X-37899Y21362885D01*
X-269964Y21521184D01*
X-439215Y21725230D01*
X-543219Y21961417D01*
X-579539Y22216140D01*
X-566794Y22314051D01*
X-19918Y22314051D01*
X-18968Y22155817D01*
X39712Y22013911D01*
X142747Y21899313D01*
X276762Y21823004D01*
X428382Y21795963D01*
X584234Y21829170D01*
X722923Y21925410D01*
X807919Y22031650D01*
X842542Y22148269D01*
X846666Y22236729D01*
X812178Y22421644D01*
X720282Y22561568D01*
X588330Y22651253D01*
X433672Y22685450D01*
X273661Y22658911D01*
X125648Y22566386D01*
X50237Y22477636D01*
X-19918Y22314051D01*
X-566794Y22314051D01*
X-545740Y22475792D01*
X-439389Y22726766D01*
X-312742Y22898684D01*
X-89866Y23090234D01*
X159465Y23204040D01*
X426062Y23238149D01*
X700734Y23190610D01*
X700734Y23190610D01*
G37*
X700734Y23190610D02*
X827229Y23140803D01*
X1074439Y22984424D01*
X1253007Y22779012D01*
X1360893Y22527809D01*
X1396070Y22236943D01*
X1357471Y21954079D01*
X1251571Y21709326D01*
X1089796Y21509649D01*
X883576Y21362015D01*
X644337Y21273389D01*
X383509Y21250736D01*
X112520Y21301024D01*
X-37899Y21362885D01*
X-269964Y21521184D01*
X-439215Y21725230D01*
X-543219Y21961417D01*
X-579539Y22216140D01*
X-566794Y22314051D01*
X-19918Y22314051D01*
X-18968Y22155817D01*
X39712Y22013911D01*
X142747Y21899313D01*
X276762Y21823004D01*
X428382Y21795963D01*
X584234Y21829170D01*
X722923Y21925410D01*
X807919Y22031650D01*
X842542Y22148269D01*
X846666Y22236729D01*
X812178Y22421644D01*
X720282Y22561568D01*
X588330Y22651253D01*
X433672Y22685450D01*
X273661Y22658911D01*
X125648Y22566386D01*
X50237Y22477636D01*
X-19918Y22314051D01*
X-566794Y22314051D01*
X-545740Y22475792D01*
X-439389Y22726766D01*
X-312742Y22898684D01*
X-89866Y23090234D01*
X159465Y23204040D01*
X426062Y23238149D01*
X700734Y23190610D01*
G04 #@! TD*
D11*
G04 #@! TO.P,,1*
G04 #@! TO.N,N/C*
X-8962862Y21225514D03*
G04 #@! TD*
G04 #@! TO.P,,2*
G04 #@! TO.N,N/C*
X-11400394Y18221701D03*
G04 #@! TD*
G04 #@! TO.P,,3*
G04 #@! TO.N,N/C*
X-2071156Y21932159D03*
G04 #@! TD*
G04 #@! TO.P,,4*
G04 #@! TO.N,N/C*
X403648Y22239665D03*
G04 #@! TD*
G04 #@! TO.P,,5*
G04 #@! TO.N,N/C*
X7356651Y23002459D03*
G04 #@! TD*
G04 #@! TO.P,,6*
G04 #@! TO.N,N/C*
X10805660Y19803298D03*
G04 #@! TD*
G04 #@! TO.P,,7*
G04 #@! TO.N,N/C*
X7599363Y15102572D03*
G04 #@! TD*
G04 #@! TO.P,,8*
G04 #@! TO.N,N/C*
X1710814Y14500530D03*
G04 #@! TD*
G04 #@! TO.P,,9*
G04 #@! TO.N,N/C*
X-1813644Y14099258D03*
G04 #@! TD*
G04 #@! TO.P,,10*
G04 #@! TO.N,N/C*
X-7704923Y13506641D03*
G04 #@! TD*
G04 #@! TO.P,,11*
G04 #@! TO.N,N/C*
X-8665003Y10097940D03*
G04 #@! TD*
G04 #@! TO.P,,12*
G04 #@! TO.N,N/C*
X-6165332Y10097929D03*
G04 #@! TD*
G04 #@! TO.P,,13*
G04 #@! TO.N,N/C*
X6465635Y12607384D03*
G04 #@! TD*
G04 #@! TO.P,,14*
G04 #@! TO.N,N/C*
X8997957Y12605169D03*
G04 #@! TD*
G04 #@! TO.P,,15*
G04 #@! TO.N,N/C*
X3921232Y5075817D03*
G04 #@! TD*
G04 #@! TO.P,,16*
G04 #@! TO.N,N/C*
X6467766Y5066208D03*
G04 #@! TD*
G04 #@! TO.P,,17*
G04 #@! TO.N,N/C*
X9004692Y2548502D03*
G04 #@! TD*
G04 #@! TO.P,,18*
G04 #@! TO.N,N/C*
X3930843Y2538891D03*
G04 #@! TD*
G04 #@! TO.P,,19*
G04 #@! TO.N,N/C*
X3940451Y40405D03*
G04 #@! TD*
G04 #@! TO.P,,20*
G04 #@! TO.N,N/C*
X3932487Y-2484806D03*
G04 #@! TD*
G04 #@! TO.P,,21*
G04 #@! TO.N,N/C*
X-3625191Y2539505D03*
G04 #@! TD*
G04 #@! TO.P,,22*
G04 #@! TO.N,N/C*
X-6168848Y2545135D03*
G04 #@! TD*
G04 #@! TO.P,,23*
G04 #@! TO.N,N/C*
X-8663091Y42929D03*
G04 #@! TD*
G04 #@! TO.P,,24*
G04 #@! TO.N,N/C*
X-3630819Y-2486454D03*
G04 #@! TD*
G04 #@! TO.P,,25*
G04 #@! TO.N,N/C*
X-3617912Y36617D03*
G04 #@! TD*
G04 #@! TO.P,,26*
G04 #@! TO.N,N/C*
X-6098565Y-6056152D03*
G04 #@! TD*
G04 #@! TO.P,,27*
G04 #@! TO.N,N/C*
X-3598009Y-6062950D03*
G04 #@! TD*
G04 #@! TO.P,,28*
G04 #@! TO.N,N/C*
X-1070274Y-6062950D03*
G04 #@! TD*
G04 #@! TO.P,,29*
G04 #@! TO.N,N/C*
X1443871Y-6056152D03*
G04 #@! TD*
G04 #@! TO.P,,30*
G04 #@! TO.N,N/C*
X3958015Y-6056152D03*
G04 #@! TD*
G04 #@! TO.P,,31*
G04 #@! TO.N,N/C*
X6465368Y-6056152D03*
G04 #@! TD*
G04 #@! TO.P,,32*
G04 #@! TO.N,N/C*
X-6105360Y-11084446D03*
G04 #@! TD*
G04 #@! TO.P,,33*
G04 #@! TO.N,N/C*
X-1056684Y-11091240D03*
G04 #@! TD*
G04 #@! TO.P,,34*
G04 #@! TO.N,N/C*
X1430281Y-11098034D03*
G04 #@! TD*
G04 #@! TO.P,,35*
G04 #@! TO.N,N/C*
X3958017Y-11091240D03*
G04 #@! TD*
G04 #@! TO.P,,36*
G04 #@! TO.N,N/C*
X6457747Y-11090416D03*
G04 #@! TD*
G04 #@! TO.P,,37*
G04 #@! TO.N,N/C*
X-9862989Y-13714108D03*
G04 #@! TD*
G04 #@! TO.P,,38*
G04 #@! TO.N,N/C*
X-3591215Y-13707310D03*
G04 #@! TD*
G04 #@! TO.P,,39*
G04 #@! TO.N,N/C*
X-1049889Y-13727695D03*
G04 #@! TD*
G04 #@! TO.P,,40*
G04 #@! TO.N,N/C*
X1430281Y-13727699D03*
G04 #@! TD*
G04 #@! TO.P,,41*
G04 #@! TO.N,N/C*
X3917248Y-13741283D03*
G04 #@! TD*
G04 #@! TO.P,,42*
G04 #@! TO.N,N/C*
X-6110671Y-16231403D03*
G04 #@! TD*
G04 #@! TO.P,,43*
G04 #@! TO.N,N/C*
X-3603057Y-16238197D03*
G04 #@! TD*
G04 #@! TO.P,,44*
G04 #@! TO.N,N/C*
X-1045748Y-16243824D03*
G04 #@! TD*
G04 #@! TO.P,,45*
G04 #@! TO.N,N/C*
X9009495Y-16233391D03*
G04 #@! TD*
G04 #@! TO.P,,46*
G04 #@! TO.N,N/C*
X8991100Y-18653011D03*
G04 #@! TD*
G04 #@! TO.P,,47*
G04 #@! TO.N,N/C*
X8989933Y-21170719D03*
G04 #@! TD*
G04 #@! TO.P,,48*
G04 #@! TO.N,N/C*
X8992268Y-23713272D03*
G04 #@! TD*
G04 #@! TO.P,,49*
G04 #@! TO.N,N/C*
X3951227Y-21391258D03*
G04 #@! TD*
G04 #@! TO.P,,50*
G04 #@! TO.N,N/C*
X3951227Y-23928185D03*
G04 #@! TD*
G04 #@! TO.P,,51*
G04 #@! TO.N,N/C*
X1443613Y-23934975D03*
G04 #@! TD*
G04 #@! TO.P,,52*
G04 #@! TO.N,N/C*
X-1094961Y-23930653D03*
G04 #@! TD*
G04 #@! TO.P,,53*
G04 #@! TO.N,N/C*
X-3593447Y-23935459D03*
G04 #@! TD*
G04 #@! TO.P,,54*
G04 #@! TO.N,N/C*
X-6101543Y-23925850D03*
G04 #@! TD*
G04 #@! TO.P,,55*
G04 #@! TO.N,N/C*
X-6119597Y-21394550D03*
G04 #@! TD*
G04 #@! TO.P,,56*
G04 #@! TO.N,N/C*
X-3597428Y-21406975D03*
G04 #@! TD*
G04 #@! TO.P,,57*
G04 #@! TO.N,N/C*
X-6113968Y-18872383D03*
G04 #@! TD*
G04 #@! TO.P,,58*
G04 #@! TO.N,N/C*
X-3601892Y-18866756D03*
G04 #@! TD*
G04 #@! TO.P,,59*
G04 #@! TO.N,N/C*
X-1098941Y-18881310D03*
G04 #@! TD*
G04 #@! TO.P,,60*
G04 #@! TO.N,N/C*
X-3590932Y-11094070D03*
G04 #@! TD*
G04 #@! TO.P,,61*
G04 #@! TO.N,N/C*
X-6096584Y-13716652D03*
G04 #@! TD*
G04 #@! TO.P,,62*
G04 #@! TO.N,N/C*
X-3607637Y5042326D03*
G04 #@! TD*
M02*
