M48
METRIC,TZ
T1C0.960
%
G90
G05
T1
X1430Y-13728
X1444Y-23935
X3921Y5076
X-6169Y2545
X-8963Y21226
X-6097Y-13717
X-1814Y14099
X-1046Y-16244
X-1050Y-13728
X3951Y-23928
X8998Y12605
X-3625Y2540
X8992Y-23713
X-3591Y-11094
X1711Y14501
X-3603Y-16238
X-3591Y-13707
X3951Y-21391
X6466Y12607
X404Y22240
X8990Y-21171
X-1099Y-18881
X7599Y15103
X-3608Y5042
X-6114Y-18872
X-9863Y-13714
X-6165Y10098
X-2071Y21932
X7357Y23002
X-6105Y-11084
X-3602Y-18867
X-3597Y-21407
X6458Y-11090
X-8665Y10098
X-11400Y18222
X3932Y-2485
X6465Y-6056
X-7705Y13507
X1444Y-6056
X-6120Y-21395
X3958Y-11091
X-6111Y-16231
X-6099Y-6056
X6468Y5066
X-3593Y-23935
X3940Y40
X-1057Y-11091
X3958Y-6056
X-3631Y-2486
X9005Y2549
X-1070Y-6063
X-6102Y-23926
X1430Y-11098
X8991Y-18653
X3917Y-13741
X-3618Y37
X-1095Y-23931
X3931Y2539
X-8663Y43
X10806Y19803
X-3598Y-6063
X9009Y-16233
T0
M30
