G04 #@! TF.GenerationSoftware,KiCad,Pcbnew,5.0.2-bee76a0~70~ubuntu18.04.1*
G04 #@! TF.CreationDate,2019-04-12T02:47:20+03:00*
G04 #@! TF.ProjectId,CiiVIi_Dongle_Production_PCB,43696956-4969-45f4-946f-6e676c655f50,rev?*
G04 #@! TF.SameCoordinates,Original*
G04 #@! TF.FileFunction,Copper,L1,Top*
G04 #@! TF.FilePolarity,Positive*
%FSLAX46Y46*%
G04 Gerber Fmt 4.6, Leading zero omitted, Abs format (unit mm)*
G04 Created by KiCad (PCBNEW 5.0.2-bee76a0~70~ubuntu18.04.1) date pe 12. huhtikuuta 2019 02.47.20*
%MOMM*%
%LPD*%
G01*
G04 APERTURE LIST*
G04 #@! TA.AperFunction,EtchedComponent*
%ADD10C,0.010000*%
G04 #@! TD*
G04 #@! TA.AperFunction,ComponentPad*
%ADD11C,0.959988*%
G04 #@! TD*
G04 APERTURE END LIST*
D10*
G04 #@! TO.C,G\002A\002A\002A*
G36*
X-5925207Y-22941217D02*
X-5670001Y-23021102D01*
X-5442528Y-23168345D01*
X-5289956Y-23334747D01*
X-5158447Y-23578904D01*
X-5102314Y-23830387D01*
X-5114185Y-24078604D01*
X-5186687Y-24312965D01*
X-5312447Y-24522877D01*
X-5484094Y-24697748D01*
X-5694253Y-24826988D01*
X-5935553Y-24900003D01*
X-6200622Y-24906203D01*
X-6362130Y-24875069D01*
X-6613227Y-24767161D01*
X-6813393Y-24603398D01*
X-6959991Y-24397468D01*
X-7050380Y-24163062D01*
X-7077933Y-23945378D01*
X-6536281Y-23945378D01*
X-6486588Y-24114982D01*
X-6413442Y-24214728D01*
X-6265505Y-24327843D01*
X-6106143Y-24362712D01*
X-5922837Y-24321032D01*
X-5854499Y-24290544D01*
X-5773827Y-24222043D01*
X-5699997Y-24115112D01*
X-5692821Y-24100720D01*
X-5647188Y-23925775D01*
X-5671538Y-23767420D01*
X-5751473Y-23635314D01*
X-5872594Y-23539118D01*
X-6020500Y-23488493D01*
X-6180795Y-23493099D01*
X-6339077Y-23562597D01*
X-6408690Y-23620436D01*
X-6510261Y-23773773D01*
X-6536281Y-23945378D01*
X-7077933Y-23945378D01*
X-7081922Y-23913867D01*
X-7051978Y-23663572D01*
X-6957909Y-23425868D01*
X-6797076Y-23214442D01*
X-6698759Y-23128872D01*
X-6455432Y-22992787D01*
X-6192299Y-22931007D01*
X-5925207Y-22941217D01*
X-5925207Y-22941217D01*
G37*
X-5925207Y-22941217D02*
X-5670001Y-23021102D01*
X-5442528Y-23168345D01*
X-5289956Y-23334747D01*
X-5158447Y-23578904D01*
X-5102314Y-23830387D01*
X-5114185Y-24078604D01*
X-5186687Y-24312965D01*
X-5312447Y-24522877D01*
X-5484094Y-24697748D01*
X-5694253Y-24826988D01*
X-5935553Y-24900003D01*
X-6200622Y-24906203D01*
X-6362130Y-24875069D01*
X-6613227Y-24767161D01*
X-6813393Y-24603398D01*
X-6959991Y-24397468D01*
X-7050380Y-24163062D01*
X-7077933Y-23945378D01*
X-6536281Y-23945378D01*
X-6486588Y-24114982D01*
X-6413442Y-24214728D01*
X-6265505Y-24327843D01*
X-6106143Y-24362712D01*
X-5922837Y-24321032D01*
X-5854499Y-24290544D01*
X-5773827Y-24222043D01*
X-5699997Y-24115112D01*
X-5692821Y-24100720D01*
X-5647188Y-23925775D01*
X-5671538Y-23767420D01*
X-5751473Y-23635314D01*
X-5872594Y-23539118D01*
X-6020500Y-23488493D01*
X-6180795Y-23493099D01*
X-6339077Y-23562597D01*
X-6408690Y-23620436D01*
X-6510261Y-23773773D01*
X-6536281Y-23945378D01*
X-7077933Y-23945378D01*
X-7081922Y-23913867D01*
X-7051978Y-23663572D01*
X-6957909Y-23425868D01*
X-6797076Y-23214442D01*
X-6698759Y-23128872D01*
X-6455432Y-22992787D01*
X-6192299Y-22931007D01*
X-5925207Y-22941217D01*
G36*
X-3299198Y-22968715D02*
X-3055233Y-23076359D01*
X-2853706Y-23241699D01*
X-2703051Y-23453229D01*
X-2611703Y-23699439D01*
X-2588094Y-23968821D01*
X-2631464Y-24220659D01*
X-2718391Y-24403824D01*
X-2858281Y-24587175D01*
X-3025199Y-24740179D01*
X-3127626Y-24804761D01*
X-3322481Y-24875622D01*
X-3540442Y-24911249D01*
X-3740869Y-24906013D01*
X-3788834Y-24896324D01*
X-4062227Y-24783286D01*
X-4301156Y-24592966D01*
X-4305272Y-24588695D01*
X-4466457Y-24366992D01*
X-4554265Y-24126271D01*
X-4571167Y-23914623D01*
X-4021667Y-23914623D01*
X-3985830Y-24098540D01*
X-3889258Y-24239298D01*
X-3748367Y-24328622D01*
X-3579567Y-24358236D01*
X-3399273Y-24319865D01*
X-3310694Y-24273086D01*
X-3200575Y-24154453D01*
X-3146057Y-23989140D01*
X-3148364Y-23840472D01*
X-3195886Y-23684606D01*
X-3291680Y-23577179D01*
X-3422047Y-23507524D01*
X-3596541Y-23475266D01*
X-3762087Y-23514655D01*
X-3900290Y-23613201D01*
X-3992750Y-23758412D01*
X-4021667Y-23914623D01*
X-4571167Y-23914623D01*
X-4574037Y-23878695D01*
X-4531110Y-23636427D01*
X-4430825Y-23411628D01*
X-4278522Y-23216461D01*
X-4079541Y-23063087D01*
X-3839220Y-22963669D01*
X-3577167Y-22930276D01*
X-3299198Y-22968715D01*
X-3299198Y-22968715D01*
G37*
X-3299198Y-22968715D02*
X-3055233Y-23076359D01*
X-2853706Y-23241699D01*
X-2703051Y-23453229D01*
X-2611703Y-23699439D01*
X-2588094Y-23968821D01*
X-2631464Y-24220659D01*
X-2718391Y-24403824D01*
X-2858281Y-24587175D01*
X-3025199Y-24740179D01*
X-3127626Y-24804761D01*
X-3322481Y-24875622D01*
X-3540442Y-24911249D01*
X-3740869Y-24906013D01*
X-3788834Y-24896324D01*
X-4062227Y-24783286D01*
X-4301156Y-24592966D01*
X-4305272Y-24588695D01*
X-4466457Y-24366992D01*
X-4554265Y-24126271D01*
X-4571167Y-23914623D01*
X-4021667Y-23914623D01*
X-3985830Y-24098540D01*
X-3889258Y-24239298D01*
X-3748367Y-24328622D01*
X-3579567Y-24358236D01*
X-3399273Y-24319865D01*
X-3310694Y-24273086D01*
X-3200575Y-24154453D01*
X-3146057Y-23989140D01*
X-3148364Y-23840472D01*
X-3195886Y-23684606D01*
X-3291680Y-23577179D01*
X-3422047Y-23507524D01*
X-3596541Y-23475266D01*
X-3762087Y-23514655D01*
X-3900290Y-23613201D01*
X-3992750Y-23758412D01*
X-4021667Y-23914623D01*
X-4571167Y-23914623D01*
X-4574037Y-23878695D01*
X-4531110Y-23636427D01*
X-4430825Y-23411628D01*
X-4278522Y-23216461D01*
X-4079541Y-23063087D01*
X-3839220Y-22963669D01*
X-3577167Y-22930276D01*
X-3299198Y-22968715D01*
G36*
X-803504Y-22966013D02*
X-567864Y-23065292D01*
X-375505Y-23216214D01*
X-229351Y-23406881D01*
X-132326Y-23625393D01*
X-87355Y-23859853D01*
X-97361Y-24098361D01*
X-165270Y-24329018D01*
X-294005Y-24539927D01*
X-486490Y-24719188D01*
X-620064Y-24799713D01*
X-822639Y-24874428D01*
X-1044973Y-24911495D01*
X-1248012Y-24905291D01*
X-1291167Y-24896324D01*
X-1554670Y-24789636D01*
X-1779098Y-24611345D01*
X-1830455Y-24554764D01*
X-1981282Y-24321217D01*
X-2057621Y-24072556D01*
X-2062215Y-23918333D01*
X-1524000Y-23918333D01*
X-1487448Y-24073609D01*
X-1393353Y-24218659D01*
X-1265054Y-24318236D01*
X-1256678Y-24322038D01*
X-1146679Y-24366575D01*
X-1071120Y-24377297D01*
X-986983Y-24354570D01*
X-914340Y-24324972D01*
X-758203Y-24221575D01*
X-664612Y-24080662D01*
X-632775Y-23920897D01*
X-661897Y-23760950D01*
X-751188Y-23619487D01*
X-899855Y-23515174D01*
X-949532Y-23495979D01*
X-1121104Y-23479620D01*
X-1283599Y-23532899D01*
X-1417460Y-23641436D01*
X-1503129Y-23790853D01*
X-1524000Y-23918333D01*
X-2062215Y-23918333D01*
X-2065116Y-23820996D01*
X-2009413Y-23578749D01*
X-1896159Y-23358029D01*
X-1731000Y-23171050D01*
X-1519581Y-23030025D01*
X-1267548Y-22947168D01*
X-1079500Y-22930276D01*
X-803504Y-22966013D01*
X-803504Y-22966013D01*
G37*
X-803504Y-22966013D02*
X-567864Y-23065292D01*
X-375505Y-23216214D01*
X-229351Y-23406881D01*
X-132326Y-23625393D01*
X-87355Y-23859853D01*
X-97361Y-24098361D01*
X-165270Y-24329018D01*
X-294005Y-24539927D01*
X-486490Y-24719188D01*
X-620064Y-24799713D01*
X-822639Y-24874428D01*
X-1044973Y-24911495D01*
X-1248012Y-24905291D01*
X-1291167Y-24896324D01*
X-1554670Y-24789636D01*
X-1779098Y-24611345D01*
X-1830455Y-24554764D01*
X-1981282Y-24321217D01*
X-2057621Y-24072556D01*
X-2062215Y-23918333D01*
X-1524000Y-23918333D01*
X-1487448Y-24073609D01*
X-1393353Y-24218659D01*
X-1265054Y-24318236D01*
X-1256678Y-24322038D01*
X-1146679Y-24366575D01*
X-1071120Y-24377297D01*
X-986983Y-24354570D01*
X-914340Y-24324972D01*
X-758203Y-24221575D01*
X-664612Y-24080662D01*
X-632775Y-23920897D01*
X-661897Y-23760950D01*
X-751188Y-23619487D01*
X-899855Y-23515174D01*
X-949532Y-23495979D01*
X-1121104Y-23479620D01*
X-1283599Y-23532899D01*
X-1417460Y-23641436D01*
X-1503129Y-23790853D01*
X-1524000Y-23918333D01*
X-2062215Y-23918333D01*
X-2065116Y-23820996D01*
X-2009413Y-23578749D01*
X-1896159Y-23358029D01*
X-1731000Y-23171050D01*
X-1519581Y-23030025D01*
X-1267548Y-22947168D01*
X-1079500Y-22930276D01*
X-803504Y-22966013D01*
G36*
X1740985Y-22960887D02*
X1978225Y-23064068D01*
X2179448Y-23225582D01*
X2333165Y-23436656D01*
X2427885Y-23688515D01*
X2453473Y-23918333D01*
X2415532Y-24196084D01*
X2309498Y-24440162D01*
X2147056Y-24642154D01*
X1939891Y-24793650D01*
X1699688Y-24886238D01*
X1438133Y-24911508D01*
X1166911Y-24861047D01*
X1151299Y-24855679D01*
X886981Y-24723004D01*
X687216Y-24536508D01*
X555176Y-24300691D01*
X494039Y-24020053D01*
X489964Y-23918333D01*
X1016000Y-23918333D01*
X1052552Y-24073609D01*
X1146647Y-24218659D01*
X1274946Y-24318236D01*
X1283322Y-24322038D01*
X1393321Y-24366575D01*
X1468880Y-24377297D01*
X1553017Y-24354570D01*
X1625660Y-24324972D01*
X1781797Y-24221575D01*
X1875388Y-24080662D01*
X1907225Y-23920897D01*
X1878103Y-23760950D01*
X1788812Y-23619487D01*
X1640145Y-23515174D01*
X1590468Y-23495979D01*
X1418896Y-23479620D01*
X1256401Y-23532899D01*
X1122540Y-23641436D01*
X1036871Y-23790853D01*
X1016000Y-23918333D01*
X489964Y-23918333D01*
X527810Y-23625397D01*
X637928Y-23373363D01*
X815184Y-23169081D01*
X1054449Y-23019401D01*
X1204418Y-22964617D01*
X1479220Y-22924812D01*
X1740985Y-22960887D01*
X1740985Y-22960887D01*
G37*
X1740985Y-22960887D02*
X1978225Y-23064068D01*
X2179448Y-23225582D01*
X2333165Y-23436656D01*
X2427885Y-23688515D01*
X2453473Y-23918333D01*
X2415532Y-24196084D01*
X2309498Y-24440162D01*
X2147056Y-24642154D01*
X1939891Y-24793650D01*
X1699688Y-24886238D01*
X1438133Y-24911508D01*
X1166911Y-24861047D01*
X1151299Y-24855679D01*
X886981Y-24723004D01*
X687216Y-24536508D01*
X555176Y-24300691D01*
X494039Y-24020053D01*
X489964Y-23918333D01*
X1016000Y-23918333D01*
X1052552Y-24073609D01*
X1146647Y-24218659D01*
X1274946Y-24318236D01*
X1283322Y-24322038D01*
X1393321Y-24366575D01*
X1468880Y-24377297D01*
X1553017Y-24354570D01*
X1625660Y-24324972D01*
X1781797Y-24221575D01*
X1875388Y-24080662D01*
X1907225Y-23920897D01*
X1878103Y-23760950D01*
X1788812Y-23619487D01*
X1640145Y-23515174D01*
X1590468Y-23495979D01*
X1418896Y-23479620D01*
X1256401Y-23532899D01*
X1122540Y-23641436D01*
X1036871Y-23790853D01*
X1016000Y-23918333D01*
X489964Y-23918333D01*
X527810Y-23625397D01*
X637928Y-23373363D01*
X815184Y-23169081D01*
X1054449Y-23019401D01*
X1204418Y-22964617D01*
X1479220Y-22924812D01*
X1740985Y-22960887D01*
G36*
X4207449Y-22954635D02*
X4444957Y-23045794D01*
X4655350Y-23201250D01*
X4824777Y-23420971D01*
X4929831Y-23681115D01*
X4958949Y-23947073D01*
X4917933Y-24205406D01*
X4812586Y-24442676D01*
X4648709Y-24645446D01*
X4432104Y-24800277D01*
X4191000Y-24888886D01*
X4061478Y-24916961D01*
X3971739Y-24926809D01*
X3884742Y-24917366D01*
X3763446Y-24887565D01*
X3717736Y-24875279D01*
X3455032Y-24762035D01*
X3235789Y-24577678D01*
X3103728Y-24395724D01*
X3009767Y-24157275D01*
X2983652Y-23912078D01*
X3529866Y-23912078D01*
X3553430Y-24071340D01*
X3632340Y-24204050D01*
X3752086Y-24300523D01*
X3898161Y-24351074D01*
X4056056Y-24346021D01*
X4211263Y-24275680D01*
X4286250Y-24209918D01*
X4375475Y-24080186D01*
X4402602Y-23928256D01*
X4402666Y-23918333D01*
X4368270Y-23739355D01*
X4276865Y-23604162D01*
X4146124Y-23516654D01*
X3993722Y-23480733D01*
X3837332Y-23500297D01*
X3694630Y-23579247D01*
X3583288Y-23721483D01*
X3576154Y-23735946D01*
X3529866Y-23912078D01*
X2983652Y-23912078D01*
X2981653Y-23893311D01*
X3019730Y-23631964D01*
X3092200Y-23454110D01*
X3259992Y-23227718D01*
X3469099Y-23064312D01*
X3705834Y-22964156D01*
X3956513Y-22927509D01*
X4207449Y-22954635D01*
X4207449Y-22954635D01*
G37*
X4207449Y-22954635D02*
X4444957Y-23045794D01*
X4655350Y-23201250D01*
X4824777Y-23420971D01*
X4929831Y-23681115D01*
X4958949Y-23947073D01*
X4917933Y-24205406D01*
X4812586Y-24442676D01*
X4648709Y-24645446D01*
X4432104Y-24800277D01*
X4191000Y-24888886D01*
X4061478Y-24916961D01*
X3971739Y-24926809D01*
X3884742Y-24917366D01*
X3763446Y-24887565D01*
X3717736Y-24875279D01*
X3455032Y-24762035D01*
X3235789Y-24577678D01*
X3103728Y-24395724D01*
X3009767Y-24157275D01*
X2983652Y-23912078D01*
X3529866Y-23912078D01*
X3553430Y-24071340D01*
X3632340Y-24204050D01*
X3752086Y-24300523D01*
X3898161Y-24351074D01*
X4056056Y-24346021D01*
X4211263Y-24275680D01*
X4286250Y-24209918D01*
X4375475Y-24080186D01*
X4402602Y-23928256D01*
X4402666Y-23918333D01*
X4368270Y-23739355D01*
X4276865Y-23604162D01*
X4146124Y-23516654D01*
X3993722Y-23480733D01*
X3837332Y-23500297D01*
X3694630Y-23579247D01*
X3583288Y-23721483D01*
X3576154Y-23735946D01*
X3529866Y-23912078D01*
X2983652Y-23912078D01*
X2981653Y-23893311D01*
X3019730Y-23631964D01*
X3092200Y-23454110D01*
X3259992Y-23227718D01*
X3469099Y-23064312D01*
X3705834Y-22964156D01*
X3956513Y-22927509D01*
X4207449Y-22954635D01*
G36*
X9197914Y-22731341D02*
X9471168Y-22825369D01*
X9689362Y-22981646D01*
X9860501Y-23205929D01*
X9862444Y-23209304D01*
X9966898Y-23469001D01*
X9995051Y-23734893D01*
X9952797Y-23993445D01*
X9846030Y-24231119D01*
X9680646Y-24434379D01*
X9462538Y-24589686D01*
X9222932Y-24677995D01*
X9097589Y-24705476D01*
X9009745Y-24715159D01*
X8923473Y-24705863D01*
X8802845Y-24676406D01*
X8750870Y-24662461D01*
X8497922Y-24552301D01*
X8279215Y-24373426D01*
X8128330Y-24168549D01*
X8046113Y-23947529D01*
X8019357Y-23695044D01*
X8028629Y-23615125D01*
X8576547Y-23615125D01*
X8578390Y-23792149D01*
X8589826Y-23837542D01*
X8680733Y-24003565D01*
X8832487Y-24113800D01*
X8912931Y-24141453D01*
X8986096Y-24160846D01*
X9007776Y-24167422D01*
X9050521Y-24156061D01*
X9140521Y-24121756D01*
X9160993Y-24113305D01*
X9318964Y-24007732D01*
X9414725Y-23860553D01*
X9443421Y-23691101D01*
X9400198Y-23518709D01*
X9335328Y-23419039D01*
X9194757Y-23305088D01*
X9039152Y-23261398D01*
X8884020Y-23279263D01*
X8744870Y-23349976D01*
X8637210Y-23464832D01*
X8576547Y-23615125D01*
X8028629Y-23615125D01*
X8048489Y-23443968D01*
X8116488Y-23258158D01*
X8279830Y-23030744D01*
X8493554Y-22858620D01*
X8741641Y-22749590D01*
X9008073Y-22711458D01*
X9197914Y-22731341D01*
X9197914Y-22731341D01*
G37*
X9197914Y-22731341D02*
X9471168Y-22825369D01*
X9689362Y-22981646D01*
X9860501Y-23205929D01*
X9862444Y-23209304D01*
X9966898Y-23469001D01*
X9995051Y-23734893D01*
X9952797Y-23993445D01*
X9846030Y-24231119D01*
X9680646Y-24434379D01*
X9462538Y-24589686D01*
X9222932Y-24677995D01*
X9097589Y-24705476D01*
X9009745Y-24715159D01*
X8923473Y-24705863D01*
X8802845Y-24676406D01*
X8750870Y-24662461D01*
X8497922Y-24552301D01*
X8279215Y-24373426D01*
X8128330Y-24168549D01*
X8046113Y-23947529D01*
X8019357Y-23695044D01*
X8028629Y-23615125D01*
X8576547Y-23615125D01*
X8578390Y-23792149D01*
X8589826Y-23837542D01*
X8680733Y-24003565D01*
X8832487Y-24113800D01*
X8912931Y-24141453D01*
X8986096Y-24160846D01*
X9007776Y-24167422D01*
X9050521Y-24156061D01*
X9140521Y-24121756D01*
X9160993Y-24113305D01*
X9318964Y-24007732D01*
X9414725Y-23860553D01*
X9443421Y-23691101D01*
X9400198Y-23518709D01*
X9335328Y-23419039D01*
X9194757Y-23305088D01*
X9039152Y-23261398D01*
X8884020Y-23279263D01*
X8744870Y-23349976D01*
X8637210Y-23464832D01*
X8576547Y-23615125D01*
X8028629Y-23615125D01*
X8048489Y-23443968D01*
X8116488Y-23258158D01*
X8279830Y-23030744D01*
X8493554Y-22858620D01*
X8741641Y-22749590D01*
X9008073Y-22711458D01*
X9197914Y-22731341D01*
G36*
X-5799818Y-20442732D02*
X-5547168Y-20552358D01*
X-5342141Y-20727552D01*
X-5192751Y-20961924D01*
X-5120475Y-21179603D01*
X-5099426Y-21448985D01*
X-5151796Y-21702167D01*
X-5266778Y-21929265D01*
X-5433564Y-22120396D01*
X-5641349Y-22265676D01*
X-5879325Y-22355222D01*
X-6136686Y-22379150D01*
X-6382945Y-22334181D01*
X-6647458Y-22207956D01*
X-6855787Y-22022515D01*
X-7000701Y-21785925D01*
X-7064538Y-21573875D01*
X-7075219Y-21359092D01*
X-6534426Y-21359092D01*
X-6516185Y-21515578D01*
X-6435727Y-21660257D01*
X-6288646Y-21776134D01*
X-6286479Y-21777270D01*
X-6171908Y-21828356D01*
X-6077820Y-21838125D01*
X-5964931Y-21807063D01*
X-5902617Y-21782023D01*
X-5770339Y-21686322D01*
X-5678433Y-21542374D01*
X-5642564Y-21380354D01*
X-5651440Y-21298237D01*
X-5731183Y-21131661D01*
X-5865571Y-21012358D01*
X-6034159Y-20956960D01*
X-6073335Y-20955000D01*
X-6259905Y-20988754D01*
X-6401880Y-21078684D01*
X-6494856Y-21207796D01*
X-6534426Y-21359092D01*
X-7075219Y-21359092D01*
X-7078962Y-21283832D01*
X-7014816Y-21014562D01*
X-6877251Y-20777297D01*
X-6671422Y-20583273D01*
X-6584871Y-20528039D01*
X-6439040Y-20454892D01*
X-6303020Y-20417544D01*
X-6134367Y-20405401D01*
X-6092076Y-20405064D01*
X-5799818Y-20442732D01*
X-5799818Y-20442732D01*
G37*
X-5799818Y-20442732D02*
X-5547168Y-20552358D01*
X-5342141Y-20727552D01*
X-5192751Y-20961924D01*
X-5120475Y-21179603D01*
X-5099426Y-21448985D01*
X-5151796Y-21702167D01*
X-5266778Y-21929265D01*
X-5433564Y-22120396D01*
X-5641349Y-22265676D01*
X-5879325Y-22355222D01*
X-6136686Y-22379150D01*
X-6382945Y-22334181D01*
X-6647458Y-22207956D01*
X-6855787Y-22022515D01*
X-7000701Y-21785925D01*
X-7064538Y-21573875D01*
X-7075219Y-21359092D01*
X-6534426Y-21359092D01*
X-6516185Y-21515578D01*
X-6435727Y-21660257D01*
X-6288646Y-21776134D01*
X-6286479Y-21777270D01*
X-6171908Y-21828356D01*
X-6077820Y-21838125D01*
X-5964931Y-21807063D01*
X-5902617Y-21782023D01*
X-5770339Y-21686322D01*
X-5678433Y-21542374D01*
X-5642564Y-21380354D01*
X-5651440Y-21298237D01*
X-5731183Y-21131661D01*
X-5865571Y-21012358D01*
X-6034159Y-20956960D01*
X-6073335Y-20955000D01*
X-6259905Y-20988754D01*
X-6401880Y-21078684D01*
X-6494856Y-21207796D01*
X-6534426Y-21359092D01*
X-7075219Y-21359092D01*
X-7078962Y-21283832D01*
X-7014816Y-21014562D01*
X-6877251Y-20777297D01*
X-6671422Y-20583273D01*
X-6584871Y-20528039D01*
X-6439040Y-20454892D01*
X-6303020Y-20417544D01*
X-6134367Y-20405401D01*
X-6092076Y-20405064D01*
X-5799818Y-20442732D01*
G36*
X-3293894Y-20438943D02*
X-3055689Y-20539532D01*
X-2851238Y-20713303D01*
X-2830185Y-20737262D01*
X-2675112Y-20976792D01*
X-2594577Y-21236360D01*
X-2588632Y-21501504D01*
X-2657326Y-21757757D01*
X-2800710Y-21990656D01*
X-2825680Y-22019395D01*
X-3043118Y-22206080D01*
X-3291749Y-22328249D01*
X-3554545Y-22380470D01*
X-3814476Y-22357309D01*
X-3852334Y-22346947D01*
X-4006410Y-22278639D01*
X-4174835Y-22171499D01*
X-4317928Y-22051884D01*
X-4352073Y-22015056D01*
X-4490318Y-21789803D01*
X-4560175Y-21534340D01*
X-4561373Y-21362759D01*
X-4028936Y-21362759D01*
X-4002688Y-21521172D01*
X-3911682Y-21668118D01*
X-3796715Y-21761440D01*
X-3642844Y-21830812D01*
X-3504821Y-21829397D01*
X-3353967Y-21756347D01*
X-3341375Y-21747983D01*
X-3207517Y-21613027D01*
X-3144408Y-21448299D01*
X-3153739Y-21273005D01*
X-3237198Y-21106351D01*
X-3280631Y-21057187D01*
X-3378081Y-20986371D01*
X-3502983Y-20957611D01*
X-3578499Y-20955000D01*
X-3765207Y-20988999D01*
X-3905588Y-21079644D01*
X-3995034Y-21209907D01*
X-4028936Y-21362759D01*
X-4561373Y-21362759D01*
X-4562036Y-21267827D01*
X-4496296Y-21009423D01*
X-4363347Y-20778288D01*
X-4325767Y-20733720D01*
X-4117210Y-20551522D01*
X-3882006Y-20444726D01*
X-3605183Y-20406787D01*
X-3577167Y-20406526D01*
X-3293894Y-20438943D01*
X-3293894Y-20438943D01*
G37*
X-3293894Y-20438943D02*
X-3055689Y-20539532D01*
X-2851238Y-20713303D01*
X-2830185Y-20737262D01*
X-2675112Y-20976792D01*
X-2594577Y-21236360D01*
X-2588632Y-21501504D01*
X-2657326Y-21757757D01*
X-2800710Y-21990656D01*
X-2825680Y-22019395D01*
X-3043118Y-22206080D01*
X-3291749Y-22328249D01*
X-3554545Y-22380470D01*
X-3814476Y-22357309D01*
X-3852334Y-22346947D01*
X-4006410Y-22278639D01*
X-4174835Y-22171499D01*
X-4317928Y-22051884D01*
X-4352073Y-22015056D01*
X-4490318Y-21789803D01*
X-4560175Y-21534340D01*
X-4561373Y-21362759D01*
X-4028936Y-21362759D01*
X-4002688Y-21521172D01*
X-3911682Y-21668118D01*
X-3796715Y-21761440D01*
X-3642844Y-21830812D01*
X-3504821Y-21829397D01*
X-3353967Y-21756347D01*
X-3341375Y-21747983D01*
X-3207517Y-21613027D01*
X-3144408Y-21448299D01*
X-3153739Y-21273005D01*
X-3237198Y-21106351D01*
X-3280631Y-21057187D01*
X-3378081Y-20986371D01*
X-3502983Y-20957611D01*
X-3578499Y-20955000D01*
X-3765207Y-20988999D01*
X-3905588Y-21079644D01*
X-3995034Y-21209907D01*
X-4028936Y-21362759D01*
X-4561373Y-21362759D01*
X-4562036Y-21267827D01*
X-4496296Y-21009423D01*
X-4363347Y-20778288D01*
X-4325767Y-20733720D01*
X-4117210Y-20551522D01*
X-3882006Y-20444726D01*
X-3605183Y-20406787D01*
X-3577167Y-20406526D01*
X-3293894Y-20438943D01*
G36*
X4270749Y-20443397D02*
X4519430Y-20551839D01*
X4719660Y-20721890D01*
X4862940Y-20945054D01*
X4940772Y-21212831D01*
X4952602Y-21375551D01*
X4916455Y-21672364D01*
X4809817Y-21925557D01*
X4636779Y-22129502D01*
X4401431Y-22278570D01*
X4257399Y-22332049D01*
X4082224Y-22376194D01*
X3941359Y-22386669D01*
X3792278Y-22365363D01*
X3746500Y-22354749D01*
X3482953Y-22250729D01*
X3267180Y-22086024D01*
X3106750Y-21873578D01*
X3009231Y-21626337D01*
X2986200Y-21397142D01*
X3530661Y-21397142D01*
X3572501Y-21564198D01*
X3674841Y-21713865D01*
X3819056Y-21801491D01*
X3986050Y-21823778D01*
X4156727Y-21777429D01*
X4284718Y-21687161D01*
X4383022Y-21539876D01*
X4410036Y-21369957D01*
X4365975Y-21200103D01*
X4278923Y-21078743D01*
X4126447Y-20978052D01*
X3955528Y-20947298D01*
X3789231Y-20986759D01*
X3672772Y-21071417D01*
X3560822Y-21231534D01*
X3530661Y-21397142D01*
X2986200Y-21397142D01*
X2982190Y-21357246D01*
X3021921Y-21115310D01*
X3139821Y-20843825D01*
X3314075Y-20634548D01*
X3540233Y-20490772D01*
X3813844Y-20415790D01*
X3982115Y-20405064D01*
X4270749Y-20443397D01*
X4270749Y-20443397D01*
G37*
X4270749Y-20443397D02*
X4519430Y-20551839D01*
X4719660Y-20721890D01*
X4862940Y-20945054D01*
X4940772Y-21212831D01*
X4952602Y-21375551D01*
X4916455Y-21672364D01*
X4809817Y-21925557D01*
X4636779Y-22129502D01*
X4401431Y-22278570D01*
X4257399Y-22332049D01*
X4082224Y-22376194D01*
X3941359Y-22386669D01*
X3792278Y-22365363D01*
X3746500Y-22354749D01*
X3482953Y-22250729D01*
X3267180Y-22086024D01*
X3106750Y-21873578D01*
X3009231Y-21626337D01*
X2986200Y-21397142D01*
X3530661Y-21397142D01*
X3572501Y-21564198D01*
X3674841Y-21713865D01*
X3819056Y-21801491D01*
X3986050Y-21823778D01*
X4156727Y-21777429D01*
X4284718Y-21687161D01*
X4383022Y-21539876D01*
X4410036Y-21369957D01*
X4365975Y-21200103D01*
X4278923Y-21078743D01*
X4126447Y-20978052D01*
X3955528Y-20947298D01*
X3789231Y-20986759D01*
X3672772Y-21071417D01*
X3560822Y-21231534D01*
X3530661Y-21397142D01*
X2986200Y-21397142D01*
X2982190Y-21357246D01*
X3021921Y-21115310D01*
X3139821Y-20843825D01*
X3314075Y-20634548D01*
X3540233Y-20490772D01*
X3813844Y-20415790D01*
X3982115Y-20405064D01*
X4270749Y-20443397D01*
G36*
X9236263Y-20211255D02*
X9472037Y-20298245D01*
X9683082Y-20449172D01*
X9853083Y-20660736D01*
X9934829Y-20810793D01*
X9976323Y-20941020D01*
X9990078Y-21096424D01*
X9990666Y-21155618D01*
X9953539Y-21452743D01*
X9845385Y-21708101D01*
X9671042Y-21915036D01*
X9435350Y-22066896D01*
X9287347Y-22122735D01*
X9111616Y-22166373D01*
X8966714Y-22174400D01*
X8807530Y-22148639D01*
X8784166Y-22143082D01*
X8527343Y-22040775D01*
X8312764Y-21877199D01*
X8149054Y-21666477D01*
X8044833Y-21422727D01*
X8021943Y-21256215D01*
X8575098Y-21256215D01*
X8613826Y-21376386D01*
X8729138Y-21518709D01*
X8881798Y-21596784D01*
X9051237Y-21608117D01*
X9216883Y-21550215D01*
X9323916Y-21462437D01*
X9417714Y-21307100D01*
X9439938Y-21143210D01*
X9399983Y-20986957D01*
X9307245Y-20854531D01*
X9171120Y-20762122D01*
X9001004Y-20725919D01*
X8901621Y-20734797D01*
X8754777Y-20802109D01*
X8644504Y-20926840D01*
X8581160Y-21085904D01*
X8575098Y-21256215D01*
X8021943Y-21256215D01*
X8008726Y-21160073D01*
X8040122Y-20924592D01*
X8147591Y-20668233D01*
X8309383Y-20464305D01*
X8512321Y-20314725D01*
X8743230Y-20221412D01*
X8988936Y-20186283D01*
X9236263Y-20211255D01*
X9236263Y-20211255D01*
G37*
X9236263Y-20211255D02*
X9472037Y-20298245D01*
X9683082Y-20449172D01*
X9853083Y-20660736D01*
X9934829Y-20810793D01*
X9976323Y-20941020D01*
X9990078Y-21096424D01*
X9990666Y-21155618D01*
X9953539Y-21452743D01*
X9845385Y-21708101D01*
X9671042Y-21915036D01*
X9435350Y-22066896D01*
X9287347Y-22122735D01*
X9111616Y-22166373D01*
X8966714Y-22174400D01*
X8807530Y-22148639D01*
X8784166Y-22143082D01*
X8527343Y-22040775D01*
X8312764Y-21877199D01*
X8149054Y-21666477D01*
X8044833Y-21422727D01*
X8021943Y-21256215D01*
X8575098Y-21256215D01*
X8613826Y-21376386D01*
X8729138Y-21518709D01*
X8881798Y-21596784D01*
X9051237Y-21608117D01*
X9216883Y-21550215D01*
X9323916Y-21462437D01*
X9417714Y-21307100D01*
X9439938Y-21143210D01*
X9399983Y-20986957D01*
X9307245Y-20854531D01*
X9171120Y-20762122D01*
X9001004Y-20725919D01*
X8901621Y-20734797D01*
X8754777Y-20802109D01*
X8644504Y-20926840D01*
X8581160Y-21085904D01*
X8575098Y-21256215D01*
X8021943Y-21256215D01*
X8008726Y-21160073D01*
X8040122Y-20924592D01*
X8147591Y-20668233D01*
X8309383Y-20464305D01*
X8512321Y-20314725D01*
X8743230Y-20221412D01*
X8988936Y-20186283D01*
X9236263Y-20211255D01*
G36*
X-5693089Y-17955926D02*
X-5459220Y-18108845D01*
X-5268158Y-18322803D01*
X-5148314Y-18567519D01*
X-5100343Y-18828763D01*
X-5124896Y-19092302D01*
X-5222629Y-19343906D01*
X-5392216Y-19567370D01*
X-5601737Y-19722377D01*
X-5850385Y-19819935D01*
X-6114744Y-19855304D01*
X-6371400Y-19823745D01*
X-6477000Y-19786941D01*
X-6710901Y-19642379D01*
X-6896837Y-19439951D01*
X-7023253Y-19196959D01*
X-7078589Y-18930704D01*
X-7079863Y-18891362D01*
X-6533423Y-18891362D01*
X-6493368Y-19048598D01*
X-6383732Y-19195940D01*
X-6369552Y-19208750D01*
X-6222304Y-19286113D01*
X-6049836Y-19301882D01*
X-5885810Y-19255303D01*
X-5832273Y-19220768D01*
X-5708409Y-19077915D01*
X-5653296Y-18912012D01*
X-5666252Y-18743088D01*
X-5746595Y-18591173D01*
X-5856948Y-18496548D01*
X-6030231Y-18429508D01*
X-6192260Y-18433613D01*
X-6333315Y-18495358D01*
X-6443675Y-18601235D01*
X-6513618Y-18737739D01*
X-6533423Y-18891362D01*
X-7079863Y-18891362D01*
X-7080098Y-18884111D01*
X-7045106Y-18589725D01*
X-6937084Y-18337970D01*
X-6757167Y-18130640D01*
X-6506493Y-17969529D01*
X-6498167Y-17965559D01*
X-6225442Y-17879674D01*
X-5954091Y-17876876D01*
X-5693089Y-17955926D01*
X-5693089Y-17955926D01*
G37*
X-5693089Y-17955926D02*
X-5459220Y-18108845D01*
X-5268158Y-18322803D01*
X-5148314Y-18567519D01*
X-5100343Y-18828763D01*
X-5124896Y-19092302D01*
X-5222629Y-19343906D01*
X-5392216Y-19567370D01*
X-5601737Y-19722377D01*
X-5850385Y-19819935D01*
X-6114744Y-19855304D01*
X-6371400Y-19823745D01*
X-6477000Y-19786941D01*
X-6710901Y-19642379D01*
X-6896837Y-19439951D01*
X-7023253Y-19196959D01*
X-7078589Y-18930704D01*
X-7079863Y-18891362D01*
X-6533423Y-18891362D01*
X-6493368Y-19048598D01*
X-6383732Y-19195940D01*
X-6369552Y-19208750D01*
X-6222304Y-19286113D01*
X-6049836Y-19301882D01*
X-5885810Y-19255303D01*
X-5832273Y-19220768D01*
X-5708409Y-19077915D01*
X-5653296Y-18912012D01*
X-5666252Y-18743088D01*
X-5746595Y-18591173D01*
X-5856948Y-18496548D01*
X-6030231Y-18429508D01*
X-6192260Y-18433613D01*
X-6333315Y-18495358D01*
X-6443675Y-18601235D01*
X-6513618Y-18737739D01*
X-6533423Y-18891362D01*
X-7079863Y-18891362D01*
X-7080098Y-18884111D01*
X-7045106Y-18589725D01*
X-6937084Y-18337970D01*
X-6757167Y-18130640D01*
X-6506493Y-17969529D01*
X-6498167Y-17965559D01*
X-6225442Y-17879674D01*
X-5954091Y-17876876D01*
X-5693089Y-17955926D01*
G36*
X-3402156Y-17890916D02*
X-3275937Y-17912118D01*
X-3162942Y-17958371D01*
X-3066966Y-18013952D01*
X-2849794Y-18194078D01*
X-2696551Y-18417476D01*
X-2609582Y-18669316D01*
X-2591235Y-18934764D01*
X-2643856Y-19198989D01*
X-2769792Y-19447161D01*
X-2828160Y-19523388D01*
X-3014109Y-19682567D01*
X-3250011Y-19790956D01*
X-3514389Y-19843220D01*
X-3785769Y-19834028D01*
X-3937000Y-19798727D01*
X-4100606Y-19713248D01*
X-4265865Y-19571665D01*
X-4409605Y-19398819D01*
X-4508656Y-19219553D01*
X-4526658Y-19166581D01*
X-4567099Y-18877433D01*
X-4562668Y-18844683D01*
X-4020167Y-18844683D01*
X-3982241Y-19036631D01*
X-3883387Y-19183177D01*
X-3739283Y-19274984D01*
X-3565604Y-19302710D01*
X-3378025Y-19257016D01*
X-3350473Y-19243675D01*
X-3216885Y-19135163D01*
X-3147182Y-18994132D01*
X-3137140Y-18838360D01*
X-3182536Y-18685625D01*
X-3279144Y-18553704D01*
X-3422743Y-18460375D01*
X-3544235Y-18428137D01*
X-3659032Y-18419772D01*
X-3741320Y-18442318D01*
X-3827404Y-18509651D01*
X-3872318Y-18553518D01*
X-3973926Y-18674767D01*
X-4016337Y-18786003D01*
X-4020167Y-18844683D01*
X-4562668Y-18844683D01*
X-4529442Y-18599161D01*
X-4418858Y-18345330D01*
X-4240517Y-18129506D01*
X-4087368Y-18013952D01*
X-3961267Y-17943421D01*
X-3848254Y-17904548D01*
X-3712759Y-17888402D01*
X-3577167Y-17885833D01*
X-3402156Y-17890916D01*
X-3402156Y-17890916D01*
G37*
X-3402156Y-17890916D02*
X-3275937Y-17912118D01*
X-3162942Y-17958371D01*
X-3066966Y-18013952D01*
X-2849794Y-18194078D01*
X-2696551Y-18417476D01*
X-2609582Y-18669316D01*
X-2591235Y-18934764D01*
X-2643856Y-19198989D01*
X-2769792Y-19447161D01*
X-2828160Y-19523388D01*
X-3014109Y-19682567D01*
X-3250011Y-19790956D01*
X-3514389Y-19843220D01*
X-3785769Y-19834028D01*
X-3937000Y-19798727D01*
X-4100606Y-19713248D01*
X-4265865Y-19571665D01*
X-4409605Y-19398819D01*
X-4508656Y-19219553D01*
X-4526658Y-19166581D01*
X-4567099Y-18877433D01*
X-4562668Y-18844683D01*
X-4020167Y-18844683D01*
X-3982241Y-19036631D01*
X-3883387Y-19183177D01*
X-3739283Y-19274984D01*
X-3565604Y-19302710D01*
X-3378025Y-19257016D01*
X-3350473Y-19243675D01*
X-3216885Y-19135163D01*
X-3147182Y-18994132D01*
X-3137140Y-18838360D01*
X-3182536Y-18685625D01*
X-3279144Y-18553704D01*
X-3422743Y-18460375D01*
X-3544235Y-18428137D01*
X-3659032Y-18419772D01*
X-3741320Y-18442318D01*
X-3827404Y-18509651D01*
X-3872318Y-18553518D01*
X-3973926Y-18674767D01*
X-4016337Y-18786003D01*
X-4020167Y-18844683D01*
X-4562668Y-18844683D01*
X-4529442Y-18599161D01*
X-4418858Y-18345330D01*
X-4240517Y-18129506D01*
X-4087368Y-18013952D01*
X-3961267Y-17943421D01*
X-3848254Y-17904548D01*
X-3712759Y-17888402D01*
X-3577167Y-17885833D01*
X-3402156Y-17890916D01*
G36*
X-775805Y-17922061D02*
X-545554Y-18028089D01*
X-347057Y-18193267D01*
X-194550Y-18416541D01*
X-181420Y-18444106D01*
X-100598Y-18708066D01*
X-90190Y-18977415D01*
X-148932Y-19231461D01*
X-240130Y-19403120D01*
X-427251Y-19618151D01*
X-639119Y-19757626D01*
X-890529Y-19830069D01*
X-1001666Y-19841939D01*
X-1171510Y-19848148D01*
X-1296618Y-19834579D01*
X-1416026Y-19793712D01*
X-1524000Y-19741305D01*
X-1757495Y-19577577D01*
X-1928383Y-19366795D01*
X-2032993Y-19122694D01*
X-2056538Y-18943552D01*
X-1519144Y-18943552D01*
X-1495420Y-19025663D01*
X-1426275Y-19112950D01*
X-1385483Y-19154651D01*
X-1220322Y-19274600D01*
X-1051783Y-19311823D01*
X-886553Y-19266114D01*
X-765257Y-19173743D01*
X-655259Y-19015661D01*
X-628351Y-18849096D01*
X-684329Y-18680736D01*
X-784349Y-18553518D01*
X-882931Y-18463594D01*
X-962775Y-18424363D01*
X-1059805Y-18421861D01*
X-1108309Y-18427589D01*
X-1298242Y-18489985D01*
X-1432891Y-18615106D01*
X-1505849Y-18796547D01*
X-1511411Y-18830692D01*
X-1519144Y-18943552D01*
X-2056538Y-18943552D01*
X-2067650Y-18859010D01*
X-2028682Y-18589478D01*
X-1912415Y-18327835D01*
X-1905122Y-18316176D01*
X-1729636Y-18110598D01*
X-1514725Y-17969454D01*
X-1274626Y-17891687D01*
X-1023574Y-17876242D01*
X-775805Y-17922061D01*
X-775805Y-17922061D01*
G37*
X-775805Y-17922061D02*
X-545554Y-18028089D01*
X-347057Y-18193267D01*
X-194550Y-18416541D01*
X-181420Y-18444106D01*
X-100598Y-18708066D01*
X-90190Y-18977415D01*
X-148932Y-19231461D01*
X-240130Y-19403120D01*
X-427251Y-19618151D01*
X-639119Y-19757626D01*
X-890529Y-19830069D01*
X-1001666Y-19841939D01*
X-1171510Y-19848148D01*
X-1296618Y-19834579D01*
X-1416026Y-19793712D01*
X-1524000Y-19741305D01*
X-1757495Y-19577577D01*
X-1928383Y-19366795D01*
X-2032993Y-19122694D01*
X-2056538Y-18943552D01*
X-1519144Y-18943552D01*
X-1495420Y-19025663D01*
X-1426275Y-19112950D01*
X-1385483Y-19154651D01*
X-1220322Y-19274600D01*
X-1051783Y-19311823D01*
X-886553Y-19266114D01*
X-765257Y-19173743D01*
X-655259Y-19015661D01*
X-628351Y-18849096D01*
X-684329Y-18680736D01*
X-784349Y-18553518D01*
X-882931Y-18463594D01*
X-962775Y-18424363D01*
X-1059805Y-18421861D01*
X-1108309Y-18427589D01*
X-1298242Y-18489985D01*
X-1432891Y-18615106D01*
X-1505849Y-18796547D01*
X-1511411Y-18830692D01*
X-1519144Y-18943552D01*
X-2056538Y-18943552D01*
X-2067650Y-18859010D01*
X-2028682Y-18589478D01*
X-1912415Y-18327835D01*
X-1905122Y-18316176D01*
X-1729636Y-18110598D01*
X-1514725Y-17969454D01*
X-1274626Y-17891687D01*
X-1023574Y-17876242D01*
X-775805Y-17922061D01*
G36*
X9294401Y-17703390D02*
X9420896Y-17753197D01*
X9668105Y-17909576D01*
X9846673Y-18114988D01*
X9954559Y-18366191D01*
X9989736Y-18657057D01*
X9951138Y-18939921D01*
X9845238Y-19184674D01*
X9683463Y-19384351D01*
X9477243Y-19531985D01*
X9238004Y-19620611D01*
X8977176Y-19643264D01*
X8706186Y-19592976D01*
X8555768Y-19531115D01*
X8323703Y-19372816D01*
X8154451Y-19168770D01*
X8050448Y-18932583D01*
X8014128Y-18677860D01*
X8026872Y-18579949D01*
X8573749Y-18579949D01*
X8574699Y-18738183D01*
X8633379Y-18880089D01*
X8736413Y-18994687D01*
X8870428Y-19070996D01*
X9022049Y-19098037D01*
X9177900Y-19064830D01*
X9316589Y-18968590D01*
X9401586Y-18862350D01*
X9436209Y-18745731D01*
X9440333Y-18657271D01*
X9405845Y-18472356D01*
X9313949Y-18332432D01*
X9181996Y-18242747D01*
X9027339Y-18208550D01*
X8867328Y-18235089D01*
X8719315Y-18327614D01*
X8643904Y-18416364D01*
X8573749Y-18579949D01*
X8026872Y-18579949D01*
X8047926Y-18418208D01*
X8154278Y-18167234D01*
X8280925Y-17995316D01*
X8503800Y-17803766D01*
X8753132Y-17689960D01*
X9019729Y-17655851D01*
X9294401Y-17703390D01*
X9294401Y-17703390D01*
G37*
X9294401Y-17703390D02*
X9420896Y-17753197D01*
X9668105Y-17909576D01*
X9846673Y-18114988D01*
X9954559Y-18366191D01*
X9989736Y-18657057D01*
X9951138Y-18939921D01*
X9845238Y-19184674D01*
X9683463Y-19384351D01*
X9477243Y-19531985D01*
X9238004Y-19620611D01*
X8977176Y-19643264D01*
X8706186Y-19592976D01*
X8555768Y-19531115D01*
X8323703Y-19372816D01*
X8154451Y-19168770D01*
X8050448Y-18932583D01*
X8014128Y-18677860D01*
X8026872Y-18579949D01*
X8573749Y-18579949D01*
X8574699Y-18738183D01*
X8633379Y-18880089D01*
X8736413Y-18994687D01*
X8870428Y-19070996D01*
X9022049Y-19098037D01*
X9177900Y-19064830D01*
X9316589Y-18968590D01*
X9401586Y-18862350D01*
X9436209Y-18745731D01*
X9440333Y-18657271D01*
X9405845Y-18472356D01*
X9313949Y-18332432D01*
X9181996Y-18242747D01*
X9027339Y-18208550D01*
X8867328Y-18235089D01*
X8719315Y-18327614D01*
X8643904Y-18416364D01*
X8573749Y-18579949D01*
X8026872Y-18579949D01*
X8047926Y-18418208D01*
X8154278Y-18167234D01*
X8280925Y-17995316D01*
X8503800Y-17803766D01*
X8753132Y-17689960D01*
X9019729Y-17655851D01*
X9294401Y-17703390D01*
G36*
X-5866961Y-15259373D02*
X-5631552Y-15345216D01*
X-5406375Y-15501656D01*
X-5242778Y-15702298D01*
X-5140735Y-15933267D01*
X-5100221Y-16180687D01*
X-5121211Y-16430679D01*
X-5203679Y-16669369D01*
X-5347599Y-16882880D01*
X-5552947Y-17057334D01*
X-5634776Y-17104271D01*
X-5825248Y-17171842D01*
X-6048862Y-17206901D01*
X-6262484Y-17204192D01*
X-6340027Y-17190232D01*
X-6583967Y-17088020D01*
X-6791045Y-16922404D01*
X-6950895Y-16709382D01*
X-7053148Y-16464952D01*
X-7087438Y-16205110D01*
X-7087328Y-16203983D01*
X-6527871Y-16203983D01*
X-6509449Y-16360825D01*
X-6432766Y-16502637D01*
X-6293641Y-16611220D01*
X-6291247Y-16612408D01*
X-6171515Y-16663227D01*
X-6075527Y-16672719D01*
X-5962368Y-16641406D01*
X-5902617Y-16617357D01*
X-5766591Y-16518448D01*
X-5675422Y-16369275D01*
X-5643804Y-16198681D01*
X-5652212Y-16125759D01*
X-5724551Y-15978024D01*
X-5855929Y-15862730D01*
X-6021929Y-15798068D01*
X-6102505Y-15790333D01*
X-6275346Y-15825287D01*
X-6406640Y-15918013D01*
X-6492208Y-16050312D01*
X-6527871Y-16203983D01*
X-7087328Y-16203983D01*
X-7073128Y-16059038D01*
X-6983516Y-15788892D01*
X-6832267Y-15565039D01*
X-6632182Y-15393822D01*
X-6396067Y-15281578D01*
X-6136726Y-15234649D01*
X-5866961Y-15259373D01*
X-5866961Y-15259373D01*
G37*
X-5866961Y-15259373D02*
X-5631552Y-15345216D01*
X-5406375Y-15501656D01*
X-5242778Y-15702298D01*
X-5140735Y-15933267D01*
X-5100221Y-16180687D01*
X-5121211Y-16430679D01*
X-5203679Y-16669369D01*
X-5347599Y-16882880D01*
X-5552947Y-17057334D01*
X-5634776Y-17104271D01*
X-5825248Y-17171842D01*
X-6048862Y-17206901D01*
X-6262484Y-17204192D01*
X-6340027Y-17190232D01*
X-6583967Y-17088020D01*
X-6791045Y-16922404D01*
X-6950895Y-16709382D01*
X-7053148Y-16464952D01*
X-7087438Y-16205110D01*
X-7087328Y-16203983D01*
X-6527871Y-16203983D01*
X-6509449Y-16360825D01*
X-6432766Y-16502637D01*
X-6293641Y-16611220D01*
X-6291247Y-16612408D01*
X-6171515Y-16663227D01*
X-6075527Y-16672719D01*
X-5962368Y-16641406D01*
X-5902617Y-16617357D01*
X-5766591Y-16518448D01*
X-5675422Y-16369275D01*
X-5643804Y-16198681D01*
X-5652212Y-16125759D01*
X-5724551Y-15978024D01*
X-5855929Y-15862730D01*
X-6021929Y-15798068D01*
X-6102505Y-15790333D01*
X-6275346Y-15825287D01*
X-6406640Y-15918013D01*
X-6492208Y-16050312D01*
X-6527871Y-16203983D01*
X-7087328Y-16203983D01*
X-7073128Y-16059038D01*
X-6983516Y-15788892D01*
X-6832267Y-15565039D01*
X-6632182Y-15393822D01*
X-6396067Y-15281578D01*
X-6136726Y-15234649D01*
X-5866961Y-15259373D01*
G36*
X-3290715Y-15279501D02*
X-3043032Y-15385681D01*
X-2841562Y-15550277D01*
X-2693749Y-15763168D01*
X-2607034Y-16014234D01*
X-2588861Y-16293353D01*
X-2628980Y-16531167D01*
X-2707669Y-16696531D01*
X-2843533Y-16866962D01*
X-3013493Y-17020544D01*
X-3194470Y-17135364D01*
X-3312520Y-17180236D01*
X-3497103Y-17217677D01*
X-3649895Y-17220714D01*
X-3815593Y-17188114D01*
X-3897855Y-17164093D01*
X-4124213Y-17052724D01*
X-4318540Y-16877946D01*
X-4466462Y-16659159D01*
X-4553602Y-16415758D01*
X-4570835Y-16256000D01*
X-4568135Y-16227183D01*
X-4023029Y-16227183D01*
X-3988022Y-16388616D01*
X-3898221Y-16529268D01*
X-3761309Y-16631116D01*
X-3584970Y-16676135D01*
X-3572844Y-16676650D01*
X-3481077Y-16655384D01*
X-3366524Y-16599377D01*
X-3341375Y-16583316D01*
X-3210439Y-16449491D01*
X-3144163Y-16279935D01*
X-3150250Y-16107041D01*
X-3228376Y-15948313D01*
X-3357647Y-15839997D01*
X-3517567Y-15787382D01*
X-3687637Y-15795759D01*
X-3847363Y-15870417D01*
X-3897924Y-15914077D01*
X-3995557Y-16062995D01*
X-4023029Y-16227183D01*
X-4568135Y-16227183D01*
X-4546019Y-15991210D01*
X-4462804Y-15767864D01*
X-4331115Y-15580733D01*
X-4128935Y-15395307D01*
X-3898202Y-15284669D01*
X-3625152Y-15242632D01*
X-3577167Y-15241859D01*
X-3290715Y-15279501D01*
X-3290715Y-15279501D01*
G37*
X-3290715Y-15279501D02*
X-3043032Y-15385681D01*
X-2841562Y-15550277D01*
X-2693749Y-15763168D01*
X-2607034Y-16014234D01*
X-2588861Y-16293353D01*
X-2628980Y-16531167D01*
X-2707669Y-16696531D01*
X-2843533Y-16866962D01*
X-3013493Y-17020544D01*
X-3194470Y-17135364D01*
X-3312520Y-17180236D01*
X-3497103Y-17217677D01*
X-3649895Y-17220714D01*
X-3815593Y-17188114D01*
X-3897855Y-17164093D01*
X-4124213Y-17052724D01*
X-4318540Y-16877946D01*
X-4466462Y-16659159D01*
X-4553602Y-16415758D01*
X-4570835Y-16256000D01*
X-4568135Y-16227183D01*
X-4023029Y-16227183D01*
X-3988022Y-16388616D01*
X-3898221Y-16529268D01*
X-3761309Y-16631116D01*
X-3584970Y-16676135D01*
X-3572844Y-16676650D01*
X-3481077Y-16655384D01*
X-3366524Y-16599377D01*
X-3341375Y-16583316D01*
X-3210439Y-16449491D01*
X-3144163Y-16279935D01*
X-3150250Y-16107041D01*
X-3228376Y-15948313D01*
X-3357647Y-15839997D01*
X-3517567Y-15787382D01*
X-3687637Y-15795759D01*
X-3847363Y-15870417D01*
X-3897924Y-15914077D01*
X-3995557Y-16062995D01*
X-4023029Y-16227183D01*
X-4568135Y-16227183D01*
X-4546019Y-15991210D01*
X-4462804Y-15767864D01*
X-4331115Y-15580733D01*
X-4128935Y-15395307D01*
X-3898202Y-15284669D01*
X-3625152Y-15242632D01*
X-3577167Y-15241859D01*
X-3290715Y-15279501D01*
G36*
X-669880Y-15302109D02*
X-435421Y-15428363D01*
X-240723Y-15617554D01*
X-122761Y-15811500D01*
X-67729Y-15995052D01*
X-45076Y-16214917D01*
X-55921Y-16433002D01*
X-99419Y-16606610D01*
X-239370Y-16839596D01*
X-434831Y-17024033D01*
X-669549Y-17152571D01*
X-927271Y-17217859D01*
X-1191744Y-17212546D01*
X-1348864Y-17171706D01*
X-1468823Y-17112122D01*
X-1604810Y-17022134D01*
X-1656409Y-16981509D01*
X-1845428Y-16773460D01*
X-1964129Y-16535960D01*
X-2014094Y-16283023D01*
X-2008893Y-16206042D01*
X-1461371Y-16206042D01*
X-1441735Y-16360773D01*
X-1372359Y-16499606D01*
X-1262812Y-16608072D01*
X-1122667Y-16671706D01*
X-961494Y-16676040D01*
X-833301Y-16632045D01*
X-685892Y-16515095D01*
X-607688Y-16349789D01*
X-593608Y-16220993D01*
X-628107Y-16039838D01*
X-721978Y-15901770D01*
X-857697Y-15814441D01*
X-1017741Y-15785505D01*
X-1184587Y-15822615D01*
X-1313136Y-15906750D01*
X-1421695Y-16049879D01*
X-1461371Y-16206042D01*
X-2008893Y-16206042D01*
X-1996906Y-16028660D01*
X-1914149Y-15786887D01*
X-1767406Y-15571715D01*
X-1558260Y-15397159D01*
X-1471970Y-15348930D01*
X-1202140Y-15257598D01*
X-930115Y-15243589D01*
X-669880Y-15302109D01*
X-669880Y-15302109D01*
G37*
X-669880Y-15302109D02*
X-435421Y-15428363D01*
X-240723Y-15617554D01*
X-122761Y-15811500D01*
X-67729Y-15995052D01*
X-45076Y-16214917D01*
X-55921Y-16433002D01*
X-99419Y-16606610D01*
X-239370Y-16839596D01*
X-434831Y-17024033D01*
X-669549Y-17152571D01*
X-927271Y-17217859D01*
X-1191744Y-17212546D01*
X-1348864Y-17171706D01*
X-1468823Y-17112122D01*
X-1604810Y-17022134D01*
X-1656409Y-16981509D01*
X-1845428Y-16773460D01*
X-1964129Y-16535960D01*
X-2014094Y-16283023D01*
X-2008893Y-16206042D01*
X-1461371Y-16206042D01*
X-1441735Y-16360773D01*
X-1372359Y-16499606D01*
X-1262812Y-16608072D01*
X-1122667Y-16671706D01*
X-961494Y-16676040D01*
X-833301Y-16632045D01*
X-685892Y-16515095D01*
X-607688Y-16349789D01*
X-593608Y-16220993D01*
X-628107Y-16039838D01*
X-721978Y-15901770D01*
X-857697Y-15814441D01*
X-1017741Y-15785505D01*
X-1184587Y-15822615D01*
X-1313136Y-15906750D01*
X-1421695Y-16049879D01*
X-1461371Y-16206042D01*
X-2008893Y-16206042D01*
X-1996906Y-16028660D01*
X-1914149Y-15786887D01*
X-1767406Y-15571715D01*
X-1558260Y-15397159D01*
X-1471970Y-15348930D01*
X-1202140Y-15257598D01*
X-930115Y-15243589D01*
X-669880Y-15302109D01*
G36*
X9381441Y-15305831D02*
X9463229Y-15340197D01*
X9696127Y-15488416D01*
X9865560Y-15677743D01*
X9973798Y-15895928D01*
X10023113Y-16130720D01*
X10015774Y-16369865D01*
X9954052Y-16601115D01*
X9840217Y-16812216D01*
X9676540Y-16990917D01*
X9465291Y-17124968D01*
X9208741Y-17202116D01*
X9116189Y-17212878D01*
X8903329Y-17211238D01*
X8725106Y-17177165D01*
X8709997Y-17171846D01*
X8452356Y-17033718D01*
X8251690Y-16832973D01*
X8153543Y-16672205D01*
X8058849Y-16395853D01*
X8052833Y-16258131D01*
X8593666Y-16258131D01*
X8631931Y-16403728D01*
X8731459Y-16536859D01*
X8869353Y-16635826D01*
X9022714Y-16678930D01*
X9038166Y-16679333D01*
X9162324Y-16661576D01*
X9272052Y-16596760D01*
X9338733Y-16535400D01*
X9446390Y-16380882D01*
X9481494Y-16220801D01*
X9453993Y-16068615D01*
X9373836Y-15937781D01*
X9250973Y-15841758D01*
X9095352Y-15794002D01*
X8916921Y-15807972D01*
X8825317Y-15840908D01*
X8702593Y-15939767D01*
X8620589Y-16092854D01*
X8593666Y-16258131D01*
X8052833Y-16258131D01*
X8046857Y-16121330D01*
X8116001Y-15858272D01*
X8264712Y-15616316D01*
X8338495Y-15535162D01*
X8569944Y-15358712D01*
X8827612Y-15260514D01*
X9101457Y-15242307D01*
X9381441Y-15305831D01*
X9381441Y-15305831D01*
G37*
X9381441Y-15305831D02*
X9463229Y-15340197D01*
X9696127Y-15488416D01*
X9865560Y-15677743D01*
X9973798Y-15895928D01*
X10023113Y-16130720D01*
X10015774Y-16369865D01*
X9954052Y-16601115D01*
X9840217Y-16812216D01*
X9676540Y-16990917D01*
X9465291Y-17124968D01*
X9208741Y-17202116D01*
X9116189Y-17212878D01*
X8903329Y-17211238D01*
X8725106Y-17177165D01*
X8709997Y-17171846D01*
X8452356Y-17033718D01*
X8251690Y-16832973D01*
X8153543Y-16672205D01*
X8058849Y-16395853D01*
X8052833Y-16258131D01*
X8593666Y-16258131D01*
X8631931Y-16403728D01*
X8731459Y-16536859D01*
X8869353Y-16635826D01*
X9022714Y-16678930D01*
X9038166Y-16679333D01*
X9162324Y-16661576D01*
X9272052Y-16596760D01*
X9338733Y-16535400D01*
X9446390Y-16380882D01*
X9481494Y-16220801D01*
X9453993Y-16068615D01*
X9373836Y-15937781D01*
X9250973Y-15841758D01*
X9095352Y-15794002D01*
X8916921Y-15807972D01*
X8825317Y-15840908D01*
X8702593Y-15939767D01*
X8620589Y-16092854D01*
X8593666Y-16258131D01*
X8052833Y-16258131D01*
X8046857Y-16121330D01*
X8116001Y-15858272D01*
X8264712Y-15616316D01*
X8338495Y-15535162D01*
X8569944Y-15358712D01*
X8827612Y-15260514D01*
X9101457Y-15242307D01*
X9381441Y-15305831D01*
G36*
X-9708245Y-12734721D02*
X-9462866Y-12808644D01*
X-9242831Y-12943337D01*
X-9061142Y-13133901D01*
X-8930800Y-13375439D01*
X-8887224Y-13521371D01*
X-8868486Y-13787896D01*
X-8924980Y-14046522D01*
X-9047589Y-14281996D01*
X-9227199Y-14479067D01*
X-9454693Y-14622480D01*
X-9571100Y-14665696D01*
X-9725036Y-14708129D01*
X-9838119Y-14724587D01*
X-9948516Y-14715489D01*
X-10094391Y-14681250D01*
X-10129796Y-14671794D01*
X-10380178Y-14565288D01*
X-10579966Y-14402693D01*
X-10726518Y-14197696D01*
X-10817196Y-13963984D01*
X-10845012Y-13748857D01*
X-10294304Y-13748857D01*
X-10251049Y-13908513D01*
X-10146679Y-14044536D01*
X-9987918Y-14141146D01*
X-9848898Y-14176756D01*
X-9789976Y-14163289D01*
X-9691461Y-14123812D01*
X-9672253Y-14114895D01*
X-9538033Y-14011495D01*
X-9446044Y-13863529D01*
X-9411824Y-13700588D01*
X-9418925Y-13632436D01*
X-9492737Y-13465469D01*
X-9617374Y-13349089D01*
X-9773101Y-13288825D01*
X-9940185Y-13290209D01*
X-10098890Y-13358773D01*
X-10170584Y-13421755D01*
X-10269724Y-13581345D01*
X-10294304Y-13748857D01*
X-10845012Y-13748857D01*
X-10849358Y-13715246D01*
X-10820365Y-13465169D01*
X-10727578Y-13227440D01*
X-10568355Y-13015747D01*
X-10466426Y-12926539D01*
X-10223026Y-12788771D01*
X-9965965Y-12726464D01*
X-9708245Y-12734721D01*
X-9708245Y-12734721D01*
G37*
X-9708245Y-12734721D02*
X-9462866Y-12808644D01*
X-9242831Y-12943337D01*
X-9061142Y-13133901D01*
X-8930800Y-13375439D01*
X-8887224Y-13521371D01*
X-8868486Y-13787896D01*
X-8924980Y-14046522D01*
X-9047589Y-14281996D01*
X-9227199Y-14479067D01*
X-9454693Y-14622480D01*
X-9571100Y-14665696D01*
X-9725036Y-14708129D01*
X-9838119Y-14724587D01*
X-9948516Y-14715489D01*
X-10094391Y-14681250D01*
X-10129796Y-14671794D01*
X-10380178Y-14565288D01*
X-10579966Y-14402693D01*
X-10726518Y-14197696D01*
X-10817196Y-13963984D01*
X-10845012Y-13748857D01*
X-10294304Y-13748857D01*
X-10251049Y-13908513D01*
X-10146679Y-14044536D01*
X-9987918Y-14141146D01*
X-9848898Y-14176756D01*
X-9789976Y-14163289D01*
X-9691461Y-14123812D01*
X-9672253Y-14114895D01*
X-9538033Y-14011495D01*
X-9446044Y-13863529D01*
X-9411824Y-13700588D01*
X-9418925Y-13632436D01*
X-9492737Y-13465469D01*
X-9617374Y-13349089D01*
X-9773101Y-13288825D01*
X-9940185Y-13290209D01*
X-10098890Y-13358773D01*
X-10170584Y-13421755D01*
X-10269724Y-13581345D01*
X-10294304Y-13748857D01*
X-10845012Y-13748857D01*
X-10849358Y-13715246D01*
X-10820365Y-13465169D01*
X-10727578Y-13227440D01*
X-10568355Y-13015747D01*
X-10466426Y-12926539D01*
X-10223026Y-12788771D01*
X-9965965Y-12726464D01*
X-9708245Y-12734721D01*
G36*
X-3298722Y-12765361D02*
X-3060745Y-12870103D01*
X-2850568Y-13051841D01*
X-2826513Y-13079219D01*
X-2676158Y-13312811D01*
X-2600173Y-13562942D01*
X-2593489Y-13816860D01*
X-2651036Y-14061812D01*
X-2767746Y-14285045D01*
X-2938549Y-14473807D01*
X-3158379Y-14615344D01*
X-3422164Y-14696904D01*
X-3472327Y-14704044D01*
X-3621711Y-14710854D01*
X-3759344Y-14700079D01*
X-3788834Y-14693991D01*
X-4062227Y-14580952D01*
X-4301156Y-14390633D01*
X-4305272Y-14386362D01*
X-4467006Y-14164198D01*
X-4555183Y-13923380D01*
X-4572202Y-13712289D01*
X-4021667Y-13712289D01*
X-3985946Y-13896196D01*
X-3889942Y-14036872D01*
X-3750392Y-14126249D01*
X-3584035Y-14156255D01*
X-3407607Y-14118820D01*
X-3302000Y-14059283D01*
X-3194442Y-13933484D01*
X-3146193Y-13768706D01*
X-3162822Y-13591397D01*
X-3189005Y-13522640D01*
X-3296010Y-13379138D01*
X-3436926Y-13298455D01*
X-3593786Y-13276498D01*
X-3748624Y-13309177D01*
X-3883473Y-13392398D01*
X-3980366Y-13522070D01*
X-4021336Y-13694100D01*
X-4021667Y-13712289D01*
X-4572202Y-13712289D01*
X-4575128Y-13676009D01*
X-4532167Y-13434187D01*
X-4431625Y-13210015D01*
X-4278828Y-13015597D01*
X-4079100Y-12863034D01*
X-3837768Y-12764428D01*
X-3577167Y-12731750D01*
X-3298722Y-12765361D01*
X-3298722Y-12765361D01*
G37*
X-3298722Y-12765361D02*
X-3060745Y-12870103D01*
X-2850568Y-13051841D01*
X-2826513Y-13079219D01*
X-2676158Y-13312811D01*
X-2600173Y-13562942D01*
X-2593489Y-13816860D01*
X-2651036Y-14061812D01*
X-2767746Y-14285045D01*
X-2938549Y-14473807D01*
X-3158379Y-14615344D01*
X-3422164Y-14696904D01*
X-3472327Y-14704044D01*
X-3621711Y-14710854D01*
X-3759344Y-14700079D01*
X-3788834Y-14693991D01*
X-4062227Y-14580952D01*
X-4301156Y-14390633D01*
X-4305272Y-14386362D01*
X-4467006Y-14164198D01*
X-4555183Y-13923380D01*
X-4572202Y-13712289D01*
X-4021667Y-13712289D01*
X-3985946Y-13896196D01*
X-3889942Y-14036872D01*
X-3750392Y-14126249D01*
X-3584035Y-14156255D01*
X-3407607Y-14118820D01*
X-3302000Y-14059283D01*
X-3194442Y-13933484D01*
X-3146193Y-13768706D01*
X-3162822Y-13591397D01*
X-3189005Y-13522640D01*
X-3296010Y-13379138D01*
X-3436926Y-13298455D01*
X-3593786Y-13276498D01*
X-3748624Y-13309177D01*
X-3883473Y-13392398D01*
X-3980366Y-13522070D01*
X-4021336Y-13694100D01*
X-4021667Y-13712289D01*
X-4572202Y-13712289D01*
X-4575128Y-13676009D01*
X-4532167Y-13434187D01*
X-4431625Y-13210015D01*
X-4278828Y-13015597D01*
X-4079100Y-12863034D01*
X-3837768Y-12764428D01*
X-3577167Y-12731750D01*
X-3298722Y-12765361D01*
G36*
X-860578Y-12734721D02*
X-615199Y-12808644D01*
X-395164Y-12943337D01*
X-213475Y-13133901D01*
X-83133Y-13375439D01*
X-39557Y-13521371D01*
X-20820Y-13787896D01*
X-77314Y-14046522D01*
X-199923Y-14281996D01*
X-379532Y-14479067D01*
X-607026Y-14622480D01*
X-723433Y-14665696D01*
X-877369Y-14708129D01*
X-990452Y-14724587D01*
X-1100849Y-14715489D01*
X-1246724Y-14681250D01*
X-1282130Y-14671794D01*
X-1532512Y-14565288D01*
X-1732299Y-14402693D01*
X-1878851Y-14197696D01*
X-1969529Y-13963984D01*
X-1999355Y-13733312D01*
X-1452163Y-13733312D01*
X-1413481Y-13899001D01*
X-1314106Y-14042598D01*
X-1164167Y-14141279D01*
X-1051633Y-14174314D01*
X-946625Y-14164073D01*
X-824586Y-14114895D01*
X-696343Y-14017972D01*
X-614177Y-13901244D01*
X-568034Y-13725265D01*
X-591910Y-13566002D01*
X-671449Y-13433165D01*
X-792296Y-13336460D01*
X-940094Y-13285596D01*
X-1100486Y-13290278D01*
X-1259116Y-13360216D01*
X-1328690Y-13418102D01*
X-1425462Y-13566142D01*
X-1452163Y-13733312D01*
X-1999355Y-13733312D01*
X-2001691Y-13715246D01*
X-1972699Y-13465169D01*
X-1879911Y-13227440D01*
X-1720688Y-13015747D01*
X-1618759Y-12926539D01*
X-1375360Y-12788771D01*
X-1118299Y-12726464D01*
X-860578Y-12734721D01*
X-860578Y-12734721D01*
G37*
X-860578Y-12734721D02*
X-615199Y-12808644D01*
X-395164Y-12943337D01*
X-213475Y-13133901D01*
X-83133Y-13375439D01*
X-39557Y-13521371D01*
X-20820Y-13787896D01*
X-77314Y-14046522D01*
X-199923Y-14281996D01*
X-379532Y-14479067D01*
X-607026Y-14622480D01*
X-723433Y-14665696D01*
X-877369Y-14708129D01*
X-990452Y-14724587D01*
X-1100849Y-14715489D01*
X-1246724Y-14681250D01*
X-1282130Y-14671794D01*
X-1532512Y-14565288D01*
X-1732299Y-14402693D01*
X-1878851Y-14197696D01*
X-1969529Y-13963984D01*
X-1999355Y-13733312D01*
X-1452163Y-13733312D01*
X-1413481Y-13899001D01*
X-1314106Y-14042598D01*
X-1164167Y-14141279D01*
X-1051633Y-14174314D01*
X-946625Y-14164073D01*
X-824586Y-14114895D01*
X-696343Y-14017972D01*
X-614177Y-13901244D01*
X-568034Y-13725265D01*
X-591910Y-13566002D01*
X-671449Y-13433165D01*
X-792296Y-13336460D01*
X-940094Y-13285596D01*
X-1100486Y-13290278D01*
X-1259116Y-13360216D01*
X-1328690Y-13418102D01*
X-1425462Y-13566142D01*
X-1452163Y-13733312D01*
X-1999355Y-13733312D01*
X-2001691Y-13715246D01*
X-1972699Y-13465169D01*
X-1879911Y-13227440D01*
X-1720688Y-13015747D01*
X-1618759Y-12926539D01*
X-1375360Y-12788771D01*
X-1118299Y-12726464D01*
X-860578Y-12734721D01*
G36*
X1748504Y-12780798D02*
X1998680Y-12891084D01*
X2202364Y-13065528D01*
X2350895Y-13296467D01*
X2435611Y-13576238D01*
X2440629Y-13609426D01*
X2440396Y-13874861D01*
X2361703Y-14119891D01*
X2201880Y-14351690D01*
X2140000Y-14417437D01*
X1905286Y-14602941D01*
X1654934Y-14705775D01*
X1390914Y-14725456D01*
X1125674Y-14665399D01*
X867364Y-14530010D01*
X669367Y-14336247D01*
X567358Y-14165454D01*
X479755Y-13889229D01*
X472387Y-13707034D01*
X1016000Y-13707034D01*
X1053747Y-13895820D01*
X1156918Y-14047965D01*
X1310406Y-14147583D01*
X1464822Y-14178983D01*
X1556394Y-14157757D01*
X1671222Y-14101802D01*
X1697656Y-14084993D01*
X1831512Y-13950892D01*
X1893923Y-13786493D01*
X1880057Y-13609986D01*
X1845655Y-13527719D01*
X1731897Y-13388565D01*
X1586846Y-13310837D01*
X1428325Y-13290682D01*
X1274157Y-13324249D01*
X1142166Y-13407686D01*
X1050173Y-13537140D01*
X1016000Y-13707034D01*
X472387Y-13707034D01*
X468829Y-13619056D01*
X527542Y-13366147D01*
X648856Y-13141714D01*
X825734Y-12956971D01*
X1051140Y-12823131D01*
X1318036Y-12751406D01*
X1460500Y-12742333D01*
X1748504Y-12780798D01*
X1748504Y-12780798D01*
G37*
X1748504Y-12780798D02*
X1998680Y-12891084D01*
X2202364Y-13065528D01*
X2350895Y-13296467D01*
X2435611Y-13576238D01*
X2440629Y-13609426D01*
X2440396Y-13874861D01*
X2361703Y-14119891D01*
X2201880Y-14351690D01*
X2140000Y-14417437D01*
X1905286Y-14602941D01*
X1654934Y-14705775D01*
X1390914Y-14725456D01*
X1125674Y-14665399D01*
X867364Y-14530010D01*
X669367Y-14336247D01*
X567358Y-14165454D01*
X479755Y-13889229D01*
X472387Y-13707034D01*
X1016000Y-13707034D01*
X1053747Y-13895820D01*
X1156918Y-14047965D01*
X1310406Y-14147583D01*
X1464822Y-14178983D01*
X1556394Y-14157757D01*
X1671222Y-14101802D01*
X1697656Y-14084993D01*
X1831512Y-13950892D01*
X1893923Y-13786493D01*
X1880057Y-13609986D01*
X1845655Y-13527719D01*
X1731897Y-13388565D01*
X1586846Y-13310837D01*
X1428325Y-13290682D01*
X1274157Y-13324249D01*
X1142166Y-13407686D01*
X1050173Y-13537140D01*
X1016000Y-13707034D01*
X472387Y-13707034D01*
X468829Y-13619056D01*
X527542Y-13366147D01*
X648856Y-13141714D01*
X825734Y-12956971D01*
X1051140Y-12823131D01*
X1318036Y-12751406D01*
X1460500Y-12742333D01*
X1748504Y-12780798D01*
G36*
X4267301Y-12794500D02*
X4494130Y-12907940D01*
X4683441Y-13076144D01*
X4823559Y-13292133D01*
X4902810Y-13548929D01*
X4916278Y-13711911D01*
X4880069Y-14004472D01*
X4772065Y-14260303D01*
X4597615Y-14470238D01*
X4391939Y-14610472D01*
X4220933Y-14672681D01*
X4019669Y-14709755D01*
X3824555Y-14717359D01*
X3682725Y-14694912D01*
X3413076Y-14568368D01*
X3197426Y-14389223D01*
X3042252Y-14168935D01*
X2954032Y-13918963D01*
X2946762Y-13787102D01*
X3489378Y-13787102D01*
X3549666Y-13943146D01*
X3659902Y-14068939D01*
X3803883Y-14150987D01*
X3965404Y-14175795D01*
X4119699Y-14134378D01*
X4267108Y-14017429D01*
X4345312Y-13852123D01*
X4359392Y-13723327D01*
X4324671Y-13542768D01*
X4230189Y-13404679D01*
X4093534Y-13317100D01*
X3932295Y-13288072D01*
X3764061Y-13325634D01*
X3648535Y-13398375D01*
X3557462Y-13497407D01*
X3499091Y-13601412D01*
X3495244Y-13614304D01*
X3489378Y-13787102D01*
X2946762Y-13787102D01*
X2939244Y-13650767D01*
X2978708Y-13449508D01*
X3093547Y-13190747D01*
X3265056Y-12991401D01*
X3478461Y-12852543D01*
X3747791Y-12759823D01*
X4014630Y-12742802D01*
X4267301Y-12794500D01*
X4267301Y-12794500D01*
G37*
X4267301Y-12794500D02*
X4494130Y-12907940D01*
X4683441Y-13076144D01*
X4823559Y-13292133D01*
X4902810Y-13548929D01*
X4916278Y-13711911D01*
X4880069Y-14004472D01*
X4772065Y-14260303D01*
X4597615Y-14470238D01*
X4391939Y-14610472D01*
X4220933Y-14672681D01*
X4019669Y-14709755D01*
X3824555Y-14717359D01*
X3682725Y-14694912D01*
X3413076Y-14568368D01*
X3197426Y-14389223D01*
X3042252Y-14168935D01*
X2954032Y-13918963D01*
X2946762Y-13787102D01*
X3489378Y-13787102D01*
X3549666Y-13943146D01*
X3659902Y-14068939D01*
X3803883Y-14150987D01*
X3965404Y-14175795D01*
X4119699Y-14134378D01*
X4267108Y-14017429D01*
X4345312Y-13852123D01*
X4359392Y-13723327D01*
X4324671Y-13542768D01*
X4230189Y-13404679D01*
X4093534Y-13317100D01*
X3932295Y-13288072D01*
X3764061Y-13325634D01*
X3648535Y-13398375D01*
X3557462Y-13497407D01*
X3499091Y-13601412D01*
X3495244Y-13614304D01*
X3489378Y-13787102D01*
X2946762Y-13787102D01*
X2939244Y-13650767D01*
X2978708Y-13449508D01*
X3093547Y-13190747D01*
X3265056Y-12991401D01*
X3478461Y-12852543D01*
X3747791Y-12759823D01*
X4014630Y-12742802D01*
X4267301Y-12794500D01*
G36*
X-5796614Y-12756189D02*
X-5534219Y-12873957D01*
X-5324769Y-13053989D01*
X-5176267Y-13286798D01*
X-5096716Y-13562892D01*
X-5093124Y-13590284D01*
X-5100141Y-13870828D01*
X-5182935Y-14133623D01*
X-5333113Y-14363260D01*
X-5542281Y-14544331D01*
X-5643813Y-14601278D01*
X-5865228Y-14669901D01*
X-6117978Y-14688293D01*
X-6364970Y-14656082D01*
X-6500530Y-14609820D01*
X-6726208Y-14463788D01*
X-6898564Y-14263893D01*
X-7012319Y-14025988D01*
X-7062192Y-13765928D01*
X-7055713Y-13676437D01*
X-6519334Y-13676437D01*
X-6493329Y-13829360D01*
X-6426806Y-13976162D01*
X-6337004Y-14081079D01*
X-6318251Y-14093608D01*
X-6205842Y-14127372D01*
X-6055765Y-14136360D01*
X-5911375Y-14120380D01*
X-5839656Y-14095745D01*
X-5762521Y-14027681D01*
X-5694272Y-13928514D01*
X-5633896Y-13739071D01*
X-5656887Y-13563445D01*
X-5753861Y-13409751D01*
X-5847005Y-13320825D01*
X-5941004Y-13280732D01*
X-6074834Y-13271500D01*
X-6210399Y-13281084D01*
X-6304054Y-13321819D01*
X-6395806Y-13409751D01*
X-6493114Y-13558859D01*
X-6519334Y-13676437D01*
X-7055713Y-13676437D01*
X-7042905Y-13499566D01*
X-6953250Y-13250413D01*
X-6786316Y-13017464D01*
X-6570399Y-12846878D01*
X-6318915Y-12744389D01*
X-6045280Y-12715729D01*
X-5796614Y-12756189D01*
X-5796614Y-12756189D01*
G37*
X-5796614Y-12756189D02*
X-5534219Y-12873957D01*
X-5324769Y-13053989D01*
X-5176267Y-13286798D01*
X-5096716Y-13562892D01*
X-5093124Y-13590284D01*
X-5100141Y-13870828D01*
X-5182935Y-14133623D01*
X-5333113Y-14363260D01*
X-5542281Y-14544331D01*
X-5643813Y-14601278D01*
X-5865228Y-14669901D01*
X-6117978Y-14688293D01*
X-6364970Y-14656082D01*
X-6500530Y-14609820D01*
X-6726208Y-14463788D01*
X-6898564Y-14263893D01*
X-7012319Y-14025988D01*
X-7062192Y-13765928D01*
X-7055713Y-13676437D01*
X-6519334Y-13676437D01*
X-6493329Y-13829360D01*
X-6426806Y-13976162D01*
X-6337004Y-14081079D01*
X-6318251Y-14093608D01*
X-6205842Y-14127372D01*
X-6055765Y-14136360D01*
X-5911375Y-14120380D01*
X-5839656Y-14095745D01*
X-5762521Y-14027681D01*
X-5694272Y-13928514D01*
X-5633896Y-13739071D01*
X-5656887Y-13563445D01*
X-5753861Y-13409751D01*
X-5847005Y-13320825D01*
X-5941004Y-13280732D01*
X-6074834Y-13271500D01*
X-6210399Y-13281084D01*
X-6304054Y-13321819D01*
X-6395806Y-13409751D01*
X-6493114Y-13558859D01*
X-6519334Y-13676437D01*
X-7055713Y-13676437D01*
X-7042905Y-13499566D01*
X-6953250Y-13250413D01*
X-6786316Y-13017464D01*
X-6570399Y-12846878D01*
X-6318915Y-12744389D01*
X-6045280Y-12715729D01*
X-5796614Y-12756189D01*
G36*
X6278800Y9482150D02*
X6287811Y9477303D01*
X6335861Y9442601D01*
X6445645Y9360671D01*
X6611634Y9235708D01*
X6828301Y9071905D01*
X7090117Y8873457D01*
X7391553Y8644558D01*
X7727081Y8389402D01*
X8091173Y8112183D01*
X8478299Y7817095D01*
X8841421Y7540023D01*
X11303000Y5660880D01*
X11301802Y3708857D01*
X11300604Y1756833D01*
X10243468Y469382D01*
X9186333Y-818069D01*
X9186333Y-13716000D01*
X7545916Y-13713388D01*
X5905500Y-13710776D01*
X5133270Y-12873056D01*
X4361041Y-12035337D01*
X4047994Y-12055427D01*
X3876271Y-12062828D01*
X3754856Y-12054082D01*
X3649962Y-12022837D01*
X3527799Y-11962740D01*
X3513383Y-11954927D01*
X3280000Y-11785873D01*
X3113164Y-11577540D01*
X3012574Y-11342599D01*
X2981093Y-11116491D01*
X3527592Y-11116491D01*
X3535545Y-11179241D01*
X3607611Y-11328157D01*
X3735691Y-11438663D01*
X3896408Y-11501770D01*
X4066386Y-11508490D01*
X4222247Y-11449836D01*
X4228385Y-11445634D01*
X4353715Y-11313396D01*
X4411904Y-11154136D01*
X4406221Y-10987854D01*
X4339934Y-10834552D01*
X4216312Y-10714228D01*
X4100192Y-10661159D01*
X3971814Y-10633783D01*
X3866696Y-10648330D01*
X3785025Y-10682457D01*
X3647186Y-10790125D01*
X3556521Y-10944469D01*
X3527592Y-11116491D01*
X2981093Y-11116491D01*
X2977923Y-11093726D01*
X3008910Y-10843594D01*
X3105230Y-10604878D01*
X3266579Y-10390250D01*
X3492653Y-10212385D01*
X3556000Y-10176842D01*
X3741371Y-10116676D01*
X3966448Y-10096941D01*
X4196861Y-10117062D01*
X4398241Y-10176463D01*
X4429091Y-10191459D01*
X4650820Y-10351975D01*
X4818555Y-10562951D01*
X4926365Y-10807873D01*
X4968320Y-11070223D01*
X4938492Y-11333488D01*
X4889211Y-11472973D01*
X4813327Y-11641253D01*
X5020747Y-11863898D01*
X5122696Y-11973395D01*
X5266598Y-12128034D01*
X5436759Y-12310948D01*
X5617486Y-12505267D01*
X5710166Y-12604938D01*
X6192166Y-13123333D01*
X8593666Y-13123333D01*
X8593666Y-591411D01*
X9652000Y696824D01*
X10710333Y1985059D01*
X10710333Y5357395D01*
X8477250Y7059208D01*
X8095122Y7349976D01*
X7732385Y7625123D01*
X7394700Y7880410D01*
X7087731Y8111594D01*
X6817142Y8314437D01*
X6588596Y8484698D01*
X6407757Y8618136D01*
X6280289Y8710511D01*
X6211854Y8757582D01*
X6201833Y8762854D01*
X6161245Y8739046D01*
X6057638Y8669647D01*
X5896636Y8558624D01*
X5683863Y8409949D01*
X5424944Y8227591D01*
X5125504Y8015521D01*
X4791166Y7777707D01*
X4427557Y7518120D01*
X4040299Y7240729D01*
X3759095Y7038760D01*
X1358691Y5312833D01*
X1355303Y3323167D01*
X1351914Y1333500D01*
X-2622846Y-2222500D01*
X-2624686Y-2476500D01*
X-2664172Y-2763826D01*
X-2770819Y-3011866D01*
X-2933537Y-3213660D01*
X-3141233Y-3362247D01*
X-3382817Y-3450665D01*
X-3647197Y-3471954D01*
X-3923281Y-3419152D01*
X-4047788Y-3369642D01*
X-4280707Y-3217528D01*
X-4455412Y-3012419D01*
X-4566001Y-2767892D01*
X-4606567Y-2497528D01*
X-4604798Y-2483383D01*
X-4042834Y-2483383D01*
X-4032014Y-2618144D01*
X-3986761Y-2713224D01*
X-3904583Y-2797472D01*
X-3736395Y-2900857D01*
X-3561145Y-2925381D01*
X-3393283Y-2871051D01*
X-3298744Y-2797256D01*
X-3199834Y-2648127D01*
X-3170708Y-2485589D01*
X-3202482Y-2326632D01*
X-3286271Y-2188244D01*
X-3413194Y-2087413D01*
X-3574365Y-2041127D01*
X-3690627Y-2047833D01*
X-3867313Y-2118380D01*
X-3986179Y-2247999D01*
X-4040249Y-2428065D01*
X-4042834Y-2483383D01*
X-4604798Y-2483383D01*
X-4571208Y-2214906D01*
X-4562852Y-2185078D01*
X-4476862Y-2008762D01*
X-4333758Y-1830346D01*
X-4157279Y-1672842D01*
X-3971168Y-1559263D01*
X-3883479Y-1526568D01*
X-3610996Y-1491268D01*
X-3337640Y-1529601D01*
X-3133273Y-1613412D01*
X-2997963Y-1671102D01*
X-2911867Y-1666526D01*
X-2869745Y-1632099D01*
X-2770595Y-1546168D01*
X-2620263Y-1413933D01*
X-2424595Y-1240594D01*
X-2189438Y-1031349D01*
X-1920637Y-791398D01*
X-1624040Y-525941D01*
X-1305492Y-240177D01*
X-1065699Y-24656D01*
X718854Y1580521D01*
X729843Y3590325D01*
X740833Y5600129D01*
X3468306Y7567785D01*
X3966088Y7926755D01*
X4399880Y8239147D01*
X4774256Y8508059D01*
X5093788Y8736587D01*
X5363050Y8927829D01*
X5586615Y9084882D01*
X5769055Y9210843D01*
X5914944Y9308809D01*
X6028856Y9381877D01*
X6115362Y9433144D01*
X6179037Y9465708D01*
X6224452Y9482666D01*
X6256183Y9487114D01*
X6278800Y9482150D01*
X6278800Y9482150D01*
G37*
X6278800Y9482150D02*
X6287811Y9477303D01*
X6335861Y9442601D01*
X6445645Y9360671D01*
X6611634Y9235708D01*
X6828301Y9071905D01*
X7090117Y8873457D01*
X7391553Y8644558D01*
X7727081Y8389402D01*
X8091173Y8112183D01*
X8478299Y7817095D01*
X8841421Y7540023D01*
X11303000Y5660880D01*
X11301802Y3708857D01*
X11300604Y1756833D01*
X10243468Y469382D01*
X9186333Y-818069D01*
X9186333Y-13716000D01*
X7545916Y-13713388D01*
X5905500Y-13710776D01*
X5133270Y-12873056D01*
X4361041Y-12035337D01*
X4047994Y-12055427D01*
X3876271Y-12062828D01*
X3754856Y-12054082D01*
X3649962Y-12022837D01*
X3527799Y-11962740D01*
X3513383Y-11954927D01*
X3280000Y-11785873D01*
X3113164Y-11577540D01*
X3012574Y-11342599D01*
X2981093Y-11116491D01*
X3527592Y-11116491D01*
X3535545Y-11179241D01*
X3607611Y-11328157D01*
X3735691Y-11438663D01*
X3896408Y-11501770D01*
X4066386Y-11508490D01*
X4222247Y-11449836D01*
X4228385Y-11445634D01*
X4353715Y-11313396D01*
X4411904Y-11154136D01*
X4406221Y-10987854D01*
X4339934Y-10834552D01*
X4216312Y-10714228D01*
X4100192Y-10661159D01*
X3971814Y-10633783D01*
X3866696Y-10648330D01*
X3785025Y-10682457D01*
X3647186Y-10790125D01*
X3556521Y-10944469D01*
X3527592Y-11116491D01*
X2981093Y-11116491D01*
X2977923Y-11093726D01*
X3008910Y-10843594D01*
X3105230Y-10604878D01*
X3266579Y-10390250D01*
X3492653Y-10212385D01*
X3556000Y-10176842D01*
X3741371Y-10116676D01*
X3966448Y-10096941D01*
X4196861Y-10117062D01*
X4398241Y-10176463D01*
X4429091Y-10191459D01*
X4650820Y-10351975D01*
X4818555Y-10562951D01*
X4926365Y-10807873D01*
X4968320Y-11070223D01*
X4938492Y-11333488D01*
X4889211Y-11472973D01*
X4813327Y-11641253D01*
X5020747Y-11863898D01*
X5122696Y-11973395D01*
X5266598Y-12128034D01*
X5436759Y-12310948D01*
X5617486Y-12505267D01*
X5710166Y-12604938D01*
X6192166Y-13123333D01*
X8593666Y-13123333D01*
X8593666Y-591411D01*
X9652000Y696824D01*
X10710333Y1985059D01*
X10710333Y5357395D01*
X8477250Y7059208D01*
X8095122Y7349976D01*
X7732385Y7625123D01*
X7394700Y7880410D01*
X7087731Y8111594D01*
X6817142Y8314437D01*
X6588596Y8484698D01*
X6407757Y8618136D01*
X6280289Y8710511D01*
X6211854Y8757582D01*
X6201833Y8762854D01*
X6161245Y8739046D01*
X6057638Y8669647D01*
X5896636Y8558624D01*
X5683863Y8409949D01*
X5424944Y8227591D01*
X5125504Y8015521D01*
X4791166Y7777707D01*
X4427557Y7518120D01*
X4040299Y7240729D01*
X3759095Y7038760D01*
X1358691Y5312833D01*
X1355303Y3323167D01*
X1351914Y1333500D01*
X-2622846Y-2222500D01*
X-2624686Y-2476500D01*
X-2664172Y-2763826D01*
X-2770819Y-3011866D01*
X-2933537Y-3213660D01*
X-3141233Y-3362247D01*
X-3382817Y-3450665D01*
X-3647197Y-3471954D01*
X-3923281Y-3419152D01*
X-4047788Y-3369642D01*
X-4280707Y-3217528D01*
X-4455412Y-3012419D01*
X-4566001Y-2767892D01*
X-4606567Y-2497528D01*
X-4604798Y-2483383D01*
X-4042834Y-2483383D01*
X-4032014Y-2618144D01*
X-3986761Y-2713224D01*
X-3904583Y-2797472D01*
X-3736395Y-2900857D01*
X-3561145Y-2925381D01*
X-3393283Y-2871051D01*
X-3298744Y-2797256D01*
X-3199834Y-2648127D01*
X-3170708Y-2485589D01*
X-3202482Y-2326632D01*
X-3286271Y-2188244D01*
X-3413194Y-2087413D01*
X-3574365Y-2041127D01*
X-3690627Y-2047833D01*
X-3867313Y-2118380D01*
X-3986179Y-2247999D01*
X-4040249Y-2428065D01*
X-4042834Y-2483383D01*
X-4604798Y-2483383D01*
X-4571208Y-2214906D01*
X-4562852Y-2185078D01*
X-4476862Y-2008762D01*
X-4333758Y-1830346D01*
X-4157279Y-1672842D01*
X-3971168Y-1559263D01*
X-3883479Y-1526568D01*
X-3610996Y-1491268D01*
X-3337640Y-1529601D01*
X-3133273Y-1613412D01*
X-2997963Y-1671102D01*
X-2911867Y-1666526D01*
X-2869745Y-1632099D01*
X-2770595Y-1546168D01*
X-2620263Y-1413933D01*
X-2424595Y-1240594D01*
X-2189438Y-1031349D01*
X-1920637Y-791398D01*
X-1624040Y-525941D01*
X-1305492Y-240177D01*
X-1065699Y-24656D01*
X718854Y1580521D01*
X729843Y3590325D01*
X740833Y5600129D01*
X3468306Y7567785D01*
X3966088Y7926755D01*
X4399880Y8239147D01*
X4774256Y8508059D01*
X5093788Y8736587D01*
X5363050Y8927829D01*
X5586615Y9084882D01*
X5769055Y9210843D01*
X5914944Y9308809D01*
X6028856Y9381877D01*
X6115362Y9433144D01*
X6179037Y9465708D01*
X6224452Y9482666D01*
X6256183Y9487114D01*
X6278800Y9482150D01*
G36*
X-5849931Y-10117424D02*
X-5651500Y-10189241D01*
X-5415862Y-10357452D01*
X-5242862Y-10570191D01*
X-5135337Y-10813796D01*
X-5096123Y-11074605D01*
X-5128057Y-11338953D01*
X-5233974Y-11593178D01*
X-5331304Y-11731671D01*
X-5522022Y-11899123D01*
X-5759049Y-12011361D01*
X-6020734Y-12063670D01*
X-6285429Y-12051336D01*
X-6498167Y-11985797D01*
X-6740067Y-11832840D01*
X-6917343Y-11627318D01*
X-7026730Y-11375003D01*
X-7055035Y-11157853D01*
X-6517794Y-11157853D01*
X-6454164Y-11319169D01*
X-6395590Y-11390923D01*
X-6240112Y-11492866D01*
X-6066058Y-11517934D01*
X-5891317Y-11465661D01*
X-5804355Y-11406281D01*
X-5694697Y-11268582D01*
X-5652101Y-11112210D01*
X-5668759Y-10954232D01*
X-5736867Y-10811713D01*
X-5848619Y-10701719D01*
X-5996209Y-10641318D01*
X-6153249Y-10643466D01*
X-6324881Y-10714300D01*
X-6446971Y-10836353D01*
X-6513335Y-10990559D01*
X-6517794Y-11157853D01*
X-7055035Y-11157853D01*
X-7064966Y-11081668D01*
X-7062182Y-10988210D01*
X-7010986Y-10718324D01*
X-6891345Y-10492292D01*
X-6697889Y-10301478D01*
X-6588621Y-10226836D01*
X-6360743Y-10130208D01*
X-6104705Y-10093344D01*
X-5849931Y-10117424D01*
X-5849931Y-10117424D01*
G37*
X-5849931Y-10117424D02*
X-5651500Y-10189241D01*
X-5415862Y-10357452D01*
X-5242862Y-10570191D01*
X-5135337Y-10813796D01*
X-5096123Y-11074605D01*
X-5128057Y-11338953D01*
X-5233974Y-11593178D01*
X-5331304Y-11731671D01*
X-5522022Y-11899123D01*
X-5759049Y-12011361D01*
X-6020734Y-12063670D01*
X-6285429Y-12051336D01*
X-6498167Y-11985797D01*
X-6740067Y-11832840D01*
X-6917343Y-11627318D01*
X-7026730Y-11375003D01*
X-7055035Y-11157853D01*
X-6517794Y-11157853D01*
X-6454164Y-11319169D01*
X-6395590Y-11390923D01*
X-6240112Y-11492866D01*
X-6066058Y-11517934D01*
X-5891317Y-11465661D01*
X-5804355Y-11406281D01*
X-5694697Y-11268582D01*
X-5652101Y-11112210D01*
X-5668759Y-10954232D01*
X-5736867Y-10811713D01*
X-5848619Y-10701719D01*
X-5996209Y-10641318D01*
X-6153249Y-10643466D01*
X-6324881Y-10714300D01*
X-6446971Y-10836353D01*
X-6513335Y-10990559D01*
X-6517794Y-11157853D01*
X-7055035Y-11157853D01*
X-7064966Y-11081668D01*
X-7062182Y-10988210D01*
X-7010986Y-10718324D01*
X-6891345Y-10492292D01*
X-6697889Y-10301478D01*
X-6588621Y-10226836D01*
X-6360743Y-10130208D01*
X-6104705Y-10093344D01*
X-5849931Y-10117424D01*
G36*
X-3275830Y-10141821D02*
X-3042181Y-10257674D01*
X-2844664Y-10429611D01*
X-2694908Y-10648107D01*
X-2604545Y-10903640D01*
X-2582747Y-11117411D01*
X-2622288Y-11351297D01*
X-2729994Y-11581855D01*
X-2891220Y-11788136D01*
X-3091319Y-11949193D01*
X-3205391Y-12007915D01*
X-3385431Y-12052273D01*
X-3604151Y-12062050D01*
X-3823456Y-12038365D01*
X-4000500Y-11984573D01*
X-4233884Y-11835835D01*
X-4404976Y-11644042D01*
X-4515114Y-11421990D01*
X-4565639Y-11182476D01*
X-4562338Y-11078484D01*
X-4023843Y-11078484D01*
X-3995576Y-11241741D01*
X-3899175Y-11389666D01*
X-3897924Y-11390923D01*
X-3750166Y-11487352D01*
X-3578638Y-11522231D01*
X-3410286Y-11494619D01*
X-3280631Y-11412479D01*
X-3173229Y-11255300D01*
X-3138719Y-11087529D01*
X-3169924Y-10926092D01*
X-3259665Y-10787917D01*
X-3400765Y-10689929D01*
X-3586047Y-10649056D01*
X-3604482Y-10648757D01*
X-3774295Y-10685031D01*
X-3905756Y-10781298D01*
X-3991421Y-10918726D01*
X-4023843Y-11078484D01*
X-4562338Y-11078484D01*
X-4557888Y-10938296D01*
X-4493202Y-10702247D01*
X-4372920Y-10487126D01*
X-4198381Y-10305729D01*
X-3970923Y-10170854D01*
X-3805001Y-10116467D01*
X-3533980Y-10091578D01*
X-3275830Y-10141821D01*
X-3275830Y-10141821D01*
G37*
X-3275830Y-10141821D02*
X-3042181Y-10257674D01*
X-2844664Y-10429611D01*
X-2694908Y-10648107D01*
X-2604545Y-10903640D01*
X-2582747Y-11117411D01*
X-2622288Y-11351297D01*
X-2729994Y-11581855D01*
X-2891220Y-11788136D01*
X-3091319Y-11949193D01*
X-3205391Y-12007915D01*
X-3385431Y-12052273D01*
X-3604151Y-12062050D01*
X-3823456Y-12038365D01*
X-4000500Y-11984573D01*
X-4233884Y-11835835D01*
X-4404976Y-11644042D01*
X-4515114Y-11421990D01*
X-4565639Y-11182476D01*
X-4562338Y-11078484D01*
X-4023843Y-11078484D01*
X-3995576Y-11241741D01*
X-3899175Y-11389666D01*
X-3897924Y-11390923D01*
X-3750166Y-11487352D01*
X-3578638Y-11522231D01*
X-3410286Y-11494619D01*
X-3280631Y-11412479D01*
X-3173229Y-11255300D01*
X-3138719Y-11087529D01*
X-3169924Y-10926092D01*
X-3259665Y-10787917D01*
X-3400765Y-10689929D01*
X-3586047Y-10649056D01*
X-3604482Y-10648757D01*
X-3774295Y-10685031D01*
X-3905756Y-10781298D01*
X-3991421Y-10918726D01*
X-4023843Y-11078484D01*
X-4562338Y-11078484D01*
X-4557888Y-10938296D01*
X-4493202Y-10702247D01*
X-4372920Y-10487126D01*
X-4198381Y-10305729D01*
X-3970923Y-10170854D01*
X-3805001Y-10116467D01*
X-3533980Y-10091578D01*
X-3275830Y-10141821D01*
G36*
X-801197Y-10121355D02*
X-613834Y-10189439D01*
X-379416Y-10355424D01*
X-208546Y-10562365D01*
X-101624Y-10797056D01*
X-59048Y-11046291D01*
X-81219Y-11296865D01*
X-168535Y-11535572D01*
X-321397Y-11749208D01*
X-540203Y-11924566D01*
X-560972Y-11936777D01*
X-828460Y-12044751D01*
X-1104958Y-12069381D01*
X-1384213Y-12010603D01*
X-1529096Y-11946711D01*
X-1750869Y-11788209D01*
X-1910405Y-11586104D01*
X-2007761Y-11354137D01*
X-2042991Y-11106049D01*
X-2040007Y-11078200D01*
X-1498990Y-11078200D01*
X-1469545Y-11225726D01*
X-1391434Y-11354803D01*
X-1276037Y-11453405D01*
X-1134738Y-11509507D01*
X-978916Y-11511083D01*
X-819955Y-11446110D01*
X-768361Y-11407689D01*
X-647948Y-11260487D01*
X-609231Y-11091415D01*
X-650432Y-10908030D01*
X-753696Y-10756769D01*
X-899209Y-10666392D01*
X-1066754Y-10640631D01*
X-1236114Y-10683218D01*
X-1366352Y-10775897D01*
X-1468386Y-10924248D01*
X-1498990Y-11078200D01*
X-2040007Y-11078200D01*
X-2016153Y-10855579D01*
X-1927301Y-10616467D01*
X-1776491Y-10402454D01*
X-1563780Y-10227281D01*
X-1522024Y-10202664D01*
X-1301478Y-10121026D01*
X-1050198Y-10093762D01*
X-801197Y-10121355D01*
X-801197Y-10121355D01*
G37*
X-801197Y-10121355D02*
X-613834Y-10189439D01*
X-379416Y-10355424D01*
X-208546Y-10562365D01*
X-101624Y-10797056D01*
X-59048Y-11046291D01*
X-81219Y-11296865D01*
X-168535Y-11535572D01*
X-321397Y-11749208D01*
X-540203Y-11924566D01*
X-560972Y-11936777D01*
X-828460Y-12044751D01*
X-1104958Y-12069381D01*
X-1384213Y-12010603D01*
X-1529096Y-11946711D01*
X-1750869Y-11788209D01*
X-1910405Y-11586104D01*
X-2007761Y-11354137D01*
X-2042991Y-11106049D01*
X-2040007Y-11078200D01*
X-1498990Y-11078200D01*
X-1469545Y-11225726D01*
X-1391434Y-11354803D01*
X-1276037Y-11453405D01*
X-1134738Y-11509507D01*
X-978916Y-11511083D01*
X-819955Y-11446110D01*
X-768361Y-11407689D01*
X-647948Y-11260487D01*
X-609231Y-11091415D01*
X-650432Y-10908030D01*
X-753696Y-10756769D01*
X-899209Y-10666392D01*
X-1066754Y-10640631D01*
X-1236114Y-10683218D01*
X-1366352Y-10775897D01*
X-1468386Y-10924248D01*
X-1498990Y-11078200D01*
X-2040007Y-11078200D01*
X-2016153Y-10855579D01*
X-1927301Y-10616467D01*
X-1776491Y-10402454D01*
X-1563780Y-10227281D01*
X-1522024Y-10202664D01*
X-1301478Y-10121026D01*
X-1050198Y-10093762D01*
X-801197Y-10121355D01*
G36*
X1676337Y-10119234D02*
X1922396Y-10216940D01*
X2145647Y-10384619D01*
X2212945Y-10456645D01*
X2360275Y-10688266D01*
X2434167Y-10940717D01*
X2438162Y-11199573D01*
X2375798Y-11450408D01*
X2250617Y-11678797D01*
X2066157Y-11870316D01*
X1832276Y-12007915D01*
X1652235Y-12052273D01*
X1433516Y-12062050D01*
X1214211Y-12038365D01*
X1037166Y-11984573D01*
X800362Y-11831678D01*
X623223Y-11628085D01*
X510383Y-11387441D01*
X467854Y-11131677D01*
X1013312Y-11131677D01*
X1058326Y-11288113D01*
X1159915Y-11415003D01*
X1310235Y-11494969D01*
X1446660Y-11513725D01*
X1602080Y-11493397D01*
X1717750Y-11441531D01*
X1720128Y-11439642D01*
X1850881Y-11289210D01*
X1899926Y-11118824D01*
X1866132Y-10933744D01*
X1840783Y-10878281D01*
X1725287Y-10735433D01*
X1572815Y-10656705D01*
X1404231Y-10644388D01*
X1240397Y-10700769D01*
X1124385Y-10799687D01*
X1032717Y-10963075D01*
X1013312Y-11131677D01*
X467854Y-11131677D01*
X466476Y-11123390D01*
X496135Y-10849576D01*
X577218Y-10630101D01*
X734475Y-10399455D01*
X936538Y-10231611D01*
X1169885Y-10128003D01*
X1420993Y-10090066D01*
X1676337Y-10119234D01*
X1676337Y-10119234D01*
G37*
X1676337Y-10119234D02*
X1922396Y-10216940D01*
X2145647Y-10384619D01*
X2212945Y-10456645D01*
X2360275Y-10688266D01*
X2434167Y-10940717D01*
X2438162Y-11199573D01*
X2375798Y-11450408D01*
X2250617Y-11678797D01*
X2066157Y-11870316D01*
X1832276Y-12007915D01*
X1652235Y-12052273D01*
X1433516Y-12062050D01*
X1214211Y-12038365D01*
X1037166Y-11984573D01*
X800362Y-11831678D01*
X623223Y-11628085D01*
X510383Y-11387441D01*
X467854Y-11131677D01*
X1013312Y-11131677D01*
X1058326Y-11288113D01*
X1159915Y-11415003D01*
X1310235Y-11494969D01*
X1446660Y-11513725D01*
X1602080Y-11493397D01*
X1717750Y-11441531D01*
X1720128Y-11439642D01*
X1850881Y-11289210D01*
X1899926Y-11118824D01*
X1866132Y-10933744D01*
X1840783Y-10878281D01*
X1725287Y-10735433D01*
X1572815Y-10656705D01*
X1404231Y-10644388D01*
X1240397Y-10700769D01*
X1124385Y-10799687D01*
X1032717Y-10963075D01*
X1013312Y-11131677D01*
X467854Y-11131677D01*
X466476Y-11123390D01*
X496135Y-10849576D01*
X577218Y-10630101D01*
X734475Y-10399455D01*
X936538Y-10231611D01*
X1169885Y-10128003D01*
X1420993Y-10090066D01*
X1676337Y-10119234D01*
G36*
X-782764Y-5101612D02*
X-548023Y-5200838D01*
X-356857Y-5351651D01*
X-212012Y-5542134D01*
X-116235Y-5760372D01*
X-72272Y-5994447D01*
X-82870Y-6232444D01*
X-150776Y-6462447D01*
X-278736Y-6672539D01*
X-469496Y-6850805D01*
X-625761Y-6942667D01*
X-845425Y-7048500D01*
X-846046Y-7884583D01*
X-846667Y-8720667D01*
X6688666Y-8720667D01*
X6688666Y-10100658D01*
X6839635Y-10155249D01*
X7070266Y-10281214D01*
X7258360Y-10467532D01*
X7394858Y-10696829D01*
X7470702Y-10951731D01*
X7476833Y-11214863D01*
X7453877Y-11333408D01*
X7356094Y-11558239D01*
X7198865Y-11766569D01*
X7006019Y-11928942D01*
X6942666Y-11965374D01*
X6714921Y-12041588D01*
X6458478Y-12063880D01*
X6208685Y-12031469D01*
X6074833Y-11984573D01*
X5834945Y-11829519D01*
X5656204Y-11619435D01*
X5543916Y-11362934D01*
X5507410Y-11097838D01*
X6053666Y-11097838D01*
X6089508Y-11272511D01*
X6185125Y-11405705D01*
X6322652Y-11489714D01*
X6484225Y-11516829D01*
X6651978Y-11479344D01*
X6768645Y-11406281D01*
X6883763Y-11261381D01*
X6927313Y-11095374D01*
X6901690Y-10928359D01*
X6809290Y-10780432D01*
X6682807Y-10686137D01*
X6512000Y-10639413D01*
X6346640Y-10665330D01*
X6203867Y-10752672D01*
X6100819Y-10890224D01*
X6054634Y-11066770D01*
X6053666Y-11097838D01*
X5507410Y-11097838D01*
X5503387Y-11068626D01*
X5503333Y-11057018D01*
X5540524Y-10778609D01*
X5653200Y-10537397D01*
X5843019Y-10330147D01*
X5897583Y-10287078D01*
X6096000Y-10138990D01*
X6096000Y-9313333D01*
X-1481667Y-9313333D01*
X-1481667Y-8128000D01*
X-1483212Y-7728988D01*
X-1487824Y-7410518D01*
X-1495469Y-7173526D01*
X-1506113Y-7018950D01*
X-1519720Y-6947729D01*
X-1525115Y-6942667D01*
X-1575815Y-6914727D01*
X-1664260Y-6842010D01*
X-1755824Y-6755404D01*
X-1926477Y-6532588D01*
X-2023716Y-6290273D01*
X-2052545Y-6040574D01*
X-2051461Y-6032889D01*
X-1495036Y-6032889D01*
X-1478393Y-6190956D01*
X-1403006Y-6334904D01*
X-1264667Y-6446767D01*
X-1253581Y-6452408D01*
X-1126070Y-6505124D01*
X-1023937Y-6510868D01*
X-904063Y-6469808D01*
X-869777Y-6453918D01*
X-725204Y-6346824D01*
X-643546Y-6205825D01*
X-620758Y-6048836D01*
X-652795Y-5893768D01*
X-735612Y-5758534D01*
X-865166Y-5661048D01*
X-1037413Y-5619222D01*
X-1058334Y-5618788D01*
X-1234584Y-5653653D01*
X-1368923Y-5746270D01*
X-1457143Y-5878671D01*
X-1495036Y-6032889D01*
X-2051461Y-6032889D01*
X-2017966Y-5795611D01*
X-1924982Y-5567501D01*
X-1778595Y-5368361D01*
X-1583808Y-5210309D01*
X-1345623Y-5105463D01*
X-1069043Y-5065940D01*
X-1058334Y-5065889D01*
X-782764Y-5101612D01*
X-782764Y-5101612D01*
G37*
X-782764Y-5101612D02*
X-548023Y-5200838D01*
X-356857Y-5351651D01*
X-212012Y-5542134D01*
X-116235Y-5760372D01*
X-72272Y-5994447D01*
X-82870Y-6232444D01*
X-150776Y-6462447D01*
X-278736Y-6672539D01*
X-469496Y-6850805D01*
X-625761Y-6942667D01*
X-845425Y-7048500D01*
X-846046Y-7884583D01*
X-846667Y-8720667D01*
X6688666Y-8720667D01*
X6688666Y-10100658D01*
X6839635Y-10155249D01*
X7070266Y-10281214D01*
X7258360Y-10467532D01*
X7394858Y-10696829D01*
X7470702Y-10951731D01*
X7476833Y-11214863D01*
X7453877Y-11333408D01*
X7356094Y-11558239D01*
X7198865Y-11766569D01*
X7006019Y-11928942D01*
X6942666Y-11965374D01*
X6714921Y-12041588D01*
X6458478Y-12063880D01*
X6208685Y-12031469D01*
X6074833Y-11984573D01*
X5834945Y-11829519D01*
X5656204Y-11619435D01*
X5543916Y-11362934D01*
X5507410Y-11097838D01*
X6053666Y-11097838D01*
X6089508Y-11272511D01*
X6185125Y-11405705D01*
X6322652Y-11489714D01*
X6484225Y-11516829D01*
X6651978Y-11479344D01*
X6768645Y-11406281D01*
X6883763Y-11261381D01*
X6927313Y-11095374D01*
X6901690Y-10928359D01*
X6809290Y-10780432D01*
X6682807Y-10686137D01*
X6512000Y-10639413D01*
X6346640Y-10665330D01*
X6203867Y-10752672D01*
X6100819Y-10890224D01*
X6054634Y-11066770D01*
X6053666Y-11097838D01*
X5507410Y-11097838D01*
X5503387Y-11068626D01*
X5503333Y-11057018D01*
X5540524Y-10778609D01*
X5653200Y-10537397D01*
X5843019Y-10330147D01*
X5897583Y-10287078D01*
X6096000Y-10138990D01*
X6096000Y-9313333D01*
X-1481667Y-9313333D01*
X-1481667Y-8128000D01*
X-1483212Y-7728988D01*
X-1487824Y-7410518D01*
X-1495469Y-7173526D01*
X-1506113Y-7018950D01*
X-1519720Y-6947729D01*
X-1525115Y-6942667D01*
X-1575815Y-6914727D01*
X-1664260Y-6842010D01*
X-1755824Y-6755404D01*
X-1926477Y-6532588D01*
X-2023716Y-6290273D01*
X-2052545Y-6040574D01*
X-2051461Y-6032889D01*
X-1495036Y-6032889D01*
X-1478393Y-6190956D01*
X-1403006Y-6334904D01*
X-1264667Y-6446767D01*
X-1253581Y-6452408D01*
X-1126070Y-6505124D01*
X-1023937Y-6510868D01*
X-904063Y-6469808D01*
X-869777Y-6453918D01*
X-725204Y-6346824D01*
X-643546Y-6205825D01*
X-620758Y-6048836D01*
X-652795Y-5893768D01*
X-735612Y-5758534D01*
X-865166Y-5661048D01*
X-1037413Y-5619222D01*
X-1058334Y-5618788D01*
X-1234584Y-5653653D01*
X-1368923Y-5746270D01*
X-1457143Y-5878671D01*
X-1495036Y-6032889D01*
X-2051461Y-6032889D01*
X-2017966Y-5795611D01*
X-1924982Y-5567501D01*
X-1778595Y-5368361D01*
X-1583808Y-5210309D01*
X-1345623Y-5105463D01*
X-1069043Y-5065940D01*
X-1058334Y-5065889D01*
X-782764Y-5101612D01*
G36*
X4108874Y-1504496D02*
X4359238Y-1586033D01*
X4580943Y-1729275D01*
X4761381Y-1922777D01*
X4887944Y-2155095D01*
X4948026Y-2414781D01*
X4951141Y-2502578D01*
X4907170Y-2770168D01*
X4789407Y-3014838D01*
X4608424Y-3220822D01*
X4374792Y-3372353D01*
X4364861Y-3376897D01*
X4237761Y-3435057D01*
X4145737Y-3478787D01*
X4112020Y-3496623D01*
X4095378Y-3539792D01*
X4060687Y-3649064D01*
X4012667Y-3808992D01*
X3956034Y-4004129D01*
X3942602Y-4051257D01*
X3788663Y-4593167D01*
X-490356Y-4603950D01*
X-4769375Y-4614734D01*
X-5097308Y-4951716D01*
X-5425240Y-5288698D01*
X-5312552Y-5436440D01*
X-5170469Y-5685185D01*
X-5104257Y-5946911D01*
X-5109680Y-6208449D01*
X-5182502Y-6456635D01*
X-5318486Y-6678301D01*
X-5513398Y-6860281D01*
X-5763002Y-6989409D01*
X-5817934Y-7007382D01*
X-5990552Y-7051683D01*
X-6127446Y-7062419D01*
X-6270705Y-7039389D01*
X-6392334Y-7004618D01*
X-6651426Y-6883820D01*
X-6852602Y-6703985D01*
X-6990845Y-6472180D01*
X-7061135Y-6195477D01*
X-7068072Y-6072175D01*
X-6521681Y-6072175D01*
X-6480568Y-6243258D01*
X-6428820Y-6326651D01*
X-6291452Y-6458133D01*
X-6143327Y-6508397D01*
X-5972088Y-6480270D01*
X-5896107Y-6448538D01*
X-5750260Y-6338217D01*
X-5667066Y-6188070D01*
X-5649850Y-6018678D01*
X-5701939Y-5850620D01*
X-5782222Y-5743991D01*
X-5939546Y-5639408D01*
X-6115991Y-5616277D01*
X-6249207Y-5650877D01*
X-6400298Y-5754527D01*
X-6493024Y-5902112D01*
X-6521681Y-6072175D01*
X-7068072Y-6072175D01*
X-7069270Y-6050884D01*
X-7030498Y-5761526D01*
X-6919743Y-5510893D01*
X-6744009Y-5307225D01*
X-6510302Y-5158758D01*
X-6240630Y-5076290D01*
X-6146039Y-5058198D01*
X-6069434Y-5035574D01*
X-5998122Y-4998697D01*
X-5919410Y-4937848D01*
X-5820605Y-4843304D01*
X-5689014Y-4705346D01*
X-5524500Y-4527845D01*
X-5058834Y-4023695D01*
X-880916Y-4022681D01*
X-92882Y-4022084D01*
X611283Y-4020691D01*
X1232375Y-4018494D01*
X1771187Y-4015484D01*
X2228516Y-4011652D01*
X2605155Y-4006990D01*
X2901900Y-4001490D01*
X3119544Y-3995143D01*
X3258884Y-3987941D01*
X3320713Y-3979875D01*
X3324078Y-3977859D01*
X3349170Y-3916515D01*
X3387744Y-3800017D01*
X3426674Y-3669964D01*
X3502196Y-3405878D01*
X3311875Y-3240319D01*
X3119789Y-3028667D01*
X3005810Y-2791267D01*
X2968880Y-2545233D01*
X3512459Y-2545233D01*
X3565958Y-2704856D01*
X3637410Y-2797256D01*
X3793350Y-2900756D01*
X3965689Y-2925405D01*
X4139977Y-2871196D01*
X4243248Y-2797472D01*
X4351528Y-2652072D01*
X4389529Y-2488404D01*
X4362791Y-2325880D01*
X4276856Y-2183912D01*
X4137263Y-2081915D01*
X4029293Y-2047833D01*
X3850961Y-2050589D01*
X3701228Y-2118695D01*
X3588977Y-2235164D01*
X3523093Y-2383006D01*
X3512459Y-2545233D01*
X2968880Y-2545233D01*
X2964580Y-2516590D01*
X2964263Y-2492253D01*
X3001701Y-2203010D01*
X3110747Y-1950039D01*
X3282934Y-1742942D01*
X3509794Y-1591323D01*
X3782863Y-1504786D01*
X3842460Y-1496111D01*
X4108874Y-1504496D01*
X4108874Y-1504496D01*
G37*
X4108874Y-1504496D02*
X4359238Y-1586033D01*
X4580943Y-1729275D01*
X4761381Y-1922777D01*
X4887944Y-2155095D01*
X4948026Y-2414781D01*
X4951141Y-2502578D01*
X4907170Y-2770168D01*
X4789407Y-3014838D01*
X4608424Y-3220822D01*
X4374792Y-3372353D01*
X4364861Y-3376897D01*
X4237761Y-3435057D01*
X4145737Y-3478787D01*
X4112020Y-3496623D01*
X4095378Y-3539792D01*
X4060687Y-3649064D01*
X4012667Y-3808992D01*
X3956034Y-4004129D01*
X3942602Y-4051257D01*
X3788663Y-4593167D01*
X-490356Y-4603950D01*
X-4769375Y-4614734D01*
X-5097308Y-4951716D01*
X-5425240Y-5288698D01*
X-5312552Y-5436440D01*
X-5170469Y-5685185D01*
X-5104257Y-5946911D01*
X-5109680Y-6208449D01*
X-5182502Y-6456635D01*
X-5318486Y-6678301D01*
X-5513398Y-6860281D01*
X-5763002Y-6989409D01*
X-5817934Y-7007382D01*
X-5990552Y-7051683D01*
X-6127446Y-7062419D01*
X-6270705Y-7039389D01*
X-6392334Y-7004618D01*
X-6651426Y-6883820D01*
X-6852602Y-6703985D01*
X-6990845Y-6472180D01*
X-7061135Y-6195477D01*
X-7068072Y-6072175D01*
X-6521681Y-6072175D01*
X-6480568Y-6243258D01*
X-6428820Y-6326651D01*
X-6291452Y-6458133D01*
X-6143327Y-6508397D01*
X-5972088Y-6480270D01*
X-5896107Y-6448538D01*
X-5750260Y-6338217D01*
X-5667066Y-6188070D01*
X-5649850Y-6018678D01*
X-5701939Y-5850620D01*
X-5782222Y-5743991D01*
X-5939546Y-5639408D01*
X-6115991Y-5616277D01*
X-6249207Y-5650877D01*
X-6400298Y-5754527D01*
X-6493024Y-5902112D01*
X-6521681Y-6072175D01*
X-7068072Y-6072175D01*
X-7069270Y-6050884D01*
X-7030498Y-5761526D01*
X-6919743Y-5510893D01*
X-6744009Y-5307225D01*
X-6510302Y-5158758D01*
X-6240630Y-5076290D01*
X-6146039Y-5058198D01*
X-6069434Y-5035574D01*
X-5998122Y-4998697D01*
X-5919410Y-4937848D01*
X-5820605Y-4843304D01*
X-5689014Y-4705346D01*
X-5524500Y-4527845D01*
X-5058834Y-4023695D01*
X-880916Y-4022681D01*
X-92882Y-4022084D01*
X611283Y-4020691D01*
X1232375Y-4018494D01*
X1771187Y-4015484D01*
X2228516Y-4011652D01*
X2605155Y-4006990D01*
X2901900Y-4001490D01*
X3119544Y-3995143D01*
X3258884Y-3987941D01*
X3320713Y-3979875D01*
X3324078Y-3977859D01*
X3349170Y-3916515D01*
X3387744Y-3800017D01*
X3426674Y-3669964D01*
X3502196Y-3405878D01*
X3311875Y-3240319D01*
X3119789Y-3028667D01*
X3005810Y-2791267D01*
X2968880Y-2545233D01*
X3512459Y-2545233D01*
X3565958Y-2704856D01*
X3637410Y-2797256D01*
X3793350Y-2900756D01*
X3965689Y-2925405D01*
X4139977Y-2871196D01*
X4243248Y-2797472D01*
X4351528Y-2652072D01*
X4389529Y-2488404D01*
X4362791Y-2325880D01*
X4276856Y-2183912D01*
X4137263Y-2081915D01*
X4029293Y-2047833D01*
X3850961Y-2050589D01*
X3701228Y-2118695D01*
X3588977Y-2235164D01*
X3523093Y-2383006D01*
X3512459Y-2545233D01*
X2968880Y-2545233D01*
X2964580Y-2516590D01*
X2964263Y-2492253D01*
X3001701Y-2203010D01*
X3110747Y-1950039D01*
X3282934Y-1742942D01*
X3509794Y-1591323D01*
X3782863Y-1504786D01*
X3842460Y-1496111D01*
X4108874Y-1504496D01*
G36*
X-3307393Y-5104561D02*
X-3055638Y-5212583D01*
X-2848308Y-5392500D01*
X-2687197Y-5643174D01*
X-2683226Y-5651500D01*
X-2597342Y-5924225D01*
X-2594543Y-6195576D01*
X-2673594Y-6456578D01*
X-2826513Y-6690447D01*
X-3027523Y-6870077D01*
X-3264618Y-6992692D01*
X-3517080Y-7050945D01*
X-3764188Y-7037492D01*
X-3788834Y-7031658D01*
X-4053623Y-6926085D01*
X-4268643Y-6765479D01*
X-4429867Y-6562689D01*
X-4533269Y-6330565D01*
X-4574824Y-6081959D01*
X-4570936Y-6041622D01*
X-4023405Y-6041622D01*
X-4006030Y-6191668D01*
X-3930290Y-6329493D01*
X-3790380Y-6439928D01*
X-3751652Y-6458504D01*
X-3643661Y-6502184D01*
X-3568732Y-6512583D01*
X-3484454Y-6489782D01*
X-3409286Y-6459168D01*
X-3270004Y-6360019D01*
X-3170625Y-6211236D01*
X-3132825Y-6045283D01*
X-3132825Y-6045185D01*
X-3168875Y-5895579D01*
X-3260992Y-5756453D01*
X-3385836Y-5658885D01*
X-3437971Y-5638909D01*
X-3625350Y-5622559D01*
X-3783388Y-5669823D01*
X-3906279Y-5765532D01*
X-3988220Y-5894521D01*
X-4023405Y-6041622D01*
X-4570936Y-6041622D01*
X-4550505Y-5829720D01*
X-4456287Y-5586700D01*
X-4305272Y-5383207D01*
X-4080183Y-5199996D01*
X-3830360Y-5096648D01*
X-3601779Y-5069569D01*
X-3307393Y-5104561D01*
X-3307393Y-5104561D01*
G37*
X-3307393Y-5104561D02*
X-3055638Y-5212583D01*
X-2848308Y-5392500D01*
X-2687197Y-5643174D01*
X-2683226Y-5651500D01*
X-2597342Y-5924225D01*
X-2594543Y-6195576D01*
X-2673594Y-6456578D01*
X-2826513Y-6690447D01*
X-3027523Y-6870077D01*
X-3264618Y-6992692D01*
X-3517080Y-7050945D01*
X-3764188Y-7037492D01*
X-3788834Y-7031658D01*
X-4053623Y-6926085D01*
X-4268643Y-6765479D01*
X-4429867Y-6562689D01*
X-4533269Y-6330565D01*
X-4574824Y-6081959D01*
X-4570936Y-6041622D01*
X-4023405Y-6041622D01*
X-4006030Y-6191668D01*
X-3930290Y-6329493D01*
X-3790380Y-6439928D01*
X-3751652Y-6458504D01*
X-3643661Y-6502184D01*
X-3568732Y-6512583D01*
X-3484454Y-6489782D01*
X-3409286Y-6459168D01*
X-3270004Y-6360019D01*
X-3170625Y-6211236D01*
X-3132825Y-6045283D01*
X-3132825Y-6045185D01*
X-3168875Y-5895579D01*
X-3260992Y-5756453D01*
X-3385836Y-5658885D01*
X-3437971Y-5638909D01*
X-3625350Y-5622559D01*
X-3783388Y-5669823D01*
X-3906279Y-5765532D01*
X-3988220Y-5894521D01*
X-4023405Y-6041622D01*
X-4570936Y-6041622D01*
X-4550505Y-5829720D01*
X-4456287Y-5586700D01*
X-4305272Y-5383207D01*
X-4080183Y-5199996D01*
X-3830360Y-5096648D01*
X-3601779Y-5069569D01*
X-3307393Y-5104561D01*
G36*
X1675087Y-5095847D02*
X1914199Y-5184699D01*
X2128212Y-5335509D01*
X2303385Y-5548221D01*
X2328002Y-5589977D01*
X2404395Y-5793798D01*
X2435611Y-6030350D01*
X2420675Y-6266121D01*
X2358612Y-6467602D01*
X2353824Y-6477000D01*
X2184125Y-6720449D01*
X1968698Y-6900872D01*
X1719501Y-7012784D01*
X1448493Y-7050702D01*
X1183377Y-7013654D01*
X928868Y-6902631D01*
X724320Y-6732926D01*
X575371Y-6517997D01*
X487658Y-6271301D01*
X470546Y-6053667D01*
X1016000Y-6053667D01*
X1053975Y-6239799D01*
X1164390Y-6384417D01*
X1286014Y-6458504D01*
X1394006Y-6502184D01*
X1468935Y-6512583D01*
X1553212Y-6489782D01*
X1628381Y-6459168D01*
X1767662Y-6360019D01*
X1867042Y-6211236D01*
X1904841Y-6045283D01*
X1904841Y-6045185D01*
X1866426Y-5887859D01*
X1766547Y-5746655D01*
X1627497Y-5650087D01*
X1583966Y-5634760D01*
X1394528Y-5620109D01*
X1227778Y-5676133D01*
X1099850Y-5790932D01*
X1026877Y-5952606D01*
X1016000Y-6053667D01*
X470546Y-6053667D01*
X466820Y-6006293D01*
X518493Y-5736431D01*
X583955Y-5582904D01*
X742457Y-5361132D01*
X944562Y-5201595D01*
X1176529Y-5104240D01*
X1424617Y-5069009D01*
X1675087Y-5095847D01*
X1675087Y-5095847D01*
G37*
X1675087Y-5095847D02*
X1914199Y-5184699D01*
X2128212Y-5335509D01*
X2303385Y-5548221D01*
X2328002Y-5589977D01*
X2404395Y-5793798D01*
X2435611Y-6030350D01*
X2420675Y-6266121D01*
X2358612Y-6467602D01*
X2353824Y-6477000D01*
X2184125Y-6720449D01*
X1968698Y-6900872D01*
X1719501Y-7012784D01*
X1448493Y-7050702D01*
X1183377Y-7013654D01*
X928868Y-6902631D01*
X724320Y-6732926D01*
X575371Y-6517997D01*
X487658Y-6271301D01*
X470546Y-6053667D01*
X1016000Y-6053667D01*
X1053975Y-6239799D01*
X1164390Y-6384417D01*
X1286014Y-6458504D01*
X1394006Y-6502184D01*
X1468935Y-6512583D01*
X1553212Y-6489782D01*
X1628381Y-6459168D01*
X1767662Y-6360019D01*
X1867042Y-6211236D01*
X1904841Y-6045283D01*
X1904841Y-6045185D01*
X1866426Y-5887859D01*
X1766547Y-5746655D01*
X1627497Y-5650087D01*
X1583966Y-5634760D01*
X1394528Y-5620109D01*
X1227778Y-5676133D01*
X1099850Y-5790932D01*
X1026877Y-5952606D01*
X1016000Y-6053667D01*
X470546Y-6053667D01*
X466820Y-6006293D01*
X518493Y-5736431D01*
X583955Y-5582904D01*
X742457Y-5361132D01*
X944562Y-5201595D01*
X1176529Y-5104240D01*
X1424617Y-5069009D01*
X1675087Y-5095847D01*
G36*
X4190679Y-5090113D02*
X4415929Y-5168581D01*
X4616298Y-5298350D01*
X4779947Y-5476399D01*
X4895037Y-5699706D01*
X4949726Y-5965250D01*
X4952602Y-6044443D01*
X4943548Y-6211400D01*
X4919750Y-6365126D01*
X4895915Y-6446610D01*
X4756018Y-6676949D01*
X4558830Y-6858564D01*
X4321153Y-6983700D01*
X4059786Y-7044608D01*
X3791532Y-7033534D01*
X3683000Y-7006241D01*
X3418082Y-6881270D01*
X3211851Y-6698018D01*
X3069843Y-6464107D01*
X2997596Y-6187164D01*
X2990479Y-6070120D01*
X3532038Y-6070120D01*
X3569390Y-6237320D01*
X3671896Y-6379337D01*
X3772772Y-6448631D01*
X3955210Y-6500641D01*
X4126264Y-6469201D01*
X4280843Y-6355297D01*
X4286250Y-6349437D01*
X4382338Y-6189228D01*
X4404617Y-6017134D01*
X4357500Y-5853214D01*
X4245400Y-5717526D01*
X4132539Y-5650877D01*
X3948044Y-5614451D01*
X3776071Y-5660791D01*
X3665554Y-5743991D01*
X3563030Y-5898692D01*
X3532038Y-6070120D01*
X2990479Y-6070120D01*
X2989321Y-6051091D01*
X2996428Y-5872463D01*
X3026012Y-5736922D01*
X3087958Y-5603834D01*
X3105614Y-5573056D01*
X3277671Y-5349691D01*
X3484045Y-5192736D01*
X3712898Y-5099169D01*
X3952389Y-5065968D01*
X4190679Y-5090113D01*
X4190679Y-5090113D01*
G37*
X4190679Y-5090113D02*
X4415929Y-5168581D01*
X4616298Y-5298350D01*
X4779947Y-5476399D01*
X4895037Y-5699706D01*
X4949726Y-5965250D01*
X4952602Y-6044443D01*
X4943548Y-6211400D01*
X4919750Y-6365126D01*
X4895915Y-6446610D01*
X4756018Y-6676949D01*
X4558830Y-6858564D01*
X4321153Y-6983700D01*
X4059786Y-7044608D01*
X3791532Y-7033534D01*
X3683000Y-7006241D01*
X3418082Y-6881270D01*
X3211851Y-6698018D01*
X3069843Y-6464107D01*
X2997596Y-6187164D01*
X2990479Y-6070120D01*
X3532038Y-6070120D01*
X3569390Y-6237320D01*
X3671896Y-6379337D01*
X3772772Y-6448631D01*
X3955210Y-6500641D01*
X4126264Y-6469201D01*
X4280843Y-6355297D01*
X4286250Y-6349437D01*
X4382338Y-6189228D01*
X4404617Y-6017134D01*
X4357500Y-5853214D01*
X4245400Y-5717526D01*
X4132539Y-5650877D01*
X3948044Y-5614451D01*
X3776071Y-5660791D01*
X3665554Y-5743991D01*
X3563030Y-5898692D01*
X3532038Y-6070120D01*
X2990479Y-6070120D01*
X2989321Y-6051091D01*
X2996428Y-5872463D01*
X3026012Y-5736922D01*
X3087958Y-5603834D01*
X3105614Y-5573056D01*
X3277671Y-5349691D01*
X3484045Y-5192736D01*
X3712898Y-5099169D01*
X3952389Y-5065968D01*
X4190679Y-5090113D01*
G36*
X6751287Y-5101256D02*
X6988834Y-5203964D01*
X7199034Y-5371659D01*
X7350718Y-5573056D01*
X7420547Y-5710680D01*
X7455979Y-5842396D01*
X7466902Y-6008842D01*
X7467011Y-6051091D01*
X7428143Y-6345525D01*
X7317277Y-6598575D01*
X7139347Y-6803614D01*
X6899290Y-6954014D01*
X6755066Y-7007382D01*
X6608365Y-7047653D01*
X6498475Y-7062622D01*
X6388094Y-7052433D01*
X6239919Y-7017228D01*
X6210870Y-7009461D01*
X5949193Y-6898972D01*
X5742157Y-6727359D01*
X5595915Y-6502903D01*
X5516620Y-6233889D01*
X5504797Y-6072175D01*
X6051319Y-6072175D01*
X6092432Y-6243258D01*
X6144180Y-6326651D01*
X6281548Y-6458133D01*
X6429673Y-6508397D01*
X6600912Y-6480270D01*
X6676893Y-6448538D01*
X6822740Y-6338217D01*
X6905934Y-6188070D01*
X6923150Y-6018678D01*
X6871061Y-5850620D01*
X6790778Y-5743991D01*
X6633454Y-5639408D01*
X6457009Y-5616277D01*
X6323793Y-5650877D01*
X6172702Y-5754527D01*
X6079976Y-5902112D01*
X6051319Y-6072175D01*
X5504797Y-6072175D01*
X5503730Y-6057591D01*
X5512027Y-5877055D01*
X5543368Y-5737820D01*
X5608342Y-5597441D01*
X5626705Y-5564796D01*
X5798120Y-5341595D01*
X6009810Y-5183705D01*
X6248251Y-5091062D01*
X6499918Y-5063600D01*
X6751287Y-5101256D01*
X6751287Y-5101256D01*
G37*
X6751287Y-5101256D02*
X6988834Y-5203964D01*
X7199034Y-5371659D01*
X7350718Y-5573056D01*
X7420547Y-5710680D01*
X7455979Y-5842396D01*
X7466902Y-6008842D01*
X7467011Y-6051091D01*
X7428143Y-6345525D01*
X7317277Y-6598575D01*
X7139347Y-6803614D01*
X6899290Y-6954014D01*
X6755066Y-7007382D01*
X6608365Y-7047653D01*
X6498475Y-7062622D01*
X6388094Y-7052433D01*
X6239919Y-7017228D01*
X6210870Y-7009461D01*
X5949193Y-6898972D01*
X5742157Y-6727359D01*
X5595915Y-6502903D01*
X5516620Y-6233889D01*
X5504797Y-6072175D01*
X6051319Y-6072175D01*
X6092432Y-6243258D01*
X6144180Y-6326651D01*
X6281548Y-6458133D01*
X6429673Y-6508397D01*
X6600912Y-6480270D01*
X6676893Y-6448538D01*
X6822740Y-6338217D01*
X6905934Y-6188070D01*
X6923150Y-6018678D01*
X6871061Y-5850620D01*
X6790778Y-5743991D01*
X6633454Y-5639408D01*
X6457009Y-5616277D01*
X6323793Y-5650877D01*
X6172702Y-5754527D01*
X6079976Y-5902112D01*
X6051319Y-6072175D01*
X5504797Y-6072175D01*
X5503730Y-6057591D01*
X5512027Y-5877055D01*
X5543368Y-5737820D01*
X5608342Y-5597441D01*
X5626705Y-5564796D01*
X5798120Y-5341595D01*
X6009810Y-5183705D01*
X6248251Y-5091062D01*
X6499918Y-5063600D01*
X6751287Y-5101256D01*
G36*
X-8422148Y995936D02*
X-8244030Y945750D01*
X-8221564Y935043D01*
X-7982213Y768361D01*
X-7806260Y554917D01*
X-7698024Y307709D01*
X-7661824Y39735D01*
X-7701980Y-236004D01*
X-7772544Y-416205D01*
X-7928119Y-648591D01*
X-8133873Y-815107D01*
X-8365653Y-913735D01*
X-8541384Y-957373D01*
X-8686286Y-965400D01*
X-8845470Y-939639D01*
X-8868834Y-934082D01*
X-9133512Y-827665D01*
X-9356147Y-651871D01*
X-9526936Y-415607D01*
X-9589162Y-279327D01*
X-9643521Y-25037D01*
X-9639761Y22330D01*
X-9093855Y22330D01*
X-9040430Y-164737D01*
X-9035428Y-174631D01*
X-8921989Y-312863D01*
X-8770350Y-388261D01*
X-8601557Y-398477D01*
X-8436652Y-341163D01*
X-8329084Y-253437D01*
X-8232491Y-95042D01*
X-8208262Y71286D01*
X-8248680Y227912D01*
X-8346030Y357199D01*
X-8492593Y441513D01*
X-8643327Y464726D01*
X-8837815Y428997D01*
X-8983658Y333692D01*
X-9071967Y193305D01*
X-9093855Y22330D01*
X-9639761Y22330D01*
X-9622983Y233678D01*
X-9534807Y480774D01*
X-9386251Y700210D01*
X-9184573Y875940D01*
X-9028944Y958915D01*
X-8851511Y1003610D01*
X-8636943Y1015587D01*
X-8422148Y995936D01*
X-8422148Y995936D01*
G37*
X-8422148Y995936D02*
X-8244030Y945750D01*
X-8221564Y935043D01*
X-7982213Y768361D01*
X-7806260Y554917D01*
X-7698024Y307709D01*
X-7661824Y39735D01*
X-7701980Y-236004D01*
X-7772544Y-416205D01*
X-7928119Y-648591D01*
X-8133873Y-815107D01*
X-8365653Y-913735D01*
X-8541384Y-957373D01*
X-8686286Y-965400D01*
X-8845470Y-939639D01*
X-8868834Y-934082D01*
X-9133512Y-827665D01*
X-9356147Y-651871D01*
X-9526936Y-415607D01*
X-9589162Y-279327D01*
X-9643521Y-25037D01*
X-9639761Y22330D01*
X-9093855Y22330D01*
X-9040430Y-164737D01*
X-9035428Y-174631D01*
X-8921989Y-312863D01*
X-8770350Y-388261D01*
X-8601557Y-398477D01*
X-8436652Y-341163D01*
X-8329084Y-253437D01*
X-8232491Y-95042D01*
X-8208262Y71286D01*
X-8248680Y227912D01*
X-8346030Y357199D01*
X-8492593Y441513D01*
X-8643327Y464726D01*
X-8837815Y428997D01*
X-8983658Y333692D01*
X-9071967Y193305D01*
X-9093855Y22330D01*
X-9639761Y22330D01*
X-9622983Y233678D01*
X-9534807Y480774D01*
X-9386251Y700210D01*
X-9184573Y875940D01*
X-9028944Y958915D01*
X-8851511Y1003610D01*
X-8636943Y1015587D01*
X-8422148Y995936D01*
G36*
X-3319621Y978360D02*
X-3078304Y873151D01*
X-2881028Y711942D01*
X-2734764Y506301D01*
X-2646485Y267795D01*
X-2623161Y7992D01*
X-2671764Y-261540D01*
X-2734877Y-416205D01*
X-2890452Y-648591D01*
X-3096207Y-815107D01*
X-3327987Y-913735D01*
X-3503718Y-957373D01*
X-3648620Y-965400D01*
X-3807804Y-939639D01*
X-3831167Y-934082D01*
X-4101863Y-828184D01*
X-4319918Y-660046D01*
X-4478231Y-438805D01*
X-4569697Y-173600D01*
X-4588278Y22330D01*
X-4056188Y22330D01*
X-4002764Y-164737D01*
X-3997761Y-174631D01*
X-3884322Y-312863D01*
X-3732684Y-388261D01*
X-3563890Y-398477D01*
X-3398986Y-341163D01*
X-3291417Y-253437D01*
X-3194824Y-95042D01*
X-3170595Y71286D01*
X-3211014Y227912D01*
X-3308363Y357199D01*
X-3454927Y441513D01*
X-3605661Y464726D01*
X-3800148Y428997D01*
X-3945991Y333692D01*
X-4034301Y193305D01*
X-4056188Y22330D01*
X-4588278Y22330D01*
X-4590175Y42333D01*
X-4553080Y335445D01*
X-4446707Y584826D01*
X-4277944Y783714D01*
X-4053682Y925349D01*
X-3780811Y1002968D01*
X-3598007Y1016000D01*
X-3319621Y978360D01*
X-3319621Y978360D01*
G37*
X-3319621Y978360D02*
X-3078304Y873151D01*
X-2881028Y711942D01*
X-2734764Y506301D01*
X-2646485Y267795D01*
X-2623161Y7992D01*
X-2671764Y-261540D01*
X-2734877Y-416205D01*
X-2890452Y-648591D01*
X-3096207Y-815107D01*
X-3327987Y-913735D01*
X-3503718Y-957373D01*
X-3648620Y-965400D01*
X-3807804Y-939639D01*
X-3831167Y-934082D01*
X-4101863Y-828184D01*
X-4319918Y-660046D01*
X-4478231Y-438805D01*
X-4569697Y-173600D01*
X-4588278Y22330D01*
X-4056188Y22330D01*
X-4002764Y-164737D01*
X-3997761Y-174631D01*
X-3884322Y-312863D01*
X-3732684Y-388261D01*
X-3563890Y-398477D01*
X-3398986Y-341163D01*
X-3291417Y-253437D01*
X-3194824Y-95042D01*
X-3170595Y71286D01*
X-3211014Y227912D01*
X-3308363Y357199D01*
X-3454927Y441513D01*
X-3605661Y464726D01*
X-3800148Y428997D01*
X-3945991Y333692D01*
X-4034301Y193305D01*
X-4056188Y22330D01*
X-4588278Y22330D01*
X-4590175Y42333D01*
X-4553080Y335445D01*
X-4446707Y584826D01*
X-4277944Y783714D01*
X-4053682Y925349D01*
X-3780811Y1002968D01*
X-3598007Y1016000D01*
X-3319621Y978360D01*
G36*
X4235224Y979725D02*
X4489270Y875407D01*
X4691920Y709808D01*
X4836286Y489689D01*
X4915476Y221812D01*
X4928841Y42333D01*
X4904851Y-215619D01*
X4825116Y-430677D01*
X4678421Y-631958D01*
X4662417Y-649460D01*
X4456635Y-812505D01*
X4208536Y-916536D01*
X3941914Y-955345D01*
X3680563Y-922727D01*
X3650055Y-913514D01*
X3403969Y-793875D01*
X3208644Y-619378D01*
X3067584Y-404193D01*
X2984293Y-162488D01*
X2967228Y34432D01*
X3508169Y34432D01*
X3545219Y-133523D01*
X3604180Y-230651D01*
X3741217Y-361686D01*
X3890315Y-412287D01*
X4065343Y-385977D01*
X4126048Y-363168D01*
X4272255Y-261776D01*
X4365716Y-114974D01*
X4397237Y53663D01*
X4357627Y220561D01*
X4355378Y225033D01*
X4238428Y372442D01*
X4073122Y450646D01*
X3944326Y464726D01*
X3765325Y429548D01*
X3627067Y334050D01*
X3538400Y196317D01*
X3508169Y34432D01*
X2967228Y34432D01*
X2962276Y91570D01*
X3005036Y343813D01*
X3116077Y580071D01*
X3242469Y734506D01*
X3458609Y901458D01*
X3699930Y992740D01*
X3936673Y1016000D01*
X4235224Y979725D01*
X4235224Y979725D01*
G37*
X4235224Y979725D02*
X4489270Y875407D01*
X4691920Y709808D01*
X4836286Y489689D01*
X4915476Y221812D01*
X4928841Y42333D01*
X4904851Y-215619D01*
X4825116Y-430677D01*
X4678421Y-631958D01*
X4662417Y-649460D01*
X4456635Y-812505D01*
X4208536Y-916536D01*
X3941914Y-955345D01*
X3680563Y-922727D01*
X3650055Y-913514D01*
X3403969Y-793875D01*
X3208644Y-619378D01*
X3067584Y-404193D01*
X2984293Y-162488D01*
X2967228Y34432D01*
X3508169Y34432D01*
X3545219Y-133523D01*
X3604180Y-230651D01*
X3741217Y-361686D01*
X3890315Y-412287D01*
X4065343Y-385977D01*
X4126048Y-363168D01*
X4272255Y-261776D01*
X4365716Y-114974D01*
X4397237Y53663D01*
X4357627Y220561D01*
X4355378Y225033D01*
X4238428Y372442D01*
X4073122Y450646D01*
X3944326Y464726D01*
X3765325Y429548D01*
X3627067Y334050D01*
X3538400Y196317D01*
X3508169Y34432D01*
X2967228Y34432D01*
X2962276Y91570D01*
X3005036Y343813D01*
X3116077Y580071D01*
X3242469Y734506D01*
X3458609Y901458D01*
X3699930Y992740D01*
X3936673Y1016000D01*
X4235224Y979725D01*
G36*
X-5826474Y3486148D02*
X-5602532Y3375229D01*
X-5406389Y3199338D01*
X-5292890Y3037362D01*
X-5212214Y2874949D01*
X-5174391Y2725958D01*
X-5165994Y2561167D01*
X-5204161Y2267552D01*
X-5311129Y2014310D01*
X-5477557Y1809224D01*
X-5694102Y1660077D01*
X-5951423Y1574653D01*
X-6240178Y1560734D01*
X-6350000Y1574722D01*
X-6597609Y1658165D01*
X-6812101Y1808061D01*
X-6982320Y2009094D01*
X-7097106Y2245948D01*
X-7140207Y2476102D01*
X-6585552Y2476102D01*
X-6516623Y2306051D01*
X-6395145Y2185445D01*
X-6240612Y2120438D01*
X-6072522Y2117183D01*
X-5910370Y2181832D01*
X-5838744Y2240410D01*
X-5745034Y2386752D01*
X-5718085Y2553270D01*
X-5751805Y2718568D01*
X-5840102Y2861251D01*
X-5976883Y2959923D01*
X-6050426Y2983788D01*
X-6224025Y2983478D01*
X-6381468Y2916109D01*
X-6505592Y2797962D01*
X-6579237Y2645318D01*
X-6585552Y2476102D01*
X-7140207Y2476102D01*
X-7145302Y2503306D01*
X-7138241Y2656708D01*
X-7064439Y2929480D01*
X-6932253Y3155058D01*
X-6753994Y3330902D01*
X-6541975Y3454472D01*
X-6308508Y3523230D01*
X-6065904Y3534635D01*
X-5826474Y3486148D01*
X-5826474Y3486148D01*
G37*
X-5826474Y3486148D02*
X-5602532Y3375229D01*
X-5406389Y3199338D01*
X-5292890Y3037362D01*
X-5212214Y2874949D01*
X-5174391Y2725958D01*
X-5165994Y2561167D01*
X-5204161Y2267552D01*
X-5311129Y2014310D01*
X-5477557Y1809224D01*
X-5694102Y1660077D01*
X-5951423Y1574653D01*
X-6240178Y1560734D01*
X-6350000Y1574722D01*
X-6597609Y1658165D01*
X-6812101Y1808061D01*
X-6982320Y2009094D01*
X-7097106Y2245948D01*
X-7140207Y2476102D01*
X-6585552Y2476102D01*
X-6516623Y2306051D01*
X-6395145Y2185445D01*
X-6240612Y2120438D01*
X-6072522Y2117183D01*
X-5910370Y2181832D01*
X-5838744Y2240410D01*
X-5745034Y2386752D01*
X-5718085Y2553270D01*
X-5751805Y2718568D01*
X-5840102Y2861251D01*
X-5976883Y2959923D01*
X-6050426Y2983788D01*
X-6224025Y2983478D01*
X-6381468Y2916109D01*
X-6505592Y2797962D01*
X-6579237Y2645318D01*
X-6585552Y2476102D01*
X-7140207Y2476102D01*
X-7145302Y2503306D01*
X-7138241Y2656708D01*
X-7064439Y2929480D01*
X-6932253Y3155058D01*
X-6753994Y3330902D01*
X-6541975Y3454472D01*
X-6308508Y3523230D01*
X-6065904Y3534635D01*
X-5826474Y3486148D01*
G36*
X-3467204Y3529294D02*
X-3209276Y3458108D01*
X-2986968Y3327919D01*
X-2830375Y3161972D01*
X-2710075Y2942958D01*
X-2639105Y2699219D01*
X-2625597Y2542272D01*
X-2664865Y2257892D01*
X-2773542Y2010805D01*
X-2941496Y1809287D01*
X-3158595Y1661614D01*
X-3414710Y1576062D01*
X-3699708Y1560907D01*
X-3810000Y1574722D01*
X-4057609Y1658165D01*
X-4272101Y1808061D01*
X-4442320Y2009094D01*
X-4557106Y2245948D01*
X-4603961Y2496146D01*
X-4056960Y2496146D01*
X-4016712Y2357300D01*
X-3899763Y2209891D01*
X-3734457Y2131688D01*
X-3605661Y2117608D01*
X-3463507Y2131762D01*
X-3355943Y2188463D01*
X-3298744Y2240410D01*
X-3205034Y2386752D01*
X-3178085Y2553270D01*
X-3211805Y2718568D01*
X-3300102Y2861251D01*
X-3436883Y2959923D01*
X-3510426Y2983788D01*
X-3683441Y2984487D01*
X-3837980Y2919519D01*
X-3960664Y2805437D01*
X-4038116Y2658795D01*
X-4056960Y2496146D01*
X-4603961Y2496146D01*
X-4605302Y2503306D01*
X-4598241Y2656708D01*
X-4522666Y2930478D01*
X-4385027Y3159949D01*
X-4197992Y3339844D01*
X-3974231Y3464884D01*
X-3726412Y3529794D01*
X-3467204Y3529294D01*
X-3467204Y3529294D01*
G37*
X-3467204Y3529294D02*
X-3209276Y3458108D01*
X-2986968Y3327919D01*
X-2830375Y3161972D01*
X-2710075Y2942958D01*
X-2639105Y2699219D01*
X-2625597Y2542272D01*
X-2664865Y2257892D01*
X-2773542Y2010805D01*
X-2941496Y1809287D01*
X-3158595Y1661614D01*
X-3414710Y1576062D01*
X-3699708Y1560907D01*
X-3810000Y1574722D01*
X-4057609Y1658165D01*
X-4272101Y1808061D01*
X-4442320Y2009094D01*
X-4557106Y2245948D01*
X-4603961Y2496146D01*
X-4056960Y2496146D01*
X-4016712Y2357300D01*
X-3899763Y2209891D01*
X-3734457Y2131688D01*
X-3605661Y2117608D01*
X-3463507Y2131762D01*
X-3355943Y2188463D01*
X-3298744Y2240410D01*
X-3205034Y2386752D01*
X-3178085Y2553270D01*
X-3211805Y2718568D01*
X-3300102Y2861251D01*
X-3436883Y2959923D01*
X-3510426Y2983788D01*
X-3683441Y2984487D01*
X-3837980Y2919519D01*
X-3960664Y2805437D01*
X-4038116Y2658795D01*
X-4056960Y2496146D01*
X-4603961Y2496146D01*
X-4605302Y2503306D01*
X-4598241Y2656708D01*
X-4522666Y2930478D01*
X-4385027Y3159949D01*
X-4197992Y3339844D01*
X-3974231Y3464884D01*
X-3726412Y3529794D01*
X-3467204Y3529294D01*
G36*
X4120905Y3519981D02*
X4351626Y3448259D01*
X4560908Y3323101D01*
X4736527Y3146747D01*
X4866259Y2921440D01*
X4936906Y2656708D01*
X4934412Y2388376D01*
X4858757Y2140596D01*
X4720823Y1923694D01*
X4531498Y1748000D01*
X4301665Y1623839D01*
X4042209Y1561541D01*
X3788833Y1567421D01*
X3525112Y1645654D01*
X3304608Y1787335D01*
X3133716Y1979670D01*
X3018829Y2209869D01*
X2966340Y2465138D01*
X2968391Y2498800D01*
X3510904Y2498800D01*
X3556571Y2342530D01*
X3658668Y2215790D01*
X3809247Y2136070D01*
X3944326Y2117608D01*
X4099747Y2137937D01*
X4215417Y2189803D01*
X4217795Y2191691D01*
X4340773Y2337213D01*
X4393241Y2503306D01*
X4377672Y2670790D01*
X4296537Y2820485D01*
X4152311Y2933211D01*
X4120302Y2947902D01*
X3932026Y2989135D01*
X3763523Y2948179D01*
X3620644Y2829973D01*
X3529612Y2667111D01*
X3510904Y2498800D01*
X2968391Y2498800D01*
X2982644Y2732687D01*
X3073543Y2998539D01*
X3228104Y3227642D01*
X3422345Y3392095D01*
X3644041Y3494141D01*
X3880969Y3536022D01*
X4120905Y3519981D01*
X4120905Y3519981D01*
G37*
X4120905Y3519981D02*
X4351626Y3448259D01*
X4560908Y3323101D01*
X4736527Y3146747D01*
X4866259Y2921440D01*
X4936906Y2656708D01*
X4934412Y2388376D01*
X4858757Y2140596D01*
X4720823Y1923694D01*
X4531498Y1748000D01*
X4301665Y1623839D01*
X4042209Y1561541D01*
X3788833Y1567421D01*
X3525112Y1645654D01*
X3304608Y1787335D01*
X3133716Y1979670D01*
X3018829Y2209869D01*
X2966340Y2465138D01*
X2968391Y2498800D01*
X3510904Y2498800D01*
X3556571Y2342530D01*
X3658668Y2215790D01*
X3809247Y2136070D01*
X3944326Y2117608D01*
X4099747Y2137937D01*
X4215417Y2189803D01*
X4217795Y2191691D01*
X4340773Y2337213D01*
X4393241Y2503306D01*
X4377672Y2670790D01*
X4296537Y2820485D01*
X4152311Y2933211D01*
X4120302Y2947902D01*
X3932026Y2989135D01*
X3763523Y2948179D01*
X3620644Y2829973D01*
X3529612Y2667111D01*
X3510904Y2498800D01*
X2968391Y2498800D01*
X2982644Y2732687D01*
X3073543Y2998539D01*
X3228104Y3227642D01*
X3422345Y3392095D01*
X3644041Y3494141D01*
X3880969Y3536022D01*
X4120905Y3519981D01*
G36*
X9399100Y3464990D02*
X9631742Y3333012D01*
X9742417Y3231794D01*
X9892797Y3035506D01*
X9977478Y2830046D01*
X10007740Y2585762D01*
X10008270Y2532904D01*
X10000806Y2358265D01*
X9973219Y2228406D01*
X9915246Y2104012D01*
X9881496Y2047379D01*
X9771584Y1902133D01*
X9636326Y1765830D01*
X9573493Y1715968D01*
X9464727Y1647302D01*
X9361070Y1606537D01*
X9231637Y1585097D01*
X9066495Y1575194D01*
X8892286Y1571738D01*
X8770015Y1582400D01*
X8667257Y1614110D01*
X8551589Y1673802D01*
X8520128Y1691997D01*
X8308270Y1860290D01*
X8156073Y2073284D01*
X8064919Y2315621D01*
X8036188Y2571944D01*
X8042728Y2619485D01*
X8596103Y2619485D01*
X8600410Y2450816D01*
X8673364Y2291521D01*
X8717410Y2240410D01*
X8868842Y2141150D01*
X9041063Y2109336D01*
X9209311Y2145574D01*
X9326041Y2225587D01*
X9436742Y2386114D01*
X9464497Y2563568D01*
X9423090Y2727638D01*
X9326161Y2863886D01*
X9181940Y2957631D01*
X9019209Y2993663D01*
X8936904Y2984561D01*
X8770166Y2906076D01*
X8654627Y2777811D01*
X8596103Y2619485D01*
X8042728Y2619485D01*
X8071261Y2826898D01*
X8171520Y3065124D01*
X8338345Y3271267D01*
X8375217Y3303506D01*
X8611592Y3449048D01*
X8872228Y3523888D01*
X9140330Y3528909D01*
X9399100Y3464990D01*
X9399100Y3464990D01*
G37*
X9399100Y3464990D02*
X9631742Y3333012D01*
X9742417Y3231794D01*
X9892797Y3035506D01*
X9977478Y2830046D01*
X10007740Y2585762D01*
X10008270Y2532904D01*
X10000806Y2358265D01*
X9973219Y2228406D01*
X9915246Y2104012D01*
X9881496Y2047379D01*
X9771584Y1902133D01*
X9636326Y1765830D01*
X9573493Y1715968D01*
X9464727Y1647302D01*
X9361070Y1606537D01*
X9231637Y1585097D01*
X9066495Y1575194D01*
X8892286Y1571738D01*
X8770015Y1582400D01*
X8667257Y1614110D01*
X8551589Y1673802D01*
X8520128Y1691997D01*
X8308270Y1860290D01*
X8156073Y2073284D01*
X8064919Y2315621D01*
X8036188Y2571944D01*
X8042728Y2619485D01*
X8596103Y2619485D01*
X8600410Y2450816D01*
X8673364Y2291521D01*
X8717410Y2240410D01*
X8868842Y2141150D01*
X9041063Y2109336D01*
X9209311Y2145574D01*
X9326041Y2225587D01*
X9436742Y2386114D01*
X9464497Y2563568D01*
X9423090Y2727638D01*
X9326161Y2863886D01*
X9181940Y2957631D01*
X9019209Y2993663D01*
X8936904Y2984561D01*
X8770166Y2906076D01*
X8654627Y2777811D01*
X8596103Y2619485D01*
X8042728Y2619485D01*
X8071261Y2826898D01*
X8171520Y3065124D01*
X8338345Y3271267D01*
X8375217Y3303506D01*
X8611592Y3449048D01*
X8872228Y3523888D01*
X9140330Y3528909D01*
X9399100Y3464990D01*
G36*
X-3286074Y5991888D02*
X-3194437Y5953469D01*
X-2947228Y5797091D01*
X-2768660Y5591679D01*
X-2660774Y5340476D01*
X-2625597Y5049610D01*
X-2660565Y4767794D01*
X-2766458Y4528167D01*
X-2948254Y4319823D01*
X-2965400Y4304886D01*
X-3209269Y4147677D01*
X-3474410Y4070268D01*
X-3750494Y4073911D01*
X-4027193Y4159858D01*
X-4054303Y4172930D01*
X-4285350Y4332575D01*
X-4457696Y4544595D01*
X-4564691Y4794589D01*
X-4597611Y5051950D01*
X-4042834Y5051950D01*
X-4032014Y4917189D01*
X-3986761Y4822109D01*
X-3904583Y4737861D01*
X-3736395Y4634477D01*
X-3561145Y4609952D01*
X-3393283Y4664282D01*
X-3298744Y4738077D01*
X-3200618Y4888425D01*
X-3169853Y5058465D01*
X-3202434Y5226126D01*
X-3294347Y5369334D01*
X-3430359Y5461563D01*
X-3615491Y5498543D01*
X-3785844Y5461993D01*
X-3924795Y5363030D01*
X-4015721Y5212771D01*
X-4042834Y5051950D01*
X-4597611Y5051950D01*
X-4599684Y5068153D01*
X-4571624Y5293235D01*
X-4521928Y5444879D01*
X-4442081Y5579039D01*
X-4312937Y5727316D01*
X-4301518Y5739080D01*
X-4069335Y5927018D01*
X-3821410Y6032048D01*
X-3559679Y6053797D01*
X-3286074Y5991888D01*
X-3286074Y5991888D01*
G37*
X-3286074Y5991888D02*
X-3194437Y5953469D01*
X-2947228Y5797091D01*
X-2768660Y5591679D01*
X-2660774Y5340476D01*
X-2625597Y5049610D01*
X-2660565Y4767794D01*
X-2766458Y4528167D01*
X-2948254Y4319823D01*
X-2965400Y4304886D01*
X-3209269Y4147677D01*
X-3474410Y4070268D01*
X-3750494Y4073911D01*
X-4027193Y4159858D01*
X-4054303Y4172930D01*
X-4285350Y4332575D01*
X-4457696Y4544595D01*
X-4564691Y4794589D01*
X-4597611Y5051950D01*
X-4042834Y5051950D01*
X-4032014Y4917189D01*
X-3986761Y4822109D01*
X-3904583Y4737861D01*
X-3736395Y4634477D01*
X-3561145Y4609952D01*
X-3393283Y4664282D01*
X-3298744Y4738077D01*
X-3200618Y4888425D01*
X-3169853Y5058465D01*
X-3202434Y5226126D01*
X-3294347Y5369334D01*
X-3430359Y5461563D01*
X-3615491Y5498543D01*
X-3785844Y5461993D01*
X-3924795Y5363030D01*
X-4015721Y5212771D01*
X-4042834Y5051950D01*
X-4597611Y5051950D01*
X-4599684Y5068153D01*
X-4571624Y5293235D01*
X-4521928Y5444879D01*
X-4442081Y5579039D01*
X-4312937Y5727316D01*
X-4301518Y5739080D01*
X-4069335Y5927018D01*
X-3821410Y6032048D01*
X-3559679Y6053797D01*
X-3286074Y5991888D01*
G36*
X4243710Y6007455D02*
X4477077Y5901855D01*
X4678211Y5739852D01*
X4833253Y5525389D01*
X4915154Y5317334D01*
X4948137Y5048202D01*
X4907081Y4793234D01*
X4802494Y4562135D01*
X4644887Y4364605D01*
X4444768Y4210347D01*
X4212646Y4109065D01*
X3959032Y4070459D01*
X3694435Y4104233D01*
X3624897Y4126153D01*
X3378351Y4254398D01*
X3185867Y4435490D01*
X3050475Y4655439D01*
X2975208Y4900255D01*
X2966119Y5092115D01*
X3511608Y5092115D01*
X3537364Y4912347D01*
X3559216Y4857012D01*
X3664014Y4720813D01*
X3816721Y4640987D01*
X3996054Y4625113D01*
X4124724Y4655612D01*
X4266252Y4749451D01*
X4353134Y4889080D01*
X4382158Y5053039D01*
X4350113Y5219864D01*
X4253790Y5368095D01*
X4234135Y5386917D01*
X4076499Y5483852D01*
X3915830Y5508291D01*
X3765567Y5470785D01*
X3639149Y5381886D01*
X3550016Y5252145D01*
X3511608Y5092115D01*
X2966119Y5092115D01*
X2963095Y5155948D01*
X3017167Y5408528D01*
X3140457Y5644004D01*
X3265080Y5786938D01*
X3488793Y5946393D01*
X3735709Y6033669D01*
X3991967Y6052708D01*
X4243710Y6007455D01*
X4243710Y6007455D01*
G37*
X4243710Y6007455D02*
X4477077Y5901855D01*
X4678211Y5739852D01*
X4833253Y5525389D01*
X4915154Y5317334D01*
X4948137Y5048202D01*
X4907081Y4793234D01*
X4802494Y4562135D01*
X4644887Y4364605D01*
X4444768Y4210347D01*
X4212646Y4109065D01*
X3959032Y4070459D01*
X3694435Y4104233D01*
X3624897Y4126153D01*
X3378351Y4254398D01*
X3185867Y4435490D01*
X3050475Y4655439D01*
X2975208Y4900255D01*
X2966119Y5092115D01*
X3511608Y5092115D01*
X3537364Y4912347D01*
X3559216Y4857012D01*
X3664014Y4720813D01*
X3816721Y4640987D01*
X3996054Y4625113D01*
X4124724Y4655612D01*
X4266252Y4749451D01*
X4353134Y4889080D01*
X4382158Y5053039D01*
X4350113Y5219864D01*
X4253790Y5368095D01*
X4234135Y5386917D01*
X4076499Y5483852D01*
X3915830Y5508291D01*
X3765567Y5470785D01*
X3639149Y5381886D01*
X3550016Y5252145D01*
X3511608Y5092115D01*
X2966119Y5092115D01*
X2963095Y5155948D01*
X3017167Y5408528D01*
X3140457Y5644004D01*
X3265080Y5786938D01*
X3488793Y5946393D01*
X3735709Y6033669D01*
X3991967Y6052708D01*
X4243710Y6007455D01*
G36*
X6705587Y6030728D02*
X6942320Y5942740D01*
X7152514Y5795901D01*
X7323240Y5593561D01*
X7441569Y5339071D01*
X7457023Y5285244D01*
X7483198Y5028220D01*
X7435335Y4777313D01*
X7323788Y4545446D01*
X7158911Y4345542D01*
X6951059Y4190524D01*
X6710586Y4093316D01*
X6480042Y4065858D01*
X6336727Y4082284D01*
X6182646Y4120154D01*
X6161947Y4127167D01*
X5900822Y4259848D01*
X5702447Y4446668D01*
X5571334Y4681776D01*
X5511995Y4959324D01*
X5511202Y4970850D01*
X5513041Y5072673D01*
X6055013Y5072673D01*
X6072228Y4913450D01*
X6133132Y4797798D01*
X6255847Y4692251D01*
X6264169Y4686474D01*
X6421205Y4621354D01*
X6591283Y4637151D01*
X6690052Y4678550D01*
X6832900Y4794046D01*
X6911627Y4946518D01*
X6923945Y5115102D01*
X6867564Y5278936D01*
X6768645Y5394948D01*
X6605347Y5486588D01*
X6436834Y5506055D01*
X6280481Y5461196D01*
X6153659Y5359857D01*
X6073742Y5209883D01*
X6055013Y5072673D01*
X5513041Y5072673D01*
X5516040Y5238592D01*
X5573842Y5459037D01*
X5692331Y5656455D01*
X5751859Y5727150D01*
X5965451Y5908076D01*
X6204223Y6016747D01*
X6455245Y6056514D01*
X6705587Y6030728D01*
X6705587Y6030728D01*
G37*
X6705587Y6030728D02*
X6942320Y5942740D01*
X7152514Y5795901D01*
X7323240Y5593561D01*
X7441569Y5339071D01*
X7457023Y5285244D01*
X7483198Y5028220D01*
X7435335Y4777313D01*
X7323788Y4545446D01*
X7158911Y4345542D01*
X6951059Y4190524D01*
X6710586Y4093316D01*
X6480042Y4065858D01*
X6336727Y4082284D01*
X6182646Y4120154D01*
X6161947Y4127167D01*
X5900822Y4259848D01*
X5702447Y4446668D01*
X5571334Y4681776D01*
X5511995Y4959324D01*
X5511202Y4970850D01*
X5513041Y5072673D01*
X6055013Y5072673D01*
X6072228Y4913450D01*
X6133132Y4797798D01*
X6255847Y4692251D01*
X6264169Y4686474D01*
X6421205Y4621354D01*
X6591283Y4637151D01*
X6690052Y4678550D01*
X6832900Y4794046D01*
X6911627Y4946518D01*
X6923945Y5115102D01*
X6867564Y5278936D01*
X6768645Y5394948D01*
X6605347Y5486588D01*
X6436834Y5506055D01*
X6280481Y5461196D01*
X6153659Y5359857D01*
X6073742Y5209883D01*
X6055013Y5072673D01*
X5513041Y5072673D01*
X5516040Y5238592D01*
X5573842Y5459037D01*
X5692331Y5656455D01*
X5751859Y5727150D01*
X5965451Y5908076D01*
X6204223Y6016747D01*
X6455245Y6056514D01*
X6705587Y6030728D01*
G36*
X-8453208Y11063906D02*
X-8193794Y10973667D01*
X-7967623Y10818255D01*
X-7790844Y10607395D01*
X-7720538Y10471355D01*
X-7687306Y10348206D01*
X-7666235Y10186283D01*
X-7662334Y10090059D01*
X-7700171Y9812023D01*
X-7805766Y9569900D01*
X-7967247Y9370842D01*
X-8172740Y9222000D01*
X-8410373Y9130526D01*
X-8668271Y9103572D01*
X-8934561Y9148290D01*
X-9107416Y9219639D01*
X-9336466Y9379297D01*
X-9500063Y9577291D01*
X-9600685Y9801419D01*
X-9640811Y10039480D01*
X-9636557Y10096500D01*
X-9080500Y10096500D01*
X-9070916Y9960935D01*
X-9030181Y9867280D01*
X-8942249Y9775528D01*
X-8775651Y9674674D01*
X-8598341Y9654449D01*
X-8453301Y9699288D01*
X-8305203Y9817716D01*
X-8226737Y9983145D01*
X-8214550Y10096500D01*
X-8249966Y10280396D01*
X-8344654Y10420600D01*
X-8481277Y10509464D01*
X-8642496Y10539341D01*
X-8810973Y10502584D01*
X-8942249Y10417473D01*
X-9031176Y10324329D01*
X-9071268Y10230330D01*
X-9080500Y10096500D01*
X-9636557Y10096500D01*
X-9622918Y10279275D01*
X-9549485Y10508603D01*
X-9422989Y10715263D01*
X-9245908Y10887055D01*
X-9020722Y11011778D01*
X-8749907Y11077231D01*
X-8729713Y11079241D01*
X-8453208Y11063906D01*
X-8453208Y11063906D01*
G37*
X-8453208Y11063906D02*
X-8193794Y10973667D01*
X-7967623Y10818255D01*
X-7790844Y10607395D01*
X-7720538Y10471355D01*
X-7687306Y10348206D01*
X-7666235Y10186283D01*
X-7662334Y10090059D01*
X-7700171Y9812023D01*
X-7805766Y9569900D01*
X-7967247Y9370842D01*
X-8172740Y9222000D01*
X-8410373Y9130526D01*
X-8668271Y9103572D01*
X-8934561Y9148290D01*
X-9107416Y9219639D01*
X-9336466Y9379297D01*
X-9500063Y9577291D01*
X-9600685Y9801419D01*
X-9640811Y10039480D01*
X-9636557Y10096500D01*
X-9080500Y10096500D01*
X-9070916Y9960935D01*
X-9030181Y9867280D01*
X-8942249Y9775528D01*
X-8775651Y9674674D01*
X-8598341Y9654449D01*
X-8453301Y9699288D01*
X-8305203Y9817716D01*
X-8226737Y9983145D01*
X-8214550Y10096500D01*
X-8249966Y10280396D01*
X-8344654Y10420600D01*
X-8481277Y10509464D01*
X-8642496Y10539341D01*
X-8810973Y10502584D01*
X-8942249Y10417473D01*
X-9031176Y10324329D01*
X-9071268Y10230330D01*
X-9080500Y10096500D01*
X-9636557Y10096500D01*
X-9622918Y10279275D01*
X-9549485Y10508603D01*
X-9422989Y10715263D01*
X-9245908Y10887055D01*
X-9020722Y11011778D01*
X-8749907Y11077231D01*
X-8729713Y11079241D01*
X-8453208Y11063906D01*
G36*
X-5953317Y11064059D02*
X-5696551Y10973745D01*
X-5471575Y10819066D01*
X-5295095Y10610165D01*
X-5222871Y10471355D01*
X-5177891Y10289127D01*
X-5167810Y10068269D01*
X-5191598Y9846819D01*
X-5244513Y9670804D01*
X-5390546Y9445126D01*
X-5590441Y9272770D01*
X-5828346Y9159015D01*
X-6088406Y9109142D01*
X-6354768Y9128429D01*
X-6603921Y9218083D01*
X-6836870Y9385018D01*
X-7007455Y9600935D01*
X-7109945Y9852419D01*
X-7135509Y10096500D01*
X-6582834Y10096500D01*
X-6573249Y9960935D01*
X-6532514Y9867280D01*
X-6444583Y9775528D01*
X-6279617Y9674441D01*
X-6103152Y9656988D01*
X-5925820Y9715938D01*
X-5796338Y9813346D01*
X-5729938Y9948277D01*
X-5715000Y10096500D01*
X-5738641Y10275502D01*
X-5816740Y10401415D01*
X-5925820Y10477062D01*
X-6115263Y10537438D01*
X-6290889Y10514447D01*
X-6444583Y10417473D01*
X-6533509Y10324329D01*
X-6573601Y10230330D01*
X-6582834Y10096500D01*
X-7135509Y10096500D01*
X-7138605Y10126054D01*
X-7098144Y10374720D01*
X-6980673Y10638056D01*
X-6801801Y10846121D01*
X-6569017Y10992867D01*
X-6289808Y11072246D01*
X-6225165Y11079865D01*
X-5953317Y11064059D01*
X-5953317Y11064059D01*
G37*
X-5953317Y11064059D02*
X-5696551Y10973745D01*
X-5471575Y10819066D01*
X-5295095Y10610165D01*
X-5222871Y10471355D01*
X-5177891Y10289127D01*
X-5167810Y10068269D01*
X-5191598Y9846819D01*
X-5244513Y9670804D01*
X-5390546Y9445126D01*
X-5590441Y9272770D01*
X-5828346Y9159015D01*
X-6088406Y9109142D01*
X-6354768Y9128429D01*
X-6603921Y9218083D01*
X-6836870Y9385018D01*
X-7007455Y9600935D01*
X-7109945Y9852419D01*
X-7135509Y10096500D01*
X-6582834Y10096500D01*
X-6573249Y9960935D01*
X-6532514Y9867280D01*
X-6444583Y9775528D01*
X-6279617Y9674441D01*
X-6103152Y9656988D01*
X-5925820Y9715938D01*
X-5796338Y9813346D01*
X-5729938Y9948277D01*
X-5715000Y10096500D01*
X-5738641Y10275502D01*
X-5816740Y10401415D01*
X-5925820Y10477062D01*
X-6115263Y10537438D01*
X-6290889Y10514447D01*
X-6444583Y10417473D01*
X-6533509Y10324329D01*
X-6573601Y10230330D01*
X-6582834Y10096500D01*
X-7135509Y10096500D01*
X-7138605Y10126054D01*
X-7098144Y10374720D01*
X-6980673Y10638056D01*
X-6801801Y10846121D01*
X-6569017Y10992867D01*
X-6289808Y11072246D01*
X-6225165Y11079865D01*
X-5953317Y11064059D01*
G36*
X6705179Y13565241D02*
X6942003Y13477336D01*
X7152299Y13330712D01*
X7323104Y13128728D01*
X7441455Y12874744D01*
X7457023Y12820577D01*
X7483198Y12563554D01*
X7435335Y12312647D01*
X7323788Y12080779D01*
X7158911Y11880875D01*
X6951059Y11725857D01*
X6710586Y11628650D01*
X6480042Y11601192D01*
X6336727Y11617617D01*
X6182646Y11655487D01*
X6161947Y11662500D01*
X5900822Y11795182D01*
X5702447Y11982001D01*
X5571334Y12217109D01*
X5511995Y12494657D01*
X5511202Y12506184D01*
X5513041Y12608007D01*
X6055013Y12608007D01*
X6072228Y12448784D01*
X6133132Y12333131D01*
X6255847Y12227584D01*
X6264169Y12221807D01*
X6421205Y12156687D01*
X6591283Y12172485D01*
X6690052Y12213883D01*
X6832900Y12329380D01*
X6911627Y12481851D01*
X6923945Y12650435D01*
X6867564Y12814269D01*
X6768645Y12930282D01*
X6605347Y13021921D01*
X6436834Y13041388D01*
X6280481Y12996530D01*
X6153659Y12895191D01*
X6073742Y12745216D01*
X6055013Y12608007D01*
X5513041Y12608007D01*
X5516040Y12773925D01*
X5573842Y12994370D01*
X5692331Y13191789D01*
X5751859Y13262484D01*
X5965167Y13443048D01*
X6203799Y13551457D01*
X6454790Y13591068D01*
X6705179Y13565241D01*
X6705179Y13565241D01*
G37*
X6705179Y13565241D02*
X6942003Y13477336D01*
X7152299Y13330712D01*
X7323104Y13128728D01*
X7441455Y12874744D01*
X7457023Y12820577D01*
X7483198Y12563554D01*
X7435335Y12312647D01*
X7323788Y12080779D01*
X7158911Y11880875D01*
X6951059Y11725857D01*
X6710586Y11628650D01*
X6480042Y11601192D01*
X6336727Y11617617D01*
X6182646Y11655487D01*
X6161947Y11662500D01*
X5900822Y11795182D01*
X5702447Y11982001D01*
X5571334Y12217109D01*
X5511995Y12494657D01*
X5511202Y12506184D01*
X5513041Y12608007D01*
X6055013Y12608007D01*
X6072228Y12448784D01*
X6133132Y12333131D01*
X6255847Y12227584D01*
X6264169Y12221807D01*
X6421205Y12156687D01*
X6591283Y12172485D01*
X6690052Y12213883D01*
X6832900Y12329380D01*
X6911627Y12481851D01*
X6923945Y12650435D01*
X6867564Y12814269D01*
X6768645Y12930282D01*
X6605347Y13021921D01*
X6436834Y13041388D01*
X6280481Y12996530D01*
X6153659Y12895191D01*
X6073742Y12745216D01*
X6055013Y12608007D01*
X5513041Y12608007D01*
X5516040Y12773925D01*
X5573842Y12994370D01*
X5692331Y13191789D01*
X5751859Y13262484D01*
X5965167Y13443048D01*
X6203799Y13551457D01*
X6454790Y13591068D01*
X6705179Y13565241D01*
G36*
X9311404Y13544775D02*
X9478231Y13477448D01*
X9712852Y13316149D01*
X9884396Y13098947D01*
X9990088Y12829374D01*
X9991128Y12825075D01*
X10017447Y12552601D01*
X9970179Y12297043D01*
X9859881Y12067924D01*
X9697113Y11874764D01*
X9492434Y11727085D01*
X9256402Y11634410D01*
X8999577Y11606261D01*
X8732516Y11652159D01*
X8701947Y11662500D01*
X8440822Y11795182D01*
X8242447Y11982001D01*
X8111334Y12217109D01*
X8051995Y12494657D01*
X8051202Y12506184D01*
X8053041Y12608007D01*
X8594607Y12608007D01*
X8630268Y12414281D01*
X8725284Y12268423D01*
X8865017Y12179511D01*
X9034828Y12156624D01*
X9220077Y12208844D01*
X9230052Y12213883D01*
X9372900Y12329380D01*
X9451627Y12481851D01*
X9463945Y12650435D01*
X9407564Y12814269D01*
X9308645Y12930282D01*
X9145257Y13021949D01*
X8976656Y13041354D01*
X8820220Y12996340D01*
X8693329Y12894751D01*
X8613363Y12744432D01*
X8594607Y12608007D01*
X8053041Y12608007D01*
X8056040Y12773925D01*
X8113842Y12994370D01*
X8232331Y13191789D01*
X8291859Y13262484D01*
X8511708Y13447864D01*
X8762727Y13558122D01*
X9033199Y13591133D01*
X9311404Y13544775D01*
X9311404Y13544775D01*
G37*
X9311404Y13544775D02*
X9478231Y13477448D01*
X9712852Y13316149D01*
X9884396Y13098947D01*
X9990088Y12829374D01*
X9991128Y12825075D01*
X10017447Y12552601D01*
X9970179Y12297043D01*
X9859881Y12067924D01*
X9697113Y11874764D01*
X9492434Y11727085D01*
X9256402Y11634410D01*
X8999577Y11606261D01*
X8732516Y11652159D01*
X8701947Y11662500D01*
X8440822Y11795182D01*
X8242447Y11982001D01*
X8111334Y12217109D01*
X8051995Y12494657D01*
X8051202Y12506184D01*
X8053041Y12608007D01*
X8594607Y12608007D01*
X8630268Y12414281D01*
X8725284Y12268423D01*
X8865017Y12179511D01*
X9034828Y12156624D01*
X9220077Y12208844D01*
X9230052Y12213883D01*
X9372900Y12329380D01*
X9451627Y12481851D01*
X9463945Y12650435D01*
X9407564Y12814269D01*
X9308645Y12930282D01*
X9145257Y13021949D01*
X8976656Y13041354D01*
X8820220Y12996340D01*
X8693329Y12894751D01*
X8613363Y12744432D01*
X8594607Y12608007D01*
X8053041Y12608007D01*
X8056040Y12773925D01*
X8113842Y12994370D01*
X8232331Y13191789D01*
X8291859Y13262484D01*
X8511708Y13447864D01*
X8762727Y13558122D01*
X9033199Y13591133D01*
X9311404Y13544775D01*
G36*
X-7386338Y14448771D02*
X-7291225Y14415042D01*
X-7077616Y14285133D01*
X-6897906Y14094093D01*
X-6766100Y13863090D01*
X-6696203Y13613287D01*
X-6688667Y13504334D01*
X-6728252Y13248131D01*
X-6837814Y13002017D01*
X-7003568Y12788401D01*
X-7211726Y12629697D01*
X-7233959Y12617905D01*
X-7428814Y12547044D01*
X-7646775Y12511418D01*
X-7847202Y12516654D01*
X-7895167Y12526342D01*
X-8167613Y12635356D01*
X-8390620Y12804589D01*
X-8555420Y13023182D01*
X-8653245Y13280276D01*
X-8677404Y13495110D01*
X-8676168Y13504333D01*
X-8128000Y13504333D01*
X-8090025Y13318201D01*
X-7979610Y13173583D01*
X-7857986Y13099496D01*
X-7749994Y13055816D01*
X-7675065Y13045417D01*
X-7590788Y13068218D01*
X-7515619Y13098832D01*
X-7376338Y13197981D01*
X-7276958Y13346764D01*
X-7239159Y13512717D01*
X-7239159Y13512815D01*
X-7277574Y13670141D01*
X-7377453Y13811345D01*
X-7516503Y13907913D01*
X-7560034Y13923240D01*
X-7749472Y13937891D01*
X-7916222Y13881867D01*
X-8044150Y13767068D01*
X-8117123Y13605394D01*
X-8128000Y13504333D01*
X-8676168Y13504333D01*
X-8640290Y13771934D01*
X-8534394Y14014952D01*
X-8371522Y14216329D01*
X-8163477Y14368234D01*
X-7922062Y14462831D01*
X-7659081Y14492288D01*
X-7386338Y14448771D01*
X-7386338Y14448771D01*
G37*
X-7386338Y14448771D02*
X-7291225Y14415042D01*
X-7077616Y14285133D01*
X-6897906Y14094093D01*
X-6766100Y13863090D01*
X-6696203Y13613287D01*
X-6688667Y13504334D01*
X-6728252Y13248131D01*
X-6837814Y13002017D01*
X-7003568Y12788401D01*
X-7211726Y12629697D01*
X-7233959Y12617905D01*
X-7428814Y12547044D01*
X-7646775Y12511418D01*
X-7847202Y12516654D01*
X-7895167Y12526342D01*
X-8167613Y12635356D01*
X-8390620Y12804589D01*
X-8555420Y13023182D01*
X-8653245Y13280276D01*
X-8677404Y13495110D01*
X-8676168Y13504333D01*
X-8128000Y13504333D01*
X-8090025Y13318201D01*
X-7979610Y13173583D01*
X-7857986Y13099496D01*
X-7749994Y13055816D01*
X-7675065Y13045417D01*
X-7590788Y13068218D01*
X-7515619Y13098832D01*
X-7376338Y13197981D01*
X-7276958Y13346764D01*
X-7239159Y13512717D01*
X-7239159Y13512815D01*
X-7277574Y13670141D01*
X-7377453Y13811345D01*
X-7516503Y13907913D01*
X-7560034Y13923240D01*
X-7749472Y13937891D01*
X-7916222Y13881867D01*
X-8044150Y13767068D01*
X-8117123Y13605394D01*
X-8128000Y13504333D01*
X-8676168Y13504333D01*
X-8640290Y13771934D01*
X-8534394Y14014952D01*
X-8371522Y14216329D01*
X-8163477Y14368234D01*
X-7922062Y14462831D01*
X-7659081Y14492288D01*
X-7386338Y14448771D01*
G36*
X-1465079Y15023742D02*
X-1221549Y14897022D01*
X-1071063Y14767460D01*
X-910582Y14544102D01*
X-822358Y14295863D01*
X-803832Y14037507D01*
X-852450Y13783799D01*
X-965654Y13549501D01*
X-1140890Y13349378D01*
X-1339731Y13215620D01*
X-1542306Y13140905D01*
X-1764640Y13103839D01*
X-1967679Y13110042D01*
X-2010834Y13119009D01*
X-2277366Y13228172D01*
X-2498771Y13400888D01*
X-2665055Y13624337D01*
X-2766226Y13885701D01*
X-2791558Y14105481D01*
X-2243509Y14105481D01*
X-2207000Y13943184D01*
X-2111790Y13794908D01*
X-1980121Y13694969D01*
X-1976344Y13693295D01*
X-1866345Y13648758D01*
X-1790786Y13638037D01*
X-1706650Y13660763D01*
X-1634007Y13690362D01*
X-1470517Y13797568D01*
X-1376905Y13950924D01*
X-1354667Y14097000D01*
X-1391815Y14278770D01*
X-1492505Y14419998D01*
X-1640601Y14508783D01*
X-1819973Y14533226D01*
X-1922633Y14515907D01*
X-2068742Y14437212D01*
X-2182010Y14305784D01*
X-2240145Y14150137D01*
X-2243509Y14105481D01*
X-2791558Y14105481D01*
X-2793587Y14123078D01*
X-2764431Y14302150D01*
X-2688250Y14503725D01*
X-2580800Y14693495D01*
X-2471271Y14825004D01*
X-2246212Y14981818D01*
X-1993060Y15066783D01*
X-1727466Y15080543D01*
X-1465079Y15023742D01*
X-1465079Y15023742D01*
G37*
X-1465079Y15023742D02*
X-1221549Y14897022D01*
X-1071063Y14767460D01*
X-910582Y14544102D01*
X-822358Y14295863D01*
X-803832Y14037507D01*
X-852450Y13783799D01*
X-965654Y13549501D01*
X-1140890Y13349378D01*
X-1339731Y13215620D01*
X-1542306Y13140905D01*
X-1764640Y13103839D01*
X-1967679Y13110042D01*
X-2010834Y13119009D01*
X-2277366Y13228172D01*
X-2498771Y13400888D01*
X-2665055Y13624337D01*
X-2766226Y13885701D01*
X-2791558Y14105481D01*
X-2243509Y14105481D01*
X-2207000Y13943184D01*
X-2111790Y13794908D01*
X-1980121Y13694969D01*
X-1976344Y13693295D01*
X-1866345Y13648758D01*
X-1790786Y13638037D01*
X-1706650Y13660763D01*
X-1634007Y13690362D01*
X-1470517Y13797568D01*
X-1376905Y13950924D01*
X-1354667Y14097000D01*
X-1391815Y14278770D01*
X-1492505Y14419998D01*
X-1640601Y14508783D01*
X-1819973Y14533226D01*
X-1922633Y14515907D01*
X-2068742Y14437212D01*
X-2182010Y14305784D01*
X-2240145Y14150137D01*
X-2243509Y14105481D01*
X-2791558Y14105481D01*
X-2793587Y14123078D01*
X-2764431Y14302150D01*
X-2688250Y14503725D01*
X-2580800Y14693495D01*
X-2471271Y14825004D01*
X-2246212Y14981818D01*
X-1993060Y15066783D01*
X-1727466Y15080543D01*
X-1465079Y15023742D01*
G36*
X1972625Y15457314D02*
X2218777Y15356238D01*
X2389465Y15233241D01*
X2570767Y15024546D01*
X2680269Y14791713D01*
X2722647Y14546927D01*
X2702576Y14302377D01*
X2624734Y14070252D01*
X2493796Y13862737D01*
X2314440Y13692022D01*
X2091341Y13570294D01*
X1829176Y13509741D01*
X1726443Y13505263D01*
X1551032Y13522377D01*
X1381723Y13564735D01*
X1333500Y13583871D01*
X1090131Y13739442D01*
X906435Y13950058D01*
X789807Y14204163D01*
X748516Y14484303D01*
X1291813Y14484303D01*
X1327283Y14328013D01*
X1416100Y14196599D01*
X1543093Y14101237D01*
X1693093Y14053110D01*
X1850933Y14063395D01*
X2001442Y14143272D01*
X2009218Y14149917D01*
X2123737Y14295821D01*
X2169444Y14457714D01*
X2153452Y14618714D01*
X2082876Y14761943D01*
X1964829Y14870519D01*
X1806425Y14927564D01*
X1681089Y14928529D01*
X1516448Y14886744D01*
X1404154Y14797276D01*
X1324857Y14654287D01*
X1291813Y14484303D01*
X748516Y14484303D01*
X747646Y14490202D01*
X747609Y14499167D01*
X784690Y14776703D01*
X887877Y15016356D01*
X1045092Y15212722D01*
X1244255Y15360402D01*
X1473284Y15453995D01*
X1720101Y15488099D01*
X1972625Y15457314D01*
X1972625Y15457314D01*
G37*
X1972625Y15457314D02*
X2218777Y15356238D01*
X2389465Y15233241D01*
X2570767Y15024546D01*
X2680269Y14791713D01*
X2722647Y14546927D01*
X2702576Y14302377D01*
X2624734Y14070252D01*
X2493796Y13862737D01*
X2314440Y13692022D01*
X2091341Y13570294D01*
X1829176Y13509741D01*
X1726443Y13505263D01*
X1551032Y13522377D01*
X1381723Y13564735D01*
X1333500Y13583871D01*
X1090131Y13739442D01*
X906435Y13950058D01*
X789807Y14204163D01*
X748516Y14484303D01*
X1291813Y14484303D01*
X1327283Y14328013D01*
X1416100Y14196599D01*
X1543093Y14101237D01*
X1693093Y14053110D01*
X1850933Y14063395D01*
X2001442Y14143272D01*
X2009218Y14149917D01*
X2123737Y14295821D01*
X2169444Y14457714D01*
X2153452Y14618714D01*
X2082876Y14761943D01*
X1964829Y14870519D01*
X1806425Y14927564D01*
X1681089Y14928529D01*
X1516448Y14886744D01*
X1404154Y14797276D01*
X1324857Y14654287D01*
X1291813Y14484303D01*
X748516Y14484303D01*
X747646Y14490202D01*
X747609Y14499167D01*
X784690Y14776703D01*
X887877Y15016356D01*
X1045092Y15212722D01*
X1244255Y15360402D01*
X1473284Y15453995D01*
X1720101Y15488099D01*
X1972625Y15457314D01*
G36*
X7979788Y16012150D02*
X8199399Y15893267D01*
X8383885Y15725159D01*
X8522485Y15516592D01*
X8604436Y15276335D01*
X8618975Y15013155D01*
X8594866Y14864000D01*
X8491867Y14601891D01*
X8327587Y14387338D01*
X8114996Y14227218D01*
X7867066Y14128409D01*
X7596771Y14097787D01*
X7317080Y14142231D01*
X7265448Y14159192D01*
X7034977Y14284256D01*
X6849586Y14471640D01*
X6719082Y14706698D01*
X6653270Y14974781D01*
X6647263Y15082610D01*
X6648155Y15090501D01*
X7196666Y15090501D01*
X7231550Y14903537D01*
X7324926Y14761145D01*
X7459880Y14670997D01*
X7619498Y14640764D01*
X7786867Y14678116D01*
X7917135Y14763750D01*
X8036597Y14918043D01*
X8074469Y15086803D01*
X8029549Y15261177D01*
X7993095Y15323302D01*
X7855974Y15459965D01*
X7690182Y15524646D01*
X7514323Y15515600D01*
X7347002Y15431085D01*
X7298854Y15388369D01*
X7228038Y15290920D01*
X7199277Y15166018D01*
X7196666Y15090501D01*
X6648155Y15090501D01*
X6680391Y15375638D01*
X6783301Y15621071D01*
X6957656Y15821543D01*
X7205122Y15979691D01*
X7217833Y15985774D01*
X7478242Y16067171D01*
X7735815Y16073041D01*
X7979788Y16012150D01*
X7979788Y16012150D01*
G37*
X7979788Y16012150D02*
X8199399Y15893267D01*
X8383885Y15725159D01*
X8522485Y15516592D01*
X8604436Y15276335D01*
X8618975Y15013155D01*
X8594866Y14864000D01*
X8491867Y14601891D01*
X8327587Y14387338D01*
X8114996Y14227218D01*
X7867066Y14128409D01*
X7596771Y14097787D01*
X7317080Y14142231D01*
X7265448Y14159192D01*
X7034977Y14284256D01*
X6849586Y14471640D01*
X6719082Y14706698D01*
X6653270Y14974781D01*
X6647263Y15082610D01*
X6648155Y15090501D01*
X7196666Y15090501D01*
X7231550Y14903537D01*
X7324926Y14761145D01*
X7459880Y14670997D01*
X7619498Y14640764D01*
X7786867Y14678116D01*
X7917135Y14763750D01*
X8036597Y14918043D01*
X8074469Y15086803D01*
X8029549Y15261177D01*
X7993095Y15323302D01*
X7855974Y15459965D01*
X7690182Y15524646D01*
X7514323Y15515600D01*
X7347002Y15431085D01*
X7298854Y15388369D01*
X7228038Y15290920D01*
X7199277Y15166018D01*
X7196666Y15090501D01*
X6648155Y15090501D01*
X6680391Y15375638D01*
X6783301Y15621071D01*
X6957656Y15821543D01*
X7205122Y15979691D01*
X7217833Y15985774D01*
X7478242Y16067171D01*
X7735815Y16073041D01*
X7979788Y16012150D01*
G36*
X-11079231Y19152213D02*
X-10830672Y19037233D01*
X-10629089Y18855197D01*
X-10481636Y18611633D01*
X-10431182Y18471057D01*
X-10390645Y18188494D01*
X-10433152Y17914730D01*
X-10557079Y17658259D01*
X-10597172Y17602292D01*
X-10792369Y17412729D01*
X-11029778Y17286814D01*
X-11292167Y17227903D01*
X-11562303Y17239353D01*
X-11822955Y17324522D01*
X-11876537Y17353039D01*
X-12099317Y17522166D01*
X-12254821Y17726220D01*
X-12346330Y17953329D01*
X-12376054Y18183343D01*
X-11825057Y18183343D01*
X-11790456Y18050127D01*
X-11685966Y17896419D01*
X-11538667Y17804147D01*
X-11368615Y17778035D01*
X-11195868Y17822807D01*
X-11097694Y17886978D01*
X-10977345Y18033672D01*
X-10938784Y18202205D01*
X-10981577Y18390972D01*
X-11083329Y18537812D01*
X-11228365Y18625731D01*
X-11395808Y18651051D01*
X-11564778Y18610091D01*
X-11697343Y18517112D01*
X-11801926Y18359788D01*
X-11825057Y18183343D01*
X-12376054Y18183343D01*
X-12377124Y18191622D01*
X-12350486Y18429225D01*
X-12269695Y18654267D01*
X-12138033Y18854877D01*
X-11958780Y19019181D01*
X-11735218Y19135308D01*
X-11470626Y19191385D01*
X-11367614Y19194611D01*
X-11079231Y19152213D01*
X-11079231Y19152213D01*
G37*
X-11079231Y19152213D02*
X-10830672Y19037233D01*
X-10629089Y18855197D01*
X-10481636Y18611633D01*
X-10431182Y18471057D01*
X-10390645Y18188494D01*
X-10433152Y17914730D01*
X-10557079Y17658259D01*
X-10597172Y17602292D01*
X-10792369Y17412729D01*
X-11029778Y17286814D01*
X-11292167Y17227903D01*
X-11562303Y17239353D01*
X-11822955Y17324522D01*
X-11876537Y17353039D01*
X-12099317Y17522166D01*
X-12254821Y17726220D01*
X-12346330Y17953329D01*
X-12376054Y18183343D01*
X-11825057Y18183343D01*
X-11790456Y18050127D01*
X-11685966Y17896419D01*
X-11538667Y17804147D01*
X-11368615Y17778035D01*
X-11195868Y17822807D01*
X-11097694Y17886978D01*
X-10977345Y18033672D01*
X-10938784Y18202205D01*
X-10981577Y18390972D01*
X-11083329Y18537812D01*
X-11228365Y18625731D01*
X-11395808Y18651051D01*
X-11564778Y18610091D01*
X-11697343Y18517112D01*
X-11801926Y18359788D01*
X-11825057Y18183343D01*
X-12376054Y18183343D01*
X-12377124Y18191622D01*
X-12350486Y18429225D01*
X-12269695Y18654267D01*
X-12138033Y18854877D01*
X-11958780Y19019181D01*
X-11735218Y19135308D01*
X-11470626Y19191385D01*
X-11367614Y19194611D01*
X-11079231Y19152213D01*
G36*
X11101119Y20749191D02*
X11336379Y20648073D01*
X11529681Y20494115D01*
X11676817Y20299533D01*
X11773577Y20076542D01*
X11815753Y19837358D01*
X11799136Y19594197D01*
X11719516Y19359274D01*
X11572686Y19144805D01*
X11436330Y19019945D01*
X11191965Y18874436D01*
X10937105Y18808345D01*
X10658935Y18819279D01*
X10521292Y18849072D01*
X10367794Y18921032D01*
X10202799Y19047732D01*
X10048973Y19206443D01*
X9928978Y19374435D01*
X9872815Y19499412D01*
X9829308Y19781530D01*
X9839563Y19866220D01*
X10392002Y19866220D01*
X10396183Y19705185D01*
X10454576Y19567120D01*
X10586284Y19421577D01*
X10742761Y19352682D01*
X10909986Y19362062D01*
X11073939Y19451345D01*
X11116733Y19490267D01*
X11232577Y19653913D01*
X11268761Y19825675D01*
X11224892Y19993416D01*
X11136923Y20111590D01*
X10989463Y20211057D01*
X10833096Y20239833D01*
X10681495Y20208827D01*
X10548330Y20128950D01*
X10447275Y20011111D01*
X10392002Y19866220D01*
X9839563Y19866220D01*
X9861779Y20049685D01*
X9961815Y20292549D01*
X10120998Y20498796D01*
X10330914Y20657098D01*
X10583148Y20756129D01*
X10828109Y20785253D01*
X11101119Y20749191D01*
X11101119Y20749191D01*
G37*
X11101119Y20749191D02*
X11336379Y20648073D01*
X11529681Y20494115D01*
X11676817Y20299533D01*
X11773577Y20076542D01*
X11815753Y19837358D01*
X11799136Y19594197D01*
X11719516Y19359274D01*
X11572686Y19144805D01*
X11436330Y19019945D01*
X11191965Y18874436D01*
X10937105Y18808345D01*
X10658935Y18819279D01*
X10521292Y18849072D01*
X10367794Y18921032D01*
X10202799Y19047732D01*
X10048973Y19206443D01*
X9928978Y19374435D01*
X9872815Y19499412D01*
X9829308Y19781530D01*
X9839563Y19866220D01*
X10392002Y19866220D01*
X10396183Y19705185D01*
X10454576Y19567120D01*
X10586284Y19421577D01*
X10742761Y19352682D01*
X10909986Y19362062D01*
X11073939Y19451345D01*
X11116733Y19490267D01*
X11232577Y19653913D01*
X11268761Y19825675D01*
X11224892Y19993416D01*
X11136923Y20111590D01*
X10989463Y20211057D01*
X10833096Y20239833D01*
X10681495Y20208827D01*
X10548330Y20128950D01*
X10447275Y20011111D01*
X10392002Y19866220D01*
X9839563Y19866220D01*
X9861779Y20049685D01*
X9961815Y20292549D01*
X10120998Y20498796D01*
X10330914Y20657098D01*
X10583148Y20756129D01*
X10828109Y20785253D01*
X11101119Y20749191D01*
G36*
X-8602687Y22150453D02*
X-8376206Y22029915D01*
X-8184712Y21848421D01*
X-8075084Y21677659D01*
X-7979203Y21408604D01*
X-7959172Y21147253D01*
X-8006181Y20902414D01*
X-8111420Y20682898D01*
X-8266080Y20497515D01*
X-8461352Y20355073D01*
X-8688424Y20264383D01*
X-8938489Y20234254D01*
X-9202736Y20273497D01*
X-9400993Y20351750D01*
X-9630099Y20511392D01*
X-9798465Y20719080D01*
X-9902571Y20960458D01*
X-9928442Y21146115D01*
X-9393144Y21146115D01*
X-9369420Y21064003D01*
X-9300275Y20976717D01*
X-9259483Y20935016D01*
X-9148777Y20838943D01*
X-9047056Y20795107D01*
X-8933311Y20785667D01*
X-8789158Y20803142D01*
X-8676268Y20868889D01*
X-8632744Y20909410D01*
X-8544093Y21023032D01*
X-8511102Y21149972D01*
X-8509000Y21209977D01*
X-8521359Y21336082D01*
X-8570251Y21436874D01*
X-8658349Y21536149D01*
X-8756931Y21626073D01*
X-8836775Y21665303D01*
X-8933805Y21667805D01*
X-8982309Y21662078D01*
X-9144993Y21613216D01*
X-9259455Y21536121D01*
X-9343782Y21405746D01*
X-9385411Y21258975D01*
X-9393144Y21146115D01*
X-9928442Y21146115D01*
X-9938901Y21221171D01*
X-9903935Y21486862D01*
X-9794157Y21743177D01*
X-9756311Y21801667D01*
X-9570718Y22001826D01*
X-9348171Y22135722D01*
X-9103058Y22204418D01*
X-8849767Y22208975D01*
X-8602687Y22150453D01*
X-8602687Y22150453D01*
G37*
X-8602687Y22150453D02*
X-8376206Y22029915D01*
X-8184712Y21848421D01*
X-8075084Y21677659D01*
X-7979203Y21408604D01*
X-7959172Y21147253D01*
X-8006181Y20902414D01*
X-8111420Y20682898D01*
X-8266080Y20497515D01*
X-8461352Y20355073D01*
X-8688424Y20264383D01*
X-8938489Y20234254D01*
X-9202736Y20273497D01*
X-9400993Y20351750D01*
X-9630099Y20511392D01*
X-9798465Y20719080D01*
X-9902571Y20960458D01*
X-9928442Y21146115D01*
X-9393144Y21146115D01*
X-9369420Y21064003D01*
X-9300275Y20976717D01*
X-9259483Y20935016D01*
X-9148777Y20838943D01*
X-9047056Y20795107D01*
X-8933311Y20785667D01*
X-8789158Y20803142D01*
X-8676268Y20868889D01*
X-8632744Y20909410D01*
X-8544093Y21023032D01*
X-8511102Y21149972D01*
X-8509000Y21209977D01*
X-8521359Y21336082D01*
X-8570251Y21436874D01*
X-8658349Y21536149D01*
X-8756931Y21626073D01*
X-8836775Y21665303D01*
X-8933805Y21667805D01*
X-8982309Y21662078D01*
X-9144993Y21613216D01*
X-9259455Y21536121D01*
X-9343782Y21405746D01*
X-9385411Y21258975D01*
X-9393144Y21146115D01*
X-9928442Y21146115D01*
X-9938901Y21221171D01*
X-9903935Y21486862D01*
X-9794157Y21743177D01*
X-9756311Y21801667D01*
X-9570718Y22001826D01*
X-9348171Y22135722D01*
X-9103058Y22204418D01*
X-8849767Y22208975D01*
X-8602687Y22150453D01*
G36*
X-1856378Y22895577D02*
X-1624252Y22817734D01*
X-1416738Y22686797D01*
X-1246023Y22507441D01*
X-1124295Y22284342D01*
X-1063741Y22022177D01*
X-1059264Y21919443D01*
X-1100191Y21635699D01*
X-1215864Y21384207D01*
X-1399312Y21176342D01*
X-1593731Y21047287D01*
X-1796306Y20972572D01*
X-2018640Y20935505D01*
X-2221679Y20941709D01*
X-2264834Y20950676D01*
X-2528337Y21057364D01*
X-2752765Y21235655D01*
X-2804121Y21292236D01*
X-2960345Y21534181D01*
X-3037893Y21794850D01*
X-3037378Y21937148D01*
X-2497509Y21937148D01*
X-2461000Y21774851D01*
X-2365790Y21626574D01*
X-2234121Y21526636D01*
X-2230344Y21524962D01*
X-2120345Y21480425D01*
X-2044786Y21469703D01*
X-1960650Y21492430D01*
X-1888007Y21522028D01*
X-1724517Y21629235D01*
X-1630905Y21782590D01*
X-1608667Y21928667D01*
X-1645815Y22110437D01*
X-1746505Y22251664D01*
X-1894601Y22340449D01*
X-2073973Y22364893D01*
X-2176633Y22347574D01*
X-2322742Y22268878D01*
X-2436010Y22137450D01*
X-2494145Y21981803D01*
X-2497509Y21937148D01*
X-3037378Y21937148D01*
X-3036924Y22062086D01*
X-2957597Y22323736D01*
X-2800072Y22567642D01*
X-2787241Y22582465D01*
X-2578547Y22763768D01*
X-2345713Y22873270D01*
X-2100927Y22915647D01*
X-1856378Y22895577D01*
X-1856378Y22895577D01*
G37*
X-1856378Y22895577D02*
X-1624252Y22817734D01*
X-1416738Y22686797D01*
X-1246023Y22507441D01*
X-1124295Y22284342D01*
X-1063741Y22022177D01*
X-1059264Y21919443D01*
X-1100191Y21635699D01*
X-1215864Y21384207D01*
X-1399312Y21176342D01*
X-1593731Y21047287D01*
X-1796306Y20972572D01*
X-2018640Y20935505D01*
X-2221679Y20941709D01*
X-2264834Y20950676D01*
X-2528337Y21057364D01*
X-2752765Y21235655D01*
X-2804121Y21292236D01*
X-2960345Y21534181D01*
X-3037893Y21794850D01*
X-3037378Y21937148D01*
X-2497509Y21937148D01*
X-2461000Y21774851D01*
X-2365790Y21626574D01*
X-2234121Y21526636D01*
X-2230344Y21524962D01*
X-2120345Y21480425D01*
X-2044786Y21469703D01*
X-1960650Y21492430D01*
X-1888007Y21522028D01*
X-1724517Y21629235D01*
X-1630905Y21782590D01*
X-1608667Y21928667D01*
X-1645815Y22110437D01*
X-1746505Y22251664D01*
X-1894601Y22340449D01*
X-2073973Y22364893D01*
X-2176633Y22347574D01*
X-2322742Y22268878D01*
X-2436010Y22137450D01*
X-2494145Y21981803D01*
X-2497509Y21937148D01*
X-3037378Y21937148D01*
X-3036924Y22062086D01*
X-2957597Y22323736D01*
X-2800072Y22567642D01*
X-2787241Y22582465D01*
X-2578547Y22763768D01*
X-2345713Y22873270D01*
X-2100927Y22915647D01*
X-1856378Y22895577D01*
G36*
X700734Y23190610D02*
X827229Y23140803D01*
X1074439Y22984424D01*
X1253007Y22779012D01*
X1360893Y22527809D01*
X1396070Y22236943D01*
X1357471Y21954079D01*
X1251571Y21709326D01*
X1089796Y21509649D01*
X883576Y21362015D01*
X644337Y21273389D01*
X383509Y21250736D01*
X112520Y21301024D01*
X-37899Y21362885D01*
X-269964Y21521184D01*
X-439215Y21725230D01*
X-543219Y21961417D01*
X-579539Y22216140D01*
X-566794Y22314051D01*
X-19918Y22314051D01*
X-18968Y22155817D01*
X39712Y22013911D01*
X142747Y21899313D01*
X276762Y21823004D01*
X428382Y21795963D01*
X584234Y21829170D01*
X722923Y21925410D01*
X807919Y22031650D01*
X842542Y22148269D01*
X846666Y22236729D01*
X812178Y22421644D01*
X720282Y22561568D01*
X588330Y22651253D01*
X433672Y22685450D01*
X273661Y22658911D01*
X125648Y22566386D01*
X50237Y22477636D01*
X-19918Y22314051D01*
X-566794Y22314051D01*
X-545740Y22475792D01*
X-439389Y22726766D01*
X-312742Y22898684D01*
X-89866Y23090234D01*
X159465Y23204040D01*
X426062Y23238149D01*
X700734Y23190610D01*
X700734Y23190610D01*
G37*
X700734Y23190610D02*
X827229Y23140803D01*
X1074439Y22984424D01*
X1253007Y22779012D01*
X1360893Y22527809D01*
X1396070Y22236943D01*
X1357471Y21954079D01*
X1251571Y21709326D01*
X1089796Y21509649D01*
X883576Y21362015D01*
X644337Y21273389D01*
X383509Y21250736D01*
X112520Y21301024D01*
X-37899Y21362885D01*
X-269964Y21521184D01*
X-439215Y21725230D01*
X-543219Y21961417D01*
X-579539Y22216140D01*
X-566794Y22314051D01*
X-19918Y22314051D01*
X-18968Y22155817D01*
X39712Y22013911D01*
X142747Y21899313D01*
X276762Y21823004D01*
X428382Y21795963D01*
X584234Y21829170D01*
X722923Y21925410D01*
X807919Y22031650D01*
X842542Y22148269D01*
X846666Y22236729D01*
X812178Y22421644D01*
X720282Y22561568D01*
X588330Y22651253D01*
X433672Y22685450D01*
X273661Y22658911D01*
X125648Y22566386D01*
X50237Y22477636D01*
X-19918Y22314051D01*
X-566794Y22314051D01*
X-545740Y22475792D01*
X-439389Y22726766D01*
X-312742Y22898684D01*
X-89866Y23090234D01*
X159465Y23204040D01*
X426062Y23238149D01*
X700734Y23190610D01*
G36*
X7647674Y23948265D02*
X7892837Y23840776D01*
X8091417Y23678794D01*
X8256270Y23443277D01*
X8346663Y23182035D01*
X8362159Y22909935D01*
X8302318Y22641846D01*
X8166703Y22392633D01*
X8130696Y22346663D01*
X7939954Y22179178D01*
X7702950Y22066932D01*
X7441361Y22014641D01*
X7176862Y22027019D01*
X6963833Y22092871D01*
X6726525Y22247144D01*
X6534803Y22466795D01*
X6468456Y22580414D01*
X6420916Y22696222D01*
X6398515Y22823034D01*
X6396648Y22992432D01*
X6396936Y22999138D01*
X6942666Y22999138D01*
X6978163Y22815521D01*
X7073094Y22675587D01*
X7210122Y22587321D01*
X7371907Y22558707D01*
X7541112Y22597730D01*
X7655973Y22670645D01*
X7776385Y22817847D01*
X7815103Y22986919D01*
X7773902Y23170303D01*
X7673752Y23321133D01*
X7538145Y23409617D01*
X7384690Y23439382D01*
X7230997Y23414053D01*
X7094676Y23337257D01*
X6993336Y23212620D01*
X6944588Y23043768D01*
X6942666Y22999138D01*
X6396936Y22999138D01*
X6399316Y23054551D01*
X6413971Y23233934D01*
X6442585Y23361988D01*
X6494875Y23471941D01*
X6542497Y23544247D01*
X6656764Y23675044D01*
X6803090Y23802466D01*
X6877156Y23853832D01*
X7121141Y23957488D01*
X7384212Y23988068D01*
X7647674Y23948265D01*
X7647674Y23948265D01*
G37*
X7647674Y23948265D02*
X7892837Y23840776D01*
X8091417Y23678794D01*
X8256270Y23443277D01*
X8346663Y23182035D01*
X8362159Y22909935D01*
X8302318Y22641846D01*
X8166703Y22392633D01*
X8130696Y22346663D01*
X7939954Y22179178D01*
X7702950Y22066932D01*
X7441361Y22014641D01*
X7176862Y22027019D01*
X6963833Y22092871D01*
X6726525Y22247144D01*
X6534803Y22466795D01*
X6468456Y22580414D01*
X6420916Y22696222D01*
X6398515Y22823034D01*
X6396648Y22992432D01*
X6396936Y22999138D01*
X6942666Y22999138D01*
X6978163Y22815521D01*
X7073094Y22675587D01*
X7210122Y22587321D01*
X7371907Y22558707D01*
X7541112Y22597730D01*
X7655973Y22670645D01*
X7776385Y22817847D01*
X7815103Y22986919D01*
X7773902Y23170303D01*
X7673752Y23321133D01*
X7538145Y23409617D01*
X7384690Y23439382D01*
X7230997Y23414053D01*
X7094676Y23337257D01*
X6993336Y23212620D01*
X6944588Y23043768D01*
X6942666Y22999138D01*
X6396936Y22999138D01*
X6399316Y23054551D01*
X6413971Y23233934D01*
X6442585Y23361988D01*
X6494875Y23471941D01*
X6542497Y23544247D01*
X6656764Y23675044D01*
X6803090Y23802466D01*
X6877156Y23853832D01*
X7121141Y23957488D01*
X7384212Y23988068D01*
X7647674Y23948265D01*
G04 #@! TD*
D11*
G04 #@! TO.P,,1*
G04 #@! TO.N,N/C*
X-8962862Y21225514D03*
G04 #@! TD*
G04 #@! TO.P,,2*
G04 #@! TO.N,N/C*
X-11400394Y18221701D03*
G04 #@! TD*
G04 #@! TO.P,,3*
G04 #@! TO.N,N/C*
X-2071156Y21932159D03*
G04 #@! TD*
G04 #@! TO.P,,4*
G04 #@! TO.N,N/C*
X403648Y22239665D03*
G04 #@! TD*
G04 #@! TO.P,,5*
G04 #@! TO.N,N/C*
X7356651Y23002459D03*
G04 #@! TD*
G04 #@! TO.P,,6*
G04 #@! TO.N,N/C*
X10805660Y19803298D03*
G04 #@! TD*
G04 #@! TO.P,,7*
G04 #@! TO.N,N/C*
X7599363Y15102572D03*
G04 #@! TD*
G04 #@! TO.P,,8*
G04 #@! TO.N,N/C*
X1710814Y14500530D03*
G04 #@! TD*
G04 #@! TO.P,,9*
G04 #@! TO.N,N/C*
X-1813644Y14099258D03*
G04 #@! TD*
G04 #@! TO.P,,10*
G04 #@! TO.N,N/C*
X-7704923Y13506641D03*
G04 #@! TD*
G04 #@! TO.P,,11*
G04 #@! TO.N,N/C*
X-8665003Y10097940D03*
G04 #@! TD*
G04 #@! TO.P,,12*
G04 #@! TO.N,N/C*
X-6165332Y10097929D03*
G04 #@! TD*
G04 #@! TO.P,,13*
G04 #@! TO.N,N/C*
X6465635Y12607384D03*
G04 #@! TD*
G04 #@! TO.P,,14*
G04 #@! TO.N,N/C*
X8997957Y12605169D03*
G04 #@! TD*
G04 #@! TO.P,,15*
G04 #@! TO.N,N/C*
X3921232Y5075817D03*
G04 #@! TD*
G04 #@! TO.P,,16*
G04 #@! TO.N,N/C*
X6467766Y5066208D03*
G04 #@! TD*
G04 #@! TO.P,,17*
G04 #@! TO.N,N/C*
X9004692Y2548502D03*
G04 #@! TD*
G04 #@! TO.P,,18*
G04 #@! TO.N,N/C*
X3930843Y2538891D03*
G04 #@! TD*
G04 #@! TO.P,,19*
G04 #@! TO.N,N/C*
X3940451Y40405D03*
G04 #@! TD*
G04 #@! TO.P,,20*
G04 #@! TO.N,N/C*
X3932487Y-2484806D03*
G04 #@! TD*
G04 #@! TO.P,,21*
G04 #@! TO.N,N/C*
X-3625191Y2539505D03*
G04 #@! TD*
G04 #@! TO.P,,22*
G04 #@! TO.N,N/C*
X-6168848Y2545135D03*
G04 #@! TD*
G04 #@! TO.P,,23*
G04 #@! TO.N,N/C*
X-8663091Y42929D03*
G04 #@! TD*
G04 #@! TO.P,,24*
G04 #@! TO.N,N/C*
X-3630819Y-2486454D03*
G04 #@! TD*
G04 #@! TO.P,,25*
G04 #@! TO.N,N/C*
X-3617912Y36617D03*
G04 #@! TD*
G04 #@! TO.P,,26*
G04 #@! TO.N,N/C*
X-6098565Y-6056152D03*
G04 #@! TD*
G04 #@! TO.P,,27*
G04 #@! TO.N,N/C*
X-3598009Y-6062950D03*
G04 #@! TD*
G04 #@! TO.P,,28*
G04 #@! TO.N,N/C*
X-1070274Y-6062950D03*
G04 #@! TD*
G04 #@! TO.P,,29*
G04 #@! TO.N,N/C*
X1443871Y-6056152D03*
G04 #@! TD*
G04 #@! TO.P,,30*
G04 #@! TO.N,N/C*
X3958015Y-6056152D03*
G04 #@! TD*
G04 #@! TO.P,,31*
G04 #@! TO.N,N/C*
X6465368Y-6056152D03*
G04 #@! TD*
G04 #@! TO.P,,32*
G04 #@! TO.N,N/C*
X-6105360Y-11084446D03*
G04 #@! TD*
G04 #@! TO.P,,33*
G04 #@! TO.N,N/C*
X-1056684Y-11091240D03*
G04 #@! TD*
G04 #@! TO.P,,34*
G04 #@! TO.N,N/C*
X1430281Y-11098034D03*
G04 #@! TD*
G04 #@! TO.P,,35*
G04 #@! TO.N,N/C*
X3958017Y-11091240D03*
G04 #@! TD*
G04 #@! TO.P,,36*
G04 #@! TO.N,N/C*
X6457747Y-11090416D03*
G04 #@! TD*
G04 #@! TO.P,,37*
G04 #@! TO.N,N/C*
X-9862989Y-13714108D03*
G04 #@! TD*
G04 #@! TO.P,,38*
G04 #@! TO.N,N/C*
X-3591215Y-13707310D03*
G04 #@! TD*
G04 #@! TO.P,,39*
G04 #@! TO.N,N/C*
X-1049889Y-13727695D03*
G04 #@! TD*
G04 #@! TO.P,,40*
G04 #@! TO.N,N/C*
X1430281Y-13727699D03*
G04 #@! TD*
G04 #@! TO.P,,41*
G04 #@! TO.N,N/C*
X3917248Y-13741283D03*
G04 #@! TD*
G04 #@! TO.P,,42*
G04 #@! TO.N,N/C*
X-6110671Y-16231403D03*
G04 #@! TD*
G04 #@! TO.P,,43*
G04 #@! TO.N,N/C*
X-3603057Y-16238197D03*
G04 #@! TD*
G04 #@! TO.P,,44*
G04 #@! TO.N,N/C*
X-1045748Y-16243824D03*
G04 #@! TD*
G04 #@! TO.P,,45*
G04 #@! TO.N,N/C*
X9009495Y-16233391D03*
G04 #@! TD*
G04 #@! TO.P,,46*
G04 #@! TO.N,N/C*
X8991100Y-18653011D03*
G04 #@! TD*
G04 #@! TO.P,,47*
G04 #@! TO.N,N/C*
X8989933Y-21170719D03*
G04 #@! TD*
G04 #@! TO.P,,48*
G04 #@! TO.N,N/C*
X8992268Y-23713272D03*
G04 #@! TD*
G04 #@! TO.P,,49*
G04 #@! TO.N,N/C*
X3951227Y-21391258D03*
G04 #@! TD*
G04 #@! TO.P,,50*
G04 #@! TO.N,N/C*
X3951227Y-23928185D03*
G04 #@! TD*
G04 #@! TO.P,,51*
G04 #@! TO.N,N/C*
X1443613Y-23934975D03*
G04 #@! TD*
G04 #@! TO.P,,52*
G04 #@! TO.N,N/C*
X-1094961Y-23930653D03*
G04 #@! TD*
G04 #@! TO.P,,53*
G04 #@! TO.N,N/C*
X-3593447Y-23935459D03*
G04 #@! TD*
G04 #@! TO.P,,54*
G04 #@! TO.N,N/C*
X-6101543Y-23925850D03*
G04 #@! TD*
G04 #@! TO.P,,55*
G04 #@! TO.N,N/C*
X-6119597Y-21394550D03*
G04 #@! TD*
G04 #@! TO.P,,56*
G04 #@! TO.N,N/C*
X-3597428Y-21406975D03*
G04 #@! TD*
G04 #@! TO.P,,57*
G04 #@! TO.N,N/C*
X-6113968Y-18872383D03*
G04 #@! TD*
G04 #@! TO.P,,58*
G04 #@! TO.N,N/C*
X-3601892Y-18866756D03*
G04 #@! TD*
G04 #@! TO.P,,59*
G04 #@! TO.N,N/C*
X-1098941Y-18881310D03*
G04 #@! TD*
G04 #@! TO.P,,60*
G04 #@! TO.N,N/C*
X-3590932Y-11094070D03*
G04 #@! TD*
G04 #@! TO.P,,61*
G04 #@! TO.N,N/C*
X-6096584Y-13716652D03*
G04 #@! TD*
G04 #@! TO.P,,62*
G04 #@! TO.N,N/C*
X-3607637Y5042326D03*
G04 #@! TD*
M02*
